G04 #@! TF.GenerationSoftware,KiCad,Pcbnew,(5.1.4)-1*
G04 #@! TF.CreationDate,2019-11-29T16:32:21-05:00*
G04 #@! TF.ProjectId,Feather-8bit-counter,46656174-6865-4722-9d38-6269742d636f,rev?*
G04 #@! TF.SameCoordinates,Original*
G04 #@! TF.FileFunction,Legend,Bot*
G04 #@! TF.FilePolarity,Positive*
%FSLAX46Y46*%
G04 Gerber Fmt 4.6, Leading zero omitted, Abs format (unit mm)*
G04 Created by KiCad (PCBNEW (5.1.4)-1) date 2019-11-29 16:32:21*
%MOMM*%
%LPD*%
G04 APERTURE LIST*
%ADD10C,0.125000*%
%ADD11C,0.150000*%
%ADD12C,0.100000*%
G04 APERTURE END LIST*
D10*
X145709081Y-64222173D02*
X145470986Y-64222173D01*
X145756700Y-64365030D02*
X145590034Y-63865030D01*
X145423367Y-64365030D01*
X145090034Y-64103125D02*
X145018605Y-64126935D01*
X144994796Y-64150744D01*
X144970986Y-64198363D01*
X144970986Y-64269792D01*
X144994796Y-64317411D01*
X145018605Y-64341220D01*
X145066224Y-64365030D01*
X145256700Y-64365030D01*
X145256700Y-63865030D01*
X145090034Y-63865030D01*
X145042415Y-63888840D01*
X145018605Y-63912649D01*
X144994796Y-63960268D01*
X144994796Y-64007887D01*
X145018605Y-64055506D01*
X145042415Y-64079316D01*
X145090034Y-64103125D01*
X145256700Y-64103125D01*
X144804320Y-63865030D02*
X144685272Y-64365030D01*
X144590034Y-64007887D01*
X144494796Y-64365030D01*
X144375748Y-63865030D01*
X145542415Y-65240030D02*
X145709081Y-65001935D01*
X145828129Y-65240030D02*
X145828129Y-64740030D01*
X145637653Y-64740030D01*
X145590034Y-64763840D01*
X145566224Y-64787649D01*
X145542415Y-64835268D01*
X145542415Y-64906697D01*
X145566224Y-64954316D01*
X145590034Y-64978125D01*
X145637653Y-65001935D01*
X145828129Y-65001935D01*
X145137653Y-65216220D02*
X145185272Y-65240030D01*
X145280510Y-65240030D01*
X145328129Y-65216220D01*
X145351939Y-65168601D01*
X145351939Y-64978125D01*
X145328129Y-64930506D01*
X145280510Y-64906697D01*
X145185272Y-64906697D01*
X145137653Y-64930506D01*
X145113843Y-64978125D01*
X145113843Y-65025744D01*
X145351939Y-65073363D01*
X144947177Y-64906697D02*
X144828129Y-65240030D01*
X144709081Y-64906697D01*
X144256700Y-65240030D02*
X144542415Y-65240030D01*
X144399558Y-65240030D02*
X144399558Y-64740030D01*
X144447177Y-64811459D01*
X144494796Y-64859078D01*
X144542415Y-64882887D01*
X146625748Y-66115030D02*
X146911462Y-66115030D01*
X146768605Y-66115030D02*
X146768605Y-65615030D01*
X146816224Y-65686459D01*
X146863843Y-65734078D01*
X146911462Y-65757887D01*
X146149558Y-66115030D02*
X146435272Y-66115030D01*
X146292415Y-66115030D02*
X146292415Y-65615030D01*
X146340034Y-65686459D01*
X146387653Y-65734078D01*
X146435272Y-65757887D01*
X145578129Y-65591220D02*
X146006700Y-66234078D01*
X145435272Y-65662649D02*
X145411462Y-65638840D01*
X145363843Y-65615030D01*
X145244796Y-65615030D01*
X145197177Y-65638840D01*
X145173367Y-65662649D01*
X145149558Y-65710268D01*
X145149558Y-65757887D01*
X145173367Y-65829316D01*
X145459081Y-66115030D01*
X145149558Y-66115030D01*
X144911462Y-66115030D02*
X144816224Y-66115030D01*
X144768605Y-66091220D01*
X144744796Y-66067411D01*
X144697177Y-65995982D01*
X144673367Y-65900744D01*
X144673367Y-65710268D01*
X144697177Y-65662649D01*
X144720986Y-65638840D01*
X144768605Y-65615030D01*
X144863843Y-65615030D01*
X144911462Y-65638840D01*
X144935272Y-65662649D01*
X144959081Y-65710268D01*
X144959081Y-65829316D01*
X144935272Y-65876935D01*
X144911462Y-65900744D01*
X144863843Y-65924554D01*
X144768605Y-65924554D01*
X144720986Y-65900744D01*
X144697177Y-65876935D01*
X144673367Y-65829316D01*
X144101939Y-65591220D02*
X144530510Y-66234078D01*
X143673367Y-66115030D02*
X143959081Y-66115030D01*
X143816224Y-66115030D02*
X143816224Y-65615030D01*
X143863843Y-65686459D01*
X143911462Y-65734078D01*
X143959081Y-65757887D01*
X143435272Y-66115030D02*
X143340034Y-66115030D01*
X143292415Y-66091220D01*
X143268605Y-66067411D01*
X143220986Y-65995982D01*
X143197177Y-65900744D01*
X143197177Y-65710268D01*
X143220986Y-65662649D01*
X143244796Y-65638840D01*
X143292415Y-65615030D01*
X143387653Y-65615030D01*
X143435272Y-65638840D01*
X143459081Y-65662649D01*
X143482891Y-65710268D01*
X143482891Y-65829316D01*
X143459081Y-65876935D01*
X143435272Y-65900744D01*
X143387653Y-65924554D01*
X143292415Y-65924554D01*
X143244796Y-65900744D01*
X143220986Y-65876935D01*
X143197177Y-65829316D01*
D11*
X145249017Y-52733990D02*
X145368064Y-52674466D01*
X145427588Y-52614942D01*
X145487112Y-52495895D01*
X145487112Y-52436371D01*
X145427588Y-52317323D01*
X145368064Y-52257800D01*
X145249017Y-52198276D01*
X145010921Y-52198276D01*
X144891874Y-52257800D01*
X144832350Y-52317323D01*
X144772826Y-52436371D01*
X144772826Y-52495895D01*
X144832350Y-52614942D01*
X144891874Y-52674466D01*
X145010921Y-52733990D01*
X145249017Y-52733990D01*
X145368064Y-52793514D01*
X145427588Y-52853038D01*
X145487112Y-52972085D01*
X145487112Y-53210180D01*
X145427588Y-53329228D01*
X145368064Y-53388752D01*
X145249017Y-53448276D01*
X145010921Y-53448276D01*
X144891874Y-53388752D01*
X144832350Y-53329228D01*
X144772826Y-53210180D01*
X144772826Y-52972085D01*
X144832350Y-52853038D01*
X144891874Y-52793514D01*
X145010921Y-52733990D01*
X144237112Y-52972085D02*
X143284731Y-52972085D01*
X142689493Y-53448276D02*
X142689493Y-52198276D01*
X142689493Y-52674466D02*
X142570445Y-52614942D01*
X142332350Y-52614942D01*
X142213302Y-52674466D01*
X142153779Y-52733990D01*
X142094255Y-52853038D01*
X142094255Y-53210180D01*
X142153779Y-53329228D01*
X142213302Y-53388752D01*
X142332350Y-53448276D01*
X142570445Y-53448276D01*
X142689493Y-53388752D01*
X141558540Y-53448276D02*
X141558540Y-52614942D01*
X141558540Y-52198276D02*
X141618064Y-52257800D01*
X141558540Y-52317323D01*
X141499017Y-52257800D01*
X141558540Y-52198276D01*
X141558540Y-52317323D01*
X141141874Y-52614942D02*
X140665683Y-52614942D01*
X140963302Y-52198276D02*
X140963302Y-53269704D01*
X140903779Y-53388752D01*
X140784731Y-53448276D01*
X140665683Y-53448276D01*
X138760921Y-53388752D02*
X138879969Y-53448276D01*
X139118064Y-53448276D01*
X139237112Y-53388752D01*
X139296636Y-53329228D01*
X139356160Y-53210180D01*
X139356160Y-52853038D01*
X139296636Y-52733990D01*
X139237112Y-52674466D01*
X139118064Y-52614942D01*
X138879969Y-52614942D01*
X138760921Y-52674466D01*
X138046636Y-53448276D02*
X138165683Y-53388752D01*
X138225207Y-53329228D01*
X138284731Y-53210180D01*
X138284731Y-52853038D01*
X138225207Y-52733990D01*
X138165683Y-52674466D01*
X138046636Y-52614942D01*
X137868064Y-52614942D01*
X137749017Y-52674466D01*
X137689493Y-52733990D01*
X137629969Y-52853038D01*
X137629969Y-53210180D01*
X137689493Y-53329228D01*
X137749017Y-53388752D01*
X137868064Y-53448276D01*
X138046636Y-53448276D01*
X136558540Y-52614942D02*
X136558540Y-53448276D01*
X137094255Y-52614942D02*
X137094255Y-53269704D01*
X137034731Y-53388752D01*
X136915683Y-53448276D01*
X136737112Y-53448276D01*
X136618064Y-53388752D01*
X136558540Y-53329228D01*
X135963302Y-52614942D02*
X135963302Y-53448276D01*
X135963302Y-52733990D02*
X135903779Y-52674466D01*
X135784731Y-52614942D01*
X135606160Y-52614942D01*
X135487112Y-52674466D01*
X135427588Y-52793514D01*
X135427588Y-53448276D01*
X135010921Y-52614942D02*
X134534731Y-52614942D01*
X134832350Y-52198276D02*
X134832350Y-53269704D01*
X134772826Y-53388752D01*
X134653779Y-53448276D01*
X134534731Y-53448276D01*
X133641874Y-53388752D02*
X133760921Y-53448276D01*
X133999017Y-53448276D01*
X134118064Y-53388752D01*
X134177588Y-53269704D01*
X134177588Y-52793514D01*
X134118064Y-52674466D01*
X133999017Y-52614942D01*
X133760921Y-52614942D01*
X133641874Y-52674466D01*
X133582350Y-52793514D01*
X133582350Y-52912561D01*
X134177588Y-53031609D01*
X133046636Y-53448276D02*
X133046636Y-52614942D01*
X133046636Y-52853038D02*
X132987112Y-52733990D01*
X132927588Y-52674466D01*
X132808540Y-52614942D01*
X132689493Y-52614942D01*
X130903779Y-52793514D02*
X131320445Y-52793514D01*
X131320445Y-53448276D02*
X131320445Y-52198276D01*
X130725207Y-52198276D01*
X129772826Y-53388752D02*
X129891874Y-53448276D01*
X130129969Y-53448276D01*
X130249017Y-53388752D01*
X130308540Y-53269704D01*
X130308540Y-52793514D01*
X130249017Y-52674466D01*
X130129969Y-52614942D01*
X129891874Y-52614942D01*
X129772826Y-52674466D01*
X129713302Y-52793514D01*
X129713302Y-52912561D01*
X130308540Y-53031609D01*
X128641874Y-53448276D02*
X128641874Y-52793514D01*
X128701398Y-52674466D01*
X128820445Y-52614942D01*
X129058540Y-52614942D01*
X129177588Y-52674466D01*
X128641874Y-53388752D02*
X128760921Y-53448276D01*
X129058540Y-53448276D01*
X129177588Y-53388752D01*
X129237112Y-53269704D01*
X129237112Y-53150657D01*
X129177588Y-53031609D01*
X129058540Y-52972085D01*
X128760921Y-52972085D01*
X128641874Y-52912561D01*
X128225207Y-52614942D02*
X127749017Y-52614942D01*
X128046636Y-52198276D02*
X128046636Y-53269704D01*
X127987112Y-53388752D01*
X127868064Y-53448276D01*
X127749017Y-53448276D01*
X127332350Y-53448276D02*
X127332350Y-52198276D01*
X126796636Y-53448276D02*
X126796636Y-52793514D01*
X126856160Y-52674466D01*
X126975207Y-52614942D01*
X127153779Y-52614942D01*
X127272826Y-52674466D01*
X127332350Y-52733990D01*
X125725207Y-53388752D02*
X125844255Y-53448276D01*
X126082350Y-53448276D01*
X126201398Y-53388752D01*
X126260921Y-53269704D01*
X126260921Y-52793514D01*
X126201398Y-52674466D01*
X126082350Y-52614942D01*
X125844255Y-52614942D01*
X125725207Y-52674466D01*
X125665683Y-52793514D01*
X125665683Y-52912561D01*
X126260921Y-53031609D01*
X125129969Y-53448276D02*
X125129969Y-52614942D01*
X125129969Y-52853038D02*
X125070445Y-52733990D01*
X125010921Y-52674466D01*
X124891874Y-52614942D01*
X124772826Y-52614942D01*
X124475207Y-52614942D02*
X124237112Y-53448276D01*
X123999017Y-52853038D01*
X123760921Y-53448276D01*
X123522826Y-52614942D01*
X123046636Y-53448276D02*
X123046636Y-52614942D01*
X123046636Y-52198276D02*
X123106160Y-52257800D01*
X123046636Y-52317323D01*
X122987112Y-52257800D01*
X123046636Y-52198276D01*
X123046636Y-52317323D01*
X122451398Y-52614942D02*
X122451398Y-53448276D01*
X122451398Y-52733990D02*
X122391874Y-52674466D01*
X122272826Y-52614942D01*
X122094255Y-52614942D01*
X121975207Y-52674466D01*
X121915683Y-52793514D01*
X121915683Y-53448276D01*
X120784731Y-52614942D02*
X120784731Y-53626847D01*
X120844255Y-53745895D01*
X120903779Y-53805419D01*
X121022826Y-53864942D01*
X121201398Y-53864942D01*
X121320445Y-53805419D01*
X120784731Y-53388752D02*
X120903779Y-53448276D01*
X121141874Y-53448276D01*
X121260921Y-53388752D01*
X121320445Y-53329228D01*
X121379969Y-53210180D01*
X121379969Y-52853038D01*
X121320445Y-52733990D01*
X121260921Y-52674466D01*
X121141874Y-52614942D01*
X120903779Y-52614942D01*
X120784731Y-52674466D01*
X116209651Y-60426000D02*
X115209651Y-60426000D01*
X115400128Y-61793380D02*
X115733461Y-61317190D01*
X115971556Y-61793380D02*
X115971556Y-60793380D01*
X115590604Y-60793380D01*
X115495366Y-60841000D01*
X115447747Y-60888619D01*
X115400128Y-60983857D01*
X115400128Y-61126714D01*
X115447747Y-61221952D01*
X115495366Y-61269571D01*
X115590604Y-61317190D01*
X115971556Y-61317190D01*
X115209651Y-60426000D02*
X114257270Y-60426000D01*
X115019175Y-61745761D02*
X114876318Y-61793380D01*
X114638223Y-61793380D01*
X114542985Y-61745761D01*
X114495366Y-61698142D01*
X114447747Y-61602904D01*
X114447747Y-61507666D01*
X114495366Y-61412428D01*
X114542985Y-61364809D01*
X114638223Y-61317190D01*
X114828699Y-61269571D01*
X114923937Y-61221952D01*
X114971556Y-61174333D01*
X115019175Y-61079095D01*
X115019175Y-60983857D01*
X114971556Y-60888619D01*
X114923937Y-60841000D01*
X114828699Y-60793380D01*
X114590604Y-60793380D01*
X114447747Y-60841000D01*
X114257270Y-60426000D02*
X113495366Y-60426000D01*
X114162032Y-60793380D02*
X113590604Y-60793380D01*
X113876318Y-61793380D02*
X113876318Y-60793380D01*
X115447746Y-55323140D02*
X114542984Y-55323140D01*
X115209651Y-56166711D02*
X114876317Y-56166711D01*
X114733460Y-56690520D02*
X115209651Y-56690520D01*
X115209651Y-55690520D01*
X114733460Y-55690520D01*
X114542984Y-55323140D02*
X113495365Y-55323140D01*
X114304889Y-56690520D02*
X114304889Y-55690520D01*
X113733460Y-56690520D01*
X113733460Y-55690520D01*
X116352508Y-59268620D02*
X116352508Y-58268620D01*
X116114413Y-58268620D01*
X115971556Y-58316240D01*
X115876318Y-58411478D01*
X115828699Y-58506716D01*
X115781080Y-58697192D01*
X115781080Y-58840049D01*
X115828699Y-59030525D01*
X115876318Y-59125763D01*
X115971556Y-59221001D01*
X116114413Y-59268620D01*
X116352508Y-59268620D01*
X114638223Y-58221001D02*
X115495365Y-59506716D01*
X114542985Y-57901240D02*
X113495365Y-57901240D01*
X114304889Y-58268620D02*
X114304889Y-59078144D01*
X114257270Y-59173382D01*
X114209651Y-59221001D01*
X114114413Y-59268620D01*
X113923937Y-59268620D01*
X113828699Y-59221001D01*
X113781080Y-59173382D01*
X113733461Y-59078144D01*
X113733461Y-58268620D01*
X115495366Y-54017182D02*
X115542985Y-54064801D01*
X115685842Y-54112420D01*
X115781080Y-54112420D01*
X115923937Y-54064801D01*
X116019175Y-53969563D01*
X116066794Y-53874325D01*
X116114413Y-53683849D01*
X116114413Y-53540992D01*
X116066794Y-53350516D01*
X116019175Y-53255278D01*
X115923937Y-53160040D01*
X115781080Y-53112420D01*
X115685842Y-53112420D01*
X115542985Y-53160040D01*
X115495366Y-53207659D01*
X114590604Y-54112420D02*
X115066794Y-54112420D01*
X115066794Y-53112420D01*
X114257270Y-54112420D02*
X114257270Y-53112420D01*
X113685842Y-54112420D02*
X114114413Y-53540992D01*
X113685842Y-53112420D02*
X114257270Y-53683849D01*
X109288556Y-57251859D02*
X109859984Y-57251859D01*
X109574270Y-57251859D02*
X109574270Y-56251859D01*
X109669508Y-56394717D01*
X109764746Y-56489955D01*
X109859984Y-56537574D01*
X108669508Y-56251859D02*
X108574270Y-56251859D01*
X108479032Y-56299479D01*
X108431413Y-56347098D01*
X108383794Y-56442336D01*
X108336175Y-56632812D01*
X108336175Y-56870907D01*
X108383794Y-57061383D01*
X108431413Y-57156621D01*
X108479032Y-57204240D01*
X108574270Y-57251859D01*
X108669508Y-57251859D01*
X108764746Y-57204240D01*
X108812365Y-57156621D01*
X108859984Y-57061383D01*
X108907603Y-56870907D01*
X108907603Y-56632812D01*
X108859984Y-56442336D01*
X108812365Y-56347098D01*
X108764746Y-56299479D01*
X108669508Y-56251859D01*
X109288556Y-54725406D02*
X109859984Y-54725406D01*
X109574270Y-54725406D02*
X109574270Y-53725406D01*
X109669508Y-53868264D01*
X109764746Y-53963502D01*
X109859984Y-54011121D01*
X108336175Y-54725406D02*
X108907603Y-54725406D01*
X108621889Y-54725406D02*
X108621889Y-53725406D01*
X108717127Y-53868264D01*
X108812365Y-53963502D01*
X108907603Y-54011121D01*
X109288556Y-52198953D02*
X109859984Y-52198953D01*
X109574270Y-52198953D02*
X109574270Y-51198953D01*
X109669508Y-51341811D01*
X109764746Y-51437049D01*
X109859984Y-51484668D01*
X108907603Y-51294192D02*
X108859984Y-51246573D01*
X108764746Y-51198953D01*
X108526651Y-51198953D01*
X108431413Y-51246573D01*
X108383794Y-51294192D01*
X108336175Y-51389430D01*
X108336175Y-51484668D01*
X108383794Y-51627525D01*
X108955222Y-52198953D01*
X108336175Y-52198953D01*
X109383794Y-61304765D02*
X109574271Y-61304765D01*
X109669509Y-61352385D01*
X109717128Y-61400004D01*
X109812366Y-61542861D01*
X109859985Y-61733337D01*
X109859985Y-62114289D01*
X109812366Y-62209527D01*
X109764747Y-62257146D01*
X109669509Y-62304765D01*
X109479032Y-62304765D01*
X109383794Y-62257146D01*
X109336175Y-62209527D01*
X109288556Y-62114289D01*
X109288556Y-61876194D01*
X109336175Y-61780956D01*
X109383794Y-61733337D01*
X109479032Y-61685718D01*
X109669509Y-61685718D01*
X109764747Y-61733337D01*
X109812366Y-61780956D01*
X109859985Y-61876194D01*
X109336175Y-63831220D02*
X109812366Y-63831220D01*
X109859985Y-64307411D01*
X109812366Y-64259792D01*
X109717128Y-64212173D01*
X109479032Y-64212173D01*
X109383794Y-64259792D01*
X109336175Y-64307411D01*
X109288556Y-64402649D01*
X109288556Y-64640744D01*
X109336175Y-64735982D01*
X109383794Y-64783601D01*
X109479032Y-64831220D01*
X109717128Y-64831220D01*
X109812366Y-64783601D01*
X109859985Y-64735982D01*
X109764747Y-59778312D02*
X109574271Y-59778312D01*
X109479032Y-59730693D01*
X109431413Y-59683074D01*
X109336175Y-59540217D01*
X109288556Y-59349741D01*
X109288556Y-58968789D01*
X109336175Y-58873551D01*
X109383794Y-58825932D01*
X109479032Y-58778312D01*
X109669509Y-58778312D01*
X109764747Y-58825932D01*
X109812366Y-58873551D01*
X109859985Y-58968789D01*
X109859985Y-59206884D01*
X109812366Y-59302122D01*
X109764747Y-59349741D01*
X109669509Y-59397360D01*
X109479032Y-59397360D01*
X109383794Y-59349741D01*
X109336175Y-59302122D01*
X109288556Y-59206884D01*
X109288556Y-49672500D02*
X109859984Y-49672500D01*
X109574270Y-49672500D02*
X109574270Y-48672500D01*
X109669508Y-48815358D01*
X109764746Y-48910596D01*
X109859984Y-48958215D01*
X108955222Y-48672500D02*
X108336175Y-48672500D01*
X108669508Y-49053453D01*
X108526651Y-49053453D01*
X108431413Y-49101072D01*
X108383794Y-49148691D01*
X108336175Y-49243929D01*
X108336175Y-49482024D01*
X108383794Y-49577262D01*
X108431413Y-49624881D01*
X108526651Y-49672500D01*
X108812365Y-49672500D01*
X108907603Y-49624881D01*
X108955222Y-49577262D01*
D12*
X104966040Y-51913691D02*
X104966040Y-52270834D01*
X105180325Y-51842262D02*
X104430325Y-52092262D01*
X105180325Y-52342262D01*
X104680325Y-52520834D02*
X105180325Y-52699405D01*
X104680325Y-52877977D01*
X105180325Y-53485120D02*
X104787468Y-53485120D01*
X104716040Y-53449405D01*
X104680325Y-53377977D01*
X104680325Y-53235120D01*
X104716040Y-53163691D01*
X105144611Y-53485120D02*
X105180325Y-53413691D01*
X105180325Y-53235120D01*
X105144611Y-53163691D01*
X105073182Y-53127977D01*
X105001754Y-53127977D01*
X104930325Y-53163691D01*
X104894611Y-53235120D01*
X104894611Y-53413691D01*
X104858897Y-53485120D01*
X105180325Y-53842262D02*
X104680325Y-53842262D01*
X104430325Y-53842262D02*
X104466040Y-53806548D01*
X104501754Y-53842262D01*
X104466040Y-53877977D01*
X104430325Y-53842262D01*
X104501754Y-53842262D01*
X105180325Y-54306548D02*
X105144611Y-54235120D01*
X105073182Y-54199405D01*
X104430325Y-54199405D01*
X105180325Y-54913691D02*
X104787468Y-54913691D01*
X104716040Y-54877977D01*
X104680325Y-54806548D01*
X104680325Y-54663691D01*
X104716040Y-54592262D01*
X105144611Y-54913691D02*
X105180325Y-54842262D01*
X105180325Y-54663691D01*
X105144611Y-54592262D01*
X105073182Y-54556548D01*
X105001754Y-54556548D01*
X104930325Y-54592262D01*
X104894611Y-54663691D01*
X104894611Y-54842262D01*
X104858897Y-54913691D01*
X105180325Y-55270834D02*
X104430325Y-55270834D01*
X104716040Y-55270834D02*
X104680325Y-55342262D01*
X104680325Y-55485120D01*
X104716040Y-55556548D01*
X104751754Y-55592262D01*
X104823182Y-55627977D01*
X105037468Y-55627977D01*
X105108897Y-55592262D01*
X105144611Y-55556548D01*
X105180325Y-55485120D01*
X105180325Y-55342262D01*
X105144611Y-55270834D01*
X105180325Y-56056548D02*
X105144611Y-55985120D01*
X105073182Y-55949405D01*
X104430325Y-55949405D01*
X105144611Y-56627977D02*
X105180325Y-56556548D01*
X105180325Y-56413691D01*
X105144611Y-56342262D01*
X105073182Y-56306548D01*
X104787468Y-56306548D01*
X104716040Y-56342262D01*
X104680325Y-56413691D01*
X104680325Y-56556548D01*
X104716040Y-56627977D01*
X104787468Y-56663691D01*
X104858897Y-56663691D01*
X104930325Y-56306548D01*
X104787468Y-57806548D02*
X104787468Y-57556548D01*
X105180325Y-57556548D02*
X104430325Y-57556548D01*
X104430325Y-57913691D01*
X105144611Y-58485120D02*
X105180325Y-58413691D01*
X105180325Y-58270834D01*
X105144611Y-58199405D01*
X105073182Y-58163691D01*
X104787468Y-58163691D01*
X104716040Y-58199405D01*
X104680325Y-58270834D01*
X104680325Y-58413691D01*
X104716040Y-58485120D01*
X104787468Y-58520834D01*
X104858897Y-58520834D01*
X104930325Y-58163691D01*
X105180325Y-59163691D02*
X104787468Y-59163691D01*
X104716040Y-59127977D01*
X104680325Y-59056548D01*
X104680325Y-58913691D01*
X104716040Y-58842262D01*
X105144611Y-59163691D02*
X105180325Y-59092262D01*
X105180325Y-58913691D01*
X105144611Y-58842262D01*
X105073182Y-58806548D01*
X105001754Y-58806548D01*
X104930325Y-58842262D01*
X104894611Y-58913691D01*
X104894611Y-59092262D01*
X104858897Y-59163691D01*
X104680325Y-59413691D02*
X104680325Y-59699405D01*
X104430325Y-59520834D02*
X105073182Y-59520834D01*
X105144611Y-59556548D01*
X105180325Y-59627977D01*
X105180325Y-59699405D01*
X105180325Y-59949405D02*
X104430325Y-59949405D01*
X105180325Y-60270834D02*
X104787468Y-60270834D01*
X104716040Y-60235120D01*
X104680325Y-60163691D01*
X104680325Y-60056548D01*
X104716040Y-59985120D01*
X104751754Y-59949405D01*
X105144611Y-60913691D02*
X105180325Y-60842262D01*
X105180325Y-60699405D01*
X105144611Y-60627977D01*
X105073182Y-60592262D01*
X104787468Y-60592262D01*
X104716040Y-60627977D01*
X104680325Y-60699405D01*
X104680325Y-60842262D01*
X104716040Y-60913691D01*
X104787468Y-60949405D01*
X104858897Y-60949405D01*
X104930325Y-60592262D01*
X105180325Y-61270834D02*
X104680325Y-61270834D01*
X104823182Y-61270834D02*
X104751754Y-61306548D01*
X104716040Y-61342262D01*
X104680325Y-61413691D01*
X104680325Y-61485120D01*
X104680325Y-62306548D02*
X105430325Y-62306548D01*
X104716040Y-62306548D02*
X104680325Y-62377977D01*
X104680325Y-62520834D01*
X104716040Y-62592262D01*
X104751754Y-62627977D01*
X104823182Y-62663691D01*
X105037468Y-62663691D01*
X105108897Y-62627977D01*
X105144611Y-62592262D01*
X105180325Y-62520834D01*
X105180325Y-62377977D01*
X105144611Y-62306548D01*
X105180325Y-62985120D02*
X104680325Y-62985120D01*
X104430325Y-62985120D02*
X104466040Y-62949405D01*
X104501754Y-62985120D01*
X104466040Y-63020834D01*
X104430325Y-62985120D01*
X104501754Y-62985120D01*
X104680325Y-63342262D02*
X105180325Y-63342262D01*
X104751754Y-63342262D02*
X104716040Y-63377977D01*
X104680325Y-63449405D01*
X104680325Y-63556548D01*
X104716040Y-63627977D01*
X104787468Y-63663691D01*
X105180325Y-63663691D01*
X105144611Y-63985120D02*
X105180325Y-64056548D01*
X105180325Y-64199405D01*
X105144611Y-64270834D01*
X105073182Y-64306548D01*
X105037468Y-64306548D01*
X104966040Y-64270834D01*
X104930325Y-64199405D01*
X104930325Y-64092262D01*
X104894611Y-64020834D01*
X104823182Y-63985120D01*
X104787468Y-63985120D01*
X104716040Y-64020834D01*
X104680325Y-64092262D01*
X104680325Y-64199405D01*
X104716040Y-64270834D01*
M02*
