G04 #@! TF.GenerationSoftware,KiCad,Pcbnew,(5.1.4)-1*
G04 #@! TF.CreationDate,2019-11-29T16:32:21-05:00*
G04 #@! TF.ProjectId,Feather-8bit-counter,46656174-6865-4722-9d38-6269742d636f,rev?*
G04 #@! TF.SameCoordinates,Original*
G04 #@! TF.FileFunction,Copper,L2,Bot*
G04 #@! TF.FilePolarity,Positive*
%FSLAX46Y46*%
G04 Gerber Fmt 4.6, Leading zero omitted, Abs format (unit mm)*
G04 Created by KiCad (PCBNEW (5.1.4)-1) date 2019-11-29 16:32:21*
%MOMM*%
%LPD*%
G04 APERTURE LIST*
%ADD10O,1.700000X1.700000*%
%ADD11R,1.700000X1.700000*%
%ADD12C,3.800000*%
%ADD13C,0.660400*%
%ADD14C,0.152400*%
%ADD15C,0.254000*%
G04 APERTURE END LIST*
D10*
X112433100Y-61254640D03*
X112433100Y-58714640D03*
X112433100Y-56174640D03*
D11*
X112433100Y-53634640D03*
D10*
X107048300Y-64313120D03*
X107048300Y-61773120D03*
X107048300Y-59233120D03*
X107048300Y-56693120D03*
X107048300Y-54153120D03*
X107048300Y-51613120D03*
D11*
X107048300Y-49073120D03*
D10*
X145034000Y-47650400D03*
X142494000Y-47650400D03*
X139954000Y-47650400D03*
X137414000Y-47650400D03*
X134874000Y-47650400D03*
X132334000Y-47650400D03*
X129794000Y-47650400D03*
X127254000Y-47650400D03*
X124714000Y-47650400D03*
X122174000Y-47650400D03*
X119634000Y-47650400D03*
D11*
X117094000Y-47650400D03*
D10*
X145034000Y-67970400D03*
X142494000Y-67970400D03*
X139954000Y-67970400D03*
X137414000Y-67970400D03*
X134874000Y-67970400D03*
X132334000Y-67970400D03*
X129794000Y-67970400D03*
X127254000Y-67970400D03*
X124714000Y-67970400D03*
X122174000Y-67970400D03*
X119634000Y-67970400D03*
X117094000Y-67970400D03*
X114554000Y-67970400D03*
X112014000Y-67970400D03*
X109474000Y-67970400D03*
D11*
X106934000Y-67970400D03*
D12*
X103126540Y-48920400D03*
X103126540Y-66700400D03*
D13*
X103743760Y-57736740D03*
X101874320Y-51668680D03*
X103743760Y-60783470D03*
X103743760Y-63830200D03*
X101874320Y-60808870D03*
X101874320Y-54715410D03*
X103743760Y-51643280D03*
X103743760Y-54690010D03*
X101874320Y-63855600D03*
X101874320Y-57762140D03*
X121564400Y-54330600D03*
X125285500Y-58077100D03*
X119786400Y-53098700D03*
X127533400Y-53136800D03*
X135737600Y-54356000D03*
X132549900Y-60718700D03*
X132664200Y-58191400D03*
X135763000Y-56921400D03*
X115798600Y-63042800D03*
X113068100Y-64871600D03*
X115798600Y-64871600D03*
X113068100Y-63042800D03*
X138391900Y-58051700D03*
X132702300Y-56934100D03*
X113314480Y-66669920D03*
X111531400Y-65201800D03*
X118170960Y-65100200D03*
X123662440Y-65100200D03*
X127863600Y-65084960D03*
X131587240Y-65100200D03*
X120660160Y-60472320D03*
X120746520Y-61904880D03*
X118221760Y-62865000D03*
X120751600Y-62844680D03*
X123149360Y-62870080D03*
X131912360Y-62103000D03*
X134167880Y-63042800D03*
X116418360Y-52959000D03*
X146878040Y-47355760D03*
X146476720Y-48844200D03*
X150454360Y-50434240D03*
X147299680Y-51800760D03*
X150368000Y-51800760D03*
X150368000Y-54847490D03*
X150368000Y-57894220D03*
X150368000Y-60940950D03*
X150368000Y-63987680D03*
X147299680Y-63987680D03*
X147299680Y-60940950D03*
X147299680Y-57894220D03*
X147299680Y-54847490D03*
X146517360Y-66664840D03*
X147020280Y-68229480D03*
X105592880Y-47330360D03*
X115326160Y-47330360D03*
X110896400Y-47330360D03*
X106197400Y-65989200D03*
X108950760Y-66202560D03*
X109194600Y-63459360D03*
X105496360Y-50490120D03*
X105867200Y-52872640D03*
X105867200Y-55418990D03*
X105867200Y-57965340D03*
X105867200Y-60511690D03*
X105867200Y-63058040D03*
X111460280Y-62763400D03*
X126301500Y-62852300D03*
X129260600Y-63004700D03*
X113715800Y-55359300D03*
X113944400Y-62204600D03*
X113944400Y-65557400D03*
X115036600Y-62191900D03*
X115036600Y-65557400D03*
X137299700Y-57988200D03*
X131076700Y-54381400D03*
D14*
X113944400Y-65557400D02*
X113944400Y-62204600D01*
X115036600Y-62658873D02*
X115036600Y-65557400D01*
X115036600Y-62191900D02*
X115036600Y-62658873D01*
X134566001Y-54962401D02*
X133985000Y-54381400D01*
X133985000Y-54381400D02*
X131076700Y-54381400D01*
X137299700Y-57988200D02*
X137299700Y-55949802D01*
X134566001Y-54962401D02*
X135053681Y-54962401D01*
X135501991Y-55410711D02*
X136760609Y-55410711D01*
X135053681Y-54962401D02*
X135501991Y-55410711D01*
X137299700Y-55949802D02*
X136760609Y-55410711D01*
D15*
G36*
X115605928Y-48500400D02*
G01*
X115618188Y-48624882D01*
X115654498Y-48744580D01*
X115713463Y-48854894D01*
X115792815Y-48951585D01*
X115889506Y-49030937D01*
X115999820Y-49089902D01*
X116119518Y-49126212D01*
X116244000Y-49138472D01*
X117944000Y-49138472D01*
X118068482Y-49126212D01*
X118188180Y-49089902D01*
X118298494Y-49030937D01*
X118395185Y-48951585D01*
X118474537Y-48854894D01*
X118533502Y-48744580D01*
X118554393Y-48675713D01*
X118578866Y-48705534D01*
X118804986Y-48891106D01*
X119062966Y-49028999D01*
X119342889Y-49113913D01*
X119561050Y-49135400D01*
X119706950Y-49135400D01*
X119925111Y-49113913D01*
X120205034Y-49028999D01*
X120463014Y-48891106D01*
X120689134Y-48705534D01*
X120874706Y-48479414D01*
X120904000Y-48424609D01*
X120933294Y-48479414D01*
X121118866Y-48705534D01*
X121344986Y-48891106D01*
X121602966Y-49028999D01*
X121882889Y-49113913D01*
X122101050Y-49135400D01*
X122246950Y-49135400D01*
X122465111Y-49113913D01*
X122745034Y-49028999D01*
X123003014Y-48891106D01*
X123229134Y-48705534D01*
X123414706Y-48479414D01*
X123444000Y-48424609D01*
X123473294Y-48479414D01*
X123658866Y-48705534D01*
X123884986Y-48891106D01*
X124142966Y-49028999D01*
X124422889Y-49113913D01*
X124641050Y-49135400D01*
X124786950Y-49135400D01*
X125005111Y-49113913D01*
X125285034Y-49028999D01*
X125543014Y-48891106D01*
X125769134Y-48705534D01*
X125954706Y-48479414D01*
X125984000Y-48424609D01*
X126013294Y-48479414D01*
X126198866Y-48705534D01*
X126424986Y-48891106D01*
X126682966Y-49028999D01*
X126962889Y-49113913D01*
X127181050Y-49135400D01*
X127326950Y-49135400D01*
X127545111Y-49113913D01*
X127825034Y-49028999D01*
X128083014Y-48891106D01*
X128309134Y-48705534D01*
X128494706Y-48479414D01*
X128524000Y-48424609D01*
X128553294Y-48479414D01*
X128738866Y-48705534D01*
X128964986Y-48891106D01*
X129222966Y-49028999D01*
X129502889Y-49113913D01*
X129721050Y-49135400D01*
X129866950Y-49135400D01*
X130085111Y-49113913D01*
X130365034Y-49028999D01*
X130623014Y-48891106D01*
X130849134Y-48705534D01*
X131034706Y-48479414D01*
X131064000Y-48424609D01*
X131093294Y-48479414D01*
X131278866Y-48705534D01*
X131504986Y-48891106D01*
X131762966Y-49028999D01*
X132042889Y-49113913D01*
X132261050Y-49135400D01*
X132406950Y-49135400D01*
X132625111Y-49113913D01*
X132905034Y-49028999D01*
X133163014Y-48891106D01*
X133389134Y-48705534D01*
X133574706Y-48479414D01*
X133604000Y-48424609D01*
X133633294Y-48479414D01*
X133818866Y-48705534D01*
X134044986Y-48891106D01*
X134302966Y-49028999D01*
X134582889Y-49113913D01*
X134801050Y-49135400D01*
X134946950Y-49135400D01*
X135165111Y-49113913D01*
X135445034Y-49028999D01*
X135703014Y-48891106D01*
X135929134Y-48705534D01*
X136114706Y-48479414D01*
X136144000Y-48424609D01*
X136173294Y-48479414D01*
X136358866Y-48705534D01*
X136584986Y-48891106D01*
X136842966Y-49028999D01*
X137122889Y-49113913D01*
X137341050Y-49135400D01*
X137486950Y-49135400D01*
X137705111Y-49113913D01*
X137985034Y-49028999D01*
X138243014Y-48891106D01*
X138469134Y-48705534D01*
X138654706Y-48479414D01*
X138684000Y-48424609D01*
X138713294Y-48479414D01*
X138898866Y-48705534D01*
X139124986Y-48891106D01*
X139382966Y-49028999D01*
X139662889Y-49113913D01*
X139881050Y-49135400D01*
X140026950Y-49135400D01*
X140245111Y-49113913D01*
X140525034Y-49028999D01*
X140783014Y-48891106D01*
X141009134Y-48705534D01*
X141194706Y-48479414D01*
X141224000Y-48424609D01*
X141253294Y-48479414D01*
X141438866Y-48705534D01*
X141664986Y-48891106D01*
X141922966Y-49028999D01*
X142202889Y-49113913D01*
X142421050Y-49135400D01*
X142566950Y-49135400D01*
X142785111Y-49113913D01*
X143065034Y-49028999D01*
X143323014Y-48891106D01*
X143549134Y-48705534D01*
X143734706Y-48479414D01*
X143764000Y-48424609D01*
X143793294Y-48479414D01*
X143978866Y-48705534D01*
X144204986Y-48891106D01*
X144462966Y-49028999D01*
X144742889Y-49113913D01*
X144961050Y-49135400D01*
X145106950Y-49135400D01*
X145325111Y-49113913D01*
X145605034Y-49028999D01*
X145863014Y-48891106D01*
X146089134Y-48705534D01*
X146274706Y-48479414D01*
X146412599Y-48221434D01*
X146497513Y-47941511D01*
X146526185Y-47650400D01*
X146497513Y-47359289D01*
X146412599Y-47079366D01*
X146398560Y-47053100D01*
X148571899Y-47053100D01*
X148296706Y-47107839D01*
X147953658Y-47249934D01*
X147644922Y-47456225D01*
X147382365Y-47718782D01*
X147176074Y-48027518D01*
X147033979Y-48370566D01*
X146961540Y-48734744D01*
X146961540Y-49106056D01*
X147033979Y-49470234D01*
X147176074Y-49813282D01*
X147382365Y-50122018D01*
X147644922Y-50384575D01*
X147953658Y-50590866D01*
X148296706Y-50732961D01*
X148660884Y-50805400D01*
X149032196Y-50805400D01*
X149396374Y-50732961D01*
X149739422Y-50590866D01*
X150048158Y-50384575D01*
X150310715Y-50122018D01*
X150517006Y-49813282D01*
X150659101Y-49470234D01*
X150731540Y-49106056D01*
X150731540Y-48780616D01*
X150749401Y-48950552D01*
X150749400Y-66680821D01*
X150731540Y-66862971D01*
X150731540Y-66514744D01*
X150659101Y-66150566D01*
X150517006Y-65807518D01*
X150310715Y-65498782D01*
X150048158Y-65236225D01*
X149739422Y-65029934D01*
X149396374Y-64887839D01*
X149032196Y-64815400D01*
X148660884Y-64815400D01*
X148296706Y-64887839D01*
X147953658Y-65029934D01*
X147644922Y-65236225D01*
X147382365Y-65498782D01*
X147176074Y-65807518D01*
X147033979Y-66150566D01*
X146961540Y-66514744D01*
X146961540Y-66886056D01*
X147033979Y-67250234D01*
X147176074Y-67593282D01*
X147382365Y-67902018D01*
X147644922Y-68164575D01*
X147953658Y-68370866D01*
X148296706Y-68512961D01*
X148660884Y-68585400D01*
X148925218Y-68585400D01*
X148851957Y-68593100D01*
X146381191Y-68593100D01*
X146475481Y-68327291D01*
X146354814Y-68097400D01*
X145161000Y-68097400D01*
X145161000Y-68117400D01*
X144907000Y-68117400D01*
X144907000Y-68097400D01*
X144887000Y-68097400D01*
X144887000Y-67843400D01*
X144907000Y-67843400D01*
X144907000Y-66650245D01*
X145161000Y-66650245D01*
X145161000Y-67843400D01*
X146354814Y-67843400D01*
X146475481Y-67613509D01*
X146378157Y-67339148D01*
X146229178Y-67089045D01*
X146034269Y-66872812D01*
X145800920Y-66698759D01*
X145538099Y-66573575D01*
X145390890Y-66528924D01*
X145161000Y-66650245D01*
X144907000Y-66650245D01*
X144677110Y-66528924D01*
X144529901Y-66573575D01*
X144267080Y-66698759D01*
X144033731Y-66872812D01*
X143838822Y-67089045D01*
X143769201Y-67205923D01*
X143734706Y-67141386D01*
X143549134Y-66915266D01*
X143323014Y-66729694D01*
X143065034Y-66591801D01*
X142785111Y-66506887D01*
X142566950Y-66485400D01*
X142421050Y-66485400D01*
X142202889Y-66506887D01*
X141922966Y-66591801D01*
X141664986Y-66729694D01*
X141438866Y-66915266D01*
X141253294Y-67141386D01*
X141224000Y-67196191D01*
X141194706Y-67141386D01*
X141009134Y-66915266D01*
X140783014Y-66729694D01*
X140525034Y-66591801D01*
X140245111Y-66506887D01*
X140026950Y-66485400D01*
X139881050Y-66485400D01*
X139662889Y-66506887D01*
X139382966Y-66591801D01*
X139124986Y-66729694D01*
X138898866Y-66915266D01*
X138713294Y-67141386D01*
X138684000Y-67196191D01*
X138654706Y-67141386D01*
X138469134Y-66915266D01*
X138243014Y-66729694D01*
X137985034Y-66591801D01*
X137705111Y-66506887D01*
X137486950Y-66485400D01*
X137341050Y-66485400D01*
X137122889Y-66506887D01*
X136842966Y-66591801D01*
X136584986Y-66729694D01*
X136358866Y-66915266D01*
X136173294Y-67141386D01*
X136144000Y-67196191D01*
X136114706Y-67141386D01*
X135929134Y-66915266D01*
X135703014Y-66729694D01*
X135445034Y-66591801D01*
X135165111Y-66506887D01*
X134946950Y-66485400D01*
X134801050Y-66485400D01*
X134582889Y-66506887D01*
X134302966Y-66591801D01*
X134044986Y-66729694D01*
X133818866Y-66915266D01*
X133633294Y-67141386D01*
X133604000Y-67196191D01*
X133574706Y-67141386D01*
X133389134Y-66915266D01*
X133163014Y-66729694D01*
X132905034Y-66591801D01*
X132625111Y-66506887D01*
X132406950Y-66485400D01*
X132261050Y-66485400D01*
X132042889Y-66506887D01*
X131762966Y-66591801D01*
X131504986Y-66729694D01*
X131278866Y-66915266D01*
X131093294Y-67141386D01*
X131064000Y-67196191D01*
X131034706Y-67141386D01*
X130849134Y-66915266D01*
X130623014Y-66729694D01*
X130365034Y-66591801D01*
X130085111Y-66506887D01*
X129866950Y-66485400D01*
X129721050Y-66485400D01*
X129502889Y-66506887D01*
X129222966Y-66591801D01*
X128964986Y-66729694D01*
X128738866Y-66915266D01*
X128553294Y-67141386D01*
X128524000Y-67196191D01*
X128494706Y-67141386D01*
X128309134Y-66915266D01*
X128083014Y-66729694D01*
X127825034Y-66591801D01*
X127545111Y-66506887D01*
X127326950Y-66485400D01*
X127181050Y-66485400D01*
X126962889Y-66506887D01*
X126682966Y-66591801D01*
X126424986Y-66729694D01*
X126198866Y-66915266D01*
X126013294Y-67141386D01*
X125984000Y-67196191D01*
X125954706Y-67141386D01*
X125769134Y-66915266D01*
X125543014Y-66729694D01*
X125285034Y-66591801D01*
X125005111Y-66506887D01*
X124786950Y-66485400D01*
X124641050Y-66485400D01*
X124422889Y-66506887D01*
X124142966Y-66591801D01*
X123884986Y-66729694D01*
X123658866Y-66915266D01*
X123473294Y-67141386D01*
X123444000Y-67196191D01*
X123414706Y-67141386D01*
X123229134Y-66915266D01*
X123003014Y-66729694D01*
X122745034Y-66591801D01*
X122465111Y-66506887D01*
X122246950Y-66485400D01*
X122101050Y-66485400D01*
X121882889Y-66506887D01*
X121602966Y-66591801D01*
X121344986Y-66729694D01*
X121118866Y-66915266D01*
X120933294Y-67141386D01*
X120904000Y-67196191D01*
X120874706Y-67141386D01*
X120689134Y-66915266D01*
X120463014Y-66729694D01*
X120205034Y-66591801D01*
X119925111Y-66506887D01*
X119706950Y-66485400D01*
X119561050Y-66485400D01*
X119342889Y-66506887D01*
X119062966Y-66591801D01*
X118804986Y-66729694D01*
X118578866Y-66915266D01*
X118393294Y-67141386D01*
X118364000Y-67196191D01*
X118334706Y-67141386D01*
X118149134Y-66915266D01*
X117923014Y-66729694D01*
X117665034Y-66591801D01*
X117385111Y-66506887D01*
X117166950Y-66485400D01*
X117021050Y-66485400D01*
X116802889Y-66506887D01*
X116522966Y-66591801D01*
X116264986Y-66729694D01*
X116038866Y-66915266D01*
X115853294Y-67141386D01*
X115818799Y-67205923D01*
X115749178Y-67089045D01*
X115554269Y-66872812D01*
X115320920Y-66698759D01*
X115058099Y-66573575D01*
X114910890Y-66528924D01*
X114681000Y-66650245D01*
X114681000Y-67843400D01*
X114701000Y-67843400D01*
X114701000Y-68097400D01*
X114681000Y-68097400D01*
X114681000Y-68117400D01*
X114427000Y-68117400D01*
X114427000Y-68097400D01*
X114407000Y-68097400D01*
X114407000Y-67843400D01*
X114427000Y-67843400D01*
X114427000Y-66650245D01*
X114197110Y-66528924D01*
X114049901Y-66573575D01*
X113787080Y-66698759D01*
X113553731Y-66872812D01*
X113358822Y-67089045D01*
X113289201Y-67205923D01*
X113254706Y-67141386D01*
X113069134Y-66915266D01*
X112843014Y-66729694D01*
X112585034Y-66591801D01*
X112305111Y-66506887D01*
X112086950Y-66485400D01*
X111941050Y-66485400D01*
X111722889Y-66506887D01*
X111442966Y-66591801D01*
X111184986Y-66729694D01*
X110958866Y-66915266D01*
X110773294Y-67141386D01*
X110744000Y-67196191D01*
X110714706Y-67141386D01*
X110529134Y-66915266D01*
X110303014Y-66729694D01*
X110045034Y-66591801D01*
X109765111Y-66506887D01*
X109546950Y-66485400D01*
X109401050Y-66485400D01*
X109182889Y-66506887D01*
X108902966Y-66591801D01*
X108644986Y-66729694D01*
X108418866Y-66915266D01*
X108394393Y-66945087D01*
X108373502Y-66876220D01*
X108314537Y-66765906D01*
X108235185Y-66669215D01*
X108138494Y-66589863D01*
X108028180Y-66530898D01*
X107908482Y-66494588D01*
X107784000Y-66482328D01*
X106084000Y-66482328D01*
X105959518Y-66494588D01*
X105839820Y-66530898D01*
X105729506Y-66589863D01*
X105661540Y-66645641D01*
X105661540Y-66450724D01*
X105564122Y-65960968D01*
X105373028Y-65499627D01*
X105095603Y-65084432D01*
X104742508Y-64731337D01*
X104327313Y-64453912D01*
X103865972Y-64262818D01*
X103376216Y-64165400D01*
X102876864Y-64165400D01*
X102387108Y-64262818D01*
X101925767Y-64453912D01*
X101510572Y-64731337D01*
X101269400Y-64972509D01*
X101269400Y-50648291D01*
X101510572Y-50889463D01*
X101925767Y-51166888D01*
X102387108Y-51357982D01*
X102876864Y-51455400D01*
X103376216Y-51455400D01*
X103865972Y-51357982D01*
X104327313Y-51166888D01*
X104742508Y-50889463D01*
X105095603Y-50536368D01*
X105373028Y-50121173D01*
X105560228Y-49669233D01*
X105560228Y-49923120D01*
X105572488Y-50047602D01*
X105608798Y-50167300D01*
X105667763Y-50277614D01*
X105747115Y-50374305D01*
X105843806Y-50453657D01*
X105954120Y-50512622D01*
X106022987Y-50533513D01*
X105993166Y-50557986D01*
X105807594Y-50784106D01*
X105669701Y-51042086D01*
X105584787Y-51322009D01*
X105556115Y-51613120D01*
X105584787Y-51904231D01*
X105669701Y-52184154D01*
X105807594Y-52442134D01*
X105993166Y-52668254D01*
X106219286Y-52853826D01*
X106274091Y-52883120D01*
X106219286Y-52912414D01*
X105993166Y-53097986D01*
X105807594Y-53324106D01*
X105669701Y-53582086D01*
X105584787Y-53862009D01*
X105556115Y-54153120D01*
X105584787Y-54444231D01*
X105669701Y-54724154D01*
X105807594Y-54982134D01*
X105993166Y-55208254D01*
X106219286Y-55393826D01*
X106274091Y-55423120D01*
X106219286Y-55452414D01*
X105993166Y-55637986D01*
X105807594Y-55864106D01*
X105669701Y-56122086D01*
X105584787Y-56402009D01*
X105556115Y-56693120D01*
X105584787Y-56984231D01*
X105669701Y-57264154D01*
X105807594Y-57522134D01*
X105993166Y-57748254D01*
X106219286Y-57933826D01*
X106274091Y-57963120D01*
X106219286Y-57992414D01*
X105993166Y-58177986D01*
X105807594Y-58404106D01*
X105669701Y-58662086D01*
X105584787Y-58942009D01*
X105556115Y-59233120D01*
X105584787Y-59524231D01*
X105669701Y-59804154D01*
X105807594Y-60062134D01*
X105993166Y-60288254D01*
X106219286Y-60473826D01*
X106274091Y-60503120D01*
X106219286Y-60532414D01*
X105993166Y-60717986D01*
X105807594Y-60944106D01*
X105669701Y-61202086D01*
X105584787Y-61482009D01*
X105556115Y-61773120D01*
X105584787Y-62064231D01*
X105669701Y-62344154D01*
X105807594Y-62602134D01*
X105993166Y-62828254D01*
X106219286Y-63013826D01*
X106274091Y-63043120D01*
X106219286Y-63072414D01*
X105993166Y-63257986D01*
X105807594Y-63484106D01*
X105669701Y-63742086D01*
X105584787Y-64022009D01*
X105556115Y-64313120D01*
X105584787Y-64604231D01*
X105669701Y-64884154D01*
X105807594Y-65142134D01*
X105993166Y-65368254D01*
X106219286Y-65553826D01*
X106477266Y-65691719D01*
X106757189Y-65776633D01*
X106975350Y-65798120D01*
X107121250Y-65798120D01*
X107339411Y-65776633D01*
X107619334Y-65691719D01*
X107877314Y-65553826D01*
X108103434Y-65368254D01*
X108289006Y-65142134D01*
X108426899Y-64884154D01*
X108511813Y-64604231D01*
X108540485Y-64313120D01*
X108511813Y-64022009D01*
X108426899Y-63742086D01*
X108289006Y-63484106D01*
X108103434Y-63257986D01*
X107877314Y-63072414D01*
X107822509Y-63043120D01*
X107877314Y-63013826D01*
X108103434Y-62828254D01*
X108289006Y-62602134D01*
X108426899Y-62344154D01*
X108511813Y-62064231D01*
X108540485Y-61773120D01*
X108511813Y-61482009D01*
X108426899Y-61202086D01*
X108289006Y-60944106D01*
X108103434Y-60717986D01*
X107877314Y-60532414D01*
X107822509Y-60503120D01*
X107877314Y-60473826D01*
X108103434Y-60288254D01*
X108289006Y-60062134D01*
X108426899Y-59804154D01*
X108511813Y-59524231D01*
X108540485Y-59233120D01*
X108511813Y-58942009D01*
X108426899Y-58662086D01*
X108289006Y-58404106D01*
X108103434Y-58177986D01*
X107877314Y-57992414D01*
X107822509Y-57963120D01*
X107877314Y-57933826D01*
X108103434Y-57748254D01*
X108289006Y-57522134D01*
X108426899Y-57264154D01*
X108511813Y-56984231D01*
X108540485Y-56693120D01*
X108511813Y-56402009D01*
X108442842Y-56174640D01*
X110940915Y-56174640D01*
X110969587Y-56465751D01*
X111054501Y-56745674D01*
X111192394Y-57003654D01*
X111377966Y-57229774D01*
X111604086Y-57415346D01*
X111658891Y-57444640D01*
X111604086Y-57473934D01*
X111377966Y-57659506D01*
X111192394Y-57885626D01*
X111054501Y-58143606D01*
X110969587Y-58423529D01*
X110940915Y-58714640D01*
X110969587Y-59005751D01*
X111054501Y-59285674D01*
X111192394Y-59543654D01*
X111377966Y-59769774D01*
X111604086Y-59955346D01*
X111658891Y-59984640D01*
X111604086Y-60013934D01*
X111377966Y-60199506D01*
X111192394Y-60425626D01*
X111054501Y-60683606D01*
X110969587Y-60963529D01*
X110940915Y-61254640D01*
X110969587Y-61545751D01*
X111054501Y-61825674D01*
X111192394Y-62083654D01*
X111377966Y-62309774D01*
X111604086Y-62495346D01*
X111862066Y-62633239D01*
X112141989Y-62718153D01*
X112360150Y-62739640D01*
X112506050Y-62739640D01*
X112724211Y-62718153D01*
X113004134Y-62633239D01*
X113063974Y-62601254D01*
X113089051Y-62661794D01*
X113194680Y-62819879D01*
X113233201Y-62858400D01*
X113233200Y-64903601D01*
X113194680Y-64942121D01*
X113089051Y-65100206D01*
X113016292Y-65275862D01*
X112979200Y-65462336D01*
X112979200Y-65652464D01*
X113016292Y-65838938D01*
X113089051Y-66014594D01*
X113194680Y-66172679D01*
X113329121Y-66307120D01*
X113487206Y-66412749D01*
X113662862Y-66485508D01*
X113849336Y-66522600D01*
X114039464Y-66522600D01*
X114225938Y-66485508D01*
X114401594Y-66412749D01*
X114490500Y-66353344D01*
X114579406Y-66412749D01*
X114755062Y-66485508D01*
X114941536Y-66522600D01*
X115131664Y-66522600D01*
X115318138Y-66485508D01*
X115493794Y-66412749D01*
X115651879Y-66307120D01*
X115786320Y-66172679D01*
X115891949Y-66014594D01*
X115964708Y-65838938D01*
X116001800Y-65652464D01*
X116001800Y-65462336D01*
X115964708Y-65275862D01*
X115891949Y-65100206D01*
X115786320Y-64942121D01*
X115747800Y-64903601D01*
X115747800Y-62845699D01*
X115786320Y-62807179D01*
X115891949Y-62649094D01*
X115964708Y-62473438D01*
X116001800Y-62286964D01*
X116001800Y-62096836D01*
X115964708Y-61910362D01*
X115891949Y-61734706D01*
X115786320Y-61576621D01*
X115651879Y-61442180D01*
X115493794Y-61336551D01*
X115318138Y-61263792D01*
X115131664Y-61226700D01*
X114941536Y-61226700D01*
X114755062Y-61263792D01*
X114579406Y-61336551D01*
X114480997Y-61402306D01*
X114401594Y-61349251D01*
X114225938Y-61276492D01*
X114039464Y-61239400D01*
X113923784Y-61239400D01*
X113896613Y-60963529D01*
X113811699Y-60683606D01*
X113673806Y-60425626D01*
X113488234Y-60199506D01*
X113262114Y-60013934D01*
X113207309Y-59984640D01*
X113262114Y-59955346D01*
X113488234Y-59769774D01*
X113673806Y-59543654D01*
X113811699Y-59285674D01*
X113896613Y-59005751D01*
X113925285Y-58714640D01*
X113896613Y-58423529D01*
X113811699Y-58143606D01*
X113673806Y-57885626D01*
X113488234Y-57659506D01*
X113262114Y-57473934D01*
X113207309Y-57444640D01*
X113262114Y-57415346D01*
X113488234Y-57229774D01*
X113673806Y-57003654D01*
X113811699Y-56745674D01*
X113896613Y-56465751D01*
X113925285Y-56174640D01*
X113896613Y-55883529D01*
X113811699Y-55603606D01*
X113673806Y-55345626D01*
X113488234Y-55119506D01*
X113458413Y-55095033D01*
X113527280Y-55074142D01*
X113637594Y-55015177D01*
X113734285Y-54935825D01*
X113813637Y-54839134D01*
X113872602Y-54728820D01*
X113908912Y-54609122D01*
X113921172Y-54484640D01*
X113921172Y-54286336D01*
X130111500Y-54286336D01*
X130111500Y-54476464D01*
X130148592Y-54662938D01*
X130221351Y-54838594D01*
X130326980Y-54996679D01*
X130461421Y-55131120D01*
X130619506Y-55236749D01*
X130795162Y-55309508D01*
X130981636Y-55346600D01*
X131171764Y-55346600D01*
X131358238Y-55309508D01*
X131533894Y-55236749D01*
X131691979Y-55131120D01*
X131730499Y-55092600D01*
X133690412Y-55092600D01*
X134038408Y-55440596D01*
X134060674Y-55467728D01*
X134087805Y-55489994D01*
X134087809Y-55489998D01*
X134138647Y-55531719D01*
X134168968Y-55556603D01*
X134292520Y-55622643D01*
X134426581Y-55663310D01*
X134531065Y-55673601D01*
X134531082Y-55673601D01*
X134566000Y-55677040D01*
X134600918Y-55673601D01*
X134759094Y-55673601D01*
X134974389Y-55888896D01*
X134996664Y-55916038D01*
X135104958Y-56004913D01*
X135228510Y-56070953D01*
X135362571Y-56111620D01*
X135467055Y-56121911D01*
X135467064Y-56121911D01*
X135501990Y-56125351D01*
X135536916Y-56121911D01*
X136466022Y-56121911D01*
X136588501Y-56244390D01*
X136588500Y-57334401D01*
X136549980Y-57372921D01*
X136444351Y-57531006D01*
X136371592Y-57706662D01*
X136334500Y-57893136D01*
X136334500Y-58083264D01*
X136371592Y-58269738D01*
X136444351Y-58445394D01*
X136549980Y-58603479D01*
X136684421Y-58737920D01*
X136842506Y-58843549D01*
X137018162Y-58916308D01*
X137204636Y-58953400D01*
X137394764Y-58953400D01*
X137581238Y-58916308D01*
X137756894Y-58843549D01*
X137914979Y-58737920D01*
X138049420Y-58603479D01*
X138155049Y-58445394D01*
X138227808Y-58269738D01*
X138264900Y-58083264D01*
X138264900Y-57893136D01*
X138227808Y-57706662D01*
X138155049Y-57531006D01*
X138049420Y-57372921D01*
X138010900Y-57334401D01*
X138010900Y-55984730D01*
X138014340Y-55949802D01*
X138010900Y-55914873D01*
X138010900Y-55914866D01*
X138000609Y-55810382D01*
X137959942Y-55676321D01*
X137959942Y-55676320D01*
X137893902Y-55552769D01*
X137827297Y-55471611D01*
X137805027Y-55444475D01*
X137777890Y-55422204D01*
X137288210Y-54932525D01*
X137265936Y-54905384D01*
X137157642Y-54816509D01*
X137034090Y-54750469D01*
X136900029Y-54709802D01*
X136795545Y-54699511D01*
X136795535Y-54699511D01*
X136760609Y-54696071D01*
X136725683Y-54699511D01*
X135796578Y-54699511D01*
X135581283Y-54484216D01*
X135559008Y-54457074D01*
X135450714Y-54368199D01*
X135327162Y-54302159D01*
X135193101Y-54261492D01*
X135088617Y-54251201D01*
X135088607Y-54251201D01*
X135053681Y-54247761D01*
X135018755Y-54251201D01*
X134860589Y-54251201D01*
X134512601Y-53903214D01*
X134490327Y-53876073D01*
X134382033Y-53787198D01*
X134258481Y-53721158D01*
X134124420Y-53680491D01*
X134019936Y-53670200D01*
X134019926Y-53670200D01*
X133985000Y-53666760D01*
X133950074Y-53670200D01*
X131730499Y-53670200D01*
X131691979Y-53631680D01*
X131533894Y-53526051D01*
X131358238Y-53453292D01*
X131171764Y-53416200D01*
X130981636Y-53416200D01*
X130795162Y-53453292D01*
X130619506Y-53526051D01*
X130461421Y-53631680D01*
X130326980Y-53766121D01*
X130221351Y-53924206D01*
X130148592Y-54099862D01*
X130111500Y-54286336D01*
X113921172Y-54286336D01*
X113921172Y-52784640D01*
X113908912Y-52660158D01*
X113872602Y-52540460D01*
X113813637Y-52430146D01*
X113734285Y-52333455D01*
X113637594Y-52254103D01*
X113527280Y-52195138D01*
X113407582Y-52158828D01*
X113283100Y-52146568D01*
X111583100Y-52146568D01*
X111458618Y-52158828D01*
X111338920Y-52195138D01*
X111228606Y-52254103D01*
X111131915Y-52333455D01*
X111052563Y-52430146D01*
X110993598Y-52540460D01*
X110957288Y-52660158D01*
X110945028Y-52784640D01*
X110945028Y-54484640D01*
X110957288Y-54609122D01*
X110993598Y-54728820D01*
X111052563Y-54839134D01*
X111131915Y-54935825D01*
X111228606Y-55015177D01*
X111338920Y-55074142D01*
X111407787Y-55095033D01*
X111377966Y-55119506D01*
X111192394Y-55345626D01*
X111054501Y-55603606D01*
X110969587Y-55883529D01*
X110940915Y-56174640D01*
X108442842Y-56174640D01*
X108426899Y-56122086D01*
X108289006Y-55864106D01*
X108103434Y-55637986D01*
X107877314Y-55452414D01*
X107822509Y-55423120D01*
X107877314Y-55393826D01*
X108103434Y-55208254D01*
X108289006Y-54982134D01*
X108426899Y-54724154D01*
X108511813Y-54444231D01*
X108540485Y-54153120D01*
X108511813Y-53862009D01*
X108426899Y-53582086D01*
X108289006Y-53324106D01*
X108103434Y-53097986D01*
X107877314Y-52912414D01*
X107822509Y-52883120D01*
X107877314Y-52853826D01*
X108103434Y-52668254D01*
X108289006Y-52442134D01*
X108426899Y-52184154D01*
X108511813Y-51904231D01*
X108540485Y-51613120D01*
X108511813Y-51322009D01*
X108426899Y-51042086D01*
X108289006Y-50784106D01*
X108103434Y-50557986D01*
X108073613Y-50533513D01*
X108142480Y-50512622D01*
X108252794Y-50453657D01*
X108349485Y-50374305D01*
X108428837Y-50277614D01*
X108487802Y-50167300D01*
X108524112Y-50047602D01*
X108536372Y-49923120D01*
X108536372Y-48223120D01*
X108524112Y-48098638D01*
X108487802Y-47978940D01*
X108428837Y-47868626D01*
X108349485Y-47771935D01*
X108252794Y-47692583D01*
X108142480Y-47633618D01*
X108022782Y-47597308D01*
X107898300Y-47585048D01*
X106198300Y-47585048D01*
X106073818Y-47597308D01*
X105954120Y-47633618D01*
X105843806Y-47692583D01*
X105747115Y-47771935D01*
X105667763Y-47868626D01*
X105608798Y-47978940D01*
X105572488Y-48098638D01*
X105564294Y-48181834D01*
X105564122Y-48180968D01*
X105373028Y-47719627D01*
X105095603Y-47304432D01*
X104844271Y-47053100D01*
X115605928Y-47053100D01*
X115605928Y-48500400D01*
X115605928Y-48500400D01*
G37*
X115605928Y-48500400D02*
X115618188Y-48624882D01*
X115654498Y-48744580D01*
X115713463Y-48854894D01*
X115792815Y-48951585D01*
X115889506Y-49030937D01*
X115999820Y-49089902D01*
X116119518Y-49126212D01*
X116244000Y-49138472D01*
X117944000Y-49138472D01*
X118068482Y-49126212D01*
X118188180Y-49089902D01*
X118298494Y-49030937D01*
X118395185Y-48951585D01*
X118474537Y-48854894D01*
X118533502Y-48744580D01*
X118554393Y-48675713D01*
X118578866Y-48705534D01*
X118804986Y-48891106D01*
X119062966Y-49028999D01*
X119342889Y-49113913D01*
X119561050Y-49135400D01*
X119706950Y-49135400D01*
X119925111Y-49113913D01*
X120205034Y-49028999D01*
X120463014Y-48891106D01*
X120689134Y-48705534D01*
X120874706Y-48479414D01*
X120904000Y-48424609D01*
X120933294Y-48479414D01*
X121118866Y-48705534D01*
X121344986Y-48891106D01*
X121602966Y-49028999D01*
X121882889Y-49113913D01*
X122101050Y-49135400D01*
X122246950Y-49135400D01*
X122465111Y-49113913D01*
X122745034Y-49028999D01*
X123003014Y-48891106D01*
X123229134Y-48705534D01*
X123414706Y-48479414D01*
X123444000Y-48424609D01*
X123473294Y-48479414D01*
X123658866Y-48705534D01*
X123884986Y-48891106D01*
X124142966Y-49028999D01*
X124422889Y-49113913D01*
X124641050Y-49135400D01*
X124786950Y-49135400D01*
X125005111Y-49113913D01*
X125285034Y-49028999D01*
X125543014Y-48891106D01*
X125769134Y-48705534D01*
X125954706Y-48479414D01*
X125984000Y-48424609D01*
X126013294Y-48479414D01*
X126198866Y-48705534D01*
X126424986Y-48891106D01*
X126682966Y-49028999D01*
X126962889Y-49113913D01*
X127181050Y-49135400D01*
X127326950Y-49135400D01*
X127545111Y-49113913D01*
X127825034Y-49028999D01*
X128083014Y-48891106D01*
X128309134Y-48705534D01*
X128494706Y-48479414D01*
X128524000Y-48424609D01*
X128553294Y-48479414D01*
X128738866Y-48705534D01*
X128964986Y-48891106D01*
X129222966Y-49028999D01*
X129502889Y-49113913D01*
X129721050Y-49135400D01*
X129866950Y-49135400D01*
X130085111Y-49113913D01*
X130365034Y-49028999D01*
X130623014Y-48891106D01*
X130849134Y-48705534D01*
X131034706Y-48479414D01*
X131064000Y-48424609D01*
X131093294Y-48479414D01*
X131278866Y-48705534D01*
X131504986Y-48891106D01*
X131762966Y-49028999D01*
X132042889Y-49113913D01*
X132261050Y-49135400D01*
X132406950Y-49135400D01*
X132625111Y-49113913D01*
X132905034Y-49028999D01*
X133163014Y-48891106D01*
X133389134Y-48705534D01*
X133574706Y-48479414D01*
X133604000Y-48424609D01*
X133633294Y-48479414D01*
X133818866Y-48705534D01*
X134044986Y-48891106D01*
X134302966Y-49028999D01*
X134582889Y-49113913D01*
X134801050Y-49135400D01*
X134946950Y-49135400D01*
X135165111Y-49113913D01*
X135445034Y-49028999D01*
X135703014Y-48891106D01*
X135929134Y-48705534D01*
X136114706Y-48479414D01*
X136144000Y-48424609D01*
X136173294Y-48479414D01*
X136358866Y-48705534D01*
X136584986Y-48891106D01*
X136842966Y-49028999D01*
X137122889Y-49113913D01*
X137341050Y-49135400D01*
X137486950Y-49135400D01*
X137705111Y-49113913D01*
X137985034Y-49028999D01*
X138243014Y-48891106D01*
X138469134Y-48705534D01*
X138654706Y-48479414D01*
X138684000Y-48424609D01*
X138713294Y-48479414D01*
X138898866Y-48705534D01*
X139124986Y-48891106D01*
X139382966Y-49028999D01*
X139662889Y-49113913D01*
X139881050Y-49135400D01*
X140026950Y-49135400D01*
X140245111Y-49113913D01*
X140525034Y-49028999D01*
X140783014Y-48891106D01*
X141009134Y-48705534D01*
X141194706Y-48479414D01*
X141224000Y-48424609D01*
X141253294Y-48479414D01*
X141438866Y-48705534D01*
X141664986Y-48891106D01*
X141922966Y-49028999D01*
X142202889Y-49113913D01*
X142421050Y-49135400D01*
X142566950Y-49135400D01*
X142785111Y-49113913D01*
X143065034Y-49028999D01*
X143323014Y-48891106D01*
X143549134Y-48705534D01*
X143734706Y-48479414D01*
X143764000Y-48424609D01*
X143793294Y-48479414D01*
X143978866Y-48705534D01*
X144204986Y-48891106D01*
X144462966Y-49028999D01*
X144742889Y-49113913D01*
X144961050Y-49135400D01*
X145106950Y-49135400D01*
X145325111Y-49113913D01*
X145605034Y-49028999D01*
X145863014Y-48891106D01*
X146089134Y-48705534D01*
X146274706Y-48479414D01*
X146412599Y-48221434D01*
X146497513Y-47941511D01*
X146526185Y-47650400D01*
X146497513Y-47359289D01*
X146412599Y-47079366D01*
X146398560Y-47053100D01*
X148571899Y-47053100D01*
X148296706Y-47107839D01*
X147953658Y-47249934D01*
X147644922Y-47456225D01*
X147382365Y-47718782D01*
X147176074Y-48027518D01*
X147033979Y-48370566D01*
X146961540Y-48734744D01*
X146961540Y-49106056D01*
X147033979Y-49470234D01*
X147176074Y-49813282D01*
X147382365Y-50122018D01*
X147644922Y-50384575D01*
X147953658Y-50590866D01*
X148296706Y-50732961D01*
X148660884Y-50805400D01*
X149032196Y-50805400D01*
X149396374Y-50732961D01*
X149739422Y-50590866D01*
X150048158Y-50384575D01*
X150310715Y-50122018D01*
X150517006Y-49813282D01*
X150659101Y-49470234D01*
X150731540Y-49106056D01*
X150731540Y-48780616D01*
X150749401Y-48950552D01*
X150749400Y-66680821D01*
X150731540Y-66862971D01*
X150731540Y-66514744D01*
X150659101Y-66150566D01*
X150517006Y-65807518D01*
X150310715Y-65498782D01*
X150048158Y-65236225D01*
X149739422Y-65029934D01*
X149396374Y-64887839D01*
X149032196Y-64815400D01*
X148660884Y-64815400D01*
X148296706Y-64887839D01*
X147953658Y-65029934D01*
X147644922Y-65236225D01*
X147382365Y-65498782D01*
X147176074Y-65807518D01*
X147033979Y-66150566D01*
X146961540Y-66514744D01*
X146961540Y-66886056D01*
X147033979Y-67250234D01*
X147176074Y-67593282D01*
X147382365Y-67902018D01*
X147644922Y-68164575D01*
X147953658Y-68370866D01*
X148296706Y-68512961D01*
X148660884Y-68585400D01*
X148925218Y-68585400D01*
X148851957Y-68593100D01*
X146381191Y-68593100D01*
X146475481Y-68327291D01*
X146354814Y-68097400D01*
X145161000Y-68097400D01*
X145161000Y-68117400D01*
X144907000Y-68117400D01*
X144907000Y-68097400D01*
X144887000Y-68097400D01*
X144887000Y-67843400D01*
X144907000Y-67843400D01*
X144907000Y-66650245D01*
X145161000Y-66650245D01*
X145161000Y-67843400D01*
X146354814Y-67843400D01*
X146475481Y-67613509D01*
X146378157Y-67339148D01*
X146229178Y-67089045D01*
X146034269Y-66872812D01*
X145800920Y-66698759D01*
X145538099Y-66573575D01*
X145390890Y-66528924D01*
X145161000Y-66650245D01*
X144907000Y-66650245D01*
X144677110Y-66528924D01*
X144529901Y-66573575D01*
X144267080Y-66698759D01*
X144033731Y-66872812D01*
X143838822Y-67089045D01*
X143769201Y-67205923D01*
X143734706Y-67141386D01*
X143549134Y-66915266D01*
X143323014Y-66729694D01*
X143065034Y-66591801D01*
X142785111Y-66506887D01*
X142566950Y-66485400D01*
X142421050Y-66485400D01*
X142202889Y-66506887D01*
X141922966Y-66591801D01*
X141664986Y-66729694D01*
X141438866Y-66915266D01*
X141253294Y-67141386D01*
X141224000Y-67196191D01*
X141194706Y-67141386D01*
X141009134Y-66915266D01*
X140783014Y-66729694D01*
X140525034Y-66591801D01*
X140245111Y-66506887D01*
X140026950Y-66485400D01*
X139881050Y-66485400D01*
X139662889Y-66506887D01*
X139382966Y-66591801D01*
X139124986Y-66729694D01*
X138898866Y-66915266D01*
X138713294Y-67141386D01*
X138684000Y-67196191D01*
X138654706Y-67141386D01*
X138469134Y-66915266D01*
X138243014Y-66729694D01*
X137985034Y-66591801D01*
X137705111Y-66506887D01*
X137486950Y-66485400D01*
X137341050Y-66485400D01*
X137122889Y-66506887D01*
X136842966Y-66591801D01*
X136584986Y-66729694D01*
X136358866Y-66915266D01*
X136173294Y-67141386D01*
X136144000Y-67196191D01*
X136114706Y-67141386D01*
X135929134Y-66915266D01*
X135703014Y-66729694D01*
X135445034Y-66591801D01*
X135165111Y-66506887D01*
X134946950Y-66485400D01*
X134801050Y-66485400D01*
X134582889Y-66506887D01*
X134302966Y-66591801D01*
X134044986Y-66729694D01*
X133818866Y-66915266D01*
X133633294Y-67141386D01*
X133604000Y-67196191D01*
X133574706Y-67141386D01*
X133389134Y-66915266D01*
X133163014Y-66729694D01*
X132905034Y-66591801D01*
X132625111Y-66506887D01*
X132406950Y-66485400D01*
X132261050Y-66485400D01*
X132042889Y-66506887D01*
X131762966Y-66591801D01*
X131504986Y-66729694D01*
X131278866Y-66915266D01*
X131093294Y-67141386D01*
X131064000Y-67196191D01*
X131034706Y-67141386D01*
X130849134Y-66915266D01*
X130623014Y-66729694D01*
X130365034Y-66591801D01*
X130085111Y-66506887D01*
X129866950Y-66485400D01*
X129721050Y-66485400D01*
X129502889Y-66506887D01*
X129222966Y-66591801D01*
X128964986Y-66729694D01*
X128738866Y-66915266D01*
X128553294Y-67141386D01*
X128524000Y-67196191D01*
X128494706Y-67141386D01*
X128309134Y-66915266D01*
X128083014Y-66729694D01*
X127825034Y-66591801D01*
X127545111Y-66506887D01*
X127326950Y-66485400D01*
X127181050Y-66485400D01*
X126962889Y-66506887D01*
X126682966Y-66591801D01*
X126424986Y-66729694D01*
X126198866Y-66915266D01*
X126013294Y-67141386D01*
X125984000Y-67196191D01*
X125954706Y-67141386D01*
X125769134Y-66915266D01*
X125543014Y-66729694D01*
X125285034Y-66591801D01*
X125005111Y-66506887D01*
X124786950Y-66485400D01*
X124641050Y-66485400D01*
X124422889Y-66506887D01*
X124142966Y-66591801D01*
X123884986Y-66729694D01*
X123658866Y-66915266D01*
X123473294Y-67141386D01*
X123444000Y-67196191D01*
X123414706Y-67141386D01*
X123229134Y-66915266D01*
X123003014Y-66729694D01*
X122745034Y-66591801D01*
X122465111Y-66506887D01*
X122246950Y-66485400D01*
X122101050Y-66485400D01*
X121882889Y-66506887D01*
X121602966Y-66591801D01*
X121344986Y-66729694D01*
X121118866Y-66915266D01*
X120933294Y-67141386D01*
X120904000Y-67196191D01*
X120874706Y-67141386D01*
X120689134Y-66915266D01*
X120463014Y-66729694D01*
X120205034Y-66591801D01*
X119925111Y-66506887D01*
X119706950Y-66485400D01*
X119561050Y-66485400D01*
X119342889Y-66506887D01*
X119062966Y-66591801D01*
X118804986Y-66729694D01*
X118578866Y-66915266D01*
X118393294Y-67141386D01*
X118364000Y-67196191D01*
X118334706Y-67141386D01*
X118149134Y-66915266D01*
X117923014Y-66729694D01*
X117665034Y-66591801D01*
X117385111Y-66506887D01*
X117166950Y-66485400D01*
X117021050Y-66485400D01*
X116802889Y-66506887D01*
X116522966Y-66591801D01*
X116264986Y-66729694D01*
X116038866Y-66915266D01*
X115853294Y-67141386D01*
X115818799Y-67205923D01*
X115749178Y-67089045D01*
X115554269Y-66872812D01*
X115320920Y-66698759D01*
X115058099Y-66573575D01*
X114910890Y-66528924D01*
X114681000Y-66650245D01*
X114681000Y-67843400D01*
X114701000Y-67843400D01*
X114701000Y-68097400D01*
X114681000Y-68097400D01*
X114681000Y-68117400D01*
X114427000Y-68117400D01*
X114427000Y-68097400D01*
X114407000Y-68097400D01*
X114407000Y-67843400D01*
X114427000Y-67843400D01*
X114427000Y-66650245D01*
X114197110Y-66528924D01*
X114049901Y-66573575D01*
X113787080Y-66698759D01*
X113553731Y-66872812D01*
X113358822Y-67089045D01*
X113289201Y-67205923D01*
X113254706Y-67141386D01*
X113069134Y-66915266D01*
X112843014Y-66729694D01*
X112585034Y-66591801D01*
X112305111Y-66506887D01*
X112086950Y-66485400D01*
X111941050Y-66485400D01*
X111722889Y-66506887D01*
X111442966Y-66591801D01*
X111184986Y-66729694D01*
X110958866Y-66915266D01*
X110773294Y-67141386D01*
X110744000Y-67196191D01*
X110714706Y-67141386D01*
X110529134Y-66915266D01*
X110303014Y-66729694D01*
X110045034Y-66591801D01*
X109765111Y-66506887D01*
X109546950Y-66485400D01*
X109401050Y-66485400D01*
X109182889Y-66506887D01*
X108902966Y-66591801D01*
X108644986Y-66729694D01*
X108418866Y-66915266D01*
X108394393Y-66945087D01*
X108373502Y-66876220D01*
X108314537Y-66765906D01*
X108235185Y-66669215D01*
X108138494Y-66589863D01*
X108028180Y-66530898D01*
X107908482Y-66494588D01*
X107784000Y-66482328D01*
X106084000Y-66482328D01*
X105959518Y-66494588D01*
X105839820Y-66530898D01*
X105729506Y-66589863D01*
X105661540Y-66645641D01*
X105661540Y-66450724D01*
X105564122Y-65960968D01*
X105373028Y-65499627D01*
X105095603Y-65084432D01*
X104742508Y-64731337D01*
X104327313Y-64453912D01*
X103865972Y-64262818D01*
X103376216Y-64165400D01*
X102876864Y-64165400D01*
X102387108Y-64262818D01*
X101925767Y-64453912D01*
X101510572Y-64731337D01*
X101269400Y-64972509D01*
X101269400Y-50648291D01*
X101510572Y-50889463D01*
X101925767Y-51166888D01*
X102387108Y-51357982D01*
X102876864Y-51455400D01*
X103376216Y-51455400D01*
X103865972Y-51357982D01*
X104327313Y-51166888D01*
X104742508Y-50889463D01*
X105095603Y-50536368D01*
X105373028Y-50121173D01*
X105560228Y-49669233D01*
X105560228Y-49923120D01*
X105572488Y-50047602D01*
X105608798Y-50167300D01*
X105667763Y-50277614D01*
X105747115Y-50374305D01*
X105843806Y-50453657D01*
X105954120Y-50512622D01*
X106022987Y-50533513D01*
X105993166Y-50557986D01*
X105807594Y-50784106D01*
X105669701Y-51042086D01*
X105584787Y-51322009D01*
X105556115Y-51613120D01*
X105584787Y-51904231D01*
X105669701Y-52184154D01*
X105807594Y-52442134D01*
X105993166Y-52668254D01*
X106219286Y-52853826D01*
X106274091Y-52883120D01*
X106219286Y-52912414D01*
X105993166Y-53097986D01*
X105807594Y-53324106D01*
X105669701Y-53582086D01*
X105584787Y-53862009D01*
X105556115Y-54153120D01*
X105584787Y-54444231D01*
X105669701Y-54724154D01*
X105807594Y-54982134D01*
X105993166Y-55208254D01*
X106219286Y-55393826D01*
X106274091Y-55423120D01*
X106219286Y-55452414D01*
X105993166Y-55637986D01*
X105807594Y-55864106D01*
X105669701Y-56122086D01*
X105584787Y-56402009D01*
X105556115Y-56693120D01*
X105584787Y-56984231D01*
X105669701Y-57264154D01*
X105807594Y-57522134D01*
X105993166Y-57748254D01*
X106219286Y-57933826D01*
X106274091Y-57963120D01*
X106219286Y-57992414D01*
X105993166Y-58177986D01*
X105807594Y-58404106D01*
X105669701Y-58662086D01*
X105584787Y-58942009D01*
X105556115Y-59233120D01*
X105584787Y-59524231D01*
X105669701Y-59804154D01*
X105807594Y-60062134D01*
X105993166Y-60288254D01*
X106219286Y-60473826D01*
X106274091Y-60503120D01*
X106219286Y-60532414D01*
X105993166Y-60717986D01*
X105807594Y-60944106D01*
X105669701Y-61202086D01*
X105584787Y-61482009D01*
X105556115Y-61773120D01*
X105584787Y-62064231D01*
X105669701Y-62344154D01*
X105807594Y-62602134D01*
X105993166Y-62828254D01*
X106219286Y-63013826D01*
X106274091Y-63043120D01*
X106219286Y-63072414D01*
X105993166Y-63257986D01*
X105807594Y-63484106D01*
X105669701Y-63742086D01*
X105584787Y-64022009D01*
X105556115Y-64313120D01*
X105584787Y-64604231D01*
X105669701Y-64884154D01*
X105807594Y-65142134D01*
X105993166Y-65368254D01*
X106219286Y-65553826D01*
X106477266Y-65691719D01*
X106757189Y-65776633D01*
X106975350Y-65798120D01*
X107121250Y-65798120D01*
X107339411Y-65776633D01*
X107619334Y-65691719D01*
X107877314Y-65553826D01*
X108103434Y-65368254D01*
X108289006Y-65142134D01*
X108426899Y-64884154D01*
X108511813Y-64604231D01*
X108540485Y-64313120D01*
X108511813Y-64022009D01*
X108426899Y-63742086D01*
X108289006Y-63484106D01*
X108103434Y-63257986D01*
X107877314Y-63072414D01*
X107822509Y-63043120D01*
X107877314Y-63013826D01*
X108103434Y-62828254D01*
X108289006Y-62602134D01*
X108426899Y-62344154D01*
X108511813Y-62064231D01*
X108540485Y-61773120D01*
X108511813Y-61482009D01*
X108426899Y-61202086D01*
X108289006Y-60944106D01*
X108103434Y-60717986D01*
X107877314Y-60532414D01*
X107822509Y-60503120D01*
X107877314Y-60473826D01*
X108103434Y-60288254D01*
X108289006Y-60062134D01*
X108426899Y-59804154D01*
X108511813Y-59524231D01*
X108540485Y-59233120D01*
X108511813Y-58942009D01*
X108426899Y-58662086D01*
X108289006Y-58404106D01*
X108103434Y-58177986D01*
X107877314Y-57992414D01*
X107822509Y-57963120D01*
X107877314Y-57933826D01*
X108103434Y-57748254D01*
X108289006Y-57522134D01*
X108426899Y-57264154D01*
X108511813Y-56984231D01*
X108540485Y-56693120D01*
X108511813Y-56402009D01*
X108442842Y-56174640D01*
X110940915Y-56174640D01*
X110969587Y-56465751D01*
X111054501Y-56745674D01*
X111192394Y-57003654D01*
X111377966Y-57229774D01*
X111604086Y-57415346D01*
X111658891Y-57444640D01*
X111604086Y-57473934D01*
X111377966Y-57659506D01*
X111192394Y-57885626D01*
X111054501Y-58143606D01*
X110969587Y-58423529D01*
X110940915Y-58714640D01*
X110969587Y-59005751D01*
X111054501Y-59285674D01*
X111192394Y-59543654D01*
X111377966Y-59769774D01*
X111604086Y-59955346D01*
X111658891Y-59984640D01*
X111604086Y-60013934D01*
X111377966Y-60199506D01*
X111192394Y-60425626D01*
X111054501Y-60683606D01*
X110969587Y-60963529D01*
X110940915Y-61254640D01*
X110969587Y-61545751D01*
X111054501Y-61825674D01*
X111192394Y-62083654D01*
X111377966Y-62309774D01*
X111604086Y-62495346D01*
X111862066Y-62633239D01*
X112141989Y-62718153D01*
X112360150Y-62739640D01*
X112506050Y-62739640D01*
X112724211Y-62718153D01*
X113004134Y-62633239D01*
X113063974Y-62601254D01*
X113089051Y-62661794D01*
X113194680Y-62819879D01*
X113233201Y-62858400D01*
X113233200Y-64903601D01*
X113194680Y-64942121D01*
X113089051Y-65100206D01*
X113016292Y-65275862D01*
X112979200Y-65462336D01*
X112979200Y-65652464D01*
X113016292Y-65838938D01*
X113089051Y-66014594D01*
X113194680Y-66172679D01*
X113329121Y-66307120D01*
X113487206Y-66412749D01*
X113662862Y-66485508D01*
X113849336Y-66522600D01*
X114039464Y-66522600D01*
X114225938Y-66485508D01*
X114401594Y-66412749D01*
X114490500Y-66353344D01*
X114579406Y-66412749D01*
X114755062Y-66485508D01*
X114941536Y-66522600D01*
X115131664Y-66522600D01*
X115318138Y-66485508D01*
X115493794Y-66412749D01*
X115651879Y-66307120D01*
X115786320Y-66172679D01*
X115891949Y-66014594D01*
X115964708Y-65838938D01*
X116001800Y-65652464D01*
X116001800Y-65462336D01*
X115964708Y-65275862D01*
X115891949Y-65100206D01*
X115786320Y-64942121D01*
X115747800Y-64903601D01*
X115747800Y-62845699D01*
X115786320Y-62807179D01*
X115891949Y-62649094D01*
X115964708Y-62473438D01*
X116001800Y-62286964D01*
X116001800Y-62096836D01*
X115964708Y-61910362D01*
X115891949Y-61734706D01*
X115786320Y-61576621D01*
X115651879Y-61442180D01*
X115493794Y-61336551D01*
X115318138Y-61263792D01*
X115131664Y-61226700D01*
X114941536Y-61226700D01*
X114755062Y-61263792D01*
X114579406Y-61336551D01*
X114480997Y-61402306D01*
X114401594Y-61349251D01*
X114225938Y-61276492D01*
X114039464Y-61239400D01*
X113923784Y-61239400D01*
X113896613Y-60963529D01*
X113811699Y-60683606D01*
X113673806Y-60425626D01*
X113488234Y-60199506D01*
X113262114Y-60013934D01*
X113207309Y-59984640D01*
X113262114Y-59955346D01*
X113488234Y-59769774D01*
X113673806Y-59543654D01*
X113811699Y-59285674D01*
X113896613Y-59005751D01*
X113925285Y-58714640D01*
X113896613Y-58423529D01*
X113811699Y-58143606D01*
X113673806Y-57885626D01*
X113488234Y-57659506D01*
X113262114Y-57473934D01*
X113207309Y-57444640D01*
X113262114Y-57415346D01*
X113488234Y-57229774D01*
X113673806Y-57003654D01*
X113811699Y-56745674D01*
X113896613Y-56465751D01*
X113925285Y-56174640D01*
X113896613Y-55883529D01*
X113811699Y-55603606D01*
X113673806Y-55345626D01*
X113488234Y-55119506D01*
X113458413Y-55095033D01*
X113527280Y-55074142D01*
X113637594Y-55015177D01*
X113734285Y-54935825D01*
X113813637Y-54839134D01*
X113872602Y-54728820D01*
X113908912Y-54609122D01*
X113921172Y-54484640D01*
X113921172Y-54286336D01*
X130111500Y-54286336D01*
X130111500Y-54476464D01*
X130148592Y-54662938D01*
X130221351Y-54838594D01*
X130326980Y-54996679D01*
X130461421Y-55131120D01*
X130619506Y-55236749D01*
X130795162Y-55309508D01*
X130981636Y-55346600D01*
X131171764Y-55346600D01*
X131358238Y-55309508D01*
X131533894Y-55236749D01*
X131691979Y-55131120D01*
X131730499Y-55092600D01*
X133690412Y-55092600D01*
X134038408Y-55440596D01*
X134060674Y-55467728D01*
X134087805Y-55489994D01*
X134087809Y-55489998D01*
X134138647Y-55531719D01*
X134168968Y-55556603D01*
X134292520Y-55622643D01*
X134426581Y-55663310D01*
X134531065Y-55673601D01*
X134531082Y-55673601D01*
X134566000Y-55677040D01*
X134600918Y-55673601D01*
X134759094Y-55673601D01*
X134974389Y-55888896D01*
X134996664Y-55916038D01*
X135104958Y-56004913D01*
X135228510Y-56070953D01*
X135362571Y-56111620D01*
X135467055Y-56121911D01*
X135467064Y-56121911D01*
X135501990Y-56125351D01*
X135536916Y-56121911D01*
X136466022Y-56121911D01*
X136588501Y-56244390D01*
X136588500Y-57334401D01*
X136549980Y-57372921D01*
X136444351Y-57531006D01*
X136371592Y-57706662D01*
X136334500Y-57893136D01*
X136334500Y-58083264D01*
X136371592Y-58269738D01*
X136444351Y-58445394D01*
X136549980Y-58603479D01*
X136684421Y-58737920D01*
X136842506Y-58843549D01*
X137018162Y-58916308D01*
X137204636Y-58953400D01*
X137394764Y-58953400D01*
X137581238Y-58916308D01*
X137756894Y-58843549D01*
X137914979Y-58737920D01*
X138049420Y-58603479D01*
X138155049Y-58445394D01*
X138227808Y-58269738D01*
X138264900Y-58083264D01*
X138264900Y-57893136D01*
X138227808Y-57706662D01*
X138155049Y-57531006D01*
X138049420Y-57372921D01*
X138010900Y-57334401D01*
X138010900Y-55984730D01*
X138014340Y-55949802D01*
X138010900Y-55914873D01*
X138010900Y-55914866D01*
X138000609Y-55810382D01*
X137959942Y-55676321D01*
X137959942Y-55676320D01*
X137893902Y-55552769D01*
X137827297Y-55471611D01*
X137805027Y-55444475D01*
X137777890Y-55422204D01*
X137288210Y-54932525D01*
X137265936Y-54905384D01*
X137157642Y-54816509D01*
X137034090Y-54750469D01*
X136900029Y-54709802D01*
X136795545Y-54699511D01*
X136795535Y-54699511D01*
X136760609Y-54696071D01*
X136725683Y-54699511D01*
X135796578Y-54699511D01*
X135581283Y-54484216D01*
X135559008Y-54457074D01*
X135450714Y-54368199D01*
X135327162Y-54302159D01*
X135193101Y-54261492D01*
X135088617Y-54251201D01*
X135088607Y-54251201D01*
X135053681Y-54247761D01*
X135018755Y-54251201D01*
X134860589Y-54251201D01*
X134512601Y-53903214D01*
X134490327Y-53876073D01*
X134382033Y-53787198D01*
X134258481Y-53721158D01*
X134124420Y-53680491D01*
X134019936Y-53670200D01*
X134019926Y-53670200D01*
X133985000Y-53666760D01*
X133950074Y-53670200D01*
X131730499Y-53670200D01*
X131691979Y-53631680D01*
X131533894Y-53526051D01*
X131358238Y-53453292D01*
X131171764Y-53416200D01*
X130981636Y-53416200D01*
X130795162Y-53453292D01*
X130619506Y-53526051D01*
X130461421Y-53631680D01*
X130326980Y-53766121D01*
X130221351Y-53924206D01*
X130148592Y-54099862D01*
X130111500Y-54286336D01*
X113921172Y-54286336D01*
X113921172Y-52784640D01*
X113908912Y-52660158D01*
X113872602Y-52540460D01*
X113813637Y-52430146D01*
X113734285Y-52333455D01*
X113637594Y-52254103D01*
X113527280Y-52195138D01*
X113407582Y-52158828D01*
X113283100Y-52146568D01*
X111583100Y-52146568D01*
X111458618Y-52158828D01*
X111338920Y-52195138D01*
X111228606Y-52254103D01*
X111131915Y-52333455D01*
X111052563Y-52430146D01*
X110993598Y-52540460D01*
X110957288Y-52660158D01*
X110945028Y-52784640D01*
X110945028Y-54484640D01*
X110957288Y-54609122D01*
X110993598Y-54728820D01*
X111052563Y-54839134D01*
X111131915Y-54935825D01*
X111228606Y-55015177D01*
X111338920Y-55074142D01*
X111407787Y-55095033D01*
X111377966Y-55119506D01*
X111192394Y-55345626D01*
X111054501Y-55603606D01*
X110969587Y-55883529D01*
X110940915Y-56174640D01*
X108442842Y-56174640D01*
X108426899Y-56122086D01*
X108289006Y-55864106D01*
X108103434Y-55637986D01*
X107877314Y-55452414D01*
X107822509Y-55423120D01*
X107877314Y-55393826D01*
X108103434Y-55208254D01*
X108289006Y-54982134D01*
X108426899Y-54724154D01*
X108511813Y-54444231D01*
X108540485Y-54153120D01*
X108511813Y-53862009D01*
X108426899Y-53582086D01*
X108289006Y-53324106D01*
X108103434Y-53097986D01*
X107877314Y-52912414D01*
X107822509Y-52883120D01*
X107877314Y-52853826D01*
X108103434Y-52668254D01*
X108289006Y-52442134D01*
X108426899Y-52184154D01*
X108511813Y-51904231D01*
X108540485Y-51613120D01*
X108511813Y-51322009D01*
X108426899Y-51042086D01*
X108289006Y-50784106D01*
X108103434Y-50557986D01*
X108073613Y-50533513D01*
X108142480Y-50512622D01*
X108252794Y-50453657D01*
X108349485Y-50374305D01*
X108428837Y-50277614D01*
X108487802Y-50167300D01*
X108524112Y-50047602D01*
X108536372Y-49923120D01*
X108536372Y-48223120D01*
X108524112Y-48098638D01*
X108487802Y-47978940D01*
X108428837Y-47868626D01*
X108349485Y-47771935D01*
X108252794Y-47692583D01*
X108142480Y-47633618D01*
X108022782Y-47597308D01*
X107898300Y-47585048D01*
X106198300Y-47585048D01*
X106073818Y-47597308D01*
X105954120Y-47633618D01*
X105843806Y-47692583D01*
X105747115Y-47771935D01*
X105667763Y-47868626D01*
X105608798Y-47978940D01*
X105572488Y-48098638D01*
X105564294Y-48181834D01*
X105564122Y-48180968D01*
X105373028Y-47719627D01*
X105095603Y-47304432D01*
X104844271Y-47053100D01*
X115605928Y-47053100D01*
X115605928Y-48500400D01*
M02*
