G04 #@! TF.GenerationSoftware,KiCad,Pcbnew,(5.1.4)-1*
G04 #@! TF.CreationDate,2019-11-29T16:32:21-05:00*
G04 #@! TF.ProjectId,Feather-8bit-counter,46656174-6865-4722-9d38-6269742d636f,rev?*
G04 #@! TF.SameCoordinates,Original*
G04 #@! TF.FileFunction,Paste,Top*
G04 #@! TF.FilePolarity,Positive*
%FSLAX46Y46*%
G04 Gerber Fmt 4.6, Leading zero omitted, Abs format (unit mm)*
G04 Created by KiCad (PCBNEW (5.1.4)-1) date 2019-11-29 16:32:21*
%MOMM*%
%LPD*%
G04 APERTURE LIST*
%ADD10C,0.100000*%
%ADD11C,0.975000*%
%ADD12R,1.981200X0.558800*%
G04 APERTURE END LIST*
D10*
G36*
X115542142Y-52805174D02*
G01*
X115565803Y-52808684D01*
X115589007Y-52814496D01*
X115611529Y-52822554D01*
X115633153Y-52832782D01*
X115653670Y-52845079D01*
X115672883Y-52859329D01*
X115690607Y-52875393D01*
X115706671Y-52893117D01*
X115720921Y-52912330D01*
X115733218Y-52932847D01*
X115743446Y-52954471D01*
X115751504Y-52976993D01*
X115757316Y-53000197D01*
X115760826Y-53023858D01*
X115762000Y-53047750D01*
X115762000Y-53535250D01*
X115760826Y-53559142D01*
X115757316Y-53582803D01*
X115751504Y-53606007D01*
X115743446Y-53628529D01*
X115733218Y-53650153D01*
X115720921Y-53670670D01*
X115706671Y-53689883D01*
X115690607Y-53707607D01*
X115672883Y-53723671D01*
X115653670Y-53737921D01*
X115633153Y-53750218D01*
X115611529Y-53760446D01*
X115589007Y-53768504D01*
X115565803Y-53774316D01*
X115542142Y-53777826D01*
X115518250Y-53779000D01*
X114605750Y-53779000D01*
X114581858Y-53777826D01*
X114558197Y-53774316D01*
X114534993Y-53768504D01*
X114512471Y-53760446D01*
X114490847Y-53750218D01*
X114470330Y-53737921D01*
X114451117Y-53723671D01*
X114433393Y-53707607D01*
X114417329Y-53689883D01*
X114403079Y-53670670D01*
X114390782Y-53650153D01*
X114380554Y-53628529D01*
X114372496Y-53606007D01*
X114366684Y-53582803D01*
X114363174Y-53559142D01*
X114362000Y-53535250D01*
X114362000Y-53047750D01*
X114363174Y-53023858D01*
X114366684Y-53000197D01*
X114372496Y-52976993D01*
X114380554Y-52954471D01*
X114390782Y-52932847D01*
X114403079Y-52912330D01*
X114417329Y-52893117D01*
X114433393Y-52875393D01*
X114451117Y-52859329D01*
X114470330Y-52845079D01*
X114490847Y-52832782D01*
X114512471Y-52822554D01*
X114534993Y-52814496D01*
X114558197Y-52808684D01*
X114581858Y-52805174D01*
X114605750Y-52804000D01*
X115518250Y-52804000D01*
X115542142Y-52805174D01*
X115542142Y-52805174D01*
G37*
D11*
X115062000Y-53291500D03*
D10*
G36*
X115542142Y-54680174D02*
G01*
X115565803Y-54683684D01*
X115589007Y-54689496D01*
X115611529Y-54697554D01*
X115633153Y-54707782D01*
X115653670Y-54720079D01*
X115672883Y-54734329D01*
X115690607Y-54750393D01*
X115706671Y-54768117D01*
X115720921Y-54787330D01*
X115733218Y-54807847D01*
X115743446Y-54829471D01*
X115751504Y-54851993D01*
X115757316Y-54875197D01*
X115760826Y-54898858D01*
X115762000Y-54922750D01*
X115762000Y-55410250D01*
X115760826Y-55434142D01*
X115757316Y-55457803D01*
X115751504Y-55481007D01*
X115743446Y-55503529D01*
X115733218Y-55525153D01*
X115720921Y-55545670D01*
X115706671Y-55564883D01*
X115690607Y-55582607D01*
X115672883Y-55598671D01*
X115653670Y-55612921D01*
X115633153Y-55625218D01*
X115611529Y-55635446D01*
X115589007Y-55643504D01*
X115565803Y-55649316D01*
X115542142Y-55652826D01*
X115518250Y-55654000D01*
X114605750Y-55654000D01*
X114581858Y-55652826D01*
X114558197Y-55649316D01*
X114534993Y-55643504D01*
X114512471Y-55635446D01*
X114490847Y-55625218D01*
X114470330Y-55612921D01*
X114451117Y-55598671D01*
X114433393Y-55582607D01*
X114417329Y-55564883D01*
X114403079Y-55545670D01*
X114390782Y-55525153D01*
X114380554Y-55503529D01*
X114372496Y-55481007D01*
X114366684Y-55457803D01*
X114363174Y-55434142D01*
X114362000Y-55410250D01*
X114362000Y-54922750D01*
X114363174Y-54898858D01*
X114366684Y-54875197D01*
X114372496Y-54851993D01*
X114380554Y-54829471D01*
X114390782Y-54807847D01*
X114403079Y-54787330D01*
X114417329Y-54768117D01*
X114433393Y-54750393D01*
X114451117Y-54734329D01*
X114470330Y-54720079D01*
X114490847Y-54707782D01*
X114512471Y-54697554D01*
X114534993Y-54689496D01*
X114558197Y-54683684D01*
X114581858Y-54680174D01*
X114605750Y-54679000D01*
X115518250Y-54679000D01*
X115542142Y-54680174D01*
X115542142Y-54680174D01*
G37*
D11*
X115062000Y-55166500D03*
D10*
G36*
X114894442Y-56005574D02*
G01*
X114918103Y-56009084D01*
X114941307Y-56014896D01*
X114963829Y-56022954D01*
X114985453Y-56033182D01*
X115005970Y-56045479D01*
X115025183Y-56059729D01*
X115042907Y-56075793D01*
X115058971Y-56093517D01*
X115073221Y-56112730D01*
X115085518Y-56133247D01*
X115095746Y-56154871D01*
X115103804Y-56177393D01*
X115109616Y-56200597D01*
X115113126Y-56224258D01*
X115114300Y-56248150D01*
X115114300Y-56735650D01*
X115113126Y-56759542D01*
X115109616Y-56783203D01*
X115103804Y-56806407D01*
X115095746Y-56828929D01*
X115085518Y-56850553D01*
X115073221Y-56871070D01*
X115058971Y-56890283D01*
X115042907Y-56908007D01*
X115025183Y-56924071D01*
X115005970Y-56938321D01*
X114985453Y-56950618D01*
X114963829Y-56960846D01*
X114941307Y-56968904D01*
X114918103Y-56974716D01*
X114894442Y-56978226D01*
X114870550Y-56979400D01*
X113958050Y-56979400D01*
X113934158Y-56978226D01*
X113910497Y-56974716D01*
X113887293Y-56968904D01*
X113864771Y-56960846D01*
X113843147Y-56950618D01*
X113822630Y-56938321D01*
X113803417Y-56924071D01*
X113785693Y-56908007D01*
X113769629Y-56890283D01*
X113755379Y-56871070D01*
X113743082Y-56850553D01*
X113732854Y-56828929D01*
X113724796Y-56806407D01*
X113718984Y-56783203D01*
X113715474Y-56759542D01*
X113714300Y-56735650D01*
X113714300Y-56248150D01*
X113715474Y-56224258D01*
X113718984Y-56200597D01*
X113724796Y-56177393D01*
X113732854Y-56154871D01*
X113743082Y-56133247D01*
X113755379Y-56112730D01*
X113769629Y-56093517D01*
X113785693Y-56075793D01*
X113803417Y-56059729D01*
X113822630Y-56045479D01*
X113843147Y-56033182D01*
X113864771Y-56022954D01*
X113887293Y-56014896D01*
X113910497Y-56009084D01*
X113934158Y-56005574D01*
X113958050Y-56004400D01*
X114870550Y-56004400D01*
X114894442Y-56005574D01*
X114894442Y-56005574D01*
G37*
D11*
X114414300Y-56491900D03*
D10*
G36*
X114894442Y-57880574D02*
G01*
X114918103Y-57884084D01*
X114941307Y-57889896D01*
X114963829Y-57897954D01*
X114985453Y-57908182D01*
X115005970Y-57920479D01*
X115025183Y-57934729D01*
X115042907Y-57950793D01*
X115058971Y-57968517D01*
X115073221Y-57987730D01*
X115085518Y-58008247D01*
X115095746Y-58029871D01*
X115103804Y-58052393D01*
X115109616Y-58075597D01*
X115113126Y-58099258D01*
X115114300Y-58123150D01*
X115114300Y-58610650D01*
X115113126Y-58634542D01*
X115109616Y-58658203D01*
X115103804Y-58681407D01*
X115095746Y-58703929D01*
X115085518Y-58725553D01*
X115073221Y-58746070D01*
X115058971Y-58765283D01*
X115042907Y-58783007D01*
X115025183Y-58799071D01*
X115005970Y-58813321D01*
X114985453Y-58825618D01*
X114963829Y-58835846D01*
X114941307Y-58843904D01*
X114918103Y-58849716D01*
X114894442Y-58853226D01*
X114870550Y-58854400D01*
X113958050Y-58854400D01*
X113934158Y-58853226D01*
X113910497Y-58849716D01*
X113887293Y-58843904D01*
X113864771Y-58835846D01*
X113843147Y-58825618D01*
X113822630Y-58813321D01*
X113803417Y-58799071D01*
X113785693Y-58783007D01*
X113769629Y-58765283D01*
X113755379Y-58746070D01*
X113743082Y-58725553D01*
X113732854Y-58703929D01*
X113724796Y-58681407D01*
X113718984Y-58658203D01*
X113715474Y-58634542D01*
X113714300Y-58610650D01*
X113714300Y-58123150D01*
X113715474Y-58099258D01*
X113718984Y-58075597D01*
X113724796Y-58052393D01*
X113732854Y-58029871D01*
X113743082Y-58008247D01*
X113755379Y-57987730D01*
X113769629Y-57968517D01*
X113785693Y-57950793D01*
X113803417Y-57934729D01*
X113822630Y-57920479D01*
X113843147Y-57908182D01*
X113864771Y-57897954D01*
X113887293Y-57889896D01*
X113910497Y-57884084D01*
X113934158Y-57880574D01*
X113958050Y-57879400D01*
X114870550Y-57879400D01*
X114894442Y-57880574D01*
X114894442Y-57880574D01*
G37*
D11*
X114414300Y-58366900D03*
D10*
G36*
X127480142Y-60979374D02*
G01*
X127503803Y-60982884D01*
X127527007Y-60988696D01*
X127549529Y-60996754D01*
X127571153Y-61006982D01*
X127591670Y-61019279D01*
X127610883Y-61033529D01*
X127628607Y-61049593D01*
X127644671Y-61067317D01*
X127658921Y-61086530D01*
X127671218Y-61107047D01*
X127681446Y-61128671D01*
X127689504Y-61151193D01*
X127695316Y-61174397D01*
X127698826Y-61198058D01*
X127700000Y-61221950D01*
X127700000Y-61709450D01*
X127698826Y-61733342D01*
X127695316Y-61757003D01*
X127689504Y-61780207D01*
X127681446Y-61802729D01*
X127671218Y-61824353D01*
X127658921Y-61844870D01*
X127644671Y-61864083D01*
X127628607Y-61881807D01*
X127610883Y-61897871D01*
X127591670Y-61912121D01*
X127571153Y-61924418D01*
X127549529Y-61934646D01*
X127527007Y-61942704D01*
X127503803Y-61948516D01*
X127480142Y-61952026D01*
X127456250Y-61953200D01*
X126543750Y-61953200D01*
X126519858Y-61952026D01*
X126496197Y-61948516D01*
X126472993Y-61942704D01*
X126450471Y-61934646D01*
X126428847Y-61924418D01*
X126408330Y-61912121D01*
X126389117Y-61897871D01*
X126371393Y-61881807D01*
X126355329Y-61864083D01*
X126341079Y-61844870D01*
X126328782Y-61824353D01*
X126318554Y-61802729D01*
X126310496Y-61780207D01*
X126304684Y-61757003D01*
X126301174Y-61733342D01*
X126300000Y-61709450D01*
X126300000Y-61221950D01*
X126301174Y-61198058D01*
X126304684Y-61174397D01*
X126310496Y-61151193D01*
X126318554Y-61128671D01*
X126328782Y-61107047D01*
X126341079Y-61086530D01*
X126355329Y-61067317D01*
X126371393Y-61049593D01*
X126389117Y-61033529D01*
X126408330Y-61019279D01*
X126428847Y-61006982D01*
X126450471Y-60996754D01*
X126472993Y-60988696D01*
X126496197Y-60982884D01*
X126519858Y-60979374D01*
X126543750Y-60978200D01*
X127456250Y-60978200D01*
X127480142Y-60979374D01*
X127480142Y-60979374D01*
G37*
D11*
X127000000Y-61465700D03*
D10*
G36*
X127480142Y-59104374D02*
G01*
X127503803Y-59107884D01*
X127527007Y-59113696D01*
X127549529Y-59121754D01*
X127571153Y-59131982D01*
X127591670Y-59144279D01*
X127610883Y-59158529D01*
X127628607Y-59174593D01*
X127644671Y-59192317D01*
X127658921Y-59211530D01*
X127671218Y-59232047D01*
X127681446Y-59253671D01*
X127689504Y-59276193D01*
X127695316Y-59299397D01*
X127698826Y-59323058D01*
X127700000Y-59346950D01*
X127700000Y-59834450D01*
X127698826Y-59858342D01*
X127695316Y-59882003D01*
X127689504Y-59905207D01*
X127681446Y-59927729D01*
X127671218Y-59949353D01*
X127658921Y-59969870D01*
X127644671Y-59989083D01*
X127628607Y-60006807D01*
X127610883Y-60022871D01*
X127591670Y-60037121D01*
X127571153Y-60049418D01*
X127549529Y-60059646D01*
X127527007Y-60067704D01*
X127503803Y-60073516D01*
X127480142Y-60077026D01*
X127456250Y-60078200D01*
X126543750Y-60078200D01*
X126519858Y-60077026D01*
X126496197Y-60073516D01*
X126472993Y-60067704D01*
X126450471Y-60059646D01*
X126428847Y-60049418D01*
X126408330Y-60037121D01*
X126389117Y-60022871D01*
X126371393Y-60006807D01*
X126355329Y-59989083D01*
X126341079Y-59969870D01*
X126328782Y-59949353D01*
X126318554Y-59927729D01*
X126310496Y-59905207D01*
X126304684Y-59882003D01*
X126301174Y-59858342D01*
X126300000Y-59834450D01*
X126300000Y-59346950D01*
X126301174Y-59323058D01*
X126304684Y-59299397D01*
X126310496Y-59276193D01*
X126318554Y-59253671D01*
X126328782Y-59232047D01*
X126341079Y-59211530D01*
X126355329Y-59192317D01*
X126371393Y-59174593D01*
X126389117Y-59158529D01*
X126408330Y-59144279D01*
X126428847Y-59131982D01*
X126450471Y-59121754D01*
X126472993Y-59113696D01*
X126496197Y-59107884D01*
X126519858Y-59104374D01*
X126543750Y-59103200D01*
X127456250Y-59103200D01*
X127480142Y-59104374D01*
X127480142Y-59104374D01*
G37*
D11*
X127000000Y-59590700D03*
D10*
G36*
X125714842Y-60964134D02*
G01*
X125738503Y-60967644D01*
X125761707Y-60973456D01*
X125784229Y-60981514D01*
X125805853Y-60991742D01*
X125826370Y-61004039D01*
X125845583Y-61018289D01*
X125863307Y-61034353D01*
X125879371Y-61052077D01*
X125893621Y-61071290D01*
X125905918Y-61091807D01*
X125916146Y-61113431D01*
X125924204Y-61135953D01*
X125930016Y-61159157D01*
X125933526Y-61182818D01*
X125934700Y-61206710D01*
X125934700Y-61694210D01*
X125933526Y-61718102D01*
X125930016Y-61741763D01*
X125924204Y-61764967D01*
X125916146Y-61787489D01*
X125905918Y-61809113D01*
X125893621Y-61829630D01*
X125879371Y-61848843D01*
X125863307Y-61866567D01*
X125845583Y-61882631D01*
X125826370Y-61896881D01*
X125805853Y-61909178D01*
X125784229Y-61919406D01*
X125761707Y-61927464D01*
X125738503Y-61933276D01*
X125714842Y-61936786D01*
X125690950Y-61937960D01*
X124778450Y-61937960D01*
X124754558Y-61936786D01*
X124730897Y-61933276D01*
X124707693Y-61927464D01*
X124685171Y-61919406D01*
X124663547Y-61909178D01*
X124643030Y-61896881D01*
X124623817Y-61882631D01*
X124606093Y-61866567D01*
X124590029Y-61848843D01*
X124575779Y-61829630D01*
X124563482Y-61809113D01*
X124553254Y-61787489D01*
X124545196Y-61764967D01*
X124539384Y-61741763D01*
X124535874Y-61718102D01*
X124534700Y-61694210D01*
X124534700Y-61206710D01*
X124535874Y-61182818D01*
X124539384Y-61159157D01*
X124545196Y-61135953D01*
X124553254Y-61113431D01*
X124563482Y-61091807D01*
X124575779Y-61071290D01*
X124590029Y-61052077D01*
X124606093Y-61034353D01*
X124623817Y-61018289D01*
X124643030Y-61004039D01*
X124663547Y-60991742D01*
X124685171Y-60981514D01*
X124707693Y-60973456D01*
X124730897Y-60967644D01*
X124754558Y-60964134D01*
X124778450Y-60962960D01*
X125690950Y-60962960D01*
X125714842Y-60964134D01*
X125714842Y-60964134D01*
G37*
D11*
X125234700Y-61450460D03*
D10*
G36*
X125714842Y-59089134D02*
G01*
X125738503Y-59092644D01*
X125761707Y-59098456D01*
X125784229Y-59106514D01*
X125805853Y-59116742D01*
X125826370Y-59129039D01*
X125845583Y-59143289D01*
X125863307Y-59159353D01*
X125879371Y-59177077D01*
X125893621Y-59196290D01*
X125905918Y-59216807D01*
X125916146Y-59238431D01*
X125924204Y-59260953D01*
X125930016Y-59284157D01*
X125933526Y-59307818D01*
X125934700Y-59331710D01*
X125934700Y-59819210D01*
X125933526Y-59843102D01*
X125930016Y-59866763D01*
X125924204Y-59889967D01*
X125916146Y-59912489D01*
X125905918Y-59934113D01*
X125893621Y-59954630D01*
X125879371Y-59973843D01*
X125863307Y-59991567D01*
X125845583Y-60007631D01*
X125826370Y-60021881D01*
X125805853Y-60034178D01*
X125784229Y-60044406D01*
X125761707Y-60052464D01*
X125738503Y-60058276D01*
X125714842Y-60061786D01*
X125690950Y-60062960D01*
X124778450Y-60062960D01*
X124754558Y-60061786D01*
X124730897Y-60058276D01*
X124707693Y-60052464D01*
X124685171Y-60044406D01*
X124663547Y-60034178D01*
X124643030Y-60021881D01*
X124623817Y-60007631D01*
X124606093Y-59991567D01*
X124590029Y-59973843D01*
X124575779Y-59954630D01*
X124563482Y-59934113D01*
X124553254Y-59912489D01*
X124545196Y-59889967D01*
X124539384Y-59866763D01*
X124535874Y-59843102D01*
X124534700Y-59819210D01*
X124534700Y-59331710D01*
X124535874Y-59307818D01*
X124539384Y-59284157D01*
X124545196Y-59260953D01*
X124553254Y-59238431D01*
X124563482Y-59216807D01*
X124575779Y-59196290D01*
X124590029Y-59177077D01*
X124606093Y-59159353D01*
X124623817Y-59143289D01*
X124643030Y-59129039D01*
X124663547Y-59116742D01*
X124685171Y-59106514D01*
X124707693Y-59098456D01*
X124730897Y-59092644D01*
X124754558Y-59089134D01*
X124778450Y-59087960D01*
X125690950Y-59087960D01*
X125714842Y-59089134D01*
X125714842Y-59089134D01*
G37*
D11*
X125234700Y-59575460D03*
D12*
X123151900Y-53086000D03*
X123151900Y-54356000D03*
X123151900Y-55626000D03*
X123151900Y-56896000D03*
X123151900Y-58166000D03*
X123151900Y-59436000D03*
X123151900Y-60706000D03*
X123151900Y-61976000D03*
X118224300Y-61976000D03*
X118224300Y-60706000D03*
X118224300Y-59436000D03*
X118224300Y-58166000D03*
X118224300Y-56896000D03*
X118224300Y-55626000D03*
X118224300Y-54356000D03*
X118224300Y-53086000D03*
X134188200Y-53086000D03*
X134188200Y-54356000D03*
X134188200Y-55626000D03*
X134188200Y-56896000D03*
X134188200Y-58166000D03*
X134188200Y-59436000D03*
X134188200Y-60706000D03*
X134188200Y-61976000D03*
X129260600Y-61976000D03*
X129260600Y-60706000D03*
X129260600Y-59436000D03*
X129260600Y-58166000D03*
X129260600Y-56896000D03*
X129260600Y-55626000D03*
X129260600Y-54356000D03*
X129260600Y-53086000D03*
D10*
G36*
X140350702Y-64401374D02*
G01*
X140374363Y-64404884D01*
X140397567Y-64410696D01*
X140420089Y-64418754D01*
X140441713Y-64428982D01*
X140462230Y-64441279D01*
X140481443Y-64455529D01*
X140499167Y-64471593D01*
X140515231Y-64489317D01*
X140529481Y-64508530D01*
X140541778Y-64529047D01*
X140552006Y-64550671D01*
X140560064Y-64573193D01*
X140565876Y-64596397D01*
X140569386Y-64620058D01*
X140570560Y-64643950D01*
X140570560Y-65556450D01*
X140569386Y-65580342D01*
X140565876Y-65604003D01*
X140560064Y-65627207D01*
X140552006Y-65649729D01*
X140541778Y-65671353D01*
X140529481Y-65691870D01*
X140515231Y-65711083D01*
X140499167Y-65728807D01*
X140481443Y-65744871D01*
X140462230Y-65759121D01*
X140441713Y-65771418D01*
X140420089Y-65781646D01*
X140397567Y-65789704D01*
X140374363Y-65795516D01*
X140350702Y-65799026D01*
X140326810Y-65800200D01*
X139839310Y-65800200D01*
X139815418Y-65799026D01*
X139791757Y-65795516D01*
X139768553Y-65789704D01*
X139746031Y-65781646D01*
X139724407Y-65771418D01*
X139703890Y-65759121D01*
X139684677Y-65744871D01*
X139666953Y-65728807D01*
X139650889Y-65711083D01*
X139636639Y-65691870D01*
X139624342Y-65671353D01*
X139614114Y-65649729D01*
X139606056Y-65627207D01*
X139600244Y-65604003D01*
X139596734Y-65580342D01*
X139595560Y-65556450D01*
X139595560Y-64643950D01*
X139596734Y-64620058D01*
X139600244Y-64596397D01*
X139606056Y-64573193D01*
X139614114Y-64550671D01*
X139624342Y-64529047D01*
X139636639Y-64508530D01*
X139650889Y-64489317D01*
X139666953Y-64471593D01*
X139684677Y-64455529D01*
X139703890Y-64441279D01*
X139724407Y-64428982D01*
X139746031Y-64418754D01*
X139768553Y-64410696D01*
X139791757Y-64404884D01*
X139815418Y-64401374D01*
X139839310Y-64400200D01*
X140326810Y-64400200D01*
X140350702Y-64401374D01*
X140350702Y-64401374D01*
G37*
D11*
X140083060Y-65100200D03*
D10*
G36*
X142225702Y-64401374D02*
G01*
X142249363Y-64404884D01*
X142272567Y-64410696D01*
X142295089Y-64418754D01*
X142316713Y-64428982D01*
X142337230Y-64441279D01*
X142356443Y-64455529D01*
X142374167Y-64471593D01*
X142390231Y-64489317D01*
X142404481Y-64508530D01*
X142416778Y-64529047D01*
X142427006Y-64550671D01*
X142435064Y-64573193D01*
X142440876Y-64596397D01*
X142444386Y-64620058D01*
X142445560Y-64643950D01*
X142445560Y-65556450D01*
X142444386Y-65580342D01*
X142440876Y-65604003D01*
X142435064Y-65627207D01*
X142427006Y-65649729D01*
X142416778Y-65671353D01*
X142404481Y-65691870D01*
X142390231Y-65711083D01*
X142374167Y-65728807D01*
X142356443Y-65744871D01*
X142337230Y-65759121D01*
X142316713Y-65771418D01*
X142295089Y-65781646D01*
X142272567Y-65789704D01*
X142249363Y-65795516D01*
X142225702Y-65799026D01*
X142201810Y-65800200D01*
X141714310Y-65800200D01*
X141690418Y-65799026D01*
X141666757Y-65795516D01*
X141643553Y-65789704D01*
X141621031Y-65781646D01*
X141599407Y-65771418D01*
X141578890Y-65759121D01*
X141559677Y-65744871D01*
X141541953Y-65728807D01*
X141525889Y-65711083D01*
X141511639Y-65691870D01*
X141499342Y-65671353D01*
X141489114Y-65649729D01*
X141481056Y-65627207D01*
X141475244Y-65604003D01*
X141471734Y-65580342D01*
X141470560Y-65556450D01*
X141470560Y-64643950D01*
X141471734Y-64620058D01*
X141475244Y-64596397D01*
X141481056Y-64573193D01*
X141489114Y-64550671D01*
X141499342Y-64529047D01*
X141511639Y-64508530D01*
X141525889Y-64489317D01*
X141541953Y-64471593D01*
X141559677Y-64455529D01*
X141578890Y-64441279D01*
X141599407Y-64428982D01*
X141621031Y-64418754D01*
X141643553Y-64410696D01*
X141666757Y-64404884D01*
X141690418Y-64401374D01*
X141714310Y-64400200D01*
X142201810Y-64400200D01*
X142225702Y-64401374D01*
X142225702Y-64401374D01*
G37*
D11*
X141958060Y-65100200D03*
D10*
G36*
X140350702Y-62293174D02*
G01*
X140374363Y-62296684D01*
X140397567Y-62302496D01*
X140420089Y-62310554D01*
X140441713Y-62320782D01*
X140462230Y-62333079D01*
X140481443Y-62347329D01*
X140499167Y-62363393D01*
X140515231Y-62381117D01*
X140529481Y-62400330D01*
X140541778Y-62420847D01*
X140552006Y-62442471D01*
X140560064Y-62464993D01*
X140565876Y-62488197D01*
X140569386Y-62511858D01*
X140570560Y-62535750D01*
X140570560Y-63448250D01*
X140569386Y-63472142D01*
X140565876Y-63495803D01*
X140560064Y-63519007D01*
X140552006Y-63541529D01*
X140541778Y-63563153D01*
X140529481Y-63583670D01*
X140515231Y-63602883D01*
X140499167Y-63620607D01*
X140481443Y-63636671D01*
X140462230Y-63650921D01*
X140441713Y-63663218D01*
X140420089Y-63673446D01*
X140397567Y-63681504D01*
X140374363Y-63687316D01*
X140350702Y-63690826D01*
X140326810Y-63692000D01*
X139839310Y-63692000D01*
X139815418Y-63690826D01*
X139791757Y-63687316D01*
X139768553Y-63681504D01*
X139746031Y-63673446D01*
X139724407Y-63663218D01*
X139703890Y-63650921D01*
X139684677Y-63636671D01*
X139666953Y-63620607D01*
X139650889Y-63602883D01*
X139636639Y-63583670D01*
X139624342Y-63563153D01*
X139614114Y-63541529D01*
X139606056Y-63519007D01*
X139600244Y-63495803D01*
X139596734Y-63472142D01*
X139595560Y-63448250D01*
X139595560Y-62535750D01*
X139596734Y-62511858D01*
X139600244Y-62488197D01*
X139606056Y-62464993D01*
X139614114Y-62442471D01*
X139624342Y-62420847D01*
X139636639Y-62400330D01*
X139650889Y-62381117D01*
X139666953Y-62363393D01*
X139684677Y-62347329D01*
X139703890Y-62333079D01*
X139724407Y-62320782D01*
X139746031Y-62310554D01*
X139768553Y-62302496D01*
X139791757Y-62296684D01*
X139815418Y-62293174D01*
X139839310Y-62292000D01*
X140326810Y-62292000D01*
X140350702Y-62293174D01*
X140350702Y-62293174D01*
G37*
D11*
X140083060Y-62992000D03*
D10*
G36*
X142225702Y-62293174D02*
G01*
X142249363Y-62296684D01*
X142272567Y-62302496D01*
X142295089Y-62310554D01*
X142316713Y-62320782D01*
X142337230Y-62333079D01*
X142356443Y-62347329D01*
X142374167Y-62363393D01*
X142390231Y-62381117D01*
X142404481Y-62400330D01*
X142416778Y-62420847D01*
X142427006Y-62442471D01*
X142435064Y-62464993D01*
X142440876Y-62488197D01*
X142444386Y-62511858D01*
X142445560Y-62535750D01*
X142445560Y-63448250D01*
X142444386Y-63472142D01*
X142440876Y-63495803D01*
X142435064Y-63519007D01*
X142427006Y-63541529D01*
X142416778Y-63563153D01*
X142404481Y-63583670D01*
X142390231Y-63602883D01*
X142374167Y-63620607D01*
X142356443Y-63636671D01*
X142337230Y-63650921D01*
X142316713Y-63663218D01*
X142295089Y-63673446D01*
X142272567Y-63681504D01*
X142249363Y-63687316D01*
X142225702Y-63690826D01*
X142201810Y-63692000D01*
X141714310Y-63692000D01*
X141690418Y-63690826D01*
X141666757Y-63687316D01*
X141643553Y-63681504D01*
X141621031Y-63673446D01*
X141599407Y-63663218D01*
X141578890Y-63650921D01*
X141559677Y-63636671D01*
X141541953Y-63620607D01*
X141525889Y-63602883D01*
X141511639Y-63583670D01*
X141499342Y-63563153D01*
X141489114Y-63541529D01*
X141481056Y-63519007D01*
X141475244Y-63495803D01*
X141471734Y-63472142D01*
X141470560Y-63448250D01*
X141470560Y-62535750D01*
X141471734Y-62511858D01*
X141475244Y-62488197D01*
X141481056Y-62464993D01*
X141489114Y-62442471D01*
X141499342Y-62420847D01*
X141511639Y-62400330D01*
X141525889Y-62381117D01*
X141541953Y-62363393D01*
X141559677Y-62347329D01*
X141578890Y-62333079D01*
X141599407Y-62320782D01*
X141621031Y-62310554D01*
X141643553Y-62302496D01*
X141666757Y-62296684D01*
X141690418Y-62293174D01*
X141714310Y-62292000D01*
X142201810Y-62292000D01*
X142225702Y-62293174D01*
X142225702Y-62293174D01*
G37*
D11*
X141958060Y-62992000D03*
D10*
G36*
X140350702Y-60184974D02*
G01*
X140374363Y-60188484D01*
X140397567Y-60194296D01*
X140420089Y-60202354D01*
X140441713Y-60212582D01*
X140462230Y-60224879D01*
X140481443Y-60239129D01*
X140499167Y-60255193D01*
X140515231Y-60272917D01*
X140529481Y-60292130D01*
X140541778Y-60312647D01*
X140552006Y-60334271D01*
X140560064Y-60356793D01*
X140565876Y-60379997D01*
X140569386Y-60403658D01*
X140570560Y-60427550D01*
X140570560Y-61340050D01*
X140569386Y-61363942D01*
X140565876Y-61387603D01*
X140560064Y-61410807D01*
X140552006Y-61433329D01*
X140541778Y-61454953D01*
X140529481Y-61475470D01*
X140515231Y-61494683D01*
X140499167Y-61512407D01*
X140481443Y-61528471D01*
X140462230Y-61542721D01*
X140441713Y-61555018D01*
X140420089Y-61565246D01*
X140397567Y-61573304D01*
X140374363Y-61579116D01*
X140350702Y-61582626D01*
X140326810Y-61583800D01*
X139839310Y-61583800D01*
X139815418Y-61582626D01*
X139791757Y-61579116D01*
X139768553Y-61573304D01*
X139746031Y-61565246D01*
X139724407Y-61555018D01*
X139703890Y-61542721D01*
X139684677Y-61528471D01*
X139666953Y-61512407D01*
X139650889Y-61494683D01*
X139636639Y-61475470D01*
X139624342Y-61454953D01*
X139614114Y-61433329D01*
X139606056Y-61410807D01*
X139600244Y-61387603D01*
X139596734Y-61363942D01*
X139595560Y-61340050D01*
X139595560Y-60427550D01*
X139596734Y-60403658D01*
X139600244Y-60379997D01*
X139606056Y-60356793D01*
X139614114Y-60334271D01*
X139624342Y-60312647D01*
X139636639Y-60292130D01*
X139650889Y-60272917D01*
X139666953Y-60255193D01*
X139684677Y-60239129D01*
X139703890Y-60224879D01*
X139724407Y-60212582D01*
X139746031Y-60202354D01*
X139768553Y-60194296D01*
X139791757Y-60188484D01*
X139815418Y-60184974D01*
X139839310Y-60183800D01*
X140326810Y-60183800D01*
X140350702Y-60184974D01*
X140350702Y-60184974D01*
G37*
D11*
X140083060Y-60883800D03*
D10*
G36*
X142225702Y-60184974D02*
G01*
X142249363Y-60188484D01*
X142272567Y-60194296D01*
X142295089Y-60202354D01*
X142316713Y-60212582D01*
X142337230Y-60224879D01*
X142356443Y-60239129D01*
X142374167Y-60255193D01*
X142390231Y-60272917D01*
X142404481Y-60292130D01*
X142416778Y-60312647D01*
X142427006Y-60334271D01*
X142435064Y-60356793D01*
X142440876Y-60379997D01*
X142444386Y-60403658D01*
X142445560Y-60427550D01*
X142445560Y-61340050D01*
X142444386Y-61363942D01*
X142440876Y-61387603D01*
X142435064Y-61410807D01*
X142427006Y-61433329D01*
X142416778Y-61454953D01*
X142404481Y-61475470D01*
X142390231Y-61494683D01*
X142374167Y-61512407D01*
X142356443Y-61528471D01*
X142337230Y-61542721D01*
X142316713Y-61555018D01*
X142295089Y-61565246D01*
X142272567Y-61573304D01*
X142249363Y-61579116D01*
X142225702Y-61582626D01*
X142201810Y-61583800D01*
X141714310Y-61583800D01*
X141690418Y-61582626D01*
X141666757Y-61579116D01*
X141643553Y-61573304D01*
X141621031Y-61565246D01*
X141599407Y-61555018D01*
X141578890Y-61542721D01*
X141559677Y-61528471D01*
X141541953Y-61512407D01*
X141525889Y-61494683D01*
X141511639Y-61475470D01*
X141499342Y-61454953D01*
X141489114Y-61433329D01*
X141481056Y-61410807D01*
X141475244Y-61387603D01*
X141471734Y-61363942D01*
X141470560Y-61340050D01*
X141470560Y-60427550D01*
X141471734Y-60403658D01*
X141475244Y-60379997D01*
X141481056Y-60356793D01*
X141489114Y-60334271D01*
X141499342Y-60312647D01*
X141511639Y-60292130D01*
X141525889Y-60272917D01*
X141541953Y-60255193D01*
X141559677Y-60239129D01*
X141578890Y-60224879D01*
X141599407Y-60212582D01*
X141621031Y-60202354D01*
X141643553Y-60194296D01*
X141666757Y-60188484D01*
X141690418Y-60184974D01*
X141714310Y-60183800D01*
X142201810Y-60183800D01*
X142225702Y-60184974D01*
X142225702Y-60184974D01*
G37*
D11*
X141958060Y-60883800D03*
D10*
G36*
X140350702Y-58076774D02*
G01*
X140374363Y-58080284D01*
X140397567Y-58086096D01*
X140420089Y-58094154D01*
X140441713Y-58104382D01*
X140462230Y-58116679D01*
X140481443Y-58130929D01*
X140499167Y-58146993D01*
X140515231Y-58164717D01*
X140529481Y-58183930D01*
X140541778Y-58204447D01*
X140552006Y-58226071D01*
X140560064Y-58248593D01*
X140565876Y-58271797D01*
X140569386Y-58295458D01*
X140570560Y-58319350D01*
X140570560Y-59231850D01*
X140569386Y-59255742D01*
X140565876Y-59279403D01*
X140560064Y-59302607D01*
X140552006Y-59325129D01*
X140541778Y-59346753D01*
X140529481Y-59367270D01*
X140515231Y-59386483D01*
X140499167Y-59404207D01*
X140481443Y-59420271D01*
X140462230Y-59434521D01*
X140441713Y-59446818D01*
X140420089Y-59457046D01*
X140397567Y-59465104D01*
X140374363Y-59470916D01*
X140350702Y-59474426D01*
X140326810Y-59475600D01*
X139839310Y-59475600D01*
X139815418Y-59474426D01*
X139791757Y-59470916D01*
X139768553Y-59465104D01*
X139746031Y-59457046D01*
X139724407Y-59446818D01*
X139703890Y-59434521D01*
X139684677Y-59420271D01*
X139666953Y-59404207D01*
X139650889Y-59386483D01*
X139636639Y-59367270D01*
X139624342Y-59346753D01*
X139614114Y-59325129D01*
X139606056Y-59302607D01*
X139600244Y-59279403D01*
X139596734Y-59255742D01*
X139595560Y-59231850D01*
X139595560Y-58319350D01*
X139596734Y-58295458D01*
X139600244Y-58271797D01*
X139606056Y-58248593D01*
X139614114Y-58226071D01*
X139624342Y-58204447D01*
X139636639Y-58183930D01*
X139650889Y-58164717D01*
X139666953Y-58146993D01*
X139684677Y-58130929D01*
X139703890Y-58116679D01*
X139724407Y-58104382D01*
X139746031Y-58094154D01*
X139768553Y-58086096D01*
X139791757Y-58080284D01*
X139815418Y-58076774D01*
X139839310Y-58075600D01*
X140326810Y-58075600D01*
X140350702Y-58076774D01*
X140350702Y-58076774D01*
G37*
D11*
X140083060Y-58775600D03*
D10*
G36*
X142225702Y-58076774D02*
G01*
X142249363Y-58080284D01*
X142272567Y-58086096D01*
X142295089Y-58094154D01*
X142316713Y-58104382D01*
X142337230Y-58116679D01*
X142356443Y-58130929D01*
X142374167Y-58146993D01*
X142390231Y-58164717D01*
X142404481Y-58183930D01*
X142416778Y-58204447D01*
X142427006Y-58226071D01*
X142435064Y-58248593D01*
X142440876Y-58271797D01*
X142444386Y-58295458D01*
X142445560Y-58319350D01*
X142445560Y-59231850D01*
X142444386Y-59255742D01*
X142440876Y-59279403D01*
X142435064Y-59302607D01*
X142427006Y-59325129D01*
X142416778Y-59346753D01*
X142404481Y-59367270D01*
X142390231Y-59386483D01*
X142374167Y-59404207D01*
X142356443Y-59420271D01*
X142337230Y-59434521D01*
X142316713Y-59446818D01*
X142295089Y-59457046D01*
X142272567Y-59465104D01*
X142249363Y-59470916D01*
X142225702Y-59474426D01*
X142201810Y-59475600D01*
X141714310Y-59475600D01*
X141690418Y-59474426D01*
X141666757Y-59470916D01*
X141643553Y-59465104D01*
X141621031Y-59457046D01*
X141599407Y-59446818D01*
X141578890Y-59434521D01*
X141559677Y-59420271D01*
X141541953Y-59404207D01*
X141525889Y-59386483D01*
X141511639Y-59367270D01*
X141499342Y-59346753D01*
X141489114Y-59325129D01*
X141481056Y-59302607D01*
X141475244Y-59279403D01*
X141471734Y-59255742D01*
X141470560Y-59231850D01*
X141470560Y-58319350D01*
X141471734Y-58295458D01*
X141475244Y-58271797D01*
X141481056Y-58248593D01*
X141489114Y-58226071D01*
X141499342Y-58204447D01*
X141511639Y-58183930D01*
X141525889Y-58164717D01*
X141541953Y-58146993D01*
X141559677Y-58130929D01*
X141578890Y-58116679D01*
X141599407Y-58104382D01*
X141621031Y-58094154D01*
X141643553Y-58086096D01*
X141666757Y-58080284D01*
X141690418Y-58076774D01*
X141714310Y-58075600D01*
X142201810Y-58075600D01*
X142225702Y-58076774D01*
X142225702Y-58076774D01*
G37*
D11*
X141958060Y-58775600D03*
D10*
G36*
X140350702Y-55968574D02*
G01*
X140374363Y-55972084D01*
X140397567Y-55977896D01*
X140420089Y-55985954D01*
X140441713Y-55996182D01*
X140462230Y-56008479D01*
X140481443Y-56022729D01*
X140499167Y-56038793D01*
X140515231Y-56056517D01*
X140529481Y-56075730D01*
X140541778Y-56096247D01*
X140552006Y-56117871D01*
X140560064Y-56140393D01*
X140565876Y-56163597D01*
X140569386Y-56187258D01*
X140570560Y-56211150D01*
X140570560Y-57123650D01*
X140569386Y-57147542D01*
X140565876Y-57171203D01*
X140560064Y-57194407D01*
X140552006Y-57216929D01*
X140541778Y-57238553D01*
X140529481Y-57259070D01*
X140515231Y-57278283D01*
X140499167Y-57296007D01*
X140481443Y-57312071D01*
X140462230Y-57326321D01*
X140441713Y-57338618D01*
X140420089Y-57348846D01*
X140397567Y-57356904D01*
X140374363Y-57362716D01*
X140350702Y-57366226D01*
X140326810Y-57367400D01*
X139839310Y-57367400D01*
X139815418Y-57366226D01*
X139791757Y-57362716D01*
X139768553Y-57356904D01*
X139746031Y-57348846D01*
X139724407Y-57338618D01*
X139703890Y-57326321D01*
X139684677Y-57312071D01*
X139666953Y-57296007D01*
X139650889Y-57278283D01*
X139636639Y-57259070D01*
X139624342Y-57238553D01*
X139614114Y-57216929D01*
X139606056Y-57194407D01*
X139600244Y-57171203D01*
X139596734Y-57147542D01*
X139595560Y-57123650D01*
X139595560Y-56211150D01*
X139596734Y-56187258D01*
X139600244Y-56163597D01*
X139606056Y-56140393D01*
X139614114Y-56117871D01*
X139624342Y-56096247D01*
X139636639Y-56075730D01*
X139650889Y-56056517D01*
X139666953Y-56038793D01*
X139684677Y-56022729D01*
X139703890Y-56008479D01*
X139724407Y-55996182D01*
X139746031Y-55985954D01*
X139768553Y-55977896D01*
X139791757Y-55972084D01*
X139815418Y-55968574D01*
X139839310Y-55967400D01*
X140326810Y-55967400D01*
X140350702Y-55968574D01*
X140350702Y-55968574D01*
G37*
D11*
X140083060Y-56667400D03*
D10*
G36*
X142225702Y-55968574D02*
G01*
X142249363Y-55972084D01*
X142272567Y-55977896D01*
X142295089Y-55985954D01*
X142316713Y-55996182D01*
X142337230Y-56008479D01*
X142356443Y-56022729D01*
X142374167Y-56038793D01*
X142390231Y-56056517D01*
X142404481Y-56075730D01*
X142416778Y-56096247D01*
X142427006Y-56117871D01*
X142435064Y-56140393D01*
X142440876Y-56163597D01*
X142444386Y-56187258D01*
X142445560Y-56211150D01*
X142445560Y-57123650D01*
X142444386Y-57147542D01*
X142440876Y-57171203D01*
X142435064Y-57194407D01*
X142427006Y-57216929D01*
X142416778Y-57238553D01*
X142404481Y-57259070D01*
X142390231Y-57278283D01*
X142374167Y-57296007D01*
X142356443Y-57312071D01*
X142337230Y-57326321D01*
X142316713Y-57338618D01*
X142295089Y-57348846D01*
X142272567Y-57356904D01*
X142249363Y-57362716D01*
X142225702Y-57366226D01*
X142201810Y-57367400D01*
X141714310Y-57367400D01*
X141690418Y-57366226D01*
X141666757Y-57362716D01*
X141643553Y-57356904D01*
X141621031Y-57348846D01*
X141599407Y-57338618D01*
X141578890Y-57326321D01*
X141559677Y-57312071D01*
X141541953Y-57296007D01*
X141525889Y-57278283D01*
X141511639Y-57259070D01*
X141499342Y-57238553D01*
X141489114Y-57216929D01*
X141481056Y-57194407D01*
X141475244Y-57171203D01*
X141471734Y-57147542D01*
X141470560Y-57123650D01*
X141470560Y-56211150D01*
X141471734Y-56187258D01*
X141475244Y-56163597D01*
X141481056Y-56140393D01*
X141489114Y-56117871D01*
X141499342Y-56096247D01*
X141511639Y-56075730D01*
X141525889Y-56056517D01*
X141541953Y-56038793D01*
X141559677Y-56022729D01*
X141578890Y-56008479D01*
X141599407Y-55996182D01*
X141621031Y-55985954D01*
X141643553Y-55977896D01*
X141666757Y-55972084D01*
X141690418Y-55968574D01*
X141714310Y-55967400D01*
X142201810Y-55967400D01*
X142225702Y-55968574D01*
X142225702Y-55968574D01*
G37*
D11*
X141958060Y-56667400D03*
D10*
G36*
X140350702Y-53860374D02*
G01*
X140374363Y-53863884D01*
X140397567Y-53869696D01*
X140420089Y-53877754D01*
X140441713Y-53887982D01*
X140462230Y-53900279D01*
X140481443Y-53914529D01*
X140499167Y-53930593D01*
X140515231Y-53948317D01*
X140529481Y-53967530D01*
X140541778Y-53988047D01*
X140552006Y-54009671D01*
X140560064Y-54032193D01*
X140565876Y-54055397D01*
X140569386Y-54079058D01*
X140570560Y-54102950D01*
X140570560Y-55015450D01*
X140569386Y-55039342D01*
X140565876Y-55063003D01*
X140560064Y-55086207D01*
X140552006Y-55108729D01*
X140541778Y-55130353D01*
X140529481Y-55150870D01*
X140515231Y-55170083D01*
X140499167Y-55187807D01*
X140481443Y-55203871D01*
X140462230Y-55218121D01*
X140441713Y-55230418D01*
X140420089Y-55240646D01*
X140397567Y-55248704D01*
X140374363Y-55254516D01*
X140350702Y-55258026D01*
X140326810Y-55259200D01*
X139839310Y-55259200D01*
X139815418Y-55258026D01*
X139791757Y-55254516D01*
X139768553Y-55248704D01*
X139746031Y-55240646D01*
X139724407Y-55230418D01*
X139703890Y-55218121D01*
X139684677Y-55203871D01*
X139666953Y-55187807D01*
X139650889Y-55170083D01*
X139636639Y-55150870D01*
X139624342Y-55130353D01*
X139614114Y-55108729D01*
X139606056Y-55086207D01*
X139600244Y-55063003D01*
X139596734Y-55039342D01*
X139595560Y-55015450D01*
X139595560Y-54102950D01*
X139596734Y-54079058D01*
X139600244Y-54055397D01*
X139606056Y-54032193D01*
X139614114Y-54009671D01*
X139624342Y-53988047D01*
X139636639Y-53967530D01*
X139650889Y-53948317D01*
X139666953Y-53930593D01*
X139684677Y-53914529D01*
X139703890Y-53900279D01*
X139724407Y-53887982D01*
X139746031Y-53877754D01*
X139768553Y-53869696D01*
X139791757Y-53863884D01*
X139815418Y-53860374D01*
X139839310Y-53859200D01*
X140326810Y-53859200D01*
X140350702Y-53860374D01*
X140350702Y-53860374D01*
G37*
D11*
X140083060Y-54559200D03*
D10*
G36*
X142225702Y-53860374D02*
G01*
X142249363Y-53863884D01*
X142272567Y-53869696D01*
X142295089Y-53877754D01*
X142316713Y-53887982D01*
X142337230Y-53900279D01*
X142356443Y-53914529D01*
X142374167Y-53930593D01*
X142390231Y-53948317D01*
X142404481Y-53967530D01*
X142416778Y-53988047D01*
X142427006Y-54009671D01*
X142435064Y-54032193D01*
X142440876Y-54055397D01*
X142444386Y-54079058D01*
X142445560Y-54102950D01*
X142445560Y-55015450D01*
X142444386Y-55039342D01*
X142440876Y-55063003D01*
X142435064Y-55086207D01*
X142427006Y-55108729D01*
X142416778Y-55130353D01*
X142404481Y-55150870D01*
X142390231Y-55170083D01*
X142374167Y-55187807D01*
X142356443Y-55203871D01*
X142337230Y-55218121D01*
X142316713Y-55230418D01*
X142295089Y-55240646D01*
X142272567Y-55248704D01*
X142249363Y-55254516D01*
X142225702Y-55258026D01*
X142201810Y-55259200D01*
X141714310Y-55259200D01*
X141690418Y-55258026D01*
X141666757Y-55254516D01*
X141643553Y-55248704D01*
X141621031Y-55240646D01*
X141599407Y-55230418D01*
X141578890Y-55218121D01*
X141559677Y-55203871D01*
X141541953Y-55187807D01*
X141525889Y-55170083D01*
X141511639Y-55150870D01*
X141499342Y-55130353D01*
X141489114Y-55108729D01*
X141481056Y-55086207D01*
X141475244Y-55063003D01*
X141471734Y-55039342D01*
X141470560Y-55015450D01*
X141470560Y-54102950D01*
X141471734Y-54079058D01*
X141475244Y-54055397D01*
X141481056Y-54032193D01*
X141489114Y-54009671D01*
X141499342Y-53988047D01*
X141511639Y-53967530D01*
X141525889Y-53948317D01*
X141541953Y-53930593D01*
X141559677Y-53914529D01*
X141578890Y-53900279D01*
X141599407Y-53887982D01*
X141621031Y-53877754D01*
X141643553Y-53869696D01*
X141666757Y-53863884D01*
X141690418Y-53860374D01*
X141714310Y-53859200D01*
X142201810Y-53859200D01*
X142225702Y-53860374D01*
X142225702Y-53860374D01*
G37*
D11*
X141958060Y-54559200D03*
D10*
G36*
X140350702Y-51752174D02*
G01*
X140374363Y-51755684D01*
X140397567Y-51761496D01*
X140420089Y-51769554D01*
X140441713Y-51779782D01*
X140462230Y-51792079D01*
X140481443Y-51806329D01*
X140499167Y-51822393D01*
X140515231Y-51840117D01*
X140529481Y-51859330D01*
X140541778Y-51879847D01*
X140552006Y-51901471D01*
X140560064Y-51923993D01*
X140565876Y-51947197D01*
X140569386Y-51970858D01*
X140570560Y-51994750D01*
X140570560Y-52907250D01*
X140569386Y-52931142D01*
X140565876Y-52954803D01*
X140560064Y-52978007D01*
X140552006Y-53000529D01*
X140541778Y-53022153D01*
X140529481Y-53042670D01*
X140515231Y-53061883D01*
X140499167Y-53079607D01*
X140481443Y-53095671D01*
X140462230Y-53109921D01*
X140441713Y-53122218D01*
X140420089Y-53132446D01*
X140397567Y-53140504D01*
X140374363Y-53146316D01*
X140350702Y-53149826D01*
X140326810Y-53151000D01*
X139839310Y-53151000D01*
X139815418Y-53149826D01*
X139791757Y-53146316D01*
X139768553Y-53140504D01*
X139746031Y-53132446D01*
X139724407Y-53122218D01*
X139703890Y-53109921D01*
X139684677Y-53095671D01*
X139666953Y-53079607D01*
X139650889Y-53061883D01*
X139636639Y-53042670D01*
X139624342Y-53022153D01*
X139614114Y-53000529D01*
X139606056Y-52978007D01*
X139600244Y-52954803D01*
X139596734Y-52931142D01*
X139595560Y-52907250D01*
X139595560Y-51994750D01*
X139596734Y-51970858D01*
X139600244Y-51947197D01*
X139606056Y-51923993D01*
X139614114Y-51901471D01*
X139624342Y-51879847D01*
X139636639Y-51859330D01*
X139650889Y-51840117D01*
X139666953Y-51822393D01*
X139684677Y-51806329D01*
X139703890Y-51792079D01*
X139724407Y-51779782D01*
X139746031Y-51769554D01*
X139768553Y-51761496D01*
X139791757Y-51755684D01*
X139815418Y-51752174D01*
X139839310Y-51751000D01*
X140326810Y-51751000D01*
X140350702Y-51752174D01*
X140350702Y-51752174D01*
G37*
D11*
X140083060Y-52451000D03*
D10*
G36*
X142225702Y-51752174D02*
G01*
X142249363Y-51755684D01*
X142272567Y-51761496D01*
X142295089Y-51769554D01*
X142316713Y-51779782D01*
X142337230Y-51792079D01*
X142356443Y-51806329D01*
X142374167Y-51822393D01*
X142390231Y-51840117D01*
X142404481Y-51859330D01*
X142416778Y-51879847D01*
X142427006Y-51901471D01*
X142435064Y-51923993D01*
X142440876Y-51947197D01*
X142444386Y-51970858D01*
X142445560Y-51994750D01*
X142445560Y-52907250D01*
X142444386Y-52931142D01*
X142440876Y-52954803D01*
X142435064Y-52978007D01*
X142427006Y-53000529D01*
X142416778Y-53022153D01*
X142404481Y-53042670D01*
X142390231Y-53061883D01*
X142374167Y-53079607D01*
X142356443Y-53095671D01*
X142337230Y-53109921D01*
X142316713Y-53122218D01*
X142295089Y-53132446D01*
X142272567Y-53140504D01*
X142249363Y-53146316D01*
X142225702Y-53149826D01*
X142201810Y-53151000D01*
X141714310Y-53151000D01*
X141690418Y-53149826D01*
X141666757Y-53146316D01*
X141643553Y-53140504D01*
X141621031Y-53132446D01*
X141599407Y-53122218D01*
X141578890Y-53109921D01*
X141559677Y-53095671D01*
X141541953Y-53079607D01*
X141525889Y-53061883D01*
X141511639Y-53042670D01*
X141499342Y-53022153D01*
X141489114Y-53000529D01*
X141481056Y-52978007D01*
X141475244Y-52954803D01*
X141471734Y-52931142D01*
X141470560Y-52907250D01*
X141470560Y-51994750D01*
X141471734Y-51970858D01*
X141475244Y-51947197D01*
X141481056Y-51923993D01*
X141489114Y-51901471D01*
X141499342Y-51879847D01*
X141511639Y-51859330D01*
X141525889Y-51840117D01*
X141541953Y-51822393D01*
X141559677Y-51806329D01*
X141578890Y-51792079D01*
X141599407Y-51779782D01*
X141621031Y-51769554D01*
X141643553Y-51761496D01*
X141666757Y-51755684D01*
X141690418Y-51752174D01*
X141714310Y-51751000D01*
X142201810Y-51751000D01*
X142225702Y-51752174D01*
X142225702Y-51752174D01*
G37*
D11*
X141958060Y-52451000D03*
D10*
G36*
X140350702Y-49643974D02*
G01*
X140374363Y-49647484D01*
X140397567Y-49653296D01*
X140420089Y-49661354D01*
X140441713Y-49671582D01*
X140462230Y-49683879D01*
X140481443Y-49698129D01*
X140499167Y-49714193D01*
X140515231Y-49731917D01*
X140529481Y-49751130D01*
X140541778Y-49771647D01*
X140552006Y-49793271D01*
X140560064Y-49815793D01*
X140565876Y-49838997D01*
X140569386Y-49862658D01*
X140570560Y-49886550D01*
X140570560Y-50799050D01*
X140569386Y-50822942D01*
X140565876Y-50846603D01*
X140560064Y-50869807D01*
X140552006Y-50892329D01*
X140541778Y-50913953D01*
X140529481Y-50934470D01*
X140515231Y-50953683D01*
X140499167Y-50971407D01*
X140481443Y-50987471D01*
X140462230Y-51001721D01*
X140441713Y-51014018D01*
X140420089Y-51024246D01*
X140397567Y-51032304D01*
X140374363Y-51038116D01*
X140350702Y-51041626D01*
X140326810Y-51042800D01*
X139839310Y-51042800D01*
X139815418Y-51041626D01*
X139791757Y-51038116D01*
X139768553Y-51032304D01*
X139746031Y-51024246D01*
X139724407Y-51014018D01*
X139703890Y-51001721D01*
X139684677Y-50987471D01*
X139666953Y-50971407D01*
X139650889Y-50953683D01*
X139636639Y-50934470D01*
X139624342Y-50913953D01*
X139614114Y-50892329D01*
X139606056Y-50869807D01*
X139600244Y-50846603D01*
X139596734Y-50822942D01*
X139595560Y-50799050D01*
X139595560Y-49886550D01*
X139596734Y-49862658D01*
X139600244Y-49838997D01*
X139606056Y-49815793D01*
X139614114Y-49793271D01*
X139624342Y-49771647D01*
X139636639Y-49751130D01*
X139650889Y-49731917D01*
X139666953Y-49714193D01*
X139684677Y-49698129D01*
X139703890Y-49683879D01*
X139724407Y-49671582D01*
X139746031Y-49661354D01*
X139768553Y-49653296D01*
X139791757Y-49647484D01*
X139815418Y-49643974D01*
X139839310Y-49642800D01*
X140326810Y-49642800D01*
X140350702Y-49643974D01*
X140350702Y-49643974D01*
G37*
D11*
X140083060Y-50342800D03*
D10*
G36*
X142225702Y-49643974D02*
G01*
X142249363Y-49647484D01*
X142272567Y-49653296D01*
X142295089Y-49661354D01*
X142316713Y-49671582D01*
X142337230Y-49683879D01*
X142356443Y-49698129D01*
X142374167Y-49714193D01*
X142390231Y-49731917D01*
X142404481Y-49751130D01*
X142416778Y-49771647D01*
X142427006Y-49793271D01*
X142435064Y-49815793D01*
X142440876Y-49838997D01*
X142444386Y-49862658D01*
X142445560Y-49886550D01*
X142445560Y-50799050D01*
X142444386Y-50822942D01*
X142440876Y-50846603D01*
X142435064Y-50869807D01*
X142427006Y-50892329D01*
X142416778Y-50913953D01*
X142404481Y-50934470D01*
X142390231Y-50953683D01*
X142374167Y-50971407D01*
X142356443Y-50987471D01*
X142337230Y-51001721D01*
X142316713Y-51014018D01*
X142295089Y-51024246D01*
X142272567Y-51032304D01*
X142249363Y-51038116D01*
X142225702Y-51041626D01*
X142201810Y-51042800D01*
X141714310Y-51042800D01*
X141690418Y-51041626D01*
X141666757Y-51038116D01*
X141643553Y-51032304D01*
X141621031Y-51024246D01*
X141599407Y-51014018D01*
X141578890Y-51001721D01*
X141559677Y-50987471D01*
X141541953Y-50971407D01*
X141525889Y-50953683D01*
X141511639Y-50934470D01*
X141499342Y-50913953D01*
X141489114Y-50892329D01*
X141481056Y-50869807D01*
X141475244Y-50846603D01*
X141471734Y-50822942D01*
X141470560Y-50799050D01*
X141470560Y-49886550D01*
X141471734Y-49862658D01*
X141475244Y-49838997D01*
X141481056Y-49815793D01*
X141489114Y-49793271D01*
X141499342Y-49771647D01*
X141511639Y-49751130D01*
X141525889Y-49731917D01*
X141541953Y-49714193D01*
X141559677Y-49698129D01*
X141578890Y-49683879D01*
X141599407Y-49671582D01*
X141621031Y-49661354D01*
X141643553Y-49653296D01*
X141666757Y-49647484D01*
X141690418Y-49643974D01*
X141714310Y-49642800D01*
X142201810Y-49642800D01*
X142225702Y-49643974D01*
X142225702Y-49643974D01*
G37*
D11*
X141958060Y-50342800D03*
D10*
G36*
X143807882Y-64401374D02*
G01*
X143831543Y-64404884D01*
X143854747Y-64410696D01*
X143877269Y-64418754D01*
X143898893Y-64428982D01*
X143919410Y-64441279D01*
X143938623Y-64455529D01*
X143956347Y-64471593D01*
X143972411Y-64489317D01*
X143986661Y-64508530D01*
X143998958Y-64529047D01*
X144009186Y-64550671D01*
X144017244Y-64573193D01*
X144023056Y-64596397D01*
X144026566Y-64620058D01*
X144027740Y-64643950D01*
X144027740Y-65556450D01*
X144026566Y-65580342D01*
X144023056Y-65604003D01*
X144017244Y-65627207D01*
X144009186Y-65649729D01*
X143998958Y-65671353D01*
X143986661Y-65691870D01*
X143972411Y-65711083D01*
X143956347Y-65728807D01*
X143938623Y-65744871D01*
X143919410Y-65759121D01*
X143898893Y-65771418D01*
X143877269Y-65781646D01*
X143854747Y-65789704D01*
X143831543Y-65795516D01*
X143807882Y-65799026D01*
X143783990Y-65800200D01*
X143296490Y-65800200D01*
X143272598Y-65799026D01*
X143248937Y-65795516D01*
X143225733Y-65789704D01*
X143203211Y-65781646D01*
X143181587Y-65771418D01*
X143161070Y-65759121D01*
X143141857Y-65744871D01*
X143124133Y-65728807D01*
X143108069Y-65711083D01*
X143093819Y-65691870D01*
X143081522Y-65671353D01*
X143071294Y-65649729D01*
X143063236Y-65627207D01*
X143057424Y-65604003D01*
X143053914Y-65580342D01*
X143052740Y-65556450D01*
X143052740Y-64643950D01*
X143053914Y-64620058D01*
X143057424Y-64596397D01*
X143063236Y-64573193D01*
X143071294Y-64550671D01*
X143081522Y-64529047D01*
X143093819Y-64508530D01*
X143108069Y-64489317D01*
X143124133Y-64471593D01*
X143141857Y-64455529D01*
X143161070Y-64441279D01*
X143181587Y-64428982D01*
X143203211Y-64418754D01*
X143225733Y-64410696D01*
X143248937Y-64404884D01*
X143272598Y-64401374D01*
X143296490Y-64400200D01*
X143783990Y-64400200D01*
X143807882Y-64401374D01*
X143807882Y-64401374D01*
G37*
D11*
X143540240Y-65100200D03*
D10*
G36*
X145682882Y-64401374D02*
G01*
X145706543Y-64404884D01*
X145729747Y-64410696D01*
X145752269Y-64418754D01*
X145773893Y-64428982D01*
X145794410Y-64441279D01*
X145813623Y-64455529D01*
X145831347Y-64471593D01*
X145847411Y-64489317D01*
X145861661Y-64508530D01*
X145873958Y-64529047D01*
X145884186Y-64550671D01*
X145892244Y-64573193D01*
X145898056Y-64596397D01*
X145901566Y-64620058D01*
X145902740Y-64643950D01*
X145902740Y-65556450D01*
X145901566Y-65580342D01*
X145898056Y-65604003D01*
X145892244Y-65627207D01*
X145884186Y-65649729D01*
X145873958Y-65671353D01*
X145861661Y-65691870D01*
X145847411Y-65711083D01*
X145831347Y-65728807D01*
X145813623Y-65744871D01*
X145794410Y-65759121D01*
X145773893Y-65771418D01*
X145752269Y-65781646D01*
X145729747Y-65789704D01*
X145706543Y-65795516D01*
X145682882Y-65799026D01*
X145658990Y-65800200D01*
X145171490Y-65800200D01*
X145147598Y-65799026D01*
X145123937Y-65795516D01*
X145100733Y-65789704D01*
X145078211Y-65781646D01*
X145056587Y-65771418D01*
X145036070Y-65759121D01*
X145016857Y-65744871D01*
X144999133Y-65728807D01*
X144983069Y-65711083D01*
X144968819Y-65691870D01*
X144956522Y-65671353D01*
X144946294Y-65649729D01*
X144938236Y-65627207D01*
X144932424Y-65604003D01*
X144928914Y-65580342D01*
X144927740Y-65556450D01*
X144927740Y-64643950D01*
X144928914Y-64620058D01*
X144932424Y-64596397D01*
X144938236Y-64573193D01*
X144946294Y-64550671D01*
X144956522Y-64529047D01*
X144968819Y-64508530D01*
X144983069Y-64489317D01*
X144999133Y-64471593D01*
X145016857Y-64455529D01*
X145036070Y-64441279D01*
X145056587Y-64428982D01*
X145078211Y-64418754D01*
X145100733Y-64410696D01*
X145123937Y-64404884D01*
X145147598Y-64401374D01*
X145171490Y-64400200D01*
X145658990Y-64400200D01*
X145682882Y-64401374D01*
X145682882Y-64401374D01*
G37*
D11*
X145415240Y-65100200D03*
D10*
G36*
X143807882Y-62293174D02*
G01*
X143831543Y-62296684D01*
X143854747Y-62302496D01*
X143877269Y-62310554D01*
X143898893Y-62320782D01*
X143919410Y-62333079D01*
X143938623Y-62347329D01*
X143956347Y-62363393D01*
X143972411Y-62381117D01*
X143986661Y-62400330D01*
X143998958Y-62420847D01*
X144009186Y-62442471D01*
X144017244Y-62464993D01*
X144023056Y-62488197D01*
X144026566Y-62511858D01*
X144027740Y-62535750D01*
X144027740Y-63448250D01*
X144026566Y-63472142D01*
X144023056Y-63495803D01*
X144017244Y-63519007D01*
X144009186Y-63541529D01*
X143998958Y-63563153D01*
X143986661Y-63583670D01*
X143972411Y-63602883D01*
X143956347Y-63620607D01*
X143938623Y-63636671D01*
X143919410Y-63650921D01*
X143898893Y-63663218D01*
X143877269Y-63673446D01*
X143854747Y-63681504D01*
X143831543Y-63687316D01*
X143807882Y-63690826D01*
X143783990Y-63692000D01*
X143296490Y-63692000D01*
X143272598Y-63690826D01*
X143248937Y-63687316D01*
X143225733Y-63681504D01*
X143203211Y-63673446D01*
X143181587Y-63663218D01*
X143161070Y-63650921D01*
X143141857Y-63636671D01*
X143124133Y-63620607D01*
X143108069Y-63602883D01*
X143093819Y-63583670D01*
X143081522Y-63563153D01*
X143071294Y-63541529D01*
X143063236Y-63519007D01*
X143057424Y-63495803D01*
X143053914Y-63472142D01*
X143052740Y-63448250D01*
X143052740Y-62535750D01*
X143053914Y-62511858D01*
X143057424Y-62488197D01*
X143063236Y-62464993D01*
X143071294Y-62442471D01*
X143081522Y-62420847D01*
X143093819Y-62400330D01*
X143108069Y-62381117D01*
X143124133Y-62363393D01*
X143141857Y-62347329D01*
X143161070Y-62333079D01*
X143181587Y-62320782D01*
X143203211Y-62310554D01*
X143225733Y-62302496D01*
X143248937Y-62296684D01*
X143272598Y-62293174D01*
X143296490Y-62292000D01*
X143783990Y-62292000D01*
X143807882Y-62293174D01*
X143807882Y-62293174D01*
G37*
D11*
X143540240Y-62992000D03*
D10*
G36*
X145682882Y-62293174D02*
G01*
X145706543Y-62296684D01*
X145729747Y-62302496D01*
X145752269Y-62310554D01*
X145773893Y-62320782D01*
X145794410Y-62333079D01*
X145813623Y-62347329D01*
X145831347Y-62363393D01*
X145847411Y-62381117D01*
X145861661Y-62400330D01*
X145873958Y-62420847D01*
X145884186Y-62442471D01*
X145892244Y-62464993D01*
X145898056Y-62488197D01*
X145901566Y-62511858D01*
X145902740Y-62535750D01*
X145902740Y-63448250D01*
X145901566Y-63472142D01*
X145898056Y-63495803D01*
X145892244Y-63519007D01*
X145884186Y-63541529D01*
X145873958Y-63563153D01*
X145861661Y-63583670D01*
X145847411Y-63602883D01*
X145831347Y-63620607D01*
X145813623Y-63636671D01*
X145794410Y-63650921D01*
X145773893Y-63663218D01*
X145752269Y-63673446D01*
X145729747Y-63681504D01*
X145706543Y-63687316D01*
X145682882Y-63690826D01*
X145658990Y-63692000D01*
X145171490Y-63692000D01*
X145147598Y-63690826D01*
X145123937Y-63687316D01*
X145100733Y-63681504D01*
X145078211Y-63673446D01*
X145056587Y-63663218D01*
X145036070Y-63650921D01*
X145016857Y-63636671D01*
X144999133Y-63620607D01*
X144983069Y-63602883D01*
X144968819Y-63583670D01*
X144956522Y-63563153D01*
X144946294Y-63541529D01*
X144938236Y-63519007D01*
X144932424Y-63495803D01*
X144928914Y-63472142D01*
X144927740Y-63448250D01*
X144927740Y-62535750D01*
X144928914Y-62511858D01*
X144932424Y-62488197D01*
X144938236Y-62464993D01*
X144946294Y-62442471D01*
X144956522Y-62420847D01*
X144968819Y-62400330D01*
X144983069Y-62381117D01*
X144999133Y-62363393D01*
X145016857Y-62347329D01*
X145036070Y-62333079D01*
X145056587Y-62320782D01*
X145078211Y-62310554D01*
X145100733Y-62302496D01*
X145123937Y-62296684D01*
X145147598Y-62293174D01*
X145171490Y-62292000D01*
X145658990Y-62292000D01*
X145682882Y-62293174D01*
X145682882Y-62293174D01*
G37*
D11*
X145415240Y-62992000D03*
D10*
G36*
X143807882Y-60184974D02*
G01*
X143831543Y-60188484D01*
X143854747Y-60194296D01*
X143877269Y-60202354D01*
X143898893Y-60212582D01*
X143919410Y-60224879D01*
X143938623Y-60239129D01*
X143956347Y-60255193D01*
X143972411Y-60272917D01*
X143986661Y-60292130D01*
X143998958Y-60312647D01*
X144009186Y-60334271D01*
X144017244Y-60356793D01*
X144023056Y-60379997D01*
X144026566Y-60403658D01*
X144027740Y-60427550D01*
X144027740Y-61340050D01*
X144026566Y-61363942D01*
X144023056Y-61387603D01*
X144017244Y-61410807D01*
X144009186Y-61433329D01*
X143998958Y-61454953D01*
X143986661Y-61475470D01*
X143972411Y-61494683D01*
X143956347Y-61512407D01*
X143938623Y-61528471D01*
X143919410Y-61542721D01*
X143898893Y-61555018D01*
X143877269Y-61565246D01*
X143854747Y-61573304D01*
X143831543Y-61579116D01*
X143807882Y-61582626D01*
X143783990Y-61583800D01*
X143296490Y-61583800D01*
X143272598Y-61582626D01*
X143248937Y-61579116D01*
X143225733Y-61573304D01*
X143203211Y-61565246D01*
X143181587Y-61555018D01*
X143161070Y-61542721D01*
X143141857Y-61528471D01*
X143124133Y-61512407D01*
X143108069Y-61494683D01*
X143093819Y-61475470D01*
X143081522Y-61454953D01*
X143071294Y-61433329D01*
X143063236Y-61410807D01*
X143057424Y-61387603D01*
X143053914Y-61363942D01*
X143052740Y-61340050D01*
X143052740Y-60427550D01*
X143053914Y-60403658D01*
X143057424Y-60379997D01*
X143063236Y-60356793D01*
X143071294Y-60334271D01*
X143081522Y-60312647D01*
X143093819Y-60292130D01*
X143108069Y-60272917D01*
X143124133Y-60255193D01*
X143141857Y-60239129D01*
X143161070Y-60224879D01*
X143181587Y-60212582D01*
X143203211Y-60202354D01*
X143225733Y-60194296D01*
X143248937Y-60188484D01*
X143272598Y-60184974D01*
X143296490Y-60183800D01*
X143783990Y-60183800D01*
X143807882Y-60184974D01*
X143807882Y-60184974D01*
G37*
D11*
X143540240Y-60883800D03*
D10*
G36*
X145682882Y-60184974D02*
G01*
X145706543Y-60188484D01*
X145729747Y-60194296D01*
X145752269Y-60202354D01*
X145773893Y-60212582D01*
X145794410Y-60224879D01*
X145813623Y-60239129D01*
X145831347Y-60255193D01*
X145847411Y-60272917D01*
X145861661Y-60292130D01*
X145873958Y-60312647D01*
X145884186Y-60334271D01*
X145892244Y-60356793D01*
X145898056Y-60379997D01*
X145901566Y-60403658D01*
X145902740Y-60427550D01*
X145902740Y-61340050D01*
X145901566Y-61363942D01*
X145898056Y-61387603D01*
X145892244Y-61410807D01*
X145884186Y-61433329D01*
X145873958Y-61454953D01*
X145861661Y-61475470D01*
X145847411Y-61494683D01*
X145831347Y-61512407D01*
X145813623Y-61528471D01*
X145794410Y-61542721D01*
X145773893Y-61555018D01*
X145752269Y-61565246D01*
X145729747Y-61573304D01*
X145706543Y-61579116D01*
X145682882Y-61582626D01*
X145658990Y-61583800D01*
X145171490Y-61583800D01*
X145147598Y-61582626D01*
X145123937Y-61579116D01*
X145100733Y-61573304D01*
X145078211Y-61565246D01*
X145056587Y-61555018D01*
X145036070Y-61542721D01*
X145016857Y-61528471D01*
X144999133Y-61512407D01*
X144983069Y-61494683D01*
X144968819Y-61475470D01*
X144956522Y-61454953D01*
X144946294Y-61433329D01*
X144938236Y-61410807D01*
X144932424Y-61387603D01*
X144928914Y-61363942D01*
X144927740Y-61340050D01*
X144927740Y-60427550D01*
X144928914Y-60403658D01*
X144932424Y-60379997D01*
X144938236Y-60356793D01*
X144946294Y-60334271D01*
X144956522Y-60312647D01*
X144968819Y-60292130D01*
X144983069Y-60272917D01*
X144999133Y-60255193D01*
X145016857Y-60239129D01*
X145036070Y-60224879D01*
X145056587Y-60212582D01*
X145078211Y-60202354D01*
X145100733Y-60194296D01*
X145123937Y-60188484D01*
X145147598Y-60184974D01*
X145171490Y-60183800D01*
X145658990Y-60183800D01*
X145682882Y-60184974D01*
X145682882Y-60184974D01*
G37*
D11*
X145415240Y-60883800D03*
D10*
G36*
X143807882Y-58076774D02*
G01*
X143831543Y-58080284D01*
X143854747Y-58086096D01*
X143877269Y-58094154D01*
X143898893Y-58104382D01*
X143919410Y-58116679D01*
X143938623Y-58130929D01*
X143956347Y-58146993D01*
X143972411Y-58164717D01*
X143986661Y-58183930D01*
X143998958Y-58204447D01*
X144009186Y-58226071D01*
X144017244Y-58248593D01*
X144023056Y-58271797D01*
X144026566Y-58295458D01*
X144027740Y-58319350D01*
X144027740Y-59231850D01*
X144026566Y-59255742D01*
X144023056Y-59279403D01*
X144017244Y-59302607D01*
X144009186Y-59325129D01*
X143998958Y-59346753D01*
X143986661Y-59367270D01*
X143972411Y-59386483D01*
X143956347Y-59404207D01*
X143938623Y-59420271D01*
X143919410Y-59434521D01*
X143898893Y-59446818D01*
X143877269Y-59457046D01*
X143854747Y-59465104D01*
X143831543Y-59470916D01*
X143807882Y-59474426D01*
X143783990Y-59475600D01*
X143296490Y-59475600D01*
X143272598Y-59474426D01*
X143248937Y-59470916D01*
X143225733Y-59465104D01*
X143203211Y-59457046D01*
X143181587Y-59446818D01*
X143161070Y-59434521D01*
X143141857Y-59420271D01*
X143124133Y-59404207D01*
X143108069Y-59386483D01*
X143093819Y-59367270D01*
X143081522Y-59346753D01*
X143071294Y-59325129D01*
X143063236Y-59302607D01*
X143057424Y-59279403D01*
X143053914Y-59255742D01*
X143052740Y-59231850D01*
X143052740Y-58319350D01*
X143053914Y-58295458D01*
X143057424Y-58271797D01*
X143063236Y-58248593D01*
X143071294Y-58226071D01*
X143081522Y-58204447D01*
X143093819Y-58183930D01*
X143108069Y-58164717D01*
X143124133Y-58146993D01*
X143141857Y-58130929D01*
X143161070Y-58116679D01*
X143181587Y-58104382D01*
X143203211Y-58094154D01*
X143225733Y-58086096D01*
X143248937Y-58080284D01*
X143272598Y-58076774D01*
X143296490Y-58075600D01*
X143783990Y-58075600D01*
X143807882Y-58076774D01*
X143807882Y-58076774D01*
G37*
D11*
X143540240Y-58775600D03*
D10*
G36*
X145682882Y-58076774D02*
G01*
X145706543Y-58080284D01*
X145729747Y-58086096D01*
X145752269Y-58094154D01*
X145773893Y-58104382D01*
X145794410Y-58116679D01*
X145813623Y-58130929D01*
X145831347Y-58146993D01*
X145847411Y-58164717D01*
X145861661Y-58183930D01*
X145873958Y-58204447D01*
X145884186Y-58226071D01*
X145892244Y-58248593D01*
X145898056Y-58271797D01*
X145901566Y-58295458D01*
X145902740Y-58319350D01*
X145902740Y-59231850D01*
X145901566Y-59255742D01*
X145898056Y-59279403D01*
X145892244Y-59302607D01*
X145884186Y-59325129D01*
X145873958Y-59346753D01*
X145861661Y-59367270D01*
X145847411Y-59386483D01*
X145831347Y-59404207D01*
X145813623Y-59420271D01*
X145794410Y-59434521D01*
X145773893Y-59446818D01*
X145752269Y-59457046D01*
X145729747Y-59465104D01*
X145706543Y-59470916D01*
X145682882Y-59474426D01*
X145658990Y-59475600D01*
X145171490Y-59475600D01*
X145147598Y-59474426D01*
X145123937Y-59470916D01*
X145100733Y-59465104D01*
X145078211Y-59457046D01*
X145056587Y-59446818D01*
X145036070Y-59434521D01*
X145016857Y-59420271D01*
X144999133Y-59404207D01*
X144983069Y-59386483D01*
X144968819Y-59367270D01*
X144956522Y-59346753D01*
X144946294Y-59325129D01*
X144938236Y-59302607D01*
X144932424Y-59279403D01*
X144928914Y-59255742D01*
X144927740Y-59231850D01*
X144927740Y-58319350D01*
X144928914Y-58295458D01*
X144932424Y-58271797D01*
X144938236Y-58248593D01*
X144946294Y-58226071D01*
X144956522Y-58204447D01*
X144968819Y-58183930D01*
X144983069Y-58164717D01*
X144999133Y-58146993D01*
X145016857Y-58130929D01*
X145036070Y-58116679D01*
X145056587Y-58104382D01*
X145078211Y-58094154D01*
X145100733Y-58086096D01*
X145123937Y-58080284D01*
X145147598Y-58076774D01*
X145171490Y-58075600D01*
X145658990Y-58075600D01*
X145682882Y-58076774D01*
X145682882Y-58076774D01*
G37*
D11*
X145415240Y-58775600D03*
D10*
G36*
X143807882Y-55968574D02*
G01*
X143831543Y-55972084D01*
X143854747Y-55977896D01*
X143877269Y-55985954D01*
X143898893Y-55996182D01*
X143919410Y-56008479D01*
X143938623Y-56022729D01*
X143956347Y-56038793D01*
X143972411Y-56056517D01*
X143986661Y-56075730D01*
X143998958Y-56096247D01*
X144009186Y-56117871D01*
X144017244Y-56140393D01*
X144023056Y-56163597D01*
X144026566Y-56187258D01*
X144027740Y-56211150D01*
X144027740Y-57123650D01*
X144026566Y-57147542D01*
X144023056Y-57171203D01*
X144017244Y-57194407D01*
X144009186Y-57216929D01*
X143998958Y-57238553D01*
X143986661Y-57259070D01*
X143972411Y-57278283D01*
X143956347Y-57296007D01*
X143938623Y-57312071D01*
X143919410Y-57326321D01*
X143898893Y-57338618D01*
X143877269Y-57348846D01*
X143854747Y-57356904D01*
X143831543Y-57362716D01*
X143807882Y-57366226D01*
X143783990Y-57367400D01*
X143296490Y-57367400D01*
X143272598Y-57366226D01*
X143248937Y-57362716D01*
X143225733Y-57356904D01*
X143203211Y-57348846D01*
X143181587Y-57338618D01*
X143161070Y-57326321D01*
X143141857Y-57312071D01*
X143124133Y-57296007D01*
X143108069Y-57278283D01*
X143093819Y-57259070D01*
X143081522Y-57238553D01*
X143071294Y-57216929D01*
X143063236Y-57194407D01*
X143057424Y-57171203D01*
X143053914Y-57147542D01*
X143052740Y-57123650D01*
X143052740Y-56211150D01*
X143053914Y-56187258D01*
X143057424Y-56163597D01*
X143063236Y-56140393D01*
X143071294Y-56117871D01*
X143081522Y-56096247D01*
X143093819Y-56075730D01*
X143108069Y-56056517D01*
X143124133Y-56038793D01*
X143141857Y-56022729D01*
X143161070Y-56008479D01*
X143181587Y-55996182D01*
X143203211Y-55985954D01*
X143225733Y-55977896D01*
X143248937Y-55972084D01*
X143272598Y-55968574D01*
X143296490Y-55967400D01*
X143783990Y-55967400D01*
X143807882Y-55968574D01*
X143807882Y-55968574D01*
G37*
D11*
X143540240Y-56667400D03*
D10*
G36*
X145682882Y-55968574D02*
G01*
X145706543Y-55972084D01*
X145729747Y-55977896D01*
X145752269Y-55985954D01*
X145773893Y-55996182D01*
X145794410Y-56008479D01*
X145813623Y-56022729D01*
X145831347Y-56038793D01*
X145847411Y-56056517D01*
X145861661Y-56075730D01*
X145873958Y-56096247D01*
X145884186Y-56117871D01*
X145892244Y-56140393D01*
X145898056Y-56163597D01*
X145901566Y-56187258D01*
X145902740Y-56211150D01*
X145902740Y-57123650D01*
X145901566Y-57147542D01*
X145898056Y-57171203D01*
X145892244Y-57194407D01*
X145884186Y-57216929D01*
X145873958Y-57238553D01*
X145861661Y-57259070D01*
X145847411Y-57278283D01*
X145831347Y-57296007D01*
X145813623Y-57312071D01*
X145794410Y-57326321D01*
X145773893Y-57338618D01*
X145752269Y-57348846D01*
X145729747Y-57356904D01*
X145706543Y-57362716D01*
X145682882Y-57366226D01*
X145658990Y-57367400D01*
X145171490Y-57367400D01*
X145147598Y-57366226D01*
X145123937Y-57362716D01*
X145100733Y-57356904D01*
X145078211Y-57348846D01*
X145056587Y-57338618D01*
X145036070Y-57326321D01*
X145016857Y-57312071D01*
X144999133Y-57296007D01*
X144983069Y-57278283D01*
X144968819Y-57259070D01*
X144956522Y-57238553D01*
X144946294Y-57216929D01*
X144938236Y-57194407D01*
X144932424Y-57171203D01*
X144928914Y-57147542D01*
X144927740Y-57123650D01*
X144927740Y-56211150D01*
X144928914Y-56187258D01*
X144932424Y-56163597D01*
X144938236Y-56140393D01*
X144946294Y-56117871D01*
X144956522Y-56096247D01*
X144968819Y-56075730D01*
X144983069Y-56056517D01*
X144999133Y-56038793D01*
X145016857Y-56022729D01*
X145036070Y-56008479D01*
X145056587Y-55996182D01*
X145078211Y-55985954D01*
X145100733Y-55977896D01*
X145123937Y-55972084D01*
X145147598Y-55968574D01*
X145171490Y-55967400D01*
X145658990Y-55967400D01*
X145682882Y-55968574D01*
X145682882Y-55968574D01*
G37*
D11*
X145415240Y-56667400D03*
D10*
G36*
X143807882Y-53860374D02*
G01*
X143831543Y-53863884D01*
X143854747Y-53869696D01*
X143877269Y-53877754D01*
X143898893Y-53887982D01*
X143919410Y-53900279D01*
X143938623Y-53914529D01*
X143956347Y-53930593D01*
X143972411Y-53948317D01*
X143986661Y-53967530D01*
X143998958Y-53988047D01*
X144009186Y-54009671D01*
X144017244Y-54032193D01*
X144023056Y-54055397D01*
X144026566Y-54079058D01*
X144027740Y-54102950D01*
X144027740Y-55015450D01*
X144026566Y-55039342D01*
X144023056Y-55063003D01*
X144017244Y-55086207D01*
X144009186Y-55108729D01*
X143998958Y-55130353D01*
X143986661Y-55150870D01*
X143972411Y-55170083D01*
X143956347Y-55187807D01*
X143938623Y-55203871D01*
X143919410Y-55218121D01*
X143898893Y-55230418D01*
X143877269Y-55240646D01*
X143854747Y-55248704D01*
X143831543Y-55254516D01*
X143807882Y-55258026D01*
X143783990Y-55259200D01*
X143296490Y-55259200D01*
X143272598Y-55258026D01*
X143248937Y-55254516D01*
X143225733Y-55248704D01*
X143203211Y-55240646D01*
X143181587Y-55230418D01*
X143161070Y-55218121D01*
X143141857Y-55203871D01*
X143124133Y-55187807D01*
X143108069Y-55170083D01*
X143093819Y-55150870D01*
X143081522Y-55130353D01*
X143071294Y-55108729D01*
X143063236Y-55086207D01*
X143057424Y-55063003D01*
X143053914Y-55039342D01*
X143052740Y-55015450D01*
X143052740Y-54102950D01*
X143053914Y-54079058D01*
X143057424Y-54055397D01*
X143063236Y-54032193D01*
X143071294Y-54009671D01*
X143081522Y-53988047D01*
X143093819Y-53967530D01*
X143108069Y-53948317D01*
X143124133Y-53930593D01*
X143141857Y-53914529D01*
X143161070Y-53900279D01*
X143181587Y-53887982D01*
X143203211Y-53877754D01*
X143225733Y-53869696D01*
X143248937Y-53863884D01*
X143272598Y-53860374D01*
X143296490Y-53859200D01*
X143783990Y-53859200D01*
X143807882Y-53860374D01*
X143807882Y-53860374D01*
G37*
D11*
X143540240Y-54559200D03*
D10*
G36*
X145682882Y-53860374D02*
G01*
X145706543Y-53863884D01*
X145729747Y-53869696D01*
X145752269Y-53877754D01*
X145773893Y-53887982D01*
X145794410Y-53900279D01*
X145813623Y-53914529D01*
X145831347Y-53930593D01*
X145847411Y-53948317D01*
X145861661Y-53967530D01*
X145873958Y-53988047D01*
X145884186Y-54009671D01*
X145892244Y-54032193D01*
X145898056Y-54055397D01*
X145901566Y-54079058D01*
X145902740Y-54102950D01*
X145902740Y-55015450D01*
X145901566Y-55039342D01*
X145898056Y-55063003D01*
X145892244Y-55086207D01*
X145884186Y-55108729D01*
X145873958Y-55130353D01*
X145861661Y-55150870D01*
X145847411Y-55170083D01*
X145831347Y-55187807D01*
X145813623Y-55203871D01*
X145794410Y-55218121D01*
X145773893Y-55230418D01*
X145752269Y-55240646D01*
X145729747Y-55248704D01*
X145706543Y-55254516D01*
X145682882Y-55258026D01*
X145658990Y-55259200D01*
X145171490Y-55259200D01*
X145147598Y-55258026D01*
X145123937Y-55254516D01*
X145100733Y-55248704D01*
X145078211Y-55240646D01*
X145056587Y-55230418D01*
X145036070Y-55218121D01*
X145016857Y-55203871D01*
X144999133Y-55187807D01*
X144983069Y-55170083D01*
X144968819Y-55150870D01*
X144956522Y-55130353D01*
X144946294Y-55108729D01*
X144938236Y-55086207D01*
X144932424Y-55063003D01*
X144928914Y-55039342D01*
X144927740Y-55015450D01*
X144927740Y-54102950D01*
X144928914Y-54079058D01*
X144932424Y-54055397D01*
X144938236Y-54032193D01*
X144946294Y-54009671D01*
X144956522Y-53988047D01*
X144968819Y-53967530D01*
X144983069Y-53948317D01*
X144999133Y-53930593D01*
X145016857Y-53914529D01*
X145036070Y-53900279D01*
X145056587Y-53887982D01*
X145078211Y-53877754D01*
X145100733Y-53869696D01*
X145123937Y-53863884D01*
X145147598Y-53860374D01*
X145171490Y-53859200D01*
X145658990Y-53859200D01*
X145682882Y-53860374D01*
X145682882Y-53860374D01*
G37*
D11*
X145415240Y-54559200D03*
D10*
G36*
X143807882Y-51752174D02*
G01*
X143831543Y-51755684D01*
X143854747Y-51761496D01*
X143877269Y-51769554D01*
X143898893Y-51779782D01*
X143919410Y-51792079D01*
X143938623Y-51806329D01*
X143956347Y-51822393D01*
X143972411Y-51840117D01*
X143986661Y-51859330D01*
X143998958Y-51879847D01*
X144009186Y-51901471D01*
X144017244Y-51923993D01*
X144023056Y-51947197D01*
X144026566Y-51970858D01*
X144027740Y-51994750D01*
X144027740Y-52907250D01*
X144026566Y-52931142D01*
X144023056Y-52954803D01*
X144017244Y-52978007D01*
X144009186Y-53000529D01*
X143998958Y-53022153D01*
X143986661Y-53042670D01*
X143972411Y-53061883D01*
X143956347Y-53079607D01*
X143938623Y-53095671D01*
X143919410Y-53109921D01*
X143898893Y-53122218D01*
X143877269Y-53132446D01*
X143854747Y-53140504D01*
X143831543Y-53146316D01*
X143807882Y-53149826D01*
X143783990Y-53151000D01*
X143296490Y-53151000D01*
X143272598Y-53149826D01*
X143248937Y-53146316D01*
X143225733Y-53140504D01*
X143203211Y-53132446D01*
X143181587Y-53122218D01*
X143161070Y-53109921D01*
X143141857Y-53095671D01*
X143124133Y-53079607D01*
X143108069Y-53061883D01*
X143093819Y-53042670D01*
X143081522Y-53022153D01*
X143071294Y-53000529D01*
X143063236Y-52978007D01*
X143057424Y-52954803D01*
X143053914Y-52931142D01*
X143052740Y-52907250D01*
X143052740Y-51994750D01*
X143053914Y-51970858D01*
X143057424Y-51947197D01*
X143063236Y-51923993D01*
X143071294Y-51901471D01*
X143081522Y-51879847D01*
X143093819Y-51859330D01*
X143108069Y-51840117D01*
X143124133Y-51822393D01*
X143141857Y-51806329D01*
X143161070Y-51792079D01*
X143181587Y-51779782D01*
X143203211Y-51769554D01*
X143225733Y-51761496D01*
X143248937Y-51755684D01*
X143272598Y-51752174D01*
X143296490Y-51751000D01*
X143783990Y-51751000D01*
X143807882Y-51752174D01*
X143807882Y-51752174D01*
G37*
D11*
X143540240Y-52451000D03*
D10*
G36*
X145682882Y-51752174D02*
G01*
X145706543Y-51755684D01*
X145729747Y-51761496D01*
X145752269Y-51769554D01*
X145773893Y-51779782D01*
X145794410Y-51792079D01*
X145813623Y-51806329D01*
X145831347Y-51822393D01*
X145847411Y-51840117D01*
X145861661Y-51859330D01*
X145873958Y-51879847D01*
X145884186Y-51901471D01*
X145892244Y-51923993D01*
X145898056Y-51947197D01*
X145901566Y-51970858D01*
X145902740Y-51994750D01*
X145902740Y-52907250D01*
X145901566Y-52931142D01*
X145898056Y-52954803D01*
X145892244Y-52978007D01*
X145884186Y-53000529D01*
X145873958Y-53022153D01*
X145861661Y-53042670D01*
X145847411Y-53061883D01*
X145831347Y-53079607D01*
X145813623Y-53095671D01*
X145794410Y-53109921D01*
X145773893Y-53122218D01*
X145752269Y-53132446D01*
X145729747Y-53140504D01*
X145706543Y-53146316D01*
X145682882Y-53149826D01*
X145658990Y-53151000D01*
X145171490Y-53151000D01*
X145147598Y-53149826D01*
X145123937Y-53146316D01*
X145100733Y-53140504D01*
X145078211Y-53132446D01*
X145056587Y-53122218D01*
X145036070Y-53109921D01*
X145016857Y-53095671D01*
X144999133Y-53079607D01*
X144983069Y-53061883D01*
X144968819Y-53042670D01*
X144956522Y-53022153D01*
X144946294Y-53000529D01*
X144938236Y-52978007D01*
X144932424Y-52954803D01*
X144928914Y-52931142D01*
X144927740Y-52907250D01*
X144927740Y-51994750D01*
X144928914Y-51970858D01*
X144932424Y-51947197D01*
X144938236Y-51923993D01*
X144946294Y-51901471D01*
X144956522Y-51879847D01*
X144968819Y-51859330D01*
X144983069Y-51840117D01*
X144999133Y-51822393D01*
X145016857Y-51806329D01*
X145036070Y-51792079D01*
X145056587Y-51779782D01*
X145078211Y-51769554D01*
X145100733Y-51761496D01*
X145123937Y-51755684D01*
X145147598Y-51752174D01*
X145171490Y-51751000D01*
X145658990Y-51751000D01*
X145682882Y-51752174D01*
X145682882Y-51752174D01*
G37*
D11*
X145415240Y-52451000D03*
D10*
G36*
X143807882Y-49643974D02*
G01*
X143831543Y-49647484D01*
X143854747Y-49653296D01*
X143877269Y-49661354D01*
X143898893Y-49671582D01*
X143919410Y-49683879D01*
X143938623Y-49698129D01*
X143956347Y-49714193D01*
X143972411Y-49731917D01*
X143986661Y-49751130D01*
X143998958Y-49771647D01*
X144009186Y-49793271D01*
X144017244Y-49815793D01*
X144023056Y-49838997D01*
X144026566Y-49862658D01*
X144027740Y-49886550D01*
X144027740Y-50799050D01*
X144026566Y-50822942D01*
X144023056Y-50846603D01*
X144017244Y-50869807D01*
X144009186Y-50892329D01*
X143998958Y-50913953D01*
X143986661Y-50934470D01*
X143972411Y-50953683D01*
X143956347Y-50971407D01*
X143938623Y-50987471D01*
X143919410Y-51001721D01*
X143898893Y-51014018D01*
X143877269Y-51024246D01*
X143854747Y-51032304D01*
X143831543Y-51038116D01*
X143807882Y-51041626D01*
X143783990Y-51042800D01*
X143296490Y-51042800D01*
X143272598Y-51041626D01*
X143248937Y-51038116D01*
X143225733Y-51032304D01*
X143203211Y-51024246D01*
X143181587Y-51014018D01*
X143161070Y-51001721D01*
X143141857Y-50987471D01*
X143124133Y-50971407D01*
X143108069Y-50953683D01*
X143093819Y-50934470D01*
X143081522Y-50913953D01*
X143071294Y-50892329D01*
X143063236Y-50869807D01*
X143057424Y-50846603D01*
X143053914Y-50822942D01*
X143052740Y-50799050D01*
X143052740Y-49886550D01*
X143053914Y-49862658D01*
X143057424Y-49838997D01*
X143063236Y-49815793D01*
X143071294Y-49793271D01*
X143081522Y-49771647D01*
X143093819Y-49751130D01*
X143108069Y-49731917D01*
X143124133Y-49714193D01*
X143141857Y-49698129D01*
X143161070Y-49683879D01*
X143181587Y-49671582D01*
X143203211Y-49661354D01*
X143225733Y-49653296D01*
X143248937Y-49647484D01*
X143272598Y-49643974D01*
X143296490Y-49642800D01*
X143783990Y-49642800D01*
X143807882Y-49643974D01*
X143807882Y-49643974D01*
G37*
D11*
X143540240Y-50342800D03*
D10*
G36*
X145682882Y-49643974D02*
G01*
X145706543Y-49647484D01*
X145729747Y-49653296D01*
X145752269Y-49661354D01*
X145773893Y-49671582D01*
X145794410Y-49683879D01*
X145813623Y-49698129D01*
X145831347Y-49714193D01*
X145847411Y-49731917D01*
X145861661Y-49751130D01*
X145873958Y-49771647D01*
X145884186Y-49793271D01*
X145892244Y-49815793D01*
X145898056Y-49838997D01*
X145901566Y-49862658D01*
X145902740Y-49886550D01*
X145902740Y-50799050D01*
X145901566Y-50822942D01*
X145898056Y-50846603D01*
X145892244Y-50869807D01*
X145884186Y-50892329D01*
X145873958Y-50913953D01*
X145861661Y-50934470D01*
X145847411Y-50953683D01*
X145831347Y-50971407D01*
X145813623Y-50987471D01*
X145794410Y-51001721D01*
X145773893Y-51014018D01*
X145752269Y-51024246D01*
X145729747Y-51032304D01*
X145706543Y-51038116D01*
X145682882Y-51041626D01*
X145658990Y-51042800D01*
X145171490Y-51042800D01*
X145147598Y-51041626D01*
X145123937Y-51038116D01*
X145100733Y-51032304D01*
X145078211Y-51024246D01*
X145056587Y-51014018D01*
X145036070Y-51001721D01*
X145016857Y-50987471D01*
X144999133Y-50971407D01*
X144983069Y-50953683D01*
X144968819Y-50934470D01*
X144956522Y-50913953D01*
X144946294Y-50892329D01*
X144938236Y-50869807D01*
X144932424Y-50846603D01*
X144928914Y-50822942D01*
X144927740Y-50799050D01*
X144927740Y-49886550D01*
X144928914Y-49862658D01*
X144932424Y-49838997D01*
X144938236Y-49815793D01*
X144946294Y-49793271D01*
X144956522Y-49771647D01*
X144968819Y-49751130D01*
X144983069Y-49731917D01*
X144999133Y-49714193D01*
X145016857Y-49698129D01*
X145036070Y-49683879D01*
X145056587Y-49671582D01*
X145078211Y-49661354D01*
X145100733Y-49653296D01*
X145123937Y-49647484D01*
X145147598Y-49643974D01*
X145171490Y-49642800D01*
X145658990Y-49642800D01*
X145682882Y-49643974D01*
X145682882Y-49643974D01*
G37*
D11*
X145415240Y-50342800D03*
M02*
