G04 #@! TF.GenerationSoftware,KiCad,Pcbnew,(5.1.4)-1*
G04 #@! TF.CreationDate,2019-11-29T16:32:21-05:00*
G04 #@! TF.ProjectId,Feather-8bit-counter,46656174-6865-4722-9d38-6269742d636f,rev?*
G04 #@! TF.SameCoordinates,Original*
G04 #@! TF.FileFunction,Soldermask,Bot*
G04 #@! TF.FilePolarity,Negative*
%FSLAX46Y46*%
G04 Gerber Fmt 4.6, Leading zero omitted, Abs format (unit mm)*
G04 Created by KiCad (PCBNEW (5.1.4)-1) date 2019-11-29 16:32:21*
%MOMM*%
%LPD*%
G04 APERTURE LIST*
%ADD10C,0.100000*%
G04 APERTURE END LIST*
D10*
G36*
X132444443Y-67075919D02*
G01*
X132510627Y-67082437D01*
X132680466Y-67133957D01*
X132836991Y-67217622D01*
X132872729Y-67246952D01*
X132974186Y-67330214D01*
X133057448Y-67431671D01*
X133086778Y-67467409D01*
X133170443Y-67623934D01*
X133221963Y-67793773D01*
X133239359Y-67970400D01*
X133221963Y-68147027D01*
X133170443Y-68316866D01*
X133086778Y-68473391D01*
X133057448Y-68509129D01*
X132974186Y-68610586D01*
X132872729Y-68693848D01*
X132836991Y-68723178D01*
X132680466Y-68806843D01*
X132510627Y-68858363D01*
X132444443Y-68864881D01*
X132378260Y-68871400D01*
X132289740Y-68871400D01*
X132223557Y-68864881D01*
X132157373Y-68858363D01*
X131987534Y-68806843D01*
X131831009Y-68723178D01*
X131795271Y-68693848D01*
X131693814Y-68610586D01*
X131610552Y-68509129D01*
X131581222Y-68473391D01*
X131497557Y-68316866D01*
X131446037Y-68147027D01*
X131428641Y-67970400D01*
X131446037Y-67793773D01*
X131497557Y-67623934D01*
X131581222Y-67467409D01*
X131610552Y-67431671D01*
X131693814Y-67330214D01*
X131795271Y-67246952D01*
X131831009Y-67217622D01*
X131987534Y-67133957D01*
X132157373Y-67082437D01*
X132223557Y-67075919D01*
X132289740Y-67069400D01*
X132378260Y-67069400D01*
X132444443Y-67075919D01*
X132444443Y-67075919D01*
G37*
G36*
X127364443Y-67075919D02*
G01*
X127430627Y-67082437D01*
X127600466Y-67133957D01*
X127756991Y-67217622D01*
X127792729Y-67246952D01*
X127894186Y-67330214D01*
X127977448Y-67431671D01*
X128006778Y-67467409D01*
X128090443Y-67623934D01*
X128141963Y-67793773D01*
X128159359Y-67970400D01*
X128141963Y-68147027D01*
X128090443Y-68316866D01*
X128006778Y-68473391D01*
X127977448Y-68509129D01*
X127894186Y-68610586D01*
X127792729Y-68693848D01*
X127756991Y-68723178D01*
X127600466Y-68806843D01*
X127430627Y-68858363D01*
X127364443Y-68864881D01*
X127298260Y-68871400D01*
X127209740Y-68871400D01*
X127143557Y-68864881D01*
X127077373Y-68858363D01*
X126907534Y-68806843D01*
X126751009Y-68723178D01*
X126715271Y-68693848D01*
X126613814Y-68610586D01*
X126530552Y-68509129D01*
X126501222Y-68473391D01*
X126417557Y-68316866D01*
X126366037Y-68147027D01*
X126348641Y-67970400D01*
X126366037Y-67793773D01*
X126417557Y-67623934D01*
X126501222Y-67467409D01*
X126530552Y-67431671D01*
X126613814Y-67330214D01*
X126715271Y-67246952D01*
X126751009Y-67217622D01*
X126907534Y-67133957D01*
X127077373Y-67082437D01*
X127143557Y-67075919D01*
X127209740Y-67069400D01*
X127298260Y-67069400D01*
X127364443Y-67075919D01*
X127364443Y-67075919D01*
G37*
G36*
X142604443Y-67075919D02*
G01*
X142670627Y-67082437D01*
X142840466Y-67133957D01*
X142996991Y-67217622D01*
X143032729Y-67246952D01*
X143134186Y-67330214D01*
X143217448Y-67431671D01*
X143246778Y-67467409D01*
X143330443Y-67623934D01*
X143381963Y-67793773D01*
X143399359Y-67970400D01*
X143381963Y-68147027D01*
X143330443Y-68316866D01*
X143246778Y-68473391D01*
X143217448Y-68509129D01*
X143134186Y-68610586D01*
X143032729Y-68693848D01*
X142996991Y-68723178D01*
X142840466Y-68806843D01*
X142670627Y-68858363D01*
X142604443Y-68864881D01*
X142538260Y-68871400D01*
X142449740Y-68871400D01*
X142383557Y-68864881D01*
X142317373Y-68858363D01*
X142147534Y-68806843D01*
X141991009Y-68723178D01*
X141955271Y-68693848D01*
X141853814Y-68610586D01*
X141770552Y-68509129D01*
X141741222Y-68473391D01*
X141657557Y-68316866D01*
X141606037Y-68147027D01*
X141588641Y-67970400D01*
X141606037Y-67793773D01*
X141657557Y-67623934D01*
X141741222Y-67467409D01*
X141770552Y-67431671D01*
X141853814Y-67330214D01*
X141955271Y-67246952D01*
X141991009Y-67217622D01*
X142147534Y-67133957D01*
X142317373Y-67082437D01*
X142383557Y-67075919D01*
X142449740Y-67069400D01*
X142538260Y-67069400D01*
X142604443Y-67075919D01*
X142604443Y-67075919D01*
G37*
G36*
X140064443Y-67075919D02*
G01*
X140130627Y-67082437D01*
X140300466Y-67133957D01*
X140456991Y-67217622D01*
X140492729Y-67246952D01*
X140594186Y-67330214D01*
X140677448Y-67431671D01*
X140706778Y-67467409D01*
X140790443Y-67623934D01*
X140841963Y-67793773D01*
X140859359Y-67970400D01*
X140841963Y-68147027D01*
X140790443Y-68316866D01*
X140706778Y-68473391D01*
X140677448Y-68509129D01*
X140594186Y-68610586D01*
X140492729Y-68693848D01*
X140456991Y-68723178D01*
X140300466Y-68806843D01*
X140130627Y-68858363D01*
X140064443Y-68864881D01*
X139998260Y-68871400D01*
X139909740Y-68871400D01*
X139843557Y-68864881D01*
X139777373Y-68858363D01*
X139607534Y-68806843D01*
X139451009Y-68723178D01*
X139415271Y-68693848D01*
X139313814Y-68610586D01*
X139230552Y-68509129D01*
X139201222Y-68473391D01*
X139117557Y-68316866D01*
X139066037Y-68147027D01*
X139048641Y-67970400D01*
X139066037Y-67793773D01*
X139117557Y-67623934D01*
X139201222Y-67467409D01*
X139230552Y-67431671D01*
X139313814Y-67330214D01*
X139415271Y-67246952D01*
X139451009Y-67217622D01*
X139607534Y-67133957D01*
X139777373Y-67082437D01*
X139843557Y-67075919D01*
X139909740Y-67069400D01*
X139998260Y-67069400D01*
X140064443Y-67075919D01*
X140064443Y-67075919D01*
G37*
G36*
X137524443Y-67075919D02*
G01*
X137590627Y-67082437D01*
X137760466Y-67133957D01*
X137916991Y-67217622D01*
X137952729Y-67246952D01*
X138054186Y-67330214D01*
X138137448Y-67431671D01*
X138166778Y-67467409D01*
X138250443Y-67623934D01*
X138301963Y-67793773D01*
X138319359Y-67970400D01*
X138301963Y-68147027D01*
X138250443Y-68316866D01*
X138166778Y-68473391D01*
X138137448Y-68509129D01*
X138054186Y-68610586D01*
X137952729Y-68693848D01*
X137916991Y-68723178D01*
X137760466Y-68806843D01*
X137590627Y-68858363D01*
X137524443Y-68864881D01*
X137458260Y-68871400D01*
X137369740Y-68871400D01*
X137303557Y-68864881D01*
X137237373Y-68858363D01*
X137067534Y-68806843D01*
X136911009Y-68723178D01*
X136875271Y-68693848D01*
X136773814Y-68610586D01*
X136690552Y-68509129D01*
X136661222Y-68473391D01*
X136577557Y-68316866D01*
X136526037Y-68147027D01*
X136508641Y-67970400D01*
X136526037Y-67793773D01*
X136577557Y-67623934D01*
X136661222Y-67467409D01*
X136690552Y-67431671D01*
X136773814Y-67330214D01*
X136875271Y-67246952D01*
X136911009Y-67217622D01*
X137067534Y-67133957D01*
X137237373Y-67082437D01*
X137303557Y-67075919D01*
X137369740Y-67069400D01*
X137458260Y-67069400D01*
X137524443Y-67075919D01*
X137524443Y-67075919D01*
G37*
G36*
X134984443Y-67075919D02*
G01*
X135050627Y-67082437D01*
X135220466Y-67133957D01*
X135376991Y-67217622D01*
X135412729Y-67246952D01*
X135514186Y-67330214D01*
X135597448Y-67431671D01*
X135626778Y-67467409D01*
X135710443Y-67623934D01*
X135761963Y-67793773D01*
X135779359Y-67970400D01*
X135761963Y-68147027D01*
X135710443Y-68316866D01*
X135626778Y-68473391D01*
X135597448Y-68509129D01*
X135514186Y-68610586D01*
X135412729Y-68693848D01*
X135376991Y-68723178D01*
X135220466Y-68806843D01*
X135050627Y-68858363D01*
X134984443Y-68864881D01*
X134918260Y-68871400D01*
X134829740Y-68871400D01*
X134763557Y-68864881D01*
X134697373Y-68858363D01*
X134527534Y-68806843D01*
X134371009Y-68723178D01*
X134335271Y-68693848D01*
X134233814Y-68610586D01*
X134150552Y-68509129D01*
X134121222Y-68473391D01*
X134037557Y-68316866D01*
X133986037Y-68147027D01*
X133968641Y-67970400D01*
X133986037Y-67793773D01*
X134037557Y-67623934D01*
X134121222Y-67467409D01*
X134150552Y-67431671D01*
X134233814Y-67330214D01*
X134335271Y-67246952D01*
X134371009Y-67217622D01*
X134527534Y-67133957D01*
X134697373Y-67082437D01*
X134763557Y-67075919D01*
X134829740Y-67069400D01*
X134918260Y-67069400D01*
X134984443Y-67075919D01*
X134984443Y-67075919D01*
G37*
G36*
X129904443Y-67075919D02*
G01*
X129970627Y-67082437D01*
X130140466Y-67133957D01*
X130296991Y-67217622D01*
X130332729Y-67246952D01*
X130434186Y-67330214D01*
X130517448Y-67431671D01*
X130546778Y-67467409D01*
X130630443Y-67623934D01*
X130681963Y-67793773D01*
X130699359Y-67970400D01*
X130681963Y-68147027D01*
X130630443Y-68316866D01*
X130546778Y-68473391D01*
X130517448Y-68509129D01*
X130434186Y-68610586D01*
X130332729Y-68693848D01*
X130296991Y-68723178D01*
X130140466Y-68806843D01*
X129970627Y-68858363D01*
X129904443Y-68864881D01*
X129838260Y-68871400D01*
X129749740Y-68871400D01*
X129683557Y-68864881D01*
X129617373Y-68858363D01*
X129447534Y-68806843D01*
X129291009Y-68723178D01*
X129255271Y-68693848D01*
X129153814Y-68610586D01*
X129070552Y-68509129D01*
X129041222Y-68473391D01*
X128957557Y-68316866D01*
X128906037Y-68147027D01*
X128888641Y-67970400D01*
X128906037Y-67793773D01*
X128957557Y-67623934D01*
X129041222Y-67467409D01*
X129070552Y-67431671D01*
X129153814Y-67330214D01*
X129255271Y-67246952D01*
X129291009Y-67217622D01*
X129447534Y-67133957D01*
X129617373Y-67082437D01*
X129683557Y-67075919D01*
X129749740Y-67069400D01*
X129838260Y-67069400D01*
X129904443Y-67075919D01*
X129904443Y-67075919D01*
G37*
G36*
X145144443Y-67075919D02*
G01*
X145210627Y-67082437D01*
X145380466Y-67133957D01*
X145536991Y-67217622D01*
X145572729Y-67246952D01*
X145674186Y-67330214D01*
X145757448Y-67431671D01*
X145786778Y-67467409D01*
X145870443Y-67623934D01*
X145921963Y-67793773D01*
X145939359Y-67970400D01*
X145921963Y-68147027D01*
X145870443Y-68316866D01*
X145786778Y-68473391D01*
X145757448Y-68509129D01*
X145674186Y-68610586D01*
X145572729Y-68693848D01*
X145536991Y-68723178D01*
X145380466Y-68806843D01*
X145210627Y-68858363D01*
X145144443Y-68864881D01*
X145078260Y-68871400D01*
X144989740Y-68871400D01*
X144923557Y-68864881D01*
X144857373Y-68858363D01*
X144687534Y-68806843D01*
X144531009Y-68723178D01*
X144495271Y-68693848D01*
X144393814Y-68610586D01*
X144310552Y-68509129D01*
X144281222Y-68473391D01*
X144197557Y-68316866D01*
X144146037Y-68147027D01*
X144128641Y-67970400D01*
X144146037Y-67793773D01*
X144197557Y-67623934D01*
X144281222Y-67467409D01*
X144310552Y-67431671D01*
X144393814Y-67330214D01*
X144495271Y-67246952D01*
X144531009Y-67217622D01*
X144687534Y-67133957D01*
X144857373Y-67082437D01*
X144923557Y-67075919D01*
X144989740Y-67069400D01*
X145078260Y-67069400D01*
X145144443Y-67075919D01*
X145144443Y-67075919D01*
G37*
G36*
X124824443Y-67075919D02*
G01*
X124890627Y-67082437D01*
X125060466Y-67133957D01*
X125216991Y-67217622D01*
X125252729Y-67246952D01*
X125354186Y-67330214D01*
X125437448Y-67431671D01*
X125466778Y-67467409D01*
X125550443Y-67623934D01*
X125601963Y-67793773D01*
X125619359Y-67970400D01*
X125601963Y-68147027D01*
X125550443Y-68316866D01*
X125466778Y-68473391D01*
X125437448Y-68509129D01*
X125354186Y-68610586D01*
X125252729Y-68693848D01*
X125216991Y-68723178D01*
X125060466Y-68806843D01*
X124890627Y-68858363D01*
X124824443Y-68864881D01*
X124758260Y-68871400D01*
X124669740Y-68871400D01*
X124603557Y-68864881D01*
X124537373Y-68858363D01*
X124367534Y-68806843D01*
X124211009Y-68723178D01*
X124175271Y-68693848D01*
X124073814Y-68610586D01*
X123990552Y-68509129D01*
X123961222Y-68473391D01*
X123877557Y-68316866D01*
X123826037Y-68147027D01*
X123808641Y-67970400D01*
X123826037Y-67793773D01*
X123877557Y-67623934D01*
X123961222Y-67467409D01*
X123990552Y-67431671D01*
X124073814Y-67330214D01*
X124175271Y-67246952D01*
X124211009Y-67217622D01*
X124367534Y-67133957D01*
X124537373Y-67082437D01*
X124603557Y-67075919D01*
X124669740Y-67069400D01*
X124758260Y-67069400D01*
X124824443Y-67075919D01*
X124824443Y-67075919D01*
G37*
G36*
X122284443Y-67075919D02*
G01*
X122350627Y-67082437D01*
X122520466Y-67133957D01*
X122676991Y-67217622D01*
X122712729Y-67246952D01*
X122814186Y-67330214D01*
X122897448Y-67431671D01*
X122926778Y-67467409D01*
X123010443Y-67623934D01*
X123061963Y-67793773D01*
X123079359Y-67970400D01*
X123061963Y-68147027D01*
X123010443Y-68316866D01*
X122926778Y-68473391D01*
X122897448Y-68509129D01*
X122814186Y-68610586D01*
X122712729Y-68693848D01*
X122676991Y-68723178D01*
X122520466Y-68806843D01*
X122350627Y-68858363D01*
X122284443Y-68864881D01*
X122218260Y-68871400D01*
X122129740Y-68871400D01*
X122063557Y-68864881D01*
X121997373Y-68858363D01*
X121827534Y-68806843D01*
X121671009Y-68723178D01*
X121635271Y-68693848D01*
X121533814Y-68610586D01*
X121450552Y-68509129D01*
X121421222Y-68473391D01*
X121337557Y-68316866D01*
X121286037Y-68147027D01*
X121268641Y-67970400D01*
X121286037Y-67793773D01*
X121337557Y-67623934D01*
X121421222Y-67467409D01*
X121450552Y-67431671D01*
X121533814Y-67330214D01*
X121635271Y-67246952D01*
X121671009Y-67217622D01*
X121827534Y-67133957D01*
X121997373Y-67082437D01*
X122063557Y-67075919D01*
X122129740Y-67069400D01*
X122218260Y-67069400D01*
X122284443Y-67075919D01*
X122284443Y-67075919D01*
G37*
G36*
X119744443Y-67075919D02*
G01*
X119810627Y-67082437D01*
X119980466Y-67133957D01*
X120136991Y-67217622D01*
X120172729Y-67246952D01*
X120274186Y-67330214D01*
X120357448Y-67431671D01*
X120386778Y-67467409D01*
X120470443Y-67623934D01*
X120521963Y-67793773D01*
X120539359Y-67970400D01*
X120521963Y-68147027D01*
X120470443Y-68316866D01*
X120386778Y-68473391D01*
X120357448Y-68509129D01*
X120274186Y-68610586D01*
X120172729Y-68693848D01*
X120136991Y-68723178D01*
X119980466Y-68806843D01*
X119810627Y-68858363D01*
X119744443Y-68864881D01*
X119678260Y-68871400D01*
X119589740Y-68871400D01*
X119523557Y-68864881D01*
X119457373Y-68858363D01*
X119287534Y-68806843D01*
X119131009Y-68723178D01*
X119095271Y-68693848D01*
X118993814Y-68610586D01*
X118910552Y-68509129D01*
X118881222Y-68473391D01*
X118797557Y-68316866D01*
X118746037Y-68147027D01*
X118728641Y-67970400D01*
X118746037Y-67793773D01*
X118797557Y-67623934D01*
X118881222Y-67467409D01*
X118910552Y-67431671D01*
X118993814Y-67330214D01*
X119095271Y-67246952D01*
X119131009Y-67217622D01*
X119287534Y-67133957D01*
X119457373Y-67082437D01*
X119523557Y-67075919D01*
X119589740Y-67069400D01*
X119678260Y-67069400D01*
X119744443Y-67075919D01*
X119744443Y-67075919D01*
G37*
G36*
X117204443Y-67075919D02*
G01*
X117270627Y-67082437D01*
X117440466Y-67133957D01*
X117596991Y-67217622D01*
X117632729Y-67246952D01*
X117734186Y-67330214D01*
X117817448Y-67431671D01*
X117846778Y-67467409D01*
X117930443Y-67623934D01*
X117981963Y-67793773D01*
X117999359Y-67970400D01*
X117981963Y-68147027D01*
X117930443Y-68316866D01*
X117846778Y-68473391D01*
X117817448Y-68509129D01*
X117734186Y-68610586D01*
X117632729Y-68693848D01*
X117596991Y-68723178D01*
X117440466Y-68806843D01*
X117270627Y-68858363D01*
X117204443Y-68864881D01*
X117138260Y-68871400D01*
X117049740Y-68871400D01*
X116983557Y-68864881D01*
X116917373Y-68858363D01*
X116747534Y-68806843D01*
X116591009Y-68723178D01*
X116555271Y-68693848D01*
X116453814Y-68610586D01*
X116370552Y-68509129D01*
X116341222Y-68473391D01*
X116257557Y-68316866D01*
X116206037Y-68147027D01*
X116188641Y-67970400D01*
X116206037Y-67793773D01*
X116257557Y-67623934D01*
X116341222Y-67467409D01*
X116370552Y-67431671D01*
X116453814Y-67330214D01*
X116555271Y-67246952D01*
X116591009Y-67217622D01*
X116747534Y-67133957D01*
X116917373Y-67082437D01*
X116983557Y-67075919D01*
X117049740Y-67069400D01*
X117138260Y-67069400D01*
X117204443Y-67075919D01*
X117204443Y-67075919D01*
G37*
G36*
X114664443Y-67075919D02*
G01*
X114730627Y-67082437D01*
X114900466Y-67133957D01*
X115056991Y-67217622D01*
X115092729Y-67246952D01*
X115194186Y-67330214D01*
X115277448Y-67431671D01*
X115306778Y-67467409D01*
X115390443Y-67623934D01*
X115441963Y-67793773D01*
X115459359Y-67970400D01*
X115441963Y-68147027D01*
X115390443Y-68316866D01*
X115306778Y-68473391D01*
X115277448Y-68509129D01*
X115194186Y-68610586D01*
X115092729Y-68693848D01*
X115056991Y-68723178D01*
X114900466Y-68806843D01*
X114730627Y-68858363D01*
X114664443Y-68864881D01*
X114598260Y-68871400D01*
X114509740Y-68871400D01*
X114443557Y-68864881D01*
X114377373Y-68858363D01*
X114207534Y-68806843D01*
X114051009Y-68723178D01*
X114015271Y-68693848D01*
X113913814Y-68610586D01*
X113830552Y-68509129D01*
X113801222Y-68473391D01*
X113717557Y-68316866D01*
X113666037Y-68147027D01*
X113648641Y-67970400D01*
X113666037Y-67793773D01*
X113717557Y-67623934D01*
X113801222Y-67467409D01*
X113830552Y-67431671D01*
X113913814Y-67330214D01*
X114015271Y-67246952D01*
X114051009Y-67217622D01*
X114207534Y-67133957D01*
X114377373Y-67082437D01*
X114443557Y-67075919D01*
X114509740Y-67069400D01*
X114598260Y-67069400D01*
X114664443Y-67075919D01*
X114664443Y-67075919D01*
G37*
G36*
X112124443Y-67075919D02*
G01*
X112190627Y-67082437D01*
X112360466Y-67133957D01*
X112516991Y-67217622D01*
X112552729Y-67246952D01*
X112654186Y-67330214D01*
X112737448Y-67431671D01*
X112766778Y-67467409D01*
X112850443Y-67623934D01*
X112901963Y-67793773D01*
X112919359Y-67970400D01*
X112901963Y-68147027D01*
X112850443Y-68316866D01*
X112766778Y-68473391D01*
X112737448Y-68509129D01*
X112654186Y-68610586D01*
X112552729Y-68693848D01*
X112516991Y-68723178D01*
X112360466Y-68806843D01*
X112190627Y-68858363D01*
X112124443Y-68864881D01*
X112058260Y-68871400D01*
X111969740Y-68871400D01*
X111903557Y-68864881D01*
X111837373Y-68858363D01*
X111667534Y-68806843D01*
X111511009Y-68723178D01*
X111475271Y-68693848D01*
X111373814Y-68610586D01*
X111290552Y-68509129D01*
X111261222Y-68473391D01*
X111177557Y-68316866D01*
X111126037Y-68147027D01*
X111108641Y-67970400D01*
X111126037Y-67793773D01*
X111177557Y-67623934D01*
X111261222Y-67467409D01*
X111290552Y-67431671D01*
X111373814Y-67330214D01*
X111475271Y-67246952D01*
X111511009Y-67217622D01*
X111667534Y-67133957D01*
X111837373Y-67082437D01*
X111903557Y-67075919D01*
X111969740Y-67069400D01*
X112058260Y-67069400D01*
X112124443Y-67075919D01*
X112124443Y-67075919D01*
G37*
G36*
X109584443Y-67075919D02*
G01*
X109650627Y-67082437D01*
X109820466Y-67133957D01*
X109976991Y-67217622D01*
X110012729Y-67246952D01*
X110114186Y-67330214D01*
X110197448Y-67431671D01*
X110226778Y-67467409D01*
X110310443Y-67623934D01*
X110361963Y-67793773D01*
X110379359Y-67970400D01*
X110361963Y-68147027D01*
X110310443Y-68316866D01*
X110226778Y-68473391D01*
X110197448Y-68509129D01*
X110114186Y-68610586D01*
X110012729Y-68693848D01*
X109976991Y-68723178D01*
X109820466Y-68806843D01*
X109650627Y-68858363D01*
X109584443Y-68864881D01*
X109518260Y-68871400D01*
X109429740Y-68871400D01*
X109363557Y-68864881D01*
X109297373Y-68858363D01*
X109127534Y-68806843D01*
X108971009Y-68723178D01*
X108935271Y-68693848D01*
X108833814Y-68610586D01*
X108750552Y-68509129D01*
X108721222Y-68473391D01*
X108637557Y-68316866D01*
X108586037Y-68147027D01*
X108568641Y-67970400D01*
X108586037Y-67793773D01*
X108637557Y-67623934D01*
X108721222Y-67467409D01*
X108750552Y-67431671D01*
X108833814Y-67330214D01*
X108935271Y-67246952D01*
X108971009Y-67217622D01*
X109127534Y-67133957D01*
X109297373Y-67082437D01*
X109363557Y-67075919D01*
X109429740Y-67069400D01*
X109518260Y-67069400D01*
X109584443Y-67075919D01*
X109584443Y-67075919D01*
G37*
G36*
X107835000Y-68871400D02*
G01*
X106033000Y-68871400D01*
X106033000Y-67069400D01*
X107835000Y-67069400D01*
X107835000Y-68871400D01*
X107835000Y-68871400D01*
G37*
G36*
X103695625Y-64824375D02*
G01*
X104050683Y-64971445D01*
X104050685Y-64971446D01*
X104370230Y-65184959D01*
X104641981Y-65456710D01*
X104702624Y-65547469D01*
X104855495Y-65776257D01*
X105002565Y-66131315D01*
X105077540Y-66508242D01*
X105077540Y-66892558D01*
X105002565Y-67269485D01*
X104920582Y-67467409D01*
X104855494Y-67624545D01*
X104641981Y-67944090D01*
X104370230Y-68215841D01*
X104050685Y-68429354D01*
X104050684Y-68429355D01*
X104050683Y-68429355D01*
X103695625Y-68576425D01*
X103318698Y-68651400D01*
X102934382Y-68651400D01*
X102557455Y-68576425D01*
X102202397Y-68429355D01*
X102202396Y-68429355D01*
X102202395Y-68429354D01*
X101882850Y-68215841D01*
X101611099Y-67944090D01*
X101397586Y-67624545D01*
X101332498Y-67467409D01*
X101250515Y-67269485D01*
X101175540Y-66892558D01*
X101175540Y-66508242D01*
X101250515Y-66131315D01*
X101397585Y-65776257D01*
X101550456Y-65547469D01*
X101611099Y-65456710D01*
X101882850Y-65184959D01*
X102202395Y-64971446D01*
X102202397Y-64971445D01*
X102557455Y-64824375D01*
X102934382Y-64749400D01*
X103318698Y-64749400D01*
X103695625Y-64824375D01*
X103695625Y-64824375D01*
G37*
G36*
X149226027Y-65449396D02*
G01*
X149462793Y-65547468D01*
X149462795Y-65547469D01*
X149675879Y-65689847D01*
X149857093Y-65871061D01*
X149999472Y-66084147D01*
X150097544Y-66320913D01*
X150147540Y-66572261D01*
X150147540Y-66828539D01*
X150097544Y-67079887D01*
X150019009Y-67269486D01*
X149999471Y-67316655D01*
X149857093Y-67529739D01*
X149675879Y-67710953D01*
X149462795Y-67853331D01*
X149462794Y-67853332D01*
X149462793Y-67853332D01*
X149226027Y-67951404D01*
X148974679Y-68001400D01*
X148718401Y-68001400D01*
X148467053Y-67951404D01*
X148230287Y-67853332D01*
X148230286Y-67853332D01*
X148230285Y-67853331D01*
X148017201Y-67710953D01*
X147835987Y-67529739D01*
X147693609Y-67316655D01*
X147674071Y-67269486D01*
X147595536Y-67079887D01*
X147545540Y-66828539D01*
X147545540Y-66572261D01*
X147595536Y-66320913D01*
X147693608Y-66084147D01*
X147835987Y-65871061D01*
X148017201Y-65689847D01*
X148230285Y-65547469D01*
X148230287Y-65547468D01*
X148467053Y-65449396D01*
X148718401Y-65399400D01*
X148974679Y-65399400D01*
X149226027Y-65449396D01*
X149226027Y-65449396D01*
G37*
G36*
X107158742Y-63418638D02*
G01*
X107224927Y-63425157D01*
X107394766Y-63476677D01*
X107551291Y-63560342D01*
X107587029Y-63589672D01*
X107688486Y-63672934D01*
X107771748Y-63774391D01*
X107801078Y-63810129D01*
X107884743Y-63966654D01*
X107936263Y-64136493D01*
X107953659Y-64313120D01*
X107936263Y-64489747D01*
X107884743Y-64659586D01*
X107801078Y-64816111D01*
X107794295Y-64824376D01*
X107688486Y-64953306D01*
X107587029Y-65036568D01*
X107551291Y-65065898D01*
X107394766Y-65149563D01*
X107224927Y-65201083D01*
X107158742Y-65207602D01*
X107092560Y-65214120D01*
X107004040Y-65214120D01*
X106937858Y-65207602D01*
X106871673Y-65201083D01*
X106701834Y-65149563D01*
X106545309Y-65065898D01*
X106509571Y-65036568D01*
X106408114Y-64953306D01*
X106302305Y-64824376D01*
X106295522Y-64816111D01*
X106211857Y-64659586D01*
X106160337Y-64489747D01*
X106142941Y-64313120D01*
X106160337Y-64136493D01*
X106211857Y-63966654D01*
X106295522Y-63810129D01*
X106324852Y-63774391D01*
X106408114Y-63672934D01*
X106509571Y-63589672D01*
X106545309Y-63560342D01*
X106701834Y-63476677D01*
X106871673Y-63425157D01*
X106937858Y-63418638D01*
X107004040Y-63412120D01*
X107092560Y-63412120D01*
X107158742Y-63418638D01*
X107158742Y-63418638D01*
G37*
G36*
X107158743Y-60878639D02*
G01*
X107224927Y-60885157D01*
X107394766Y-60936677D01*
X107551291Y-61020342D01*
X107587029Y-61049672D01*
X107688486Y-61132934D01*
X107771748Y-61234391D01*
X107801078Y-61270129D01*
X107884743Y-61426654D01*
X107936263Y-61596493D01*
X107953659Y-61773120D01*
X107936263Y-61949747D01*
X107884743Y-62119586D01*
X107801078Y-62276111D01*
X107771748Y-62311849D01*
X107688486Y-62413306D01*
X107587029Y-62496568D01*
X107551291Y-62525898D01*
X107394766Y-62609563D01*
X107224927Y-62661083D01*
X107158742Y-62667602D01*
X107092560Y-62674120D01*
X107004040Y-62674120D01*
X106937858Y-62667602D01*
X106871673Y-62661083D01*
X106701834Y-62609563D01*
X106545309Y-62525898D01*
X106509571Y-62496568D01*
X106408114Y-62413306D01*
X106324852Y-62311849D01*
X106295522Y-62276111D01*
X106211857Y-62119586D01*
X106160337Y-61949747D01*
X106142941Y-61773120D01*
X106160337Y-61596493D01*
X106211857Y-61426654D01*
X106295522Y-61270129D01*
X106324852Y-61234391D01*
X106408114Y-61132934D01*
X106509571Y-61049672D01*
X106545309Y-61020342D01*
X106701834Y-60936677D01*
X106871673Y-60885157D01*
X106937857Y-60878639D01*
X107004040Y-60872120D01*
X107092560Y-60872120D01*
X107158743Y-60878639D01*
X107158743Y-60878639D01*
G37*
G36*
X112543542Y-60360158D02*
G01*
X112609727Y-60366677D01*
X112779566Y-60418197D01*
X112936091Y-60501862D01*
X112971829Y-60531192D01*
X113073286Y-60614454D01*
X113156548Y-60715911D01*
X113185878Y-60751649D01*
X113269543Y-60908174D01*
X113321063Y-61078013D01*
X113338459Y-61254640D01*
X113321063Y-61431267D01*
X113269543Y-61601106D01*
X113185878Y-61757631D01*
X113173166Y-61773120D01*
X113073286Y-61894826D01*
X112971829Y-61978088D01*
X112936091Y-62007418D01*
X112779566Y-62091083D01*
X112609727Y-62142603D01*
X112543543Y-62149121D01*
X112477360Y-62155640D01*
X112388840Y-62155640D01*
X112322657Y-62149121D01*
X112256473Y-62142603D01*
X112086634Y-62091083D01*
X111930109Y-62007418D01*
X111894371Y-61978088D01*
X111792914Y-61894826D01*
X111693034Y-61773120D01*
X111680322Y-61757631D01*
X111596657Y-61601106D01*
X111545137Y-61431267D01*
X111527741Y-61254640D01*
X111545137Y-61078013D01*
X111596657Y-60908174D01*
X111680322Y-60751649D01*
X111709652Y-60715911D01*
X111792914Y-60614454D01*
X111894371Y-60531192D01*
X111930109Y-60501862D01*
X112086634Y-60418197D01*
X112256473Y-60366677D01*
X112322658Y-60360158D01*
X112388840Y-60353640D01*
X112477360Y-60353640D01*
X112543542Y-60360158D01*
X112543542Y-60360158D01*
G37*
G36*
X107158742Y-58338638D02*
G01*
X107224927Y-58345157D01*
X107394766Y-58396677D01*
X107551291Y-58480342D01*
X107587029Y-58509672D01*
X107688486Y-58592934D01*
X107771748Y-58694391D01*
X107801078Y-58730129D01*
X107884743Y-58886654D01*
X107936263Y-59056493D01*
X107953659Y-59233120D01*
X107936263Y-59409747D01*
X107884743Y-59579586D01*
X107801078Y-59736111D01*
X107771748Y-59771849D01*
X107688486Y-59873306D01*
X107587029Y-59956568D01*
X107551291Y-59985898D01*
X107394766Y-60069563D01*
X107224927Y-60121083D01*
X107158743Y-60127601D01*
X107092560Y-60134120D01*
X107004040Y-60134120D01*
X106937857Y-60127601D01*
X106871673Y-60121083D01*
X106701834Y-60069563D01*
X106545309Y-59985898D01*
X106509571Y-59956568D01*
X106408114Y-59873306D01*
X106324852Y-59771849D01*
X106295522Y-59736111D01*
X106211857Y-59579586D01*
X106160337Y-59409747D01*
X106142941Y-59233120D01*
X106160337Y-59056493D01*
X106211857Y-58886654D01*
X106295522Y-58730129D01*
X106324852Y-58694391D01*
X106408114Y-58592934D01*
X106509571Y-58509672D01*
X106545309Y-58480342D01*
X106701834Y-58396677D01*
X106871673Y-58345157D01*
X106937858Y-58338638D01*
X107004040Y-58332120D01*
X107092560Y-58332120D01*
X107158742Y-58338638D01*
X107158742Y-58338638D01*
G37*
G36*
X112543542Y-57820158D02*
G01*
X112609727Y-57826677D01*
X112779566Y-57878197D01*
X112936091Y-57961862D01*
X112971829Y-57991192D01*
X113073286Y-58074454D01*
X113156548Y-58175911D01*
X113185878Y-58211649D01*
X113269543Y-58368174D01*
X113321063Y-58538013D01*
X113338459Y-58714640D01*
X113321063Y-58891267D01*
X113269543Y-59061106D01*
X113185878Y-59217631D01*
X113173166Y-59233120D01*
X113073286Y-59354826D01*
X112971829Y-59438088D01*
X112936091Y-59467418D01*
X112779566Y-59551083D01*
X112609727Y-59602603D01*
X112543542Y-59609122D01*
X112477360Y-59615640D01*
X112388840Y-59615640D01*
X112322658Y-59609122D01*
X112256473Y-59602603D01*
X112086634Y-59551083D01*
X111930109Y-59467418D01*
X111894371Y-59438088D01*
X111792914Y-59354826D01*
X111693034Y-59233120D01*
X111680322Y-59217631D01*
X111596657Y-59061106D01*
X111545137Y-58891267D01*
X111527741Y-58714640D01*
X111545137Y-58538013D01*
X111596657Y-58368174D01*
X111680322Y-58211649D01*
X111709652Y-58175911D01*
X111792914Y-58074454D01*
X111894371Y-57991192D01*
X111930109Y-57961862D01*
X112086634Y-57878197D01*
X112256473Y-57826677D01*
X112322658Y-57820158D01*
X112388840Y-57813640D01*
X112477360Y-57813640D01*
X112543542Y-57820158D01*
X112543542Y-57820158D01*
G37*
G36*
X107158743Y-55798639D02*
G01*
X107224927Y-55805157D01*
X107394766Y-55856677D01*
X107551291Y-55940342D01*
X107587029Y-55969672D01*
X107688486Y-56052934D01*
X107771748Y-56154391D01*
X107801078Y-56190129D01*
X107884743Y-56346654D01*
X107936263Y-56516493D01*
X107953659Y-56693120D01*
X107936263Y-56869747D01*
X107884743Y-57039586D01*
X107801078Y-57196111D01*
X107771748Y-57231849D01*
X107688486Y-57333306D01*
X107587029Y-57416568D01*
X107551291Y-57445898D01*
X107394766Y-57529563D01*
X107224927Y-57581083D01*
X107158743Y-57587601D01*
X107092560Y-57594120D01*
X107004040Y-57594120D01*
X106937857Y-57587601D01*
X106871673Y-57581083D01*
X106701834Y-57529563D01*
X106545309Y-57445898D01*
X106509571Y-57416568D01*
X106408114Y-57333306D01*
X106324852Y-57231849D01*
X106295522Y-57196111D01*
X106211857Y-57039586D01*
X106160337Y-56869747D01*
X106142941Y-56693120D01*
X106160337Y-56516493D01*
X106211857Y-56346654D01*
X106295522Y-56190129D01*
X106324852Y-56154391D01*
X106408114Y-56052934D01*
X106509571Y-55969672D01*
X106545309Y-55940342D01*
X106701834Y-55856677D01*
X106871673Y-55805157D01*
X106937857Y-55798639D01*
X107004040Y-55792120D01*
X107092560Y-55792120D01*
X107158743Y-55798639D01*
X107158743Y-55798639D01*
G37*
G36*
X112543543Y-55280159D02*
G01*
X112609727Y-55286677D01*
X112779566Y-55338197D01*
X112936091Y-55421862D01*
X112971829Y-55451192D01*
X113073286Y-55534454D01*
X113156548Y-55635911D01*
X113185878Y-55671649D01*
X113269543Y-55828174D01*
X113321063Y-55998013D01*
X113338459Y-56174640D01*
X113321063Y-56351267D01*
X113269543Y-56521106D01*
X113185878Y-56677631D01*
X113173166Y-56693120D01*
X113073286Y-56814826D01*
X112971829Y-56898088D01*
X112936091Y-56927418D01*
X112779566Y-57011083D01*
X112609727Y-57062603D01*
X112543543Y-57069121D01*
X112477360Y-57075640D01*
X112388840Y-57075640D01*
X112322657Y-57069121D01*
X112256473Y-57062603D01*
X112086634Y-57011083D01*
X111930109Y-56927418D01*
X111894371Y-56898088D01*
X111792914Y-56814826D01*
X111693034Y-56693120D01*
X111680322Y-56677631D01*
X111596657Y-56521106D01*
X111545137Y-56351267D01*
X111527741Y-56174640D01*
X111545137Y-55998013D01*
X111596657Y-55828174D01*
X111680322Y-55671649D01*
X111709652Y-55635911D01*
X111792914Y-55534454D01*
X111894371Y-55451192D01*
X111930109Y-55421862D01*
X112086634Y-55338197D01*
X112256473Y-55286677D01*
X112322657Y-55280159D01*
X112388840Y-55273640D01*
X112477360Y-55273640D01*
X112543543Y-55280159D01*
X112543543Y-55280159D01*
G37*
G36*
X107158742Y-53258638D02*
G01*
X107224927Y-53265157D01*
X107394766Y-53316677D01*
X107551291Y-53400342D01*
X107587029Y-53429672D01*
X107688486Y-53512934D01*
X107771748Y-53614391D01*
X107801078Y-53650129D01*
X107884743Y-53806654D01*
X107936263Y-53976493D01*
X107953659Y-54153120D01*
X107936263Y-54329747D01*
X107884743Y-54499586D01*
X107801078Y-54656111D01*
X107771748Y-54691849D01*
X107688486Y-54793306D01*
X107587029Y-54876568D01*
X107551291Y-54905898D01*
X107394766Y-54989563D01*
X107224927Y-55041083D01*
X107158742Y-55047602D01*
X107092560Y-55054120D01*
X107004040Y-55054120D01*
X106937858Y-55047602D01*
X106871673Y-55041083D01*
X106701834Y-54989563D01*
X106545309Y-54905898D01*
X106509571Y-54876568D01*
X106408114Y-54793306D01*
X106324852Y-54691849D01*
X106295522Y-54656111D01*
X106211857Y-54499586D01*
X106160337Y-54329747D01*
X106142941Y-54153120D01*
X106160337Y-53976493D01*
X106211857Y-53806654D01*
X106295522Y-53650129D01*
X106324852Y-53614391D01*
X106408114Y-53512934D01*
X106509571Y-53429672D01*
X106545309Y-53400342D01*
X106701834Y-53316677D01*
X106871673Y-53265157D01*
X106937858Y-53258638D01*
X107004040Y-53252120D01*
X107092560Y-53252120D01*
X107158742Y-53258638D01*
X107158742Y-53258638D01*
G37*
G36*
X113334100Y-54535640D02*
G01*
X111532100Y-54535640D01*
X111532100Y-52733640D01*
X113334100Y-52733640D01*
X113334100Y-54535640D01*
X113334100Y-54535640D01*
G37*
G36*
X107158742Y-50718638D02*
G01*
X107224927Y-50725157D01*
X107394766Y-50776677D01*
X107551291Y-50860342D01*
X107564765Y-50871400D01*
X107688486Y-50972934D01*
X107771748Y-51074391D01*
X107801078Y-51110129D01*
X107884743Y-51266654D01*
X107936263Y-51436493D01*
X107953659Y-51613120D01*
X107936263Y-51789747D01*
X107884743Y-51959586D01*
X107801078Y-52116111D01*
X107771748Y-52151849D01*
X107688486Y-52253306D01*
X107587029Y-52336568D01*
X107551291Y-52365898D01*
X107394766Y-52449563D01*
X107224927Y-52501083D01*
X107158742Y-52507602D01*
X107092560Y-52514120D01*
X107004040Y-52514120D01*
X106937858Y-52507602D01*
X106871673Y-52501083D01*
X106701834Y-52449563D01*
X106545309Y-52365898D01*
X106509571Y-52336568D01*
X106408114Y-52253306D01*
X106324852Y-52151849D01*
X106295522Y-52116111D01*
X106211857Y-51959586D01*
X106160337Y-51789747D01*
X106142941Y-51613120D01*
X106160337Y-51436493D01*
X106211857Y-51266654D01*
X106295522Y-51110129D01*
X106324852Y-51074391D01*
X106408114Y-50972934D01*
X106531835Y-50871400D01*
X106545309Y-50860342D01*
X106701834Y-50776677D01*
X106871673Y-50725157D01*
X106937857Y-50718639D01*
X107004040Y-50712120D01*
X107092560Y-50712120D01*
X107158742Y-50718638D01*
X107158742Y-50718638D01*
G37*
G36*
X103695625Y-47044375D02*
G01*
X104050683Y-47191445D01*
X104050685Y-47191446D01*
X104370230Y-47404959D01*
X104641981Y-47676710D01*
X104797758Y-47909847D01*
X104855495Y-47996257D01*
X105002565Y-48351315D01*
X105077540Y-48728242D01*
X105077540Y-49112558D01*
X105002565Y-49489485D01*
X104894764Y-49749739D01*
X104855494Y-49844545D01*
X104641981Y-50164090D01*
X104370230Y-50435841D01*
X104050685Y-50649354D01*
X104050684Y-50649355D01*
X104050683Y-50649355D01*
X103695625Y-50796425D01*
X103318698Y-50871400D01*
X102934382Y-50871400D01*
X102557455Y-50796425D01*
X102202397Y-50649355D01*
X102202396Y-50649355D01*
X102202395Y-50649354D01*
X101882850Y-50435841D01*
X101611099Y-50164090D01*
X101397586Y-49844545D01*
X101358316Y-49749739D01*
X101250515Y-49489485D01*
X101175540Y-49112558D01*
X101175540Y-48728242D01*
X101250515Y-48351315D01*
X101397585Y-47996257D01*
X101455322Y-47909847D01*
X101611099Y-47676710D01*
X101882850Y-47404959D01*
X102202395Y-47191446D01*
X102202397Y-47191445D01*
X102557455Y-47044375D01*
X102934382Y-46969400D01*
X103318698Y-46969400D01*
X103695625Y-47044375D01*
X103695625Y-47044375D01*
G37*
G36*
X149226027Y-47669396D02*
G01*
X149462793Y-47767468D01*
X149462795Y-47767469D01*
X149675879Y-47909847D01*
X149857093Y-48091061D01*
X149990411Y-48290585D01*
X149999472Y-48304147D01*
X150097544Y-48540913D01*
X150147540Y-48792261D01*
X150147540Y-49048539D01*
X150097544Y-49299887D01*
X150019009Y-49489486D01*
X149999471Y-49536655D01*
X149857093Y-49749739D01*
X149675879Y-49930953D01*
X149462795Y-50073331D01*
X149462794Y-50073332D01*
X149462793Y-50073332D01*
X149226027Y-50171404D01*
X148974679Y-50221400D01*
X148718401Y-50221400D01*
X148467053Y-50171404D01*
X148230287Y-50073332D01*
X148230286Y-50073332D01*
X148230285Y-50073331D01*
X148017201Y-49930953D01*
X147835987Y-49749739D01*
X147693609Y-49536655D01*
X147674071Y-49489486D01*
X147595536Y-49299887D01*
X147545540Y-49048539D01*
X147545540Y-48792261D01*
X147595536Y-48540913D01*
X147693608Y-48304147D01*
X147702670Y-48290585D01*
X147835987Y-48091061D01*
X148017201Y-47909847D01*
X148230285Y-47767469D01*
X148230287Y-47767468D01*
X148467053Y-47669396D01*
X148718401Y-47619400D01*
X148974679Y-47619400D01*
X149226027Y-47669396D01*
X149226027Y-47669396D01*
G37*
G36*
X107949300Y-49974120D02*
G01*
X106147300Y-49974120D01*
X106147300Y-48172120D01*
X107949300Y-48172120D01*
X107949300Y-49974120D01*
X107949300Y-49974120D01*
G37*
G36*
X134984443Y-46755919D02*
G01*
X135050627Y-46762437D01*
X135220466Y-46813957D01*
X135376991Y-46897622D01*
X135412729Y-46926952D01*
X135514186Y-47010214D01*
X135597448Y-47111671D01*
X135626778Y-47147409D01*
X135710443Y-47303934D01*
X135761963Y-47473773D01*
X135779359Y-47650400D01*
X135761963Y-47827027D01*
X135710443Y-47996866D01*
X135626778Y-48153391D01*
X135611407Y-48172120D01*
X135514186Y-48290586D01*
X135440186Y-48351315D01*
X135376991Y-48403178D01*
X135220466Y-48486843D01*
X135050627Y-48538363D01*
X134984443Y-48544881D01*
X134918260Y-48551400D01*
X134829740Y-48551400D01*
X134763557Y-48544881D01*
X134697373Y-48538363D01*
X134527534Y-48486843D01*
X134371009Y-48403178D01*
X134307814Y-48351315D01*
X134233814Y-48290586D01*
X134136593Y-48172120D01*
X134121222Y-48153391D01*
X134037557Y-47996866D01*
X133986037Y-47827027D01*
X133968641Y-47650400D01*
X133986037Y-47473773D01*
X134037557Y-47303934D01*
X134121222Y-47147409D01*
X134150552Y-47111671D01*
X134233814Y-47010214D01*
X134335271Y-46926952D01*
X134371009Y-46897622D01*
X134527534Y-46813957D01*
X134697373Y-46762437D01*
X134763558Y-46755918D01*
X134829740Y-46749400D01*
X134918260Y-46749400D01*
X134984443Y-46755919D01*
X134984443Y-46755919D01*
G37*
G36*
X137524443Y-46755919D02*
G01*
X137590627Y-46762437D01*
X137760466Y-46813957D01*
X137916991Y-46897622D01*
X137952729Y-46926952D01*
X138054186Y-47010214D01*
X138137448Y-47111671D01*
X138166778Y-47147409D01*
X138250443Y-47303934D01*
X138301963Y-47473773D01*
X138319359Y-47650400D01*
X138301963Y-47827027D01*
X138250443Y-47996866D01*
X138166778Y-48153391D01*
X138151407Y-48172120D01*
X138054186Y-48290586D01*
X137980186Y-48351315D01*
X137916991Y-48403178D01*
X137760466Y-48486843D01*
X137590627Y-48538363D01*
X137524443Y-48544881D01*
X137458260Y-48551400D01*
X137369740Y-48551400D01*
X137303557Y-48544881D01*
X137237373Y-48538363D01*
X137067534Y-48486843D01*
X136911009Y-48403178D01*
X136847814Y-48351315D01*
X136773814Y-48290586D01*
X136676593Y-48172120D01*
X136661222Y-48153391D01*
X136577557Y-47996866D01*
X136526037Y-47827027D01*
X136508641Y-47650400D01*
X136526037Y-47473773D01*
X136577557Y-47303934D01*
X136661222Y-47147409D01*
X136690552Y-47111671D01*
X136773814Y-47010214D01*
X136875271Y-46926952D01*
X136911009Y-46897622D01*
X137067534Y-46813957D01*
X137237373Y-46762437D01*
X137303558Y-46755918D01*
X137369740Y-46749400D01*
X137458260Y-46749400D01*
X137524443Y-46755919D01*
X137524443Y-46755919D01*
G37*
G36*
X117995000Y-48551400D02*
G01*
X116193000Y-48551400D01*
X116193000Y-46749400D01*
X117995000Y-46749400D01*
X117995000Y-48551400D01*
X117995000Y-48551400D01*
G37*
G36*
X119744443Y-46755919D02*
G01*
X119810627Y-46762437D01*
X119980466Y-46813957D01*
X120136991Y-46897622D01*
X120172729Y-46926952D01*
X120274186Y-47010214D01*
X120357448Y-47111671D01*
X120386778Y-47147409D01*
X120470443Y-47303934D01*
X120521963Y-47473773D01*
X120539359Y-47650400D01*
X120521963Y-47827027D01*
X120470443Y-47996866D01*
X120386778Y-48153391D01*
X120371407Y-48172120D01*
X120274186Y-48290586D01*
X120200186Y-48351315D01*
X120136991Y-48403178D01*
X119980466Y-48486843D01*
X119810627Y-48538363D01*
X119744443Y-48544881D01*
X119678260Y-48551400D01*
X119589740Y-48551400D01*
X119523557Y-48544881D01*
X119457373Y-48538363D01*
X119287534Y-48486843D01*
X119131009Y-48403178D01*
X119067814Y-48351315D01*
X118993814Y-48290586D01*
X118896593Y-48172120D01*
X118881222Y-48153391D01*
X118797557Y-47996866D01*
X118746037Y-47827027D01*
X118728641Y-47650400D01*
X118746037Y-47473773D01*
X118797557Y-47303934D01*
X118881222Y-47147409D01*
X118910552Y-47111671D01*
X118993814Y-47010214D01*
X119095271Y-46926952D01*
X119131009Y-46897622D01*
X119287534Y-46813957D01*
X119457373Y-46762437D01*
X119523558Y-46755918D01*
X119589740Y-46749400D01*
X119678260Y-46749400D01*
X119744443Y-46755919D01*
X119744443Y-46755919D01*
G37*
G36*
X122284443Y-46755919D02*
G01*
X122350627Y-46762437D01*
X122520466Y-46813957D01*
X122676991Y-46897622D01*
X122712729Y-46926952D01*
X122814186Y-47010214D01*
X122897448Y-47111671D01*
X122926778Y-47147409D01*
X123010443Y-47303934D01*
X123061963Y-47473773D01*
X123079359Y-47650400D01*
X123061963Y-47827027D01*
X123010443Y-47996866D01*
X122926778Y-48153391D01*
X122911407Y-48172120D01*
X122814186Y-48290586D01*
X122740186Y-48351315D01*
X122676991Y-48403178D01*
X122520466Y-48486843D01*
X122350627Y-48538363D01*
X122284443Y-48544881D01*
X122218260Y-48551400D01*
X122129740Y-48551400D01*
X122063557Y-48544881D01*
X121997373Y-48538363D01*
X121827534Y-48486843D01*
X121671009Y-48403178D01*
X121607814Y-48351315D01*
X121533814Y-48290586D01*
X121436593Y-48172120D01*
X121421222Y-48153391D01*
X121337557Y-47996866D01*
X121286037Y-47827027D01*
X121268641Y-47650400D01*
X121286037Y-47473773D01*
X121337557Y-47303934D01*
X121421222Y-47147409D01*
X121450552Y-47111671D01*
X121533814Y-47010214D01*
X121635271Y-46926952D01*
X121671009Y-46897622D01*
X121827534Y-46813957D01*
X121997373Y-46762437D01*
X122063558Y-46755918D01*
X122129740Y-46749400D01*
X122218260Y-46749400D01*
X122284443Y-46755919D01*
X122284443Y-46755919D01*
G37*
G36*
X124824443Y-46755919D02*
G01*
X124890627Y-46762437D01*
X125060466Y-46813957D01*
X125216991Y-46897622D01*
X125252729Y-46926952D01*
X125354186Y-47010214D01*
X125437448Y-47111671D01*
X125466778Y-47147409D01*
X125550443Y-47303934D01*
X125601963Y-47473773D01*
X125619359Y-47650400D01*
X125601963Y-47827027D01*
X125550443Y-47996866D01*
X125466778Y-48153391D01*
X125451407Y-48172120D01*
X125354186Y-48290586D01*
X125280186Y-48351315D01*
X125216991Y-48403178D01*
X125060466Y-48486843D01*
X124890627Y-48538363D01*
X124824443Y-48544881D01*
X124758260Y-48551400D01*
X124669740Y-48551400D01*
X124603557Y-48544881D01*
X124537373Y-48538363D01*
X124367534Y-48486843D01*
X124211009Y-48403178D01*
X124147814Y-48351315D01*
X124073814Y-48290586D01*
X123976593Y-48172120D01*
X123961222Y-48153391D01*
X123877557Y-47996866D01*
X123826037Y-47827027D01*
X123808641Y-47650400D01*
X123826037Y-47473773D01*
X123877557Y-47303934D01*
X123961222Y-47147409D01*
X123990552Y-47111671D01*
X124073814Y-47010214D01*
X124175271Y-46926952D01*
X124211009Y-46897622D01*
X124367534Y-46813957D01*
X124537373Y-46762437D01*
X124603558Y-46755918D01*
X124669740Y-46749400D01*
X124758260Y-46749400D01*
X124824443Y-46755919D01*
X124824443Y-46755919D01*
G37*
G36*
X127364443Y-46755919D02*
G01*
X127430627Y-46762437D01*
X127600466Y-46813957D01*
X127756991Y-46897622D01*
X127792729Y-46926952D01*
X127894186Y-47010214D01*
X127977448Y-47111671D01*
X128006778Y-47147409D01*
X128090443Y-47303934D01*
X128141963Y-47473773D01*
X128159359Y-47650400D01*
X128141963Y-47827027D01*
X128090443Y-47996866D01*
X128006778Y-48153391D01*
X127991407Y-48172120D01*
X127894186Y-48290586D01*
X127820186Y-48351315D01*
X127756991Y-48403178D01*
X127600466Y-48486843D01*
X127430627Y-48538363D01*
X127364443Y-48544881D01*
X127298260Y-48551400D01*
X127209740Y-48551400D01*
X127143557Y-48544881D01*
X127077373Y-48538363D01*
X126907534Y-48486843D01*
X126751009Y-48403178D01*
X126687814Y-48351315D01*
X126613814Y-48290586D01*
X126516593Y-48172120D01*
X126501222Y-48153391D01*
X126417557Y-47996866D01*
X126366037Y-47827027D01*
X126348641Y-47650400D01*
X126366037Y-47473773D01*
X126417557Y-47303934D01*
X126501222Y-47147409D01*
X126530552Y-47111671D01*
X126613814Y-47010214D01*
X126715271Y-46926952D01*
X126751009Y-46897622D01*
X126907534Y-46813957D01*
X127077373Y-46762437D01*
X127143558Y-46755918D01*
X127209740Y-46749400D01*
X127298260Y-46749400D01*
X127364443Y-46755919D01*
X127364443Y-46755919D01*
G37*
G36*
X132444443Y-46755919D02*
G01*
X132510627Y-46762437D01*
X132680466Y-46813957D01*
X132836991Y-46897622D01*
X132872729Y-46926952D01*
X132974186Y-47010214D01*
X133057448Y-47111671D01*
X133086778Y-47147409D01*
X133170443Y-47303934D01*
X133221963Y-47473773D01*
X133239359Y-47650400D01*
X133221963Y-47827027D01*
X133170443Y-47996866D01*
X133086778Y-48153391D01*
X133071407Y-48172120D01*
X132974186Y-48290586D01*
X132900186Y-48351315D01*
X132836991Y-48403178D01*
X132680466Y-48486843D01*
X132510627Y-48538363D01*
X132444443Y-48544881D01*
X132378260Y-48551400D01*
X132289740Y-48551400D01*
X132223557Y-48544881D01*
X132157373Y-48538363D01*
X131987534Y-48486843D01*
X131831009Y-48403178D01*
X131767814Y-48351315D01*
X131693814Y-48290586D01*
X131596593Y-48172120D01*
X131581222Y-48153391D01*
X131497557Y-47996866D01*
X131446037Y-47827027D01*
X131428641Y-47650400D01*
X131446037Y-47473773D01*
X131497557Y-47303934D01*
X131581222Y-47147409D01*
X131610552Y-47111671D01*
X131693814Y-47010214D01*
X131795271Y-46926952D01*
X131831009Y-46897622D01*
X131987534Y-46813957D01*
X132157373Y-46762437D01*
X132223558Y-46755918D01*
X132289740Y-46749400D01*
X132378260Y-46749400D01*
X132444443Y-46755919D01*
X132444443Y-46755919D01*
G37*
G36*
X140064443Y-46755919D02*
G01*
X140130627Y-46762437D01*
X140300466Y-46813957D01*
X140456991Y-46897622D01*
X140492729Y-46926952D01*
X140594186Y-47010214D01*
X140677448Y-47111671D01*
X140706778Y-47147409D01*
X140790443Y-47303934D01*
X140841963Y-47473773D01*
X140859359Y-47650400D01*
X140841963Y-47827027D01*
X140790443Y-47996866D01*
X140706778Y-48153391D01*
X140691407Y-48172120D01*
X140594186Y-48290586D01*
X140520186Y-48351315D01*
X140456991Y-48403178D01*
X140300466Y-48486843D01*
X140130627Y-48538363D01*
X140064443Y-48544881D01*
X139998260Y-48551400D01*
X139909740Y-48551400D01*
X139843557Y-48544881D01*
X139777373Y-48538363D01*
X139607534Y-48486843D01*
X139451009Y-48403178D01*
X139387814Y-48351315D01*
X139313814Y-48290586D01*
X139216593Y-48172120D01*
X139201222Y-48153391D01*
X139117557Y-47996866D01*
X139066037Y-47827027D01*
X139048641Y-47650400D01*
X139066037Y-47473773D01*
X139117557Y-47303934D01*
X139201222Y-47147409D01*
X139230552Y-47111671D01*
X139313814Y-47010214D01*
X139415271Y-46926952D01*
X139451009Y-46897622D01*
X139607534Y-46813957D01*
X139777373Y-46762437D01*
X139843558Y-46755918D01*
X139909740Y-46749400D01*
X139998260Y-46749400D01*
X140064443Y-46755919D01*
X140064443Y-46755919D01*
G37*
G36*
X142604443Y-46755919D02*
G01*
X142670627Y-46762437D01*
X142840466Y-46813957D01*
X142996991Y-46897622D01*
X143032729Y-46926952D01*
X143134186Y-47010214D01*
X143217448Y-47111671D01*
X143246778Y-47147409D01*
X143330443Y-47303934D01*
X143381963Y-47473773D01*
X143399359Y-47650400D01*
X143381963Y-47827027D01*
X143330443Y-47996866D01*
X143246778Y-48153391D01*
X143231407Y-48172120D01*
X143134186Y-48290586D01*
X143060186Y-48351315D01*
X142996991Y-48403178D01*
X142840466Y-48486843D01*
X142670627Y-48538363D01*
X142604443Y-48544881D01*
X142538260Y-48551400D01*
X142449740Y-48551400D01*
X142383557Y-48544881D01*
X142317373Y-48538363D01*
X142147534Y-48486843D01*
X141991009Y-48403178D01*
X141927814Y-48351315D01*
X141853814Y-48290586D01*
X141756593Y-48172120D01*
X141741222Y-48153391D01*
X141657557Y-47996866D01*
X141606037Y-47827027D01*
X141588641Y-47650400D01*
X141606037Y-47473773D01*
X141657557Y-47303934D01*
X141741222Y-47147409D01*
X141770552Y-47111671D01*
X141853814Y-47010214D01*
X141955271Y-46926952D01*
X141991009Y-46897622D01*
X142147534Y-46813957D01*
X142317373Y-46762437D01*
X142383558Y-46755918D01*
X142449740Y-46749400D01*
X142538260Y-46749400D01*
X142604443Y-46755919D01*
X142604443Y-46755919D01*
G37*
G36*
X145144443Y-46755919D02*
G01*
X145210627Y-46762437D01*
X145380466Y-46813957D01*
X145536991Y-46897622D01*
X145572729Y-46926952D01*
X145674186Y-47010214D01*
X145757448Y-47111671D01*
X145786778Y-47147409D01*
X145870443Y-47303934D01*
X145921963Y-47473773D01*
X145939359Y-47650400D01*
X145921963Y-47827027D01*
X145870443Y-47996866D01*
X145786778Y-48153391D01*
X145771407Y-48172120D01*
X145674186Y-48290586D01*
X145600186Y-48351315D01*
X145536991Y-48403178D01*
X145380466Y-48486843D01*
X145210627Y-48538363D01*
X145144443Y-48544881D01*
X145078260Y-48551400D01*
X144989740Y-48551400D01*
X144923557Y-48544881D01*
X144857373Y-48538363D01*
X144687534Y-48486843D01*
X144531009Y-48403178D01*
X144467814Y-48351315D01*
X144393814Y-48290586D01*
X144296593Y-48172120D01*
X144281222Y-48153391D01*
X144197557Y-47996866D01*
X144146037Y-47827027D01*
X144128641Y-47650400D01*
X144146037Y-47473773D01*
X144197557Y-47303934D01*
X144281222Y-47147409D01*
X144310552Y-47111671D01*
X144393814Y-47010214D01*
X144495271Y-46926952D01*
X144531009Y-46897622D01*
X144687534Y-46813957D01*
X144857373Y-46762437D01*
X144923558Y-46755918D01*
X144989740Y-46749400D01*
X145078260Y-46749400D01*
X145144443Y-46755919D01*
X145144443Y-46755919D01*
G37*
G36*
X129904443Y-46755919D02*
G01*
X129970627Y-46762437D01*
X130140466Y-46813957D01*
X130296991Y-46897622D01*
X130332729Y-46926952D01*
X130434186Y-47010214D01*
X130517448Y-47111671D01*
X130546778Y-47147409D01*
X130630443Y-47303934D01*
X130681963Y-47473773D01*
X130699359Y-47650400D01*
X130681963Y-47827027D01*
X130630443Y-47996866D01*
X130546778Y-48153391D01*
X130531407Y-48172120D01*
X130434186Y-48290586D01*
X130360186Y-48351315D01*
X130296991Y-48403178D01*
X130140466Y-48486843D01*
X129970627Y-48538363D01*
X129904443Y-48544881D01*
X129838260Y-48551400D01*
X129749740Y-48551400D01*
X129683557Y-48544881D01*
X129617373Y-48538363D01*
X129447534Y-48486843D01*
X129291009Y-48403178D01*
X129227814Y-48351315D01*
X129153814Y-48290586D01*
X129056593Y-48172120D01*
X129041222Y-48153391D01*
X128957557Y-47996866D01*
X128906037Y-47827027D01*
X128888641Y-47650400D01*
X128906037Y-47473773D01*
X128957557Y-47303934D01*
X129041222Y-47147409D01*
X129070552Y-47111671D01*
X129153814Y-47010214D01*
X129255271Y-46926952D01*
X129291009Y-46897622D01*
X129447534Y-46813957D01*
X129617373Y-46762437D01*
X129683558Y-46755918D01*
X129749740Y-46749400D01*
X129838260Y-46749400D01*
X129904443Y-46755919D01*
X129904443Y-46755919D01*
G37*
M02*
