M48
; DRILL file {KiCad (5.1.4)-1} date 11/29/2019 4:32:25 PM
; FORMAT={-:-/ absolute / inch / decimal}
; #@! TF.CreationDate,2019-11-29T16:32:25-05:00
; #@! TF.GenerationSoftware,Kicad,Pcbnew,(5.1.4)-1
; #@! TF.FileFunction,Plated,1,2,PTH
FMAT,2
INCH
T1C0.0130
T2C0.0394
T3C0.0866
%
G90
G05
T1
X4.0108Y-2.0342
X4.0108Y-2.1542
X4.0108Y-2.2741
X4.0108Y-2.3941
X4.0108Y-2.514
X4.0844Y-2.0332
X4.0844Y-2.1532
X4.0844Y-2.2731
X4.0844Y-2.3931
X4.0844Y-2.513
X4.1534Y-1.9878
X4.1572Y-1.8634
X4.168Y-2.0816
X4.168Y-2.1818
X4.168Y-2.2821
X4.168Y-2.3823
X4.168Y-2.4826
X4.181Y-2.598
X4.2894Y-2.6064
X4.299Y-2.4984
X4.366Y-1.8634
X4.3882Y-2.471
X4.391Y-2.567
X4.4515Y-2.482
X4.4515Y-2.554
X4.4612Y-2.6248
X4.477Y-2.1795
X4.486Y-2.449
X4.486Y-2.581
X4.529Y-2.4485
X4.529Y-2.581
X4.5404Y-1.8634
X4.559Y-2.482
X4.559Y-2.554
X4.5834Y-2.085
X4.6524Y-2.563
X4.6544Y-2.475
X4.716Y-2.0905
X4.7504Y-2.3808
X4.7538Y-2.4372
X4.754Y-2.4742
X4.786Y-2.139
X4.8484Y-2.4752
X4.8686Y-2.563
X4.9325Y-2.2865
X4.9725Y-2.4745
X5.021Y-2.092
X5.034Y-2.5624
X5.089Y-2.4805
X5.1605Y-2.141
X5.1806Y-2.563
X5.1934Y-2.445
X5.2185Y-2.3905
X5.223Y-2.291
X5.2245Y-2.2415
X5.2822Y-2.482
X5.344Y-2.14
X5.345Y-2.241
X5.4055Y-2.283
X5.4485Y-2.2855
X5.7668Y-1.923
X5.7684Y-2.6246
X5.7826Y-1.8644
X5.7882Y-2.6862
X5.7992Y-2.0394
X5.7992Y-2.1593
X5.7992Y-2.2793
X5.7992Y-2.3992
X5.7992Y-2.5192
X5.92Y-2.0394
X5.92Y-2.1593
X5.92Y-2.2793
X5.92Y-2.3992
X5.92Y-2.5192
X5.9234Y-1.9856
T2
X4.4265Y-2.1116
X4.4265Y-2.2116
X4.4265Y-2.3116
X4.4265Y-2.4116
X4.21Y-2.676
X4.31Y-2.676
X4.41Y-2.676
X4.51Y-2.676
X4.61Y-2.676
X4.71Y-2.676
X4.81Y-2.676
X4.91Y-2.676
X5.01Y-2.676
X5.11Y-2.676
X5.21Y-2.676
X5.31Y-2.676
X5.41Y-2.676
X5.51Y-2.676
X5.61Y-2.676
X5.71Y-2.676
X4.2145Y-1.932
X4.2145Y-2.032
X4.2145Y-2.132
X4.2145Y-2.232
X4.2145Y-2.332
X4.2145Y-2.432
X4.2145Y-2.532
X4.61Y-1.876
X4.71Y-1.876
X4.81Y-1.876
X4.91Y-1.876
X5.01Y-1.876
X5.11Y-1.876
X5.21Y-1.876
X5.31Y-1.876
X5.41Y-1.876
X5.51Y-1.876
X5.61Y-1.876
X5.71Y-1.876
T3
X4.0601Y-1.926
X4.0601Y-2.626
T0
M30
