G04 #@! TF.GenerationSoftware,KiCad,Pcbnew,(5.1.4)-1*
G04 #@! TF.CreationDate,2019-11-29T16:32:21-05:00*
G04 #@! TF.ProjectId,Feather-8bit-counter,46656174-6865-4722-9d38-6269742d636f,rev?*
G04 #@! TF.SameCoordinates,Original*
G04 #@! TF.FileFunction,Copper,L1,Top*
G04 #@! TF.FilePolarity,Positive*
%FSLAX46Y46*%
G04 Gerber Fmt 4.6, Leading zero omitted, Abs format (unit mm)*
G04 Created by KiCad (PCBNEW (5.1.4)-1) date 2019-11-29 16:32:21*
%MOMM*%
%LPD*%
G04 APERTURE LIST*
%ADD10C,0.100000*%
%ADD11C,0.975000*%
%ADD12O,1.700000X1.700000*%
%ADD13R,1.700000X1.700000*%
%ADD14R,1.981200X0.558800*%
%ADD15C,3.800000*%
%ADD16C,0.660400*%
%ADD17C,0.152400*%
%ADD18C,0.508000*%
%ADD19C,0.254000*%
G04 APERTURE END LIST*
D10*
G36*
X115542142Y-52805174D02*
G01*
X115565803Y-52808684D01*
X115589007Y-52814496D01*
X115611529Y-52822554D01*
X115633153Y-52832782D01*
X115653670Y-52845079D01*
X115672883Y-52859329D01*
X115690607Y-52875393D01*
X115706671Y-52893117D01*
X115720921Y-52912330D01*
X115733218Y-52932847D01*
X115743446Y-52954471D01*
X115751504Y-52976993D01*
X115757316Y-53000197D01*
X115760826Y-53023858D01*
X115762000Y-53047750D01*
X115762000Y-53535250D01*
X115760826Y-53559142D01*
X115757316Y-53582803D01*
X115751504Y-53606007D01*
X115743446Y-53628529D01*
X115733218Y-53650153D01*
X115720921Y-53670670D01*
X115706671Y-53689883D01*
X115690607Y-53707607D01*
X115672883Y-53723671D01*
X115653670Y-53737921D01*
X115633153Y-53750218D01*
X115611529Y-53760446D01*
X115589007Y-53768504D01*
X115565803Y-53774316D01*
X115542142Y-53777826D01*
X115518250Y-53779000D01*
X114605750Y-53779000D01*
X114581858Y-53777826D01*
X114558197Y-53774316D01*
X114534993Y-53768504D01*
X114512471Y-53760446D01*
X114490847Y-53750218D01*
X114470330Y-53737921D01*
X114451117Y-53723671D01*
X114433393Y-53707607D01*
X114417329Y-53689883D01*
X114403079Y-53670670D01*
X114390782Y-53650153D01*
X114380554Y-53628529D01*
X114372496Y-53606007D01*
X114366684Y-53582803D01*
X114363174Y-53559142D01*
X114362000Y-53535250D01*
X114362000Y-53047750D01*
X114363174Y-53023858D01*
X114366684Y-53000197D01*
X114372496Y-52976993D01*
X114380554Y-52954471D01*
X114390782Y-52932847D01*
X114403079Y-52912330D01*
X114417329Y-52893117D01*
X114433393Y-52875393D01*
X114451117Y-52859329D01*
X114470330Y-52845079D01*
X114490847Y-52832782D01*
X114512471Y-52822554D01*
X114534993Y-52814496D01*
X114558197Y-52808684D01*
X114581858Y-52805174D01*
X114605750Y-52804000D01*
X115518250Y-52804000D01*
X115542142Y-52805174D01*
X115542142Y-52805174D01*
G37*
D11*
X115062000Y-53291500D03*
D10*
G36*
X115542142Y-54680174D02*
G01*
X115565803Y-54683684D01*
X115589007Y-54689496D01*
X115611529Y-54697554D01*
X115633153Y-54707782D01*
X115653670Y-54720079D01*
X115672883Y-54734329D01*
X115690607Y-54750393D01*
X115706671Y-54768117D01*
X115720921Y-54787330D01*
X115733218Y-54807847D01*
X115743446Y-54829471D01*
X115751504Y-54851993D01*
X115757316Y-54875197D01*
X115760826Y-54898858D01*
X115762000Y-54922750D01*
X115762000Y-55410250D01*
X115760826Y-55434142D01*
X115757316Y-55457803D01*
X115751504Y-55481007D01*
X115743446Y-55503529D01*
X115733218Y-55525153D01*
X115720921Y-55545670D01*
X115706671Y-55564883D01*
X115690607Y-55582607D01*
X115672883Y-55598671D01*
X115653670Y-55612921D01*
X115633153Y-55625218D01*
X115611529Y-55635446D01*
X115589007Y-55643504D01*
X115565803Y-55649316D01*
X115542142Y-55652826D01*
X115518250Y-55654000D01*
X114605750Y-55654000D01*
X114581858Y-55652826D01*
X114558197Y-55649316D01*
X114534993Y-55643504D01*
X114512471Y-55635446D01*
X114490847Y-55625218D01*
X114470330Y-55612921D01*
X114451117Y-55598671D01*
X114433393Y-55582607D01*
X114417329Y-55564883D01*
X114403079Y-55545670D01*
X114390782Y-55525153D01*
X114380554Y-55503529D01*
X114372496Y-55481007D01*
X114366684Y-55457803D01*
X114363174Y-55434142D01*
X114362000Y-55410250D01*
X114362000Y-54922750D01*
X114363174Y-54898858D01*
X114366684Y-54875197D01*
X114372496Y-54851993D01*
X114380554Y-54829471D01*
X114390782Y-54807847D01*
X114403079Y-54787330D01*
X114417329Y-54768117D01*
X114433393Y-54750393D01*
X114451117Y-54734329D01*
X114470330Y-54720079D01*
X114490847Y-54707782D01*
X114512471Y-54697554D01*
X114534993Y-54689496D01*
X114558197Y-54683684D01*
X114581858Y-54680174D01*
X114605750Y-54679000D01*
X115518250Y-54679000D01*
X115542142Y-54680174D01*
X115542142Y-54680174D01*
G37*
D11*
X115062000Y-55166500D03*
D10*
G36*
X114894442Y-56005574D02*
G01*
X114918103Y-56009084D01*
X114941307Y-56014896D01*
X114963829Y-56022954D01*
X114985453Y-56033182D01*
X115005970Y-56045479D01*
X115025183Y-56059729D01*
X115042907Y-56075793D01*
X115058971Y-56093517D01*
X115073221Y-56112730D01*
X115085518Y-56133247D01*
X115095746Y-56154871D01*
X115103804Y-56177393D01*
X115109616Y-56200597D01*
X115113126Y-56224258D01*
X115114300Y-56248150D01*
X115114300Y-56735650D01*
X115113126Y-56759542D01*
X115109616Y-56783203D01*
X115103804Y-56806407D01*
X115095746Y-56828929D01*
X115085518Y-56850553D01*
X115073221Y-56871070D01*
X115058971Y-56890283D01*
X115042907Y-56908007D01*
X115025183Y-56924071D01*
X115005970Y-56938321D01*
X114985453Y-56950618D01*
X114963829Y-56960846D01*
X114941307Y-56968904D01*
X114918103Y-56974716D01*
X114894442Y-56978226D01*
X114870550Y-56979400D01*
X113958050Y-56979400D01*
X113934158Y-56978226D01*
X113910497Y-56974716D01*
X113887293Y-56968904D01*
X113864771Y-56960846D01*
X113843147Y-56950618D01*
X113822630Y-56938321D01*
X113803417Y-56924071D01*
X113785693Y-56908007D01*
X113769629Y-56890283D01*
X113755379Y-56871070D01*
X113743082Y-56850553D01*
X113732854Y-56828929D01*
X113724796Y-56806407D01*
X113718984Y-56783203D01*
X113715474Y-56759542D01*
X113714300Y-56735650D01*
X113714300Y-56248150D01*
X113715474Y-56224258D01*
X113718984Y-56200597D01*
X113724796Y-56177393D01*
X113732854Y-56154871D01*
X113743082Y-56133247D01*
X113755379Y-56112730D01*
X113769629Y-56093517D01*
X113785693Y-56075793D01*
X113803417Y-56059729D01*
X113822630Y-56045479D01*
X113843147Y-56033182D01*
X113864771Y-56022954D01*
X113887293Y-56014896D01*
X113910497Y-56009084D01*
X113934158Y-56005574D01*
X113958050Y-56004400D01*
X114870550Y-56004400D01*
X114894442Y-56005574D01*
X114894442Y-56005574D01*
G37*
D11*
X114414300Y-56491900D03*
D10*
G36*
X114894442Y-57880574D02*
G01*
X114918103Y-57884084D01*
X114941307Y-57889896D01*
X114963829Y-57897954D01*
X114985453Y-57908182D01*
X115005970Y-57920479D01*
X115025183Y-57934729D01*
X115042907Y-57950793D01*
X115058971Y-57968517D01*
X115073221Y-57987730D01*
X115085518Y-58008247D01*
X115095746Y-58029871D01*
X115103804Y-58052393D01*
X115109616Y-58075597D01*
X115113126Y-58099258D01*
X115114300Y-58123150D01*
X115114300Y-58610650D01*
X115113126Y-58634542D01*
X115109616Y-58658203D01*
X115103804Y-58681407D01*
X115095746Y-58703929D01*
X115085518Y-58725553D01*
X115073221Y-58746070D01*
X115058971Y-58765283D01*
X115042907Y-58783007D01*
X115025183Y-58799071D01*
X115005970Y-58813321D01*
X114985453Y-58825618D01*
X114963829Y-58835846D01*
X114941307Y-58843904D01*
X114918103Y-58849716D01*
X114894442Y-58853226D01*
X114870550Y-58854400D01*
X113958050Y-58854400D01*
X113934158Y-58853226D01*
X113910497Y-58849716D01*
X113887293Y-58843904D01*
X113864771Y-58835846D01*
X113843147Y-58825618D01*
X113822630Y-58813321D01*
X113803417Y-58799071D01*
X113785693Y-58783007D01*
X113769629Y-58765283D01*
X113755379Y-58746070D01*
X113743082Y-58725553D01*
X113732854Y-58703929D01*
X113724796Y-58681407D01*
X113718984Y-58658203D01*
X113715474Y-58634542D01*
X113714300Y-58610650D01*
X113714300Y-58123150D01*
X113715474Y-58099258D01*
X113718984Y-58075597D01*
X113724796Y-58052393D01*
X113732854Y-58029871D01*
X113743082Y-58008247D01*
X113755379Y-57987730D01*
X113769629Y-57968517D01*
X113785693Y-57950793D01*
X113803417Y-57934729D01*
X113822630Y-57920479D01*
X113843147Y-57908182D01*
X113864771Y-57897954D01*
X113887293Y-57889896D01*
X113910497Y-57884084D01*
X113934158Y-57880574D01*
X113958050Y-57879400D01*
X114870550Y-57879400D01*
X114894442Y-57880574D01*
X114894442Y-57880574D01*
G37*
D11*
X114414300Y-58366900D03*
D10*
G36*
X127480142Y-60979374D02*
G01*
X127503803Y-60982884D01*
X127527007Y-60988696D01*
X127549529Y-60996754D01*
X127571153Y-61006982D01*
X127591670Y-61019279D01*
X127610883Y-61033529D01*
X127628607Y-61049593D01*
X127644671Y-61067317D01*
X127658921Y-61086530D01*
X127671218Y-61107047D01*
X127681446Y-61128671D01*
X127689504Y-61151193D01*
X127695316Y-61174397D01*
X127698826Y-61198058D01*
X127700000Y-61221950D01*
X127700000Y-61709450D01*
X127698826Y-61733342D01*
X127695316Y-61757003D01*
X127689504Y-61780207D01*
X127681446Y-61802729D01*
X127671218Y-61824353D01*
X127658921Y-61844870D01*
X127644671Y-61864083D01*
X127628607Y-61881807D01*
X127610883Y-61897871D01*
X127591670Y-61912121D01*
X127571153Y-61924418D01*
X127549529Y-61934646D01*
X127527007Y-61942704D01*
X127503803Y-61948516D01*
X127480142Y-61952026D01*
X127456250Y-61953200D01*
X126543750Y-61953200D01*
X126519858Y-61952026D01*
X126496197Y-61948516D01*
X126472993Y-61942704D01*
X126450471Y-61934646D01*
X126428847Y-61924418D01*
X126408330Y-61912121D01*
X126389117Y-61897871D01*
X126371393Y-61881807D01*
X126355329Y-61864083D01*
X126341079Y-61844870D01*
X126328782Y-61824353D01*
X126318554Y-61802729D01*
X126310496Y-61780207D01*
X126304684Y-61757003D01*
X126301174Y-61733342D01*
X126300000Y-61709450D01*
X126300000Y-61221950D01*
X126301174Y-61198058D01*
X126304684Y-61174397D01*
X126310496Y-61151193D01*
X126318554Y-61128671D01*
X126328782Y-61107047D01*
X126341079Y-61086530D01*
X126355329Y-61067317D01*
X126371393Y-61049593D01*
X126389117Y-61033529D01*
X126408330Y-61019279D01*
X126428847Y-61006982D01*
X126450471Y-60996754D01*
X126472993Y-60988696D01*
X126496197Y-60982884D01*
X126519858Y-60979374D01*
X126543750Y-60978200D01*
X127456250Y-60978200D01*
X127480142Y-60979374D01*
X127480142Y-60979374D01*
G37*
D11*
X127000000Y-61465700D03*
D10*
G36*
X127480142Y-59104374D02*
G01*
X127503803Y-59107884D01*
X127527007Y-59113696D01*
X127549529Y-59121754D01*
X127571153Y-59131982D01*
X127591670Y-59144279D01*
X127610883Y-59158529D01*
X127628607Y-59174593D01*
X127644671Y-59192317D01*
X127658921Y-59211530D01*
X127671218Y-59232047D01*
X127681446Y-59253671D01*
X127689504Y-59276193D01*
X127695316Y-59299397D01*
X127698826Y-59323058D01*
X127700000Y-59346950D01*
X127700000Y-59834450D01*
X127698826Y-59858342D01*
X127695316Y-59882003D01*
X127689504Y-59905207D01*
X127681446Y-59927729D01*
X127671218Y-59949353D01*
X127658921Y-59969870D01*
X127644671Y-59989083D01*
X127628607Y-60006807D01*
X127610883Y-60022871D01*
X127591670Y-60037121D01*
X127571153Y-60049418D01*
X127549529Y-60059646D01*
X127527007Y-60067704D01*
X127503803Y-60073516D01*
X127480142Y-60077026D01*
X127456250Y-60078200D01*
X126543750Y-60078200D01*
X126519858Y-60077026D01*
X126496197Y-60073516D01*
X126472993Y-60067704D01*
X126450471Y-60059646D01*
X126428847Y-60049418D01*
X126408330Y-60037121D01*
X126389117Y-60022871D01*
X126371393Y-60006807D01*
X126355329Y-59989083D01*
X126341079Y-59969870D01*
X126328782Y-59949353D01*
X126318554Y-59927729D01*
X126310496Y-59905207D01*
X126304684Y-59882003D01*
X126301174Y-59858342D01*
X126300000Y-59834450D01*
X126300000Y-59346950D01*
X126301174Y-59323058D01*
X126304684Y-59299397D01*
X126310496Y-59276193D01*
X126318554Y-59253671D01*
X126328782Y-59232047D01*
X126341079Y-59211530D01*
X126355329Y-59192317D01*
X126371393Y-59174593D01*
X126389117Y-59158529D01*
X126408330Y-59144279D01*
X126428847Y-59131982D01*
X126450471Y-59121754D01*
X126472993Y-59113696D01*
X126496197Y-59107884D01*
X126519858Y-59104374D01*
X126543750Y-59103200D01*
X127456250Y-59103200D01*
X127480142Y-59104374D01*
X127480142Y-59104374D01*
G37*
D11*
X127000000Y-59590700D03*
D12*
X112433100Y-61254640D03*
X112433100Y-58714640D03*
X112433100Y-56174640D03*
D13*
X112433100Y-53634640D03*
D12*
X107048300Y-64313120D03*
X107048300Y-61773120D03*
X107048300Y-59233120D03*
X107048300Y-56693120D03*
X107048300Y-54153120D03*
X107048300Y-51613120D03*
D13*
X107048300Y-49073120D03*
D12*
X145034000Y-47650400D03*
X142494000Y-47650400D03*
X139954000Y-47650400D03*
X137414000Y-47650400D03*
X134874000Y-47650400D03*
X132334000Y-47650400D03*
X129794000Y-47650400D03*
X127254000Y-47650400D03*
X124714000Y-47650400D03*
X122174000Y-47650400D03*
X119634000Y-47650400D03*
D13*
X117094000Y-47650400D03*
D12*
X145034000Y-67970400D03*
X142494000Y-67970400D03*
X139954000Y-67970400D03*
X137414000Y-67970400D03*
X134874000Y-67970400D03*
X132334000Y-67970400D03*
X129794000Y-67970400D03*
X127254000Y-67970400D03*
X124714000Y-67970400D03*
X122174000Y-67970400D03*
X119634000Y-67970400D03*
X117094000Y-67970400D03*
X114554000Y-67970400D03*
X112014000Y-67970400D03*
X109474000Y-67970400D03*
D13*
X106934000Y-67970400D03*
D10*
G36*
X125714842Y-60964134D02*
G01*
X125738503Y-60967644D01*
X125761707Y-60973456D01*
X125784229Y-60981514D01*
X125805853Y-60991742D01*
X125826370Y-61004039D01*
X125845583Y-61018289D01*
X125863307Y-61034353D01*
X125879371Y-61052077D01*
X125893621Y-61071290D01*
X125905918Y-61091807D01*
X125916146Y-61113431D01*
X125924204Y-61135953D01*
X125930016Y-61159157D01*
X125933526Y-61182818D01*
X125934700Y-61206710D01*
X125934700Y-61694210D01*
X125933526Y-61718102D01*
X125930016Y-61741763D01*
X125924204Y-61764967D01*
X125916146Y-61787489D01*
X125905918Y-61809113D01*
X125893621Y-61829630D01*
X125879371Y-61848843D01*
X125863307Y-61866567D01*
X125845583Y-61882631D01*
X125826370Y-61896881D01*
X125805853Y-61909178D01*
X125784229Y-61919406D01*
X125761707Y-61927464D01*
X125738503Y-61933276D01*
X125714842Y-61936786D01*
X125690950Y-61937960D01*
X124778450Y-61937960D01*
X124754558Y-61936786D01*
X124730897Y-61933276D01*
X124707693Y-61927464D01*
X124685171Y-61919406D01*
X124663547Y-61909178D01*
X124643030Y-61896881D01*
X124623817Y-61882631D01*
X124606093Y-61866567D01*
X124590029Y-61848843D01*
X124575779Y-61829630D01*
X124563482Y-61809113D01*
X124553254Y-61787489D01*
X124545196Y-61764967D01*
X124539384Y-61741763D01*
X124535874Y-61718102D01*
X124534700Y-61694210D01*
X124534700Y-61206710D01*
X124535874Y-61182818D01*
X124539384Y-61159157D01*
X124545196Y-61135953D01*
X124553254Y-61113431D01*
X124563482Y-61091807D01*
X124575779Y-61071290D01*
X124590029Y-61052077D01*
X124606093Y-61034353D01*
X124623817Y-61018289D01*
X124643030Y-61004039D01*
X124663547Y-60991742D01*
X124685171Y-60981514D01*
X124707693Y-60973456D01*
X124730897Y-60967644D01*
X124754558Y-60964134D01*
X124778450Y-60962960D01*
X125690950Y-60962960D01*
X125714842Y-60964134D01*
X125714842Y-60964134D01*
G37*
D11*
X125234700Y-61450460D03*
D10*
G36*
X125714842Y-59089134D02*
G01*
X125738503Y-59092644D01*
X125761707Y-59098456D01*
X125784229Y-59106514D01*
X125805853Y-59116742D01*
X125826370Y-59129039D01*
X125845583Y-59143289D01*
X125863307Y-59159353D01*
X125879371Y-59177077D01*
X125893621Y-59196290D01*
X125905918Y-59216807D01*
X125916146Y-59238431D01*
X125924204Y-59260953D01*
X125930016Y-59284157D01*
X125933526Y-59307818D01*
X125934700Y-59331710D01*
X125934700Y-59819210D01*
X125933526Y-59843102D01*
X125930016Y-59866763D01*
X125924204Y-59889967D01*
X125916146Y-59912489D01*
X125905918Y-59934113D01*
X125893621Y-59954630D01*
X125879371Y-59973843D01*
X125863307Y-59991567D01*
X125845583Y-60007631D01*
X125826370Y-60021881D01*
X125805853Y-60034178D01*
X125784229Y-60044406D01*
X125761707Y-60052464D01*
X125738503Y-60058276D01*
X125714842Y-60061786D01*
X125690950Y-60062960D01*
X124778450Y-60062960D01*
X124754558Y-60061786D01*
X124730897Y-60058276D01*
X124707693Y-60052464D01*
X124685171Y-60044406D01*
X124663547Y-60034178D01*
X124643030Y-60021881D01*
X124623817Y-60007631D01*
X124606093Y-59991567D01*
X124590029Y-59973843D01*
X124575779Y-59954630D01*
X124563482Y-59934113D01*
X124553254Y-59912489D01*
X124545196Y-59889967D01*
X124539384Y-59866763D01*
X124535874Y-59843102D01*
X124534700Y-59819210D01*
X124534700Y-59331710D01*
X124535874Y-59307818D01*
X124539384Y-59284157D01*
X124545196Y-59260953D01*
X124553254Y-59238431D01*
X124563482Y-59216807D01*
X124575779Y-59196290D01*
X124590029Y-59177077D01*
X124606093Y-59159353D01*
X124623817Y-59143289D01*
X124643030Y-59129039D01*
X124663547Y-59116742D01*
X124685171Y-59106514D01*
X124707693Y-59098456D01*
X124730897Y-59092644D01*
X124754558Y-59089134D01*
X124778450Y-59087960D01*
X125690950Y-59087960D01*
X125714842Y-59089134D01*
X125714842Y-59089134D01*
G37*
D11*
X125234700Y-59575460D03*
D14*
X123151900Y-53086000D03*
X123151900Y-54356000D03*
X123151900Y-55626000D03*
X123151900Y-56896000D03*
X123151900Y-58166000D03*
X123151900Y-59436000D03*
X123151900Y-60706000D03*
X123151900Y-61976000D03*
X118224300Y-61976000D03*
X118224300Y-60706000D03*
X118224300Y-59436000D03*
X118224300Y-58166000D03*
X118224300Y-56896000D03*
X118224300Y-55626000D03*
X118224300Y-54356000D03*
X118224300Y-53086000D03*
X134188200Y-53086000D03*
X134188200Y-54356000D03*
X134188200Y-55626000D03*
X134188200Y-56896000D03*
X134188200Y-58166000D03*
X134188200Y-59436000D03*
X134188200Y-60706000D03*
X134188200Y-61976000D03*
X129260600Y-61976000D03*
X129260600Y-60706000D03*
X129260600Y-59436000D03*
X129260600Y-58166000D03*
X129260600Y-56896000D03*
X129260600Y-55626000D03*
X129260600Y-54356000D03*
X129260600Y-53086000D03*
D10*
G36*
X140350702Y-64401374D02*
G01*
X140374363Y-64404884D01*
X140397567Y-64410696D01*
X140420089Y-64418754D01*
X140441713Y-64428982D01*
X140462230Y-64441279D01*
X140481443Y-64455529D01*
X140499167Y-64471593D01*
X140515231Y-64489317D01*
X140529481Y-64508530D01*
X140541778Y-64529047D01*
X140552006Y-64550671D01*
X140560064Y-64573193D01*
X140565876Y-64596397D01*
X140569386Y-64620058D01*
X140570560Y-64643950D01*
X140570560Y-65556450D01*
X140569386Y-65580342D01*
X140565876Y-65604003D01*
X140560064Y-65627207D01*
X140552006Y-65649729D01*
X140541778Y-65671353D01*
X140529481Y-65691870D01*
X140515231Y-65711083D01*
X140499167Y-65728807D01*
X140481443Y-65744871D01*
X140462230Y-65759121D01*
X140441713Y-65771418D01*
X140420089Y-65781646D01*
X140397567Y-65789704D01*
X140374363Y-65795516D01*
X140350702Y-65799026D01*
X140326810Y-65800200D01*
X139839310Y-65800200D01*
X139815418Y-65799026D01*
X139791757Y-65795516D01*
X139768553Y-65789704D01*
X139746031Y-65781646D01*
X139724407Y-65771418D01*
X139703890Y-65759121D01*
X139684677Y-65744871D01*
X139666953Y-65728807D01*
X139650889Y-65711083D01*
X139636639Y-65691870D01*
X139624342Y-65671353D01*
X139614114Y-65649729D01*
X139606056Y-65627207D01*
X139600244Y-65604003D01*
X139596734Y-65580342D01*
X139595560Y-65556450D01*
X139595560Y-64643950D01*
X139596734Y-64620058D01*
X139600244Y-64596397D01*
X139606056Y-64573193D01*
X139614114Y-64550671D01*
X139624342Y-64529047D01*
X139636639Y-64508530D01*
X139650889Y-64489317D01*
X139666953Y-64471593D01*
X139684677Y-64455529D01*
X139703890Y-64441279D01*
X139724407Y-64428982D01*
X139746031Y-64418754D01*
X139768553Y-64410696D01*
X139791757Y-64404884D01*
X139815418Y-64401374D01*
X139839310Y-64400200D01*
X140326810Y-64400200D01*
X140350702Y-64401374D01*
X140350702Y-64401374D01*
G37*
D11*
X140083060Y-65100200D03*
D10*
G36*
X142225702Y-64401374D02*
G01*
X142249363Y-64404884D01*
X142272567Y-64410696D01*
X142295089Y-64418754D01*
X142316713Y-64428982D01*
X142337230Y-64441279D01*
X142356443Y-64455529D01*
X142374167Y-64471593D01*
X142390231Y-64489317D01*
X142404481Y-64508530D01*
X142416778Y-64529047D01*
X142427006Y-64550671D01*
X142435064Y-64573193D01*
X142440876Y-64596397D01*
X142444386Y-64620058D01*
X142445560Y-64643950D01*
X142445560Y-65556450D01*
X142444386Y-65580342D01*
X142440876Y-65604003D01*
X142435064Y-65627207D01*
X142427006Y-65649729D01*
X142416778Y-65671353D01*
X142404481Y-65691870D01*
X142390231Y-65711083D01*
X142374167Y-65728807D01*
X142356443Y-65744871D01*
X142337230Y-65759121D01*
X142316713Y-65771418D01*
X142295089Y-65781646D01*
X142272567Y-65789704D01*
X142249363Y-65795516D01*
X142225702Y-65799026D01*
X142201810Y-65800200D01*
X141714310Y-65800200D01*
X141690418Y-65799026D01*
X141666757Y-65795516D01*
X141643553Y-65789704D01*
X141621031Y-65781646D01*
X141599407Y-65771418D01*
X141578890Y-65759121D01*
X141559677Y-65744871D01*
X141541953Y-65728807D01*
X141525889Y-65711083D01*
X141511639Y-65691870D01*
X141499342Y-65671353D01*
X141489114Y-65649729D01*
X141481056Y-65627207D01*
X141475244Y-65604003D01*
X141471734Y-65580342D01*
X141470560Y-65556450D01*
X141470560Y-64643950D01*
X141471734Y-64620058D01*
X141475244Y-64596397D01*
X141481056Y-64573193D01*
X141489114Y-64550671D01*
X141499342Y-64529047D01*
X141511639Y-64508530D01*
X141525889Y-64489317D01*
X141541953Y-64471593D01*
X141559677Y-64455529D01*
X141578890Y-64441279D01*
X141599407Y-64428982D01*
X141621031Y-64418754D01*
X141643553Y-64410696D01*
X141666757Y-64404884D01*
X141690418Y-64401374D01*
X141714310Y-64400200D01*
X142201810Y-64400200D01*
X142225702Y-64401374D01*
X142225702Y-64401374D01*
G37*
D11*
X141958060Y-65100200D03*
D10*
G36*
X140350702Y-62293174D02*
G01*
X140374363Y-62296684D01*
X140397567Y-62302496D01*
X140420089Y-62310554D01*
X140441713Y-62320782D01*
X140462230Y-62333079D01*
X140481443Y-62347329D01*
X140499167Y-62363393D01*
X140515231Y-62381117D01*
X140529481Y-62400330D01*
X140541778Y-62420847D01*
X140552006Y-62442471D01*
X140560064Y-62464993D01*
X140565876Y-62488197D01*
X140569386Y-62511858D01*
X140570560Y-62535750D01*
X140570560Y-63448250D01*
X140569386Y-63472142D01*
X140565876Y-63495803D01*
X140560064Y-63519007D01*
X140552006Y-63541529D01*
X140541778Y-63563153D01*
X140529481Y-63583670D01*
X140515231Y-63602883D01*
X140499167Y-63620607D01*
X140481443Y-63636671D01*
X140462230Y-63650921D01*
X140441713Y-63663218D01*
X140420089Y-63673446D01*
X140397567Y-63681504D01*
X140374363Y-63687316D01*
X140350702Y-63690826D01*
X140326810Y-63692000D01*
X139839310Y-63692000D01*
X139815418Y-63690826D01*
X139791757Y-63687316D01*
X139768553Y-63681504D01*
X139746031Y-63673446D01*
X139724407Y-63663218D01*
X139703890Y-63650921D01*
X139684677Y-63636671D01*
X139666953Y-63620607D01*
X139650889Y-63602883D01*
X139636639Y-63583670D01*
X139624342Y-63563153D01*
X139614114Y-63541529D01*
X139606056Y-63519007D01*
X139600244Y-63495803D01*
X139596734Y-63472142D01*
X139595560Y-63448250D01*
X139595560Y-62535750D01*
X139596734Y-62511858D01*
X139600244Y-62488197D01*
X139606056Y-62464993D01*
X139614114Y-62442471D01*
X139624342Y-62420847D01*
X139636639Y-62400330D01*
X139650889Y-62381117D01*
X139666953Y-62363393D01*
X139684677Y-62347329D01*
X139703890Y-62333079D01*
X139724407Y-62320782D01*
X139746031Y-62310554D01*
X139768553Y-62302496D01*
X139791757Y-62296684D01*
X139815418Y-62293174D01*
X139839310Y-62292000D01*
X140326810Y-62292000D01*
X140350702Y-62293174D01*
X140350702Y-62293174D01*
G37*
D11*
X140083060Y-62992000D03*
D10*
G36*
X142225702Y-62293174D02*
G01*
X142249363Y-62296684D01*
X142272567Y-62302496D01*
X142295089Y-62310554D01*
X142316713Y-62320782D01*
X142337230Y-62333079D01*
X142356443Y-62347329D01*
X142374167Y-62363393D01*
X142390231Y-62381117D01*
X142404481Y-62400330D01*
X142416778Y-62420847D01*
X142427006Y-62442471D01*
X142435064Y-62464993D01*
X142440876Y-62488197D01*
X142444386Y-62511858D01*
X142445560Y-62535750D01*
X142445560Y-63448250D01*
X142444386Y-63472142D01*
X142440876Y-63495803D01*
X142435064Y-63519007D01*
X142427006Y-63541529D01*
X142416778Y-63563153D01*
X142404481Y-63583670D01*
X142390231Y-63602883D01*
X142374167Y-63620607D01*
X142356443Y-63636671D01*
X142337230Y-63650921D01*
X142316713Y-63663218D01*
X142295089Y-63673446D01*
X142272567Y-63681504D01*
X142249363Y-63687316D01*
X142225702Y-63690826D01*
X142201810Y-63692000D01*
X141714310Y-63692000D01*
X141690418Y-63690826D01*
X141666757Y-63687316D01*
X141643553Y-63681504D01*
X141621031Y-63673446D01*
X141599407Y-63663218D01*
X141578890Y-63650921D01*
X141559677Y-63636671D01*
X141541953Y-63620607D01*
X141525889Y-63602883D01*
X141511639Y-63583670D01*
X141499342Y-63563153D01*
X141489114Y-63541529D01*
X141481056Y-63519007D01*
X141475244Y-63495803D01*
X141471734Y-63472142D01*
X141470560Y-63448250D01*
X141470560Y-62535750D01*
X141471734Y-62511858D01*
X141475244Y-62488197D01*
X141481056Y-62464993D01*
X141489114Y-62442471D01*
X141499342Y-62420847D01*
X141511639Y-62400330D01*
X141525889Y-62381117D01*
X141541953Y-62363393D01*
X141559677Y-62347329D01*
X141578890Y-62333079D01*
X141599407Y-62320782D01*
X141621031Y-62310554D01*
X141643553Y-62302496D01*
X141666757Y-62296684D01*
X141690418Y-62293174D01*
X141714310Y-62292000D01*
X142201810Y-62292000D01*
X142225702Y-62293174D01*
X142225702Y-62293174D01*
G37*
D11*
X141958060Y-62992000D03*
D10*
G36*
X140350702Y-60184974D02*
G01*
X140374363Y-60188484D01*
X140397567Y-60194296D01*
X140420089Y-60202354D01*
X140441713Y-60212582D01*
X140462230Y-60224879D01*
X140481443Y-60239129D01*
X140499167Y-60255193D01*
X140515231Y-60272917D01*
X140529481Y-60292130D01*
X140541778Y-60312647D01*
X140552006Y-60334271D01*
X140560064Y-60356793D01*
X140565876Y-60379997D01*
X140569386Y-60403658D01*
X140570560Y-60427550D01*
X140570560Y-61340050D01*
X140569386Y-61363942D01*
X140565876Y-61387603D01*
X140560064Y-61410807D01*
X140552006Y-61433329D01*
X140541778Y-61454953D01*
X140529481Y-61475470D01*
X140515231Y-61494683D01*
X140499167Y-61512407D01*
X140481443Y-61528471D01*
X140462230Y-61542721D01*
X140441713Y-61555018D01*
X140420089Y-61565246D01*
X140397567Y-61573304D01*
X140374363Y-61579116D01*
X140350702Y-61582626D01*
X140326810Y-61583800D01*
X139839310Y-61583800D01*
X139815418Y-61582626D01*
X139791757Y-61579116D01*
X139768553Y-61573304D01*
X139746031Y-61565246D01*
X139724407Y-61555018D01*
X139703890Y-61542721D01*
X139684677Y-61528471D01*
X139666953Y-61512407D01*
X139650889Y-61494683D01*
X139636639Y-61475470D01*
X139624342Y-61454953D01*
X139614114Y-61433329D01*
X139606056Y-61410807D01*
X139600244Y-61387603D01*
X139596734Y-61363942D01*
X139595560Y-61340050D01*
X139595560Y-60427550D01*
X139596734Y-60403658D01*
X139600244Y-60379997D01*
X139606056Y-60356793D01*
X139614114Y-60334271D01*
X139624342Y-60312647D01*
X139636639Y-60292130D01*
X139650889Y-60272917D01*
X139666953Y-60255193D01*
X139684677Y-60239129D01*
X139703890Y-60224879D01*
X139724407Y-60212582D01*
X139746031Y-60202354D01*
X139768553Y-60194296D01*
X139791757Y-60188484D01*
X139815418Y-60184974D01*
X139839310Y-60183800D01*
X140326810Y-60183800D01*
X140350702Y-60184974D01*
X140350702Y-60184974D01*
G37*
D11*
X140083060Y-60883800D03*
D10*
G36*
X142225702Y-60184974D02*
G01*
X142249363Y-60188484D01*
X142272567Y-60194296D01*
X142295089Y-60202354D01*
X142316713Y-60212582D01*
X142337230Y-60224879D01*
X142356443Y-60239129D01*
X142374167Y-60255193D01*
X142390231Y-60272917D01*
X142404481Y-60292130D01*
X142416778Y-60312647D01*
X142427006Y-60334271D01*
X142435064Y-60356793D01*
X142440876Y-60379997D01*
X142444386Y-60403658D01*
X142445560Y-60427550D01*
X142445560Y-61340050D01*
X142444386Y-61363942D01*
X142440876Y-61387603D01*
X142435064Y-61410807D01*
X142427006Y-61433329D01*
X142416778Y-61454953D01*
X142404481Y-61475470D01*
X142390231Y-61494683D01*
X142374167Y-61512407D01*
X142356443Y-61528471D01*
X142337230Y-61542721D01*
X142316713Y-61555018D01*
X142295089Y-61565246D01*
X142272567Y-61573304D01*
X142249363Y-61579116D01*
X142225702Y-61582626D01*
X142201810Y-61583800D01*
X141714310Y-61583800D01*
X141690418Y-61582626D01*
X141666757Y-61579116D01*
X141643553Y-61573304D01*
X141621031Y-61565246D01*
X141599407Y-61555018D01*
X141578890Y-61542721D01*
X141559677Y-61528471D01*
X141541953Y-61512407D01*
X141525889Y-61494683D01*
X141511639Y-61475470D01*
X141499342Y-61454953D01*
X141489114Y-61433329D01*
X141481056Y-61410807D01*
X141475244Y-61387603D01*
X141471734Y-61363942D01*
X141470560Y-61340050D01*
X141470560Y-60427550D01*
X141471734Y-60403658D01*
X141475244Y-60379997D01*
X141481056Y-60356793D01*
X141489114Y-60334271D01*
X141499342Y-60312647D01*
X141511639Y-60292130D01*
X141525889Y-60272917D01*
X141541953Y-60255193D01*
X141559677Y-60239129D01*
X141578890Y-60224879D01*
X141599407Y-60212582D01*
X141621031Y-60202354D01*
X141643553Y-60194296D01*
X141666757Y-60188484D01*
X141690418Y-60184974D01*
X141714310Y-60183800D01*
X142201810Y-60183800D01*
X142225702Y-60184974D01*
X142225702Y-60184974D01*
G37*
D11*
X141958060Y-60883800D03*
D10*
G36*
X140350702Y-58076774D02*
G01*
X140374363Y-58080284D01*
X140397567Y-58086096D01*
X140420089Y-58094154D01*
X140441713Y-58104382D01*
X140462230Y-58116679D01*
X140481443Y-58130929D01*
X140499167Y-58146993D01*
X140515231Y-58164717D01*
X140529481Y-58183930D01*
X140541778Y-58204447D01*
X140552006Y-58226071D01*
X140560064Y-58248593D01*
X140565876Y-58271797D01*
X140569386Y-58295458D01*
X140570560Y-58319350D01*
X140570560Y-59231850D01*
X140569386Y-59255742D01*
X140565876Y-59279403D01*
X140560064Y-59302607D01*
X140552006Y-59325129D01*
X140541778Y-59346753D01*
X140529481Y-59367270D01*
X140515231Y-59386483D01*
X140499167Y-59404207D01*
X140481443Y-59420271D01*
X140462230Y-59434521D01*
X140441713Y-59446818D01*
X140420089Y-59457046D01*
X140397567Y-59465104D01*
X140374363Y-59470916D01*
X140350702Y-59474426D01*
X140326810Y-59475600D01*
X139839310Y-59475600D01*
X139815418Y-59474426D01*
X139791757Y-59470916D01*
X139768553Y-59465104D01*
X139746031Y-59457046D01*
X139724407Y-59446818D01*
X139703890Y-59434521D01*
X139684677Y-59420271D01*
X139666953Y-59404207D01*
X139650889Y-59386483D01*
X139636639Y-59367270D01*
X139624342Y-59346753D01*
X139614114Y-59325129D01*
X139606056Y-59302607D01*
X139600244Y-59279403D01*
X139596734Y-59255742D01*
X139595560Y-59231850D01*
X139595560Y-58319350D01*
X139596734Y-58295458D01*
X139600244Y-58271797D01*
X139606056Y-58248593D01*
X139614114Y-58226071D01*
X139624342Y-58204447D01*
X139636639Y-58183930D01*
X139650889Y-58164717D01*
X139666953Y-58146993D01*
X139684677Y-58130929D01*
X139703890Y-58116679D01*
X139724407Y-58104382D01*
X139746031Y-58094154D01*
X139768553Y-58086096D01*
X139791757Y-58080284D01*
X139815418Y-58076774D01*
X139839310Y-58075600D01*
X140326810Y-58075600D01*
X140350702Y-58076774D01*
X140350702Y-58076774D01*
G37*
D11*
X140083060Y-58775600D03*
D10*
G36*
X142225702Y-58076774D02*
G01*
X142249363Y-58080284D01*
X142272567Y-58086096D01*
X142295089Y-58094154D01*
X142316713Y-58104382D01*
X142337230Y-58116679D01*
X142356443Y-58130929D01*
X142374167Y-58146993D01*
X142390231Y-58164717D01*
X142404481Y-58183930D01*
X142416778Y-58204447D01*
X142427006Y-58226071D01*
X142435064Y-58248593D01*
X142440876Y-58271797D01*
X142444386Y-58295458D01*
X142445560Y-58319350D01*
X142445560Y-59231850D01*
X142444386Y-59255742D01*
X142440876Y-59279403D01*
X142435064Y-59302607D01*
X142427006Y-59325129D01*
X142416778Y-59346753D01*
X142404481Y-59367270D01*
X142390231Y-59386483D01*
X142374167Y-59404207D01*
X142356443Y-59420271D01*
X142337230Y-59434521D01*
X142316713Y-59446818D01*
X142295089Y-59457046D01*
X142272567Y-59465104D01*
X142249363Y-59470916D01*
X142225702Y-59474426D01*
X142201810Y-59475600D01*
X141714310Y-59475600D01*
X141690418Y-59474426D01*
X141666757Y-59470916D01*
X141643553Y-59465104D01*
X141621031Y-59457046D01*
X141599407Y-59446818D01*
X141578890Y-59434521D01*
X141559677Y-59420271D01*
X141541953Y-59404207D01*
X141525889Y-59386483D01*
X141511639Y-59367270D01*
X141499342Y-59346753D01*
X141489114Y-59325129D01*
X141481056Y-59302607D01*
X141475244Y-59279403D01*
X141471734Y-59255742D01*
X141470560Y-59231850D01*
X141470560Y-58319350D01*
X141471734Y-58295458D01*
X141475244Y-58271797D01*
X141481056Y-58248593D01*
X141489114Y-58226071D01*
X141499342Y-58204447D01*
X141511639Y-58183930D01*
X141525889Y-58164717D01*
X141541953Y-58146993D01*
X141559677Y-58130929D01*
X141578890Y-58116679D01*
X141599407Y-58104382D01*
X141621031Y-58094154D01*
X141643553Y-58086096D01*
X141666757Y-58080284D01*
X141690418Y-58076774D01*
X141714310Y-58075600D01*
X142201810Y-58075600D01*
X142225702Y-58076774D01*
X142225702Y-58076774D01*
G37*
D11*
X141958060Y-58775600D03*
D10*
G36*
X140350702Y-55968574D02*
G01*
X140374363Y-55972084D01*
X140397567Y-55977896D01*
X140420089Y-55985954D01*
X140441713Y-55996182D01*
X140462230Y-56008479D01*
X140481443Y-56022729D01*
X140499167Y-56038793D01*
X140515231Y-56056517D01*
X140529481Y-56075730D01*
X140541778Y-56096247D01*
X140552006Y-56117871D01*
X140560064Y-56140393D01*
X140565876Y-56163597D01*
X140569386Y-56187258D01*
X140570560Y-56211150D01*
X140570560Y-57123650D01*
X140569386Y-57147542D01*
X140565876Y-57171203D01*
X140560064Y-57194407D01*
X140552006Y-57216929D01*
X140541778Y-57238553D01*
X140529481Y-57259070D01*
X140515231Y-57278283D01*
X140499167Y-57296007D01*
X140481443Y-57312071D01*
X140462230Y-57326321D01*
X140441713Y-57338618D01*
X140420089Y-57348846D01*
X140397567Y-57356904D01*
X140374363Y-57362716D01*
X140350702Y-57366226D01*
X140326810Y-57367400D01*
X139839310Y-57367400D01*
X139815418Y-57366226D01*
X139791757Y-57362716D01*
X139768553Y-57356904D01*
X139746031Y-57348846D01*
X139724407Y-57338618D01*
X139703890Y-57326321D01*
X139684677Y-57312071D01*
X139666953Y-57296007D01*
X139650889Y-57278283D01*
X139636639Y-57259070D01*
X139624342Y-57238553D01*
X139614114Y-57216929D01*
X139606056Y-57194407D01*
X139600244Y-57171203D01*
X139596734Y-57147542D01*
X139595560Y-57123650D01*
X139595560Y-56211150D01*
X139596734Y-56187258D01*
X139600244Y-56163597D01*
X139606056Y-56140393D01*
X139614114Y-56117871D01*
X139624342Y-56096247D01*
X139636639Y-56075730D01*
X139650889Y-56056517D01*
X139666953Y-56038793D01*
X139684677Y-56022729D01*
X139703890Y-56008479D01*
X139724407Y-55996182D01*
X139746031Y-55985954D01*
X139768553Y-55977896D01*
X139791757Y-55972084D01*
X139815418Y-55968574D01*
X139839310Y-55967400D01*
X140326810Y-55967400D01*
X140350702Y-55968574D01*
X140350702Y-55968574D01*
G37*
D11*
X140083060Y-56667400D03*
D10*
G36*
X142225702Y-55968574D02*
G01*
X142249363Y-55972084D01*
X142272567Y-55977896D01*
X142295089Y-55985954D01*
X142316713Y-55996182D01*
X142337230Y-56008479D01*
X142356443Y-56022729D01*
X142374167Y-56038793D01*
X142390231Y-56056517D01*
X142404481Y-56075730D01*
X142416778Y-56096247D01*
X142427006Y-56117871D01*
X142435064Y-56140393D01*
X142440876Y-56163597D01*
X142444386Y-56187258D01*
X142445560Y-56211150D01*
X142445560Y-57123650D01*
X142444386Y-57147542D01*
X142440876Y-57171203D01*
X142435064Y-57194407D01*
X142427006Y-57216929D01*
X142416778Y-57238553D01*
X142404481Y-57259070D01*
X142390231Y-57278283D01*
X142374167Y-57296007D01*
X142356443Y-57312071D01*
X142337230Y-57326321D01*
X142316713Y-57338618D01*
X142295089Y-57348846D01*
X142272567Y-57356904D01*
X142249363Y-57362716D01*
X142225702Y-57366226D01*
X142201810Y-57367400D01*
X141714310Y-57367400D01*
X141690418Y-57366226D01*
X141666757Y-57362716D01*
X141643553Y-57356904D01*
X141621031Y-57348846D01*
X141599407Y-57338618D01*
X141578890Y-57326321D01*
X141559677Y-57312071D01*
X141541953Y-57296007D01*
X141525889Y-57278283D01*
X141511639Y-57259070D01*
X141499342Y-57238553D01*
X141489114Y-57216929D01*
X141481056Y-57194407D01*
X141475244Y-57171203D01*
X141471734Y-57147542D01*
X141470560Y-57123650D01*
X141470560Y-56211150D01*
X141471734Y-56187258D01*
X141475244Y-56163597D01*
X141481056Y-56140393D01*
X141489114Y-56117871D01*
X141499342Y-56096247D01*
X141511639Y-56075730D01*
X141525889Y-56056517D01*
X141541953Y-56038793D01*
X141559677Y-56022729D01*
X141578890Y-56008479D01*
X141599407Y-55996182D01*
X141621031Y-55985954D01*
X141643553Y-55977896D01*
X141666757Y-55972084D01*
X141690418Y-55968574D01*
X141714310Y-55967400D01*
X142201810Y-55967400D01*
X142225702Y-55968574D01*
X142225702Y-55968574D01*
G37*
D11*
X141958060Y-56667400D03*
D10*
G36*
X140350702Y-53860374D02*
G01*
X140374363Y-53863884D01*
X140397567Y-53869696D01*
X140420089Y-53877754D01*
X140441713Y-53887982D01*
X140462230Y-53900279D01*
X140481443Y-53914529D01*
X140499167Y-53930593D01*
X140515231Y-53948317D01*
X140529481Y-53967530D01*
X140541778Y-53988047D01*
X140552006Y-54009671D01*
X140560064Y-54032193D01*
X140565876Y-54055397D01*
X140569386Y-54079058D01*
X140570560Y-54102950D01*
X140570560Y-55015450D01*
X140569386Y-55039342D01*
X140565876Y-55063003D01*
X140560064Y-55086207D01*
X140552006Y-55108729D01*
X140541778Y-55130353D01*
X140529481Y-55150870D01*
X140515231Y-55170083D01*
X140499167Y-55187807D01*
X140481443Y-55203871D01*
X140462230Y-55218121D01*
X140441713Y-55230418D01*
X140420089Y-55240646D01*
X140397567Y-55248704D01*
X140374363Y-55254516D01*
X140350702Y-55258026D01*
X140326810Y-55259200D01*
X139839310Y-55259200D01*
X139815418Y-55258026D01*
X139791757Y-55254516D01*
X139768553Y-55248704D01*
X139746031Y-55240646D01*
X139724407Y-55230418D01*
X139703890Y-55218121D01*
X139684677Y-55203871D01*
X139666953Y-55187807D01*
X139650889Y-55170083D01*
X139636639Y-55150870D01*
X139624342Y-55130353D01*
X139614114Y-55108729D01*
X139606056Y-55086207D01*
X139600244Y-55063003D01*
X139596734Y-55039342D01*
X139595560Y-55015450D01*
X139595560Y-54102950D01*
X139596734Y-54079058D01*
X139600244Y-54055397D01*
X139606056Y-54032193D01*
X139614114Y-54009671D01*
X139624342Y-53988047D01*
X139636639Y-53967530D01*
X139650889Y-53948317D01*
X139666953Y-53930593D01*
X139684677Y-53914529D01*
X139703890Y-53900279D01*
X139724407Y-53887982D01*
X139746031Y-53877754D01*
X139768553Y-53869696D01*
X139791757Y-53863884D01*
X139815418Y-53860374D01*
X139839310Y-53859200D01*
X140326810Y-53859200D01*
X140350702Y-53860374D01*
X140350702Y-53860374D01*
G37*
D11*
X140083060Y-54559200D03*
D10*
G36*
X142225702Y-53860374D02*
G01*
X142249363Y-53863884D01*
X142272567Y-53869696D01*
X142295089Y-53877754D01*
X142316713Y-53887982D01*
X142337230Y-53900279D01*
X142356443Y-53914529D01*
X142374167Y-53930593D01*
X142390231Y-53948317D01*
X142404481Y-53967530D01*
X142416778Y-53988047D01*
X142427006Y-54009671D01*
X142435064Y-54032193D01*
X142440876Y-54055397D01*
X142444386Y-54079058D01*
X142445560Y-54102950D01*
X142445560Y-55015450D01*
X142444386Y-55039342D01*
X142440876Y-55063003D01*
X142435064Y-55086207D01*
X142427006Y-55108729D01*
X142416778Y-55130353D01*
X142404481Y-55150870D01*
X142390231Y-55170083D01*
X142374167Y-55187807D01*
X142356443Y-55203871D01*
X142337230Y-55218121D01*
X142316713Y-55230418D01*
X142295089Y-55240646D01*
X142272567Y-55248704D01*
X142249363Y-55254516D01*
X142225702Y-55258026D01*
X142201810Y-55259200D01*
X141714310Y-55259200D01*
X141690418Y-55258026D01*
X141666757Y-55254516D01*
X141643553Y-55248704D01*
X141621031Y-55240646D01*
X141599407Y-55230418D01*
X141578890Y-55218121D01*
X141559677Y-55203871D01*
X141541953Y-55187807D01*
X141525889Y-55170083D01*
X141511639Y-55150870D01*
X141499342Y-55130353D01*
X141489114Y-55108729D01*
X141481056Y-55086207D01*
X141475244Y-55063003D01*
X141471734Y-55039342D01*
X141470560Y-55015450D01*
X141470560Y-54102950D01*
X141471734Y-54079058D01*
X141475244Y-54055397D01*
X141481056Y-54032193D01*
X141489114Y-54009671D01*
X141499342Y-53988047D01*
X141511639Y-53967530D01*
X141525889Y-53948317D01*
X141541953Y-53930593D01*
X141559677Y-53914529D01*
X141578890Y-53900279D01*
X141599407Y-53887982D01*
X141621031Y-53877754D01*
X141643553Y-53869696D01*
X141666757Y-53863884D01*
X141690418Y-53860374D01*
X141714310Y-53859200D01*
X142201810Y-53859200D01*
X142225702Y-53860374D01*
X142225702Y-53860374D01*
G37*
D11*
X141958060Y-54559200D03*
D10*
G36*
X140350702Y-51752174D02*
G01*
X140374363Y-51755684D01*
X140397567Y-51761496D01*
X140420089Y-51769554D01*
X140441713Y-51779782D01*
X140462230Y-51792079D01*
X140481443Y-51806329D01*
X140499167Y-51822393D01*
X140515231Y-51840117D01*
X140529481Y-51859330D01*
X140541778Y-51879847D01*
X140552006Y-51901471D01*
X140560064Y-51923993D01*
X140565876Y-51947197D01*
X140569386Y-51970858D01*
X140570560Y-51994750D01*
X140570560Y-52907250D01*
X140569386Y-52931142D01*
X140565876Y-52954803D01*
X140560064Y-52978007D01*
X140552006Y-53000529D01*
X140541778Y-53022153D01*
X140529481Y-53042670D01*
X140515231Y-53061883D01*
X140499167Y-53079607D01*
X140481443Y-53095671D01*
X140462230Y-53109921D01*
X140441713Y-53122218D01*
X140420089Y-53132446D01*
X140397567Y-53140504D01*
X140374363Y-53146316D01*
X140350702Y-53149826D01*
X140326810Y-53151000D01*
X139839310Y-53151000D01*
X139815418Y-53149826D01*
X139791757Y-53146316D01*
X139768553Y-53140504D01*
X139746031Y-53132446D01*
X139724407Y-53122218D01*
X139703890Y-53109921D01*
X139684677Y-53095671D01*
X139666953Y-53079607D01*
X139650889Y-53061883D01*
X139636639Y-53042670D01*
X139624342Y-53022153D01*
X139614114Y-53000529D01*
X139606056Y-52978007D01*
X139600244Y-52954803D01*
X139596734Y-52931142D01*
X139595560Y-52907250D01*
X139595560Y-51994750D01*
X139596734Y-51970858D01*
X139600244Y-51947197D01*
X139606056Y-51923993D01*
X139614114Y-51901471D01*
X139624342Y-51879847D01*
X139636639Y-51859330D01*
X139650889Y-51840117D01*
X139666953Y-51822393D01*
X139684677Y-51806329D01*
X139703890Y-51792079D01*
X139724407Y-51779782D01*
X139746031Y-51769554D01*
X139768553Y-51761496D01*
X139791757Y-51755684D01*
X139815418Y-51752174D01*
X139839310Y-51751000D01*
X140326810Y-51751000D01*
X140350702Y-51752174D01*
X140350702Y-51752174D01*
G37*
D11*
X140083060Y-52451000D03*
D10*
G36*
X142225702Y-51752174D02*
G01*
X142249363Y-51755684D01*
X142272567Y-51761496D01*
X142295089Y-51769554D01*
X142316713Y-51779782D01*
X142337230Y-51792079D01*
X142356443Y-51806329D01*
X142374167Y-51822393D01*
X142390231Y-51840117D01*
X142404481Y-51859330D01*
X142416778Y-51879847D01*
X142427006Y-51901471D01*
X142435064Y-51923993D01*
X142440876Y-51947197D01*
X142444386Y-51970858D01*
X142445560Y-51994750D01*
X142445560Y-52907250D01*
X142444386Y-52931142D01*
X142440876Y-52954803D01*
X142435064Y-52978007D01*
X142427006Y-53000529D01*
X142416778Y-53022153D01*
X142404481Y-53042670D01*
X142390231Y-53061883D01*
X142374167Y-53079607D01*
X142356443Y-53095671D01*
X142337230Y-53109921D01*
X142316713Y-53122218D01*
X142295089Y-53132446D01*
X142272567Y-53140504D01*
X142249363Y-53146316D01*
X142225702Y-53149826D01*
X142201810Y-53151000D01*
X141714310Y-53151000D01*
X141690418Y-53149826D01*
X141666757Y-53146316D01*
X141643553Y-53140504D01*
X141621031Y-53132446D01*
X141599407Y-53122218D01*
X141578890Y-53109921D01*
X141559677Y-53095671D01*
X141541953Y-53079607D01*
X141525889Y-53061883D01*
X141511639Y-53042670D01*
X141499342Y-53022153D01*
X141489114Y-53000529D01*
X141481056Y-52978007D01*
X141475244Y-52954803D01*
X141471734Y-52931142D01*
X141470560Y-52907250D01*
X141470560Y-51994750D01*
X141471734Y-51970858D01*
X141475244Y-51947197D01*
X141481056Y-51923993D01*
X141489114Y-51901471D01*
X141499342Y-51879847D01*
X141511639Y-51859330D01*
X141525889Y-51840117D01*
X141541953Y-51822393D01*
X141559677Y-51806329D01*
X141578890Y-51792079D01*
X141599407Y-51779782D01*
X141621031Y-51769554D01*
X141643553Y-51761496D01*
X141666757Y-51755684D01*
X141690418Y-51752174D01*
X141714310Y-51751000D01*
X142201810Y-51751000D01*
X142225702Y-51752174D01*
X142225702Y-51752174D01*
G37*
D11*
X141958060Y-52451000D03*
D10*
G36*
X140350702Y-49643974D02*
G01*
X140374363Y-49647484D01*
X140397567Y-49653296D01*
X140420089Y-49661354D01*
X140441713Y-49671582D01*
X140462230Y-49683879D01*
X140481443Y-49698129D01*
X140499167Y-49714193D01*
X140515231Y-49731917D01*
X140529481Y-49751130D01*
X140541778Y-49771647D01*
X140552006Y-49793271D01*
X140560064Y-49815793D01*
X140565876Y-49838997D01*
X140569386Y-49862658D01*
X140570560Y-49886550D01*
X140570560Y-50799050D01*
X140569386Y-50822942D01*
X140565876Y-50846603D01*
X140560064Y-50869807D01*
X140552006Y-50892329D01*
X140541778Y-50913953D01*
X140529481Y-50934470D01*
X140515231Y-50953683D01*
X140499167Y-50971407D01*
X140481443Y-50987471D01*
X140462230Y-51001721D01*
X140441713Y-51014018D01*
X140420089Y-51024246D01*
X140397567Y-51032304D01*
X140374363Y-51038116D01*
X140350702Y-51041626D01*
X140326810Y-51042800D01*
X139839310Y-51042800D01*
X139815418Y-51041626D01*
X139791757Y-51038116D01*
X139768553Y-51032304D01*
X139746031Y-51024246D01*
X139724407Y-51014018D01*
X139703890Y-51001721D01*
X139684677Y-50987471D01*
X139666953Y-50971407D01*
X139650889Y-50953683D01*
X139636639Y-50934470D01*
X139624342Y-50913953D01*
X139614114Y-50892329D01*
X139606056Y-50869807D01*
X139600244Y-50846603D01*
X139596734Y-50822942D01*
X139595560Y-50799050D01*
X139595560Y-49886550D01*
X139596734Y-49862658D01*
X139600244Y-49838997D01*
X139606056Y-49815793D01*
X139614114Y-49793271D01*
X139624342Y-49771647D01*
X139636639Y-49751130D01*
X139650889Y-49731917D01*
X139666953Y-49714193D01*
X139684677Y-49698129D01*
X139703890Y-49683879D01*
X139724407Y-49671582D01*
X139746031Y-49661354D01*
X139768553Y-49653296D01*
X139791757Y-49647484D01*
X139815418Y-49643974D01*
X139839310Y-49642800D01*
X140326810Y-49642800D01*
X140350702Y-49643974D01*
X140350702Y-49643974D01*
G37*
D11*
X140083060Y-50342800D03*
D10*
G36*
X142225702Y-49643974D02*
G01*
X142249363Y-49647484D01*
X142272567Y-49653296D01*
X142295089Y-49661354D01*
X142316713Y-49671582D01*
X142337230Y-49683879D01*
X142356443Y-49698129D01*
X142374167Y-49714193D01*
X142390231Y-49731917D01*
X142404481Y-49751130D01*
X142416778Y-49771647D01*
X142427006Y-49793271D01*
X142435064Y-49815793D01*
X142440876Y-49838997D01*
X142444386Y-49862658D01*
X142445560Y-49886550D01*
X142445560Y-50799050D01*
X142444386Y-50822942D01*
X142440876Y-50846603D01*
X142435064Y-50869807D01*
X142427006Y-50892329D01*
X142416778Y-50913953D01*
X142404481Y-50934470D01*
X142390231Y-50953683D01*
X142374167Y-50971407D01*
X142356443Y-50987471D01*
X142337230Y-51001721D01*
X142316713Y-51014018D01*
X142295089Y-51024246D01*
X142272567Y-51032304D01*
X142249363Y-51038116D01*
X142225702Y-51041626D01*
X142201810Y-51042800D01*
X141714310Y-51042800D01*
X141690418Y-51041626D01*
X141666757Y-51038116D01*
X141643553Y-51032304D01*
X141621031Y-51024246D01*
X141599407Y-51014018D01*
X141578890Y-51001721D01*
X141559677Y-50987471D01*
X141541953Y-50971407D01*
X141525889Y-50953683D01*
X141511639Y-50934470D01*
X141499342Y-50913953D01*
X141489114Y-50892329D01*
X141481056Y-50869807D01*
X141475244Y-50846603D01*
X141471734Y-50822942D01*
X141470560Y-50799050D01*
X141470560Y-49886550D01*
X141471734Y-49862658D01*
X141475244Y-49838997D01*
X141481056Y-49815793D01*
X141489114Y-49793271D01*
X141499342Y-49771647D01*
X141511639Y-49751130D01*
X141525889Y-49731917D01*
X141541953Y-49714193D01*
X141559677Y-49698129D01*
X141578890Y-49683879D01*
X141599407Y-49671582D01*
X141621031Y-49661354D01*
X141643553Y-49653296D01*
X141666757Y-49647484D01*
X141690418Y-49643974D01*
X141714310Y-49642800D01*
X142201810Y-49642800D01*
X142225702Y-49643974D01*
X142225702Y-49643974D01*
G37*
D11*
X141958060Y-50342800D03*
D10*
G36*
X143807882Y-64401374D02*
G01*
X143831543Y-64404884D01*
X143854747Y-64410696D01*
X143877269Y-64418754D01*
X143898893Y-64428982D01*
X143919410Y-64441279D01*
X143938623Y-64455529D01*
X143956347Y-64471593D01*
X143972411Y-64489317D01*
X143986661Y-64508530D01*
X143998958Y-64529047D01*
X144009186Y-64550671D01*
X144017244Y-64573193D01*
X144023056Y-64596397D01*
X144026566Y-64620058D01*
X144027740Y-64643950D01*
X144027740Y-65556450D01*
X144026566Y-65580342D01*
X144023056Y-65604003D01*
X144017244Y-65627207D01*
X144009186Y-65649729D01*
X143998958Y-65671353D01*
X143986661Y-65691870D01*
X143972411Y-65711083D01*
X143956347Y-65728807D01*
X143938623Y-65744871D01*
X143919410Y-65759121D01*
X143898893Y-65771418D01*
X143877269Y-65781646D01*
X143854747Y-65789704D01*
X143831543Y-65795516D01*
X143807882Y-65799026D01*
X143783990Y-65800200D01*
X143296490Y-65800200D01*
X143272598Y-65799026D01*
X143248937Y-65795516D01*
X143225733Y-65789704D01*
X143203211Y-65781646D01*
X143181587Y-65771418D01*
X143161070Y-65759121D01*
X143141857Y-65744871D01*
X143124133Y-65728807D01*
X143108069Y-65711083D01*
X143093819Y-65691870D01*
X143081522Y-65671353D01*
X143071294Y-65649729D01*
X143063236Y-65627207D01*
X143057424Y-65604003D01*
X143053914Y-65580342D01*
X143052740Y-65556450D01*
X143052740Y-64643950D01*
X143053914Y-64620058D01*
X143057424Y-64596397D01*
X143063236Y-64573193D01*
X143071294Y-64550671D01*
X143081522Y-64529047D01*
X143093819Y-64508530D01*
X143108069Y-64489317D01*
X143124133Y-64471593D01*
X143141857Y-64455529D01*
X143161070Y-64441279D01*
X143181587Y-64428982D01*
X143203211Y-64418754D01*
X143225733Y-64410696D01*
X143248937Y-64404884D01*
X143272598Y-64401374D01*
X143296490Y-64400200D01*
X143783990Y-64400200D01*
X143807882Y-64401374D01*
X143807882Y-64401374D01*
G37*
D11*
X143540240Y-65100200D03*
D10*
G36*
X145682882Y-64401374D02*
G01*
X145706543Y-64404884D01*
X145729747Y-64410696D01*
X145752269Y-64418754D01*
X145773893Y-64428982D01*
X145794410Y-64441279D01*
X145813623Y-64455529D01*
X145831347Y-64471593D01*
X145847411Y-64489317D01*
X145861661Y-64508530D01*
X145873958Y-64529047D01*
X145884186Y-64550671D01*
X145892244Y-64573193D01*
X145898056Y-64596397D01*
X145901566Y-64620058D01*
X145902740Y-64643950D01*
X145902740Y-65556450D01*
X145901566Y-65580342D01*
X145898056Y-65604003D01*
X145892244Y-65627207D01*
X145884186Y-65649729D01*
X145873958Y-65671353D01*
X145861661Y-65691870D01*
X145847411Y-65711083D01*
X145831347Y-65728807D01*
X145813623Y-65744871D01*
X145794410Y-65759121D01*
X145773893Y-65771418D01*
X145752269Y-65781646D01*
X145729747Y-65789704D01*
X145706543Y-65795516D01*
X145682882Y-65799026D01*
X145658990Y-65800200D01*
X145171490Y-65800200D01*
X145147598Y-65799026D01*
X145123937Y-65795516D01*
X145100733Y-65789704D01*
X145078211Y-65781646D01*
X145056587Y-65771418D01*
X145036070Y-65759121D01*
X145016857Y-65744871D01*
X144999133Y-65728807D01*
X144983069Y-65711083D01*
X144968819Y-65691870D01*
X144956522Y-65671353D01*
X144946294Y-65649729D01*
X144938236Y-65627207D01*
X144932424Y-65604003D01*
X144928914Y-65580342D01*
X144927740Y-65556450D01*
X144927740Y-64643950D01*
X144928914Y-64620058D01*
X144932424Y-64596397D01*
X144938236Y-64573193D01*
X144946294Y-64550671D01*
X144956522Y-64529047D01*
X144968819Y-64508530D01*
X144983069Y-64489317D01*
X144999133Y-64471593D01*
X145016857Y-64455529D01*
X145036070Y-64441279D01*
X145056587Y-64428982D01*
X145078211Y-64418754D01*
X145100733Y-64410696D01*
X145123937Y-64404884D01*
X145147598Y-64401374D01*
X145171490Y-64400200D01*
X145658990Y-64400200D01*
X145682882Y-64401374D01*
X145682882Y-64401374D01*
G37*
D11*
X145415240Y-65100200D03*
D10*
G36*
X143807882Y-62293174D02*
G01*
X143831543Y-62296684D01*
X143854747Y-62302496D01*
X143877269Y-62310554D01*
X143898893Y-62320782D01*
X143919410Y-62333079D01*
X143938623Y-62347329D01*
X143956347Y-62363393D01*
X143972411Y-62381117D01*
X143986661Y-62400330D01*
X143998958Y-62420847D01*
X144009186Y-62442471D01*
X144017244Y-62464993D01*
X144023056Y-62488197D01*
X144026566Y-62511858D01*
X144027740Y-62535750D01*
X144027740Y-63448250D01*
X144026566Y-63472142D01*
X144023056Y-63495803D01*
X144017244Y-63519007D01*
X144009186Y-63541529D01*
X143998958Y-63563153D01*
X143986661Y-63583670D01*
X143972411Y-63602883D01*
X143956347Y-63620607D01*
X143938623Y-63636671D01*
X143919410Y-63650921D01*
X143898893Y-63663218D01*
X143877269Y-63673446D01*
X143854747Y-63681504D01*
X143831543Y-63687316D01*
X143807882Y-63690826D01*
X143783990Y-63692000D01*
X143296490Y-63692000D01*
X143272598Y-63690826D01*
X143248937Y-63687316D01*
X143225733Y-63681504D01*
X143203211Y-63673446D01*
X143181587Y-63663218D01*
X143161070Y-63650921D01*
X143141857Y-63636671D01*
X143124133Y-63620607D01*
X143108069Y-63602883D01*
X143093819Y-63583670D01*
X143081522Y-63563153D01*
X143071294Y-63541529D01*
X143063236Y-63519007D01*
X143057424Y-63495803D01*
X143053914Y-63472142D01*
X143052740Y-63448250D01*
X143052740Y-62535750D01*
X143053914Y-62511858D01*
X143057424Y-62488197D01*
X143063236Y-62464993D01*
X143071294Y-62442471D01*
X143081522Y-62420847D01*
X143093819Y-62400330D01*
X143108069Y-62381117D01*
X143124133Y-62363393D01*
X143141857Y-62347329D01*
X143161070Y-62333079D01*
X143181587Y-62320782D01*
X143203211Y-62310554D01*
X143225733Y-62302496D01*
X143248937Y-62296684D01*
X143272598Y-62293174D01*
X143296490Y-62292000D01*
X143783990Y-62292000D01*
X143807882Y-62293174D01*
X143807882Y-62293174D01*
G37*
D11*
X143540240Y-62992000D03*
D10*
G36*
X145682882Y-62293174D02*
G01*
X145706543Y-62296684D01*
X145729747Y-62302496D01*
X145752269Y-62310554D01*
X145773893Y-62320782D01*
X145794410Y-62333079D01*
X145813623Y-62347329D01*
X145831347Y-62363393D01*
X145847411Y-62381117D01*
X145861661Y-62400330D01*
X145873958Y-62420847D01*
X145884186Y-62442471D01*
X145892244Y-62464993D01*
X145898056Y-62488197D01*
X145901566Y-62511858D01*
X145902740Y-62535750D01*
X145902740Y-63448250D01*
X145901566Y-63472142D01*
X145898056Y-63495803D01*
X145892244Y-63519007D01*
X145884186Y-63541529D01*
X145873958Y-63563153D01*
X145861661Y-63583670D01*
X145847411Y-63602883D01*
X145831347Y-63620607D01*
X145813623Y-63636671D01*
X145794410Y-63650921D01*
X145773893Y-63663218D01*
X145752269Y-63673446D01*
X145729747Y-63681504D01*
X145706543Y-63687316D01*
X145682882Y-63690826D01*
X145658990Y-63692000D01*
X145171490Y-63692000D01*
X145147598Y-63690826D01*
X145123937Y-63687316D01*
X145100733Y-63681504D01*
X145078211Y-63673446D01*
X145056587Y-63663218D01*
X145036070Y-63650921D01*
X145016857Y-63636671D01*
X144999133Y-63620607D01*
X144983069Y-63602883D01*
X144968819Y-63583670D01*
X144956522Y-63563153D01*
X144946294Y-63541529D01*
X144938236Y-63519007D01*
X144932424Y-63495803D01*
X144928914Y-63472142D01*
X144927740Y-63448250D01*
X144927740Y-62535750D01*
X144928914Y-62511858D01*
X144932424Y-62488197D01*
X144938236Y-62464993D01*
X144946294Y-62442471D01*
X144956522Y-62420847D01*
X144968819Y-62400330D01*
X144983069Y-62381117D01*
X144999133Y-62363393D01*
X145016857Y-62347329D01*
X145036070Y-62333079D01*
X145056587Y-62320782D01*
X145078211Y-62310554D01*
X145100733Y-62302496D01*
X145123937Y-62296684D01*
X145147598Y-62293174D01*
X145171490Y-62292000D01*
X145658990Y-62292000D01*
X145682882Y-62293174D01*
X145682882Y-62293174D01*
G37*
D11*
X145415240Y-62992000D03*
D10*
G36*
X143807882Y-60184974D02*
G01*
X143831543Y-60188484D01*
X143854747Y-60194296D01*
X143877269Y-60202354D01*
X143898893Y-60212582D01*
X143919410Y-60224879D01*
X143938623Y-60239129D01*
X143956347Y-60255193D01*
X143972411Y-60272917D01*
X143986661Y-60292130D01*
X143998958Y-60312647D01*
X144009186Y-60334271D01*
X144017244Y-60356793D01*
X144023056Y-60379997D01*
X144026566Y-60403658D01*
X144027740Y-60427550D01*
X144027740Y-61340050D01*
X144026566Y-61363942D01*
X144023056Y-61387603D01*
X144017244Y-61410807D01*
X144009186Y-61433329D01*
X143998958Y-61454953D01*
X143986661Y-61475470D01*
X143972411Y-61494683D01*
X143956347Y-61512407D01*
X143938623Y-61528471D01*
X143919410Y-61542721D01*
X143898893Y-61555018D01*
X143877269Y-61565246D01*
X143854747Y-61573304D01*
X143831543Y-61579116D01*
X143807882Y-61582626D01*
X143783990Y-61583800D01*
X143296490Y-61583800D01*
X143272598Y-61582626D01*
X143248937Y-61579116D01*
X143225733Y-61573304D01*
X143203211Y-61565246D01*
X143181587Y-61555018D01*
X143161070Y-61542721D01*
X143141857Y-61528471D01*
X143124133Y-61512407D01*
X143108069Y-61494683D01*
X143093819Y-61475470D01*
X143081522Y-61454953D01*
X143071294Y-61433329D01*
X143063236Y-61410807D01*
X143057424Y-61387603D01*
X143053914Y-61363942D01*
X143052740Y-61340050D01*
X143052740Y-60427550D01*
X143053914Y-60403658D01*
X143057424Y-60379997D01*
X143063236Y-60356793D01*
X143071294Y-60334271D01*
X143081522Y-60312647D01*
X143093819Y-60292130D01*
X143108069Y-60272917D01*
X143124133Y-60255193D01*
X143141857Y-60239129D01*
X143161070Y-60224879D01*
X143181587Y-60212582D01*
X143203211Y-60202354D01*
X143225733Y-60194296D01*
X143248937Y-60188484D01*
X143272598Y-60184974D01*
X143296490Y-60183800D01*
X143783990Y-60183800D01*
X143807882Y-60184974D01*
X143807882Y-60184974D01*
G37*
D11*
X143540240Y-60883800D03*
D10*
G36*
X145682882Y-60184974D02*
G01*
X145706543Y-60188484D01*
X145729747Y-60194296D01*
X145752269Y-60202354D01*
X145773893Y-60212582D01*
X145794410Y-60224879D01*
X145813623Y-60239129D01*
X145831347Y-60255193D01*
X145847411Y-60272917D01*
X145861661Y-60292130D01*
X145873958Y-60312647D01*
X145884186Y-60334271D01*
X145892244Y-60356793D01*
X145898056Y-60379997D01*
X145901566Y-60403658D01*
X145902740Y-60427550D01*
X145902740Y-61340050D01*
X145901566Y-61363942D01*
X145898056Y-61387603D01*
X145892244Y-61410807D01*
X145884186Y-61433329D01*
X145873958Y-61454953D01*
X145861661Y-61475470D01*
X145847411Y-61494683D01*
X145831347Y-61512407D01*
X145813623Y-61528471D01*
X145794410Y-61542721D01*
X145773893Y-61555018D01*
X145752269Y-61565246D01*
X145729747Y-61573304D01*
X145706543Y-61579116D01*
X145682882Y-61582626D01*
X145658990Y-61583800D01*
X145171490Y-61583800D01*
X145147598Y-61582626D01*
X145123937Y-61579116D01*
X145100733Y-61573304D01*
X145078211Y-61565246D01*
X145056587Y-61555018D01*
X145036070Y-61542721D01*
X145016857Y-61528471D01*
X144999133Y-61512407D01*
X144983069Y-61494683D01*
X144968819Y-61475470D01*
X144956522Y-61454953D01*
X144946294Y-61433329D01*
X144938236Y-61410807D01*
X144932424Y-61387603D01*
X144928914Y-61363942D01*
X144927740Y-61340050D01*
X144927740Y-60427550D01*
X144928914Y-60403658D01*
X144932424Y-60379997D01*
X144938236Y-60356793D01*
X144946294Y-60334271D01*
X144956522Y-60312647D01*
X144968819Y-60292130D01*
X144983069Y-60272917D01*
X144999133Y-60255193D01*
X145016857Y-60239129D01*
X145036070Y-60224879D01*
X145056587Y-60212582D01*
X145078211Y-60202354D01*
X145100733Y-60194296D01*
X145123937Y-60188484D01*
X145147598Y-60184974D01*
X145171490Y-60183800D01*
X145658990Y-60183800D01*
X145682882Y-60184974D01*
X145682882Y-60184974D01*
G37*
D11*
X145415240Y-60883800D03*
D10*
G36*
X143807882Y-58076774D02*
G01*
X143831543Y-58080284D01*
X143854747Y-58086096D01*
X143877269Y-58094154D01*
X143898893Y-58104382D01*
X143919410Y-58116679D01*
X143938623Y-58130929D01*
X143956347Y-58146993D01*
X143972411Y-58164717D01*
X143986661Y-58183930D01*
X143998958Y-58204447D01*
X144009186Y-58226071D01*
X144017244Y-58248593D01*
X144023056Y-58271797D01*
X144026566Y-58295458D01*
X144027740Y-58319350D01*
X144027740Y-59231850D01*
X144026566Y-59255742D01*
X144023056Y-59279403D01*
X144017244Y-59302607D01*
X144009186Y-59325129D01*
X143998958Y-59346753D01*
X143986661Y-59367270D01*
X143972411Y-59386483D01*
X143956347Y-59404207D01*
X143938623Y-59420271D01*
X143919410Y-59434521D01*
X143898893Y-59446818D01*
X143877269Y-59457046D01*
X143854747Y-59465104D01*
X143831543Y-59470916D01*
X143807882Y-59474426D01*
X143783990Y-59475600D01*
X143296490Y-59475600D01*
X143272598Y-59474426D01*
X143248937Y-59470916D01*
X143225733Y-59465104D01*
X143203211Y-59457046D01*
X143181587Y-59446818D01*
X143161070Y-59434521D01*
X143141857Y-59420271D01*
X143124133Y-59404207D01*
X143108069Y-59386483D01*
X143093819Y-59367270D01*
X143081522Y-59346753D01*
X143071294Y-59325129D01*
X143063236Y-59302607D01*
X143057424Y-59279403D01*
X143053914Y-59255742D01*
X143052740Y-59231850D01*
X143052740Y-58319350D01*
X143053914Y-58295458D01*
X143057424Y-58271797D01*
X143063236Y-58248593D01*
X143071294Y-58226071D01*
X143081522Y-58204447D01*
X143093819Y-58183930D01*
X143108069Y-58164717D01*
X143124133Y-58146993D01*
X143141857Y-58130929D01*
X143161070Y-58116679D01*
X143181587Y-58104382D01*
X143203211Y-58094154D01*
X143225733Y-58086096D01*
X143248937Y-58080284D01*
X143272598Y-58076774D01*
X143296490Y-58075600D01*
X143783990Y-58075600D01*
X143807882Y-58076774D01*
X143807882Y-58076774D01*
G37*
D11*
X143540240Y-58775600D03*
D10*
G36*
X145682882Y-58076774D02*
G01*
X145706543Y-58080284D01*
X145729747Y-58086096D01*
X145752269Y-58094154D01*
X145773893Y-58104382D01*
X145794410Y-58116679D01*
X145813623Y-58130929D01*
X145831347Y-58146993D01*
X145847411Y-58164717D01*
X145861661Y-58183930D01*
X145873958Y-58204447D01*
X145884186Y-58226071D01*
X145892244Y-58248593D01*
X145898056Y-58271797D01*
X145901566Y-58295458D01*
X145902740Y-58319350D01*
X145902740Y-59231850D01*
X145901566Y-59255742D01*
X145898056Y-59279403D01*
X145892244Y-59302607D01*
X145884186Y-59325129D01*
X145873958Y-59346753D01*
X145861661Y-59367270D01*
X145847411Y-59386483D01*
X145831347Y-59404207D01*
X145813623Y-59420271D01*
X145794410Y-59434521D01*
X145773893Y-59446818D01*
X145752269Y-59457046D01*
X145729747Y-59465104D01*
X145706543Y-59470916D01*
X145682882Y-59474426D01*
X145658990Y-59475600D01*
X145171490Y-59475600D01*
X145147598Y-59474426D01*
X145123937Y-59470916D01*
X145100733Y-59465104D01*
X145078211Y-59457046D01*
X145056587Y-59446818D01*
X145036070Y-59434521D01*
X145016857Y-59420271D01*
X144999133Y-59404207D01*
X144983069Y-59386483D01*
X144968819Y-59367270D01*
X144956522Y-59346753D01*
X144946294Y-59325129D01*
X144938236Y-59302607D01*
X144932424Y-59279403D01*
X144928914Y-59255742D01*
X144927740Y-59231850D01*
X144927740Y-58319350D01*
X144928914Y-58295458D01*
X144932424Y-58271797D01*
X144938236Y-58248593D01*
X144946294Y-58226071D01*
X144956522Y-58204447D01*
X144968819Y-58183930D01*
X144983069Y-58164717D01*
X144999133Y-58146993D01*
X145016857Y-58130929D01*
X145036070Y-58116679D01*
X145056587Y-58104382D01*
X145078211Y-58094154D01*
X145100733Y-58086096D01*
X145123937Y-58080284D01*
X145147598Y-58076774D01*
X145171490Y-58075600D01*
X145658990Y-58075600D01*
X145682882Y-58076774D01*
X145682882Y-58076774D01*
G37*
D11*
X145415240Y-58775600D03*
D10*
G36*
X143807882Y-55968574D02*
G01*
X143831543Y-55972084D01*
X143854747Y-55977896D01*
X143877269Y-55985954D01*
X143898893Y-55996182D01*
X143919410Y-56008479D01*
X143938623Y-56022729D01*
X143956347Y-56038793D01*
X143972411Y-56056517D01*
X143986661Y-56075730D01*
X143998958Y-56096247D01*
X144009186Y-56117871D01*
X144017244Y-56140393D01*
X144023056Y-56163597D01*
X144026566Y-56187258D01*
X144027740Y-56211150D01*
X144027740Y-57123650D01*
X144026566Y-57147542D01*
X144023056Y-57171203D01*
X144017244Y-57194407D01*
X144009186Y-57216929D01*
X143998958Y-57238553D01*
X143986661Y-57259070D01*
X143972411Y-57278283D01*
X143956347Y-57296007D01*
X143938623Y-57312071D01*
X143919410Y-57326321D01*
X143898893Y-57338618D01*
X143877269Y-57348846D01*
X143854747Y-57356904D01*
X143831543Y-57362716D01*
X143807882Y-57366226D01*
X143783990Y-57367400D01*
X143296490Y-57367400D01*
X143272598Y-57366226D01*
X143248937Y-57362716D01*
X143225733Y-57356904D01*
X143203211Y-57348846D01*
X143181587Y-57338618D01*
X143161070Y-57326321D01*
X143141857Y-57312071D01*
X143124133Y-57296007D01*
X143108069Y-57278283D01*
X143093819Y-57259070D01*
X143081522Y-57238553D01*
X143071294Y-57216929D01*
X143063236Y-57194407D01*
X143057424Y-57171203D01*
X143053914Y-57147542D01*
X143052740Y-57123650D01*
X143052740Y-56211150D01*
X143053914Y-56187258D01*
X143057424Y-56163597D01*
X143063236Y-56140393D01*
X143071294Y-56117871D01*
X143081522Y-56096247D01*
X143093819Y-56075730D01*
X143108069Y-56056517D01*
X143124133Y-56038793D01*
X143141857Y-56022729D01*
X143161070Y-56008479D01*
X143181587Y-55996182D01*
X143203211Y-55985954D01*
X143225733Y-55977896D01*
X143248937Y-55972084D01*
X143272598Y-55968574D01*
X143296490Y-55967400D01*
X143783990Y-55967400D01*
X143807882Y-55968574D01*
X143807882Y-55968574D01*
G37*
D11*
X143540240Y-56667400D03*
D10*
G36*
X145682882Y-55968574D02*
G01*
X145706543Y-55972084D01*
X145729747Y-55977896D01*
X145752269Y-55985954D01*
X145773893Y-55996182D01*
X145794410Y-56008479D01*
X145813623Y-56022729D01*
X145831347Y-56038793D01*
X145847411Y-56056517D01*
X145861661Y-56075730D01*
X145873958Y-56096247D01*
X145884186Y-56117871D01*
X145892244Y-56140393D01*
X145898056Y-56163597D01*
X145901566Y-56187258D01*
X145902740Y-56211150D01*
X145902740Y-57123650D01*
X145901566Y-57147542D01*
X145898056Y-57171203D01*
X145892244Y-57194407D01*
X145884186Y-57216929D01*
X145873958Y-57238553D01*
X145861661Y-57259070D01*
X145847411Y-57278283D01*
X145831347Y-57296007D01*
X145813623Y-57312071D01*
X145794410Y-57326321D01*
X145773893Y-57338618D01*
X145752269Y-57348846D01*
X145729747Y-57356904D01*
X145706543Y-57362716D01*
X145682882Y-57366226D01*
X145658990Y-57367400D01*
X145171490Y-57367400D01*
X145147598Y-57366226D01*
X145123937Y-57362716D01*
X145100733Y-57356904D01*
X145078211Y-57348846D01*
X145056587Y-57338618D01*
X145036070Y-57326321D01*
X145016857Y-57312071D01*
X144999133Y-57296007D01*
X144983069Y-57278283D01*
X144968819Y-57259070D01*
X144956522Y-57238553D01*
X144946294Y-57216929D01*
X144938236Y-57194407D01*
X144932424Y-57171203D01*
X144928914Y-57147542D01*
X144927740Y-57123650D01*
X144927740Y-56211150D01*
X144928914Y-56187258D01*
X144932424Y-56163597D01*
X144938236Y-56140393D01*
X144946294Y-56117871D01*
X144956522Y-56096247D01*
X144968819Y-56075730D01*
X144983069Y-56056517D01*
X144999133Y-56038793D01*
X145016857Y-56022729D01*
X145036070Y-56008479D01*
X145056587Y-55996182D01*
X145078211Y-55985954D01*
X145100733Y-55977896D01*
X145123937Y-55972084D01*
X145147598Y-55968574D01*
X145171490Y-55967400D01*
X145658990Y-55967400D01*
X145682882Y-55968574D01*
X145682882Y-55968574D01*
G37*
D11*
X145415240Y-56667400D03*
D10*
G36*
X143807882Y-53860374D02*
G01*
X143831543Y-53863884D01*
X143854747Y-53869696D01*
X143877269Y-53877754D01*
X143898893Y-53887982D01*
X143919410Y-53900279D01*
X143938623Y-53914529D01*
X143956347Y-53930593D01*
X143972411Y-53948317D01*
X143986661Y-53967530D01*
X143998958Y-53988047D01*
X144009186Y-54009671D01*
X144017244Y-54032193D01*
X144023056Y-54055397D01*
X144026566Y-54079058D01*
X144027740Y-54102950D01*
X144027740Y-55015450D01*
X144026566Y-55039342D01*
X144023056Y-55063003D01*
X144017244Y-55086207D01*
X144009186Y-55108729D01*
X143998958Y-55130353D01*
X143986661Y-55150870D01*
X143972411Y-55170083D01*
X143956347Y-55187807D01*
X143938623Y-55203871D01*
X143919410Y-55218121D01*
X143898893Y-55230418D01*
X143877269Y-55240646D01*
X143854747Y-55248704D01*
X143831543Y-55254516D01*
X143807882Y-55258026D01*
X143783990Y-55259200D01*
X143296490Y-55259200D01*
X143272598Y-55258026D01*
X143248937Y-55254516D01*
X143225733Y-55248704D01*
X143203211Y-55240646D01*
X143181587Y-55230418D01*
X143161070Y-55218121D01*
X143141857Y-55203871D01*
X143124133Y-55187807D01*
X143108069Y-55170083D01*
X143093819Y-55150870D01*
X143081522Y-55130353D01*
X143071294Y-55108729D01*
X143063236Y-55086207D01*
X143057424Y-55063003D01*
X143053914Y-55039342D01*
X143052740Y-55015450D01*
X143052740Y-54102950D01*
X143053914Y-54079058D01*
X143057424Y-54055397D01*
X143063236Y-54032193D01*
X143071294Y-54009671D01*
X143081522Y-53988047D01*
X143093819Y-53967530D01*
X143108069Y-53948317D01*
X143124133Y-53930593D01*
X143141857Y-53914529D01*
X143161070Y-53900279D01*
X143181587Y-53887982D01*
X143203211Y-53877754D01*
X143225733Y-53869696D01*
X143248937Y-53863884D01*
X143272598Y-53860374D01*
X143296490Y-53859200D01*
X143783990Y-53859200D01*
X143807882Y-53860374D01*
X143807882Y-53860374D01*
G37*
D11*
X143540240Y-54559200D03*
D10*
G36*
X145682882Y-53860374D02*
G01*
X145706543Y-53863884D01*
X145729747Y-53869696D01*
X145752269Y-53877754D01*
X145773893Y-53887982D01*
X145794410Y-53900279D01*
X145813623Y-53914529D01*
X145831347Y-53930593D01*
X145847411Y-53948317D01*
X145861661Y-53967530D01*
X145873958Y-53988047D01*
X145884186Y-54009671D01*
X145892244Y-54032193D01*
X145898056Y-54055397D01*
X145901566Y-54079058D01*
X145902740Y-54102950D01*
X145902740Y-55015450D01*
X145901566Y-55039342D01*
X145898056Y-55063003D01*
X145892244Y-55086207D01*
X145884186Y-55108729D01*
X145873958Y-55130353D01*
X145861661Y-55150870D01*
X145847411Y-55170083D01*
X145831347Y-55187807D01*
X145813623Y-55203871D01*
X145794410Y-55218121D01*
X145773893Y-55230418D01*
X145752269Y-55240646D01*
X145729747Y-55248704D01*
X145706543Y-55254516D01*
X145682882Y-55258026D01*
X145658990Y-55259200D01*
X145171490Y-55259200D01*
X145147598Y-55258026D01*
X145123937Y-55254516D01*
X145100733Y-55248704D01*
X145078211Y-55240646D01*
X145056587Y-55230418D01*
X145036070Y-55218121D01*
X145016857Y-55203871D01*
X144999133Y-55187807D01*
X144983069Y-55170083D01*
X144968819Y-55150870D01*
X144956522Y-55130353D01*
X144946294Y-55108729D01*
X144938236Y-55086207D01*
X144932424Y-55063003D01*
X144928914Y-55039342D01*
X144927740Y-55015450D01*
X144927740Y-54102950D01*
X144928914Y-54079058D01*
X144932424Y-54055397D01*
X144938236Y-54032193D01*
X144946294Y-54009671D01*
X144956522Y-53988047D01*
X144968819Y-53967530D01*
X144983069Y-53948317D01*
X144999133Y-53930593D01*
X145016857Y-53914529D01*
X145036070Y-53900279D01*
X145056587Y-53887982D01*
X145078211Y-53877754D01*
X145100733Y-53869696D01*
X145123937Y-53863884D01*
X145147598Y-53860374D01*
X145171490Y-53859200D01*
X145658990Y-53859200D01*
X145682882Y-53860374D01*
X145682882Y-53860374D01*
G37*
D11*
X145415240Y-54559200D03*
D10*
G36*
X143807882Y-51752174D02*
G01*
X143831543Y-51755684D01*
X143854747Y-51761496D01*
X143877269Y-51769554D01*
X143898893Y-51779782D01*
X143919410Y-51792079D01*
X143938623Y-51806329D01*
X143956347Y-51822393D01*
X143972411Y-51840117D01*
X143986661Y-51859330D01*
X143998958Y-51879847D01*
X144009186Y-51901471D01*
X144017244Y-51923993D01*
X144023056Y-51947197D01*
X144026566Y-51970858D01*
X144027740Y-51994750D01*
X144027740Y-52907250D01*
X144026566Y-52931142D01*
X144023056Y-52954803D01*
X144017244Y-52978007D01*
X144009186Y-53000529D01*
X143998958Y-53022153D01*
X143986661Y-53042670D01*
X143972411Y-53061883D01*
X143956347Y-53079607D01*
X143938623Y-53095671D01*
X143919410Y-53109921D01*
X143898893Y-53122218D01*
X143877269Y-53132446D01*
X143854747Y-53140504D01*
X143831543Y-53146316D01*
X143807882Y-53149826D01*
X143783990Y-53151000D01*
X143296490Y-53151000D01*
X143272598Y-53149826D01*
X143248937Y-53146316D01*
X143225733Y-53140504D01*
X143203211Y-53132446D01*
X143181587Y-53122218D01*
X143161070Y-53109921D01*
X143141857Y-53095671D01*
X143124133Y-53079607D01*
X143108069Y-53061883D01*
X143093819Y-53042670D01*
X143081522Y-53022153D01*
X143071294Y-53000529D01*
X143063236Y-52978007D01*
X143057424Y-52954803D01*
X143053914Y-52931142D01*
X143052740Y-52907250D01*
X143052740Y-51994750D01*
X143053914Y-51970858D01*
X143057424Y-51947197D01*
X143063236Y-51923993D01*
X143071294Y-51901471D01*
X143081522Y-51879847D01*
X143093819Y-51859330D01*
X143108069Y-51840117D01*
X143124133Y-51822393D01*
X143141857Y-51806329D01*
X143161070Y-51792079D01*
X143181587Y-51779782D01*
X143203211Y-51769554D01*
X143225733Y-51761496D01*
X143248937Y-51755684D01*
X143272598Y-51752174D01*
X143296490Y-51751000D01*
X143783990Y-51751000D01*
X143807882Y-51752174D01*
X143807882Y-51752174D01*
G37*
D11*
X143540240Y-52451000D03*
D10*
G36*
X145682882Y-51752174D02*
G01*
X145706543Y-51755684D01*
X145729747Y-51761496D01*
X145752269Y-51769554D01*
X145773893Y-51779782D01*
X145794410Y-51792079D01*
X145813623Y-51806329D01*
X145831347Y-51822393D01*
X145847411Y-51840117D01*
X145861661Y-51859330D01*
X145873958Y-51879847D01*
X145884186Y-51901471D01*
X145892244Y-51923993D01*
X145898056Y-51947197D01*
X145901566Y-51970858D01*
X145902740Y-51994750D01*
X145902740Y-52907250D01*
X145901566Y-52931142D01*
X145898056Y-52954803D01*
X145892244Y-52978007D01*
X145884186Y-53000529D01*
X145873958Y-53022153D01*
X145861661Y-53042670D01*
X145847411Y-53061883D01*
X145831347Y-53079607D01*
X145813623Y-53095671D01*
X145794410Y-53109921D01*
X145773893Y-53122218D01*
X145752269Y-53132446D01*
X145729747Y-53140504D01*
X145706543Y-53146316D01*
X145682882Y-53149826D01*
X145658990Y-53151000D01*
X145171490Y-53151000D01*
X145147598Y-53149826D01*
X145123937Y-53146316D01*
X145100733Y-53140504D01*
X145078211Y-53132446D01*
X145056587Y-53122218D01*
X145036070Y-53109921D01*
X145016857Y-53095671D01*
X144999133Y-53079607D01*
X144983069Y-53061883D01*
X144968819Y-53042670D01*
X144956522Y-53022153D01*
X144946294Y-53000529D01*
X144938236Y-52978007D01*
X144932424Y-52954803D01*
X144928914Y-52931142D01*
X144927740Y-52907250D01*
X144927740Y-51994750D01*
X144928914Y-51970858D01*
X144932424Y-51947197D01*
X144938236Y-51923993D01*
X144946294Y-51901471D01*
X144956522Y-51879847D01*
X144968819Y-51859330D01*
X144983069Y-51840117D01*
X144999133Y-51822393D01*
X145016857Y-51806329D01*
X145036070Y-51792079D01*
X145056587Y-51779782D01*
X145078211Y-51769554D01*
X145100733Y-51761496D01*
X145123937Y-51755684D01*
X145147598Y-51752174D01*
X145171490Y-51751000D01*
X145658990Y-51751000D01*
X145682882Y-51752174D01*
X145682882Y-51752174D01*
G37*
D11*
X145415240Y-52451000D03*
D10*
G36*
X143807882Y-49643974D02*
G01*
X143831543Y-49647484D01*
X143854747Y-49653296D01*
X143877269Y-49661354D01*
X143898893Y-49671582D01*
X143919410Y-49683879D01*
X143938623Y-49698129D01*
X143956347Y-49714193D01*
X143972411Y-49731917D01*
X143986661Y-49751130D01*
X143998958Y-49771647D01*
X144009186Y-49793271D01*
X144017244Y-49815793D01*
X144023056Y-49838997D01*
X144026566Y-49862658D01*
X144027740Y-49886550D01*
X144027740Y-50799050D01*
X144026566Y-50822942D01*
X144023056Y-50846603D01*
X144017244Y-50869807D01*
X144009186Y-50892329D01*
X143998958Y-50913953D01*
X143986661Y-50934470D01*
X143972411Y-50953683D01*
X143956347Y-50971407D01*
X143938623Y-50987471D01*
X143919410Y-51001721D01*
X143898893Y-51014018D01*
X143877269Y-51024246D01*
X143854747Y-51032304D01*
X143831543Y-51038116D01*
X143807882Y-51041626D01*
X143783990Y-51042800D01*
X143296490Y-51042800D01*
X143272598Y-51041626D01*
X143248937Y-51038116D01*
X143225733Y-51032304D01*
X143203211Y-51024246D01*
X143181587Y-51014018D01*
X143161070Y-51001721D01*
X143141857Y-50987471D01*
X143124133Y-50971407D01*
X143108069Y-50953683D01*
X143093819Y-50934470D01*
X143081522Y-50913953D01*
X143071294Y-50892329D01*
X143063236Y-50869807D01*
X143057424Y-50846603D01*
X143053914Y-50822942D01*
X143052740Y-50799050D01*
X143052740Y-49886550D01*
X143053914Y-49862658D01*
X143057424Y-49838997D01*
X143063236Y-49815793D01*
X143071294Y-49793271D01*
X143081522Y-49771647D01*
X143093819Y-49751130D01*
X143108069Y-49731917D01*
X143124133Y-49714193D01*
X143141857Y-49698129D01*
X143161070Y-49683879D01*
X143181587Y-49671582D01*
X143203211Y-49661354D01*
X143225733Y-49653296D01*
X143248937Y-49647484D01*
X143272598Y-49643974D01*
X143296490Y-49642800D01*
X143783990Y-49642800D01*
X143807882Y-49643974D01*
X143807882Y-49643974D01*
G37*
D11*
X143540240Y-50342800D03*
D10*
G36*
X145682882Y-49643974D02*
G01*
X145706543Y-49647484D01*
X145729747Y-49653296D01*
X145752269Y-49661354D01*
X145773893Y-49671582D01*
X145794410Y-49683879D01*
X145813623Y-49698129D01*
X145831347Y-49714193D01*
X145847411Y-49731917D01*
X145861661Y-49751130D01*
X145873958Y-49771647D01*
X145884186Y-49793271D01*
X145892244Y-49815793D01*
X145898056Y-49838997D01*
X145901566Y-49862658D01*
X145902740Y-49886550D01*
X145902740Y-50799050D01*
X145901566Y-50822942D01*
X145898056Y-50846603D01*
X145892244Y-50869807D01*
X145884186Y-50892329D01*
X145873958Y-50913953D01*
X145861661Y-50934470D01*
X145847411Y-50953683D01*
X145831347Y-50971407D01*
X145813623Y-50987471D01*
X145794410Y-51001721D01*
X145773893Y-51014018D01*
X145752269Y-51024246D01*
X145729747Y-51032304D01*
X145706543Y-51038116D01*
X145682882Y-51041626D01*
X145658990Y-51042800D01*
X145171490Y-51042800D01*
X145147598Y-51041626D01*
X145123937Y-51038116D01*
X145100733Y-51032304D01*
X145078211Y-51024246D01*
X145056587Y-51014018D01*
X145036070Y-51001721D01*
X145016857Y-50987471D01*
X144999133Y-50971407D01*
X144983069Y-50953683D01*
X144968819Y-50934470D01*
X144956522Y-50913953D01*
X144946294Y-50892329D01*
X144938236Y-50869807D01*
X144932424Y-50846603D01*
X144928914Y-50822942D01*
X144927740Y-50799050D01*
X144927740Y-49886550D01*
X144928914Y-49862658D01*
X144932424Y-49838997D01*
X144938236Y-49815793D01*
X144946294Y-49793271D01*
X144956522Y-49771647D01*
X144968819Y-49751130D01*
X144983069Y-49731917D01*
X144999133Y-49714193D01*
X145016857Y-49698129D01*
X145036070Y-49683879D01*
X145056587Y-49671582D01*
X145078211Y-49661354D01*
X145100733Y-49653296D01*
X145123937Y-49647484D01*
X145147598Y-49643974D01*
X145171490Y-49642800D01*
X145658990Y-49642800D01*
X145682882Y-49643974D01*
X145682882Y-49643974D01*
G37*
D11*
X145415240Y-50342800D03*
D15*
X103126540Y-48920400D03*
X103126540Y-66700400D03*
D16*
X103743760Y-57736740D03*
X101874320Y-51668680D03*
X103743760Y-60783470D03*
X103743760Y-63830200D03*
X101874320Y-60808870D03*
X101874320Y-54715410D03*
X103743760Y-51643280D03*
X103743760Y-54690010D03*
X101874320Y-63855600D03*
X101874320Y-57762140D03*
X121564400Y-54330600D03*
X125285500Y-58077100D03*
X119786400Y-53098700D03*
X127533400Y-53136800D03*
X135737600Y-54356000D03*
X132549900Y-60718700D03*
X132664200Y-58191400D03*
X135763000Y-56921400D03*
X115798600Y-63042800D03*
X113068100Y-64871600D03*
X115798600Y-64871600D03*
X113068100Y-63042800D03*
X138391900Y-58051700D03*
X132702300Y-56934100D03*
X113314480Y-66669920D03*
X111531400Y-65201800D03*
X118170960Y-65100200D03*
X123662440Y-65100200D03*
X127863600Y-65084960D03*
X131587240Y-65100200D03*
X120660160Y-60472320D03*
X120746520Y-61904880D03*
X118221760Y-62865000D03*
X120751600Y-62844680D03*
X123149360Y-62870080D03*
X131912360Y-62103000D03*
X134167880Y-63042800D03*
X116418360Y-52959000D03*
X146878040Y-47355760D03*
X146476720Y-48844200D03*
X150454360Y-50434240D03*
X147299680Y-51800760D03*
X150368000Y-51800760D03*
X150368000Y-54847490D03*
X150368000Y-57894220D03*
X150368000Y-60940950D03*
X150368000Y-63987680D03*
X147299680Y-63987680D03*
X147299680Y-60940950D03*
X147299680Y-57894220D03*
X147299680Y-54847490D03*
X146517360Y-66664840D03*
X147020280Y-68229480D03*
X105592880Y-47330360D03*
X115326160Y-47330360D03*
X110896400Y-47330360D03*
X106197400Y-65989200D03*
X108950760Y-66202560D03*
X109194600Y-63459360D03*
X105496360Y-50490120D03*
X105867200Y-52872640D03*
X105867200Y-55418990D03*
X105867200Y-57965340D03*
X105867200Y-60511690D03*
X105867200Y-63058040D03*
X111460280Y-62763400D03*
X126301500Y-62852300D03*
X129260600Y-63004700D03*
X113715800Y-55359300D03*
X113944400Y-62204600D03*
X113944400Y-65557400D03*
X115036600Y-62191900D03*
X115036600Y-65557400D03*
X137299700Y-57988200D03*
X131076700Y-54381400D03*
D17*
X109584141Y-61777279D02*
X107048300Y-64313120D01*
X138391900Y-49212500D02*
X136350282Y-49212500D01*
X139954000Y-47650400D02*
X138391900Y-49212500D01*
X136350282Y-49212500D02*
X134375203Y-51187580D01*
X134375203Y-51187580D02*
X109965430Y-51187580D01*
X109965430Y-51187580D02*
X109584141Y-51568869D01*
X109584141Y-51568869D02*
X109584141Y-61777279D01*
X109231731Y-59589689D02*
X107048300Y-61773120D01*
X109231731Y-51422897D02*
X109231731Y-59589689D01*
X109819458Y-50835170D02*
X109231731Y-51422897D01*
X137414000Y-47650400D02*
X134229230Y-50835170D01*
X134229230Y-50835170D02*
X109819458Y-50835170D01*
X108879321Y-57402099D02*
X107048300Y-59233120D01*
X132045090Y-50479310D02*
X127961856Y-50479310D01*
X134874000Y-47650400D02*
X132045090Y-50479310D01*
X127961856Y-50479310D02*
X127958406Y-50482760D01*
X127958406Y-50482760D02*
X109673486Y-50482760D01*
X109673486Y-50482760D02*
X108879321Y-51276925D01*
X108879321Y-51276925D02*
X108879321Y-57402099D01*
X129857500Y-50126900D02*
X132334000Y-47650400D01*
X107048300Y-56693120D02*
X108526911Y-55214509D01*
X108526911Y-55214509D02*
X108526911Y-51130953D01*
X108526911Y-51130953D02*
X109527514Y-50130350D01*
X109527514Y-50130350D02*
X127812433Y-50130350D01*
X127812433Y-50130350D02*
X127815883Y-50126900D01*
X127815883Y-50126900D02*
X129857500Y-50126900D01*
X127666460Y-49777940D02*
X109381542Y-49777940D01*
X129794000Y-47650400D02*
X127666460Y-49777940D01*
X107898299Y-53303121D02*
X107048300Y-54153120D01*
X108174501Y-53026919D02*
X107898299Y-53303121D01*
X108174501Y-50984981D02*
X108174501Y-53026919D01*
X109381542Y-49777940D02*
X108174501Y-50984981D01*
X125478870Y-49425530D02*
X127254000Y-47650400D01*
X109235570Y-49425530D02*
X125478870Y-49425530D01*
X107898299Y-50762801D02*
X109235570Y-49425530D01*
X107048300Y-51613120D02*
X107898299Y-50763121D01*
X107898299Y-50763121D02*
X107898299Y-50762801D01*
X123291280Y-49073120D02*
X107048300Y-49073120D01*
X124714000Y-47650400D02*
X123291280Y-49073120D01*
X122056773Y-54356000D02*
X123151900Y-54356000D01*
X122031373Y-54330600D02*
X122056773Y-54356000D01*
X121564400Y-54330600D02*
X122031373Y-54330600D01*
X124891800Y-58166000D02*
X123151900Y-58166000D01*
X124980700Y-58077100D02*
X124891800Y-58166000D01*
X125285500Y-58077100D02*
X124980700Y-58077100D01*
X119773700Y-53086000D02*
X119786400Y-53098700D01*
X118224300Y-53086000D02*
X119773700Y-53086000D01*
X135270627Y-54356000D02*
X134188200Y-54356000D01*
X135737600Y-54356000D02*
X135270627Y-54356000D01*
X134175500Y-60718700D02*
X134188200Y-60706000D01*
X132549900Y-60718700D02*
X134175500Y-60718700D01*
X134162800Y-58191400D02*
X134188200Y-58166000D01*
X132664200Y-58191400D02*
X134162800Y-58191400D01*
X135737600Y-56896000D02*
X135763000Y-56921400D01*
X134188200Y-56896000D02*
X135737600Y-56896000D01*
X113535073Y-63042800D02*
X115798600Y-63042800D01*
X113068100Y-63042800D02*
X113535073Y-63042800D01*
X115331627Y-64871600D02*
X113068100Y-64871600D01*
X115798600Y-64871600D02*
X115331627Y-64871600D01*
X129209800Y-53136800D02*
X129260600Y-53086000D01*
X127533400Y-53136800D02*
X129209800Y-53136800D01*
X137261600Y-56921400D02*
X137147300Y-56921400D01*
X138391900Y-58051700D02*
X137261600Y-56921400D01*
X137147300Y-56921400D02*
X135763000Y-56921400D01*
X134150100Y-56934100D02*
X134188200Y-56896000D01*
X132702300Y-56934100D02*
X134150100Y-56934100D01*
X105592880Y-50393600D02*
X105496360Y-50490120D01*
X105592880Y-47330360D02*
X105592880Y-50393600D01*
X114414300Y-56057800D02*
X113715800Y-55359300D01*
X114414300Y-56491900D02*
X114414300Y-56057800D01*
X116085860Y-53291500D02*
X116418360Y-52959000D01*
X115062000Y-53291500D02*
X116085860Y-53291500D01*
X118097300Y-52959000D02*
X118224300Y-53086000D01*
X116418360Y-52959000D02*
X118097300Y-52959000D01*
D18*
X134188200Y-52298600D02*
X134188200Y-53086000D01*
X133607390Y-51717790D02*
X134188200Y-52298600D01*
X110323999Y-53379001D02*
X111985210Y-51717790D01*
X109474000Y-67970400D02*
X110323999Y-67120401D01*
X122571090Y-51717790D02*
X122069010Y-51717790D01*
X123151900Y-52298600D02*
X122571090Y-51717790D01*
X111985210Y-51717790D02*
X122069010Y-51717790D01*
X123732710Y-51717790D02*
X123841090Y-51717790D01*
X123151900Y-52298600D02*
X123732710Y-51717790D01*
X123151900Y-53086000D02*
X123151900Y-52298600D01*
X122069010Y-51717790D02*
X123841090Y-51717790D01*
X123841090Y-51717790D02*
X133607390Y-51717790D01*
X110323999Y-67120401D02*
X110323999Y-65710701D01*
X110323999Y-65710701D02*
X110323999Y-63958101D01*
X110323999Y-63958101D02*
X110323999Y-53379001D01*
X125234700Y-63920902D02*
X125197501Y-63958101D01*
X125234700Y-61450460D02*
X125234700Y-63920902D01*
X110323999Y-63958101D02*
X125197501Y-63958101D01*
D17*
X141958060Y-50342800D02*
X143540240Y-50342800D01*
X142952740Y-52451000D02*
X141958060Y-52451000D01*
X143540240Y-52451000D02*
X142952740Y-52451000D01*
X142545560Y-54559200D02*
X143540240Y-54559200D01*
X141958060Y-54559200D02*
X142545560Y-54559200D01*
X142952740Y-56667400D02*
X141958060Y-56667400D01*
X143540240Y-56667400D02*
X142952740Y-56667400D01*
X142545560Y-58775600D02*
X143540240Y-58775600D01*
X141958060Y-58775600D02*
X142545560Y-58775600D01*
X142952740Y-60883800D02*
X141958060Y-60883800D01*
X143540240Y-60883800D02*
X142952740Y-60883800D01*
X142545560Y-62992000D02*
X143540240Y-62992000D01*
X141958060Y-62992000D02*
X142545560Y-62992000D01*
X143540240Y-65100200D02*
X141958060Y-65100200D01*
X118041420Y-56713120D02*
X118224300Y-56896000D01*
X128117600Y-56896000D02*
X129260600Y-56896000D01*
X127561999Y-57451601D02*
X128117600Y-56896000D01*
X119922901Y-57451601D02*
X127561999Y-57451601D01*
X119367300Y-56896000D02*
X119922901Y-57451601D01*
X118224300Y-56896000D02*
X119367300Y-56896000D01*
X118095661Y-57024639D02*
X118224300Y-56896000D01*
X114414300Y-58155840D02*
X114414300Y-58366900D01*
X112433100Y-56174640D02*
X114414300Y-58155840D01*
X115885200Y-56896000D02*
X118224300Y-56896000D01*
X114414300Y-58366900D02*
X115885200Y-56896000D01*
X113530140Y-53634640D02*
X115062000Y-55166500D01*
X112433100Y-53634640D02*
X113530140Y-53634640D01*
X116077101Y-56181601D02*
X115062000Y-55166500D01*
X121453299Y-56181601D02*
X116077101Y-56181601D01*
X123151900Y-55626000D02*
X122008900Y-55626000D01*
X122008900Y-55626000D02*
X121453299Y-56181601D01*
X128117600Y-58166000D02*
X129260600Y-58166000D01*
X127561999Y-58721601D02*
X128117600Y-58166000D01*
X119367300Y-58166000D02*
X119922901Y-58721601D01*
X118224300Y-58166000D02*
X119367300Y-58166000D01*
X127180999Y-58822201D02*
X127180999Y-58721601D01*
X127000000Y-59003200D02*
X127180999Y-58822201D01*
X127000000Y-59590700D02*
X127000000Y-59003200D01*
X119922901Y-58721601D02*
X127180999Y-58721601D01*
X127180999Y-58721601D02*
X127561999Y-58721601D01*
X117862311Y-58527989D02*
X118224300Y-58166000D01*
X115863449Y-58527989D02*
X117862311Y-58527989D01*
X114826800Y-59564639D02*
X115863449Y-58527989D01*
X112433100Y-58714640D02*
X113283099Y-59564639D01*
X113283099Y-59564639D02*
X114826800Y-59564639D01*
X139526823Y-50899037D02*
X140083060Y-50342800D01*
X136784259Y-53641601D02*
X139526823Y-50899037D01*
X132368901Y-53641601D02*
X136784259Y-53641601D01*
X131257699Y-52530399D02*
X132368901Y-53641601D01*
X118224300Y-55626000D02*
X117513100Y-55626000D01*
X117513100Y-55626000D02*
X116957499Y-55070399D01*
X116957499Y-55070399D02*
X116957499Y-53855639D01*
X127242327Y-52530399D02*
X131257699Y-52530399D01*
X116957499Y-53855639D02*
X117088939Y-53724199D01*
X117088939Y-53724199D02*
X126048527Y-53724199D01*
X126048527Y-53724199D02*
X127242327Y-52530399D01*
X118224300Y-54356000D02*
X119367300Y-54356000D01*
X126914299Y-54937001D02*
X128079500Y-53771800D01*
X119948301Y-54937001D02*
X126914299Y-54937001D01*
X119367300Y-54356000D02*
X119948301Y-54937001D01*
X132559401Y-54962401D02*
X131368800Y-53771800D01*
X137571659Y-54962401D02*
X132559401Y-54962401D01*
X140083060Y-52451000D02*
X137571659Y-54962401D01*
X128079500Y-53771800D02*
X131368800Y-53771800D01*
X116713000Y-59436000D02*
X116776500Y-59436000D01*
X113944400Y-62204600D02*
X116713000Y-59436000D01*
X118224300Y-59436000D02*
X116776500Y-59436000D01*
X140639297Y-55115437D02*
X140083060Y-54559200D01*
X141059270Y-55535410D02*
X140639297Y-55115437D01*
X143902010Y-55535410D02*
X141059270Y-55535410D01*
X144303950Y-55937350D02*
X143902010Y-55535410D01*
X144303950Y-65771826D02*
X144303950Y-55937350D01*
X143646956Y-66428820D02*
X144303950Y-65771826D01*
X114815820Y-66428820D02*
X143646956Y-66428820D01*
X113944400Y-65557400D02*
X114815820Y-66428820D01*
X116522500Y-60706000D02*
X118224300Y-60706000D01*
X115036600Y-62191900D02*
X116522500Y-60706000D01*
X140639297Y-57223637D02*
X140083060Y-56667400D01*
X140846770Y-57431110D02*
X140639297Y-57223637D01*
X140846770Y-65771826D02*
X140846770Y-57431110D01*
X140542186Y-66076410D02*
X140846770Y-65771826D01*
X115555610Y-66076410D02*
X140542186Y-66076410D01*
X115036600Y-65557400D02*
X115555610Y-66076410D01*
X139526823Y-58219363D02*
X140083060Y-58775600D01*
X137622459Y-56314999D02*
X139526823Y-58219363D01*
X131092599Y-56314999D02*
X137622459Y-56314999D01*
X130403600Y-55626000D02*
X131092599Y-56314999D01*
X129260600Y-55626000D02*
X130403600Y-55626000D01*
X131051300Y-54356000D02*
X131076700Y-54381400D01*
X129260600Y-54356000D02*
X131051300Y-54356000D01*
X131076700Y-54381400D02*
X131076700Y-54381400D01*
X140083060Y-60771560D02*
X140083060Y-60883800D01*
X137299700Y-57988200D02*
X140083060Y-60771560D01*
X130543300Y-59436000D02*
X129260600Y-59436000D01*
X140083060Y-62992000D02*
X136540821Y-62992000D01*
X136515421Y-62966600D02*
X136515421Y-58726059D01*
X136515421Y-58726059D02*
X135374361Y-57584999D01*
X135374361Y-57584999D02*
X132394301Y-57584999D01*
X136540821Y-62992000D02*
X136515421Y-62966600D01*
X132394301Y-57584999D02*
X130543300Y-59436000D01*
X136163011Y-59643649D02*
X136163011Y-64763689D01*
X135399761Y-58880399D02*
X136163011Y-59643649D01*
X132229201Y-58880399D02*
X135399761Y-58880399D01*
X129260600Y-60706000D02*
X130403600Y-60706000D01*
X130403600Y-60706000D02*
X132229201Y-58880399D01*
X136499522Y-65100200D02*
X140083060Y-65100200D01*
X136163011Y-64763689D02*
X136499522Y-65100200D01*
X133045200Y-55626000D02*
X134188200Y-55626000D01*
X132724618Y-55626000D02*
X133045200Y-55626000D01*
X132169017Y-55070399D02*
X132724618Y-55626000D01*
X128049039Y-55070399D02*
X132169017Y-55070399D01*
X126223438Y-56896000D02*
X128049039Y-55070399D01*
X123151900Y-56896000D02*
X126223438Y-56896000D01*
X122008900Y-59436000D02*
X123151900Y-59436000D01*
X120138917Y-59436000D02*
X122008900Y-59436000D01*
X119583316Y-58880399D02*
X120138917Y-59436000D01*
X116009422Y-58880399D02*
X119583316Y-58880399D01*
X113635181Y-61254640D02*
X116009422Y-58880399D01*
X112433100Y-61254640D02*
X113635181Y-61254640D01*
X125153660Y-59436000D02*
X125293120Y-59575460D01*
X125095240Y-59436000D02*
X125234700Y-59575460D01*
X123151900Y-59436000D02*
X125095240Y-59436000D01*
X125790937Y-60131697D02*
X125234700Y-59575460D01*
X127324046Y-60354410D02*
X126013650Y-60354410D01*
X127976210Y-61006574D02*
X127324046Y-60354410D01*
X127976210Y-61188772D02*
X127976210Y-61006574D01*
X126013650Y-60354410D02*
X125790937Y-60131697D01*
X128049039Y-61261601D02*
X127976210Y-61188772D01*
X131109525Y-61261601D02*
X128049039Y-61261601D01*
X132935126Y-59436000D02*
X131109525Y-61261601D01*
X134188200Y-59436000D02*
X132935126Y-59436000D01*
D19*
G36*
X148296706Y-47107839D02*
G01*
X147953658Y-47249934D01*
X147644922Y-47456225D01*
X147382365Y-47718782D01*
X147176074Y-48027518D01*
X147033979Y-48370566D01*
X146961540Y-48734744D01*
X146961540Y-49106056D01*
X147033979Y-49470234D01*
X147176074Y-49813282D01*
X147382365Y-50122018D01*
X147644922Y-50384575D01*
X147953658Y-50590866D01*
X148296706Y-50732961D01*
X148660884Y-50805400D01*
X149032196Y-50805400D01*
X149396374Y-50732961D01*
X149739422Y-50590866D01*
X150048158Y-50384575D01*
X150310715Y-50122018D01*
X150517006Y-49813282D01*
X150659101Y-49470234D01*
X150731540Y-49106056D01*
X150731540Y-48780616D01*
X150749401Y-48950552D01*
X150749400Y-66680821D01*
X150731540Y-66862971D01*
X150731540Y-66514744D01*
X150659101Y-66150566D01*
X150517006Y-65807518D01*
X150310715Y-65498782D01*
X150048158Y-65236225D01*
X149739422Y-65029934D01*
X149396374Y-64887839D01*
X149032196Y-64815400D01*
X148660884Y-64815400D01*
X148296706Y-64887839D01*
X147953658Y-65029934D01*
X147644922Y-65236225D01*
X147382365Y-65498782D01*
X147176074Y-65807518D01*
X147033979Y-66150566D01*
X146961540Y-66514744D01*
X146961540Y-66886056D01*
X147033979Y-67250234D01*
X147176074Y-67593282D01*
X147382365Y-67902018D01*
X147644922Y-68164575D01*
X147953658Y-68370866D01*
X148296706Y-68512961D01*
X148660884Y-68585400D01*
X148925218Y-68585400D01*
X148851957Y-68593100D01*
X146381191Y-68593100D01*
X146475481Y-68327291D01*
X146354814Y-68097400D01*
X145161000Y-68097400D01*
X145161000Y-68117400D01*
X144907000Y-68117400D01*
X144907000Y-68097400D01*
X144887000Y-68097400D01*
X144887000Y-67843400D01*
X144907000Y-67843400D01*
X144907000Y-66650245D01*
X145161000Y-66650245D01*
X145161000Y-67843400D01*
X146354814Y-67843400D01*
X146475481Y-67613509D01*
X146378157Y-67339148D01*
X146229178Y-67089045D01*
X146034269Y-66872812D01*
X145800920Y-66698759D01*
X145538099Y-66573575D01*
X145390890Y-66528924D01*
X145161000Y-66650245D01*
X144907000Y-66650245D01*
X144677110Y-66528924D01*
X144529901Y-66573575D01*
X144488059Y-66593505D01*
X144689930Y-66391634D01*
X144803258Y-66426012D01*
X144927740Y-66438272D01*
X145129490Y-66435200D01*
X145288240Y-66276450D01*
X145288240Y-65227200D01*
X145542240Y-65227200D01*
X145542240Y-66276450D01*
X145700990Y-66435200D01*
X145902740Y-66438272D01*
X146027222Y-66426012D01*
X146146920Y-66389702D01*
X146257234Y-66330737D01*
X146353925Y-66251385D01*
X146433277Y-66154694D01*
X146492242Y-66044380D01*
X146528552Y-65924682D01*
X146540812Y-65800200D01*
X146537740Y-65385950D01*
X146378990Y-65227200D01*
X145542240Y-65227200D01*
X145288240Y-65227200D01*
X145268240Y-65227200D01*
X145268240Y-64973200D01*
X145288240Y-64973200D01*
X145288240Y-63119000D01*
X145542240Y-63119000D01*
X145542240Y-64973200D01*
X146378990Y-64973200D01*
X146537740Y-64814450D01*
X146540812Y-64400200D01*
X146528552Y-64275718D01*
X146492242Y-64156020D01*
X146433488Y-64046100D01*
X146492242Y-63936180D01*
X146528552Y-63816482D01*
X146540812Y-63692000D01*
X146537740Y-63277750D01*
X146378990Y-63119000D01*
X145542240Y-63119000D01*
X145288240Y-63119000D01*
X145268240Y-63119000D01*
X145268240Y-62865000D01*
X145288240Y-62865000D01*
X145288240Y-61010800D01*
X145542240Y-61010800D01*
X145542240Y-62865000D01*
X146378990Y-62865000D01*
X146537740Y-62706250D01*
X146540812Y-62292000D01*
X146528552Y-62167518D01*
X146492242Y-62047820D01*
X146433488Y-61937900D01*
X146492242Y-61827980D01*
X146528552Y-61708282D01*
X146540812Y-61583800D01*
X146537740Y-61169550D01*
X146378990Y-61010800D01*
X145542240Y-61010800D01*
X145288240Y-61010800D01*
X145268240Y-61010800D01*
X145268240Y-60756800D01*
X145288240Y-60756800D01*
X145288240Y-58902600D01*
X145542240Y-58902600D01*
X145542240Y-60756800D01*
X146378990Y-60756800D01*
X146537740Y-60598050D01*
X146540812Y-60183800D01*
X146528552Y-60059318D01*
X146492242Y-59939620D01*
X146433488Y-59829700D01*
X146492242Y-59719780D01*
X146528552Y-59600082D01*
X146540812Y-59475600D01*
X146537740Y-59061350D01*
X146378990Y-58902600D01*
X145542240Y-58902600D01*
X145288240Y-58902600D01*
X145268240Y-58902600D01*
X145268240Y-58648600D01*
X145288240Y-58648600D01*
X145288240Y-56794400D01*
X145542240Y-56794400D01*
X145542240Y-58648600D01*
X146378990Y-58648600D01*
X146537740Y-58489850D01*
X146540812Y-58075600D01*
X146528552Y-57951118D01*
X146492242Y-57831420D01*
X146433488Y-57721500D01*
X146492242Y-57611580D01*
X146528552Y-57491882D01*
X146540812Y-57367400D01*
X146537740Y-56953150D01*
X146378990Y-56794400D01*
X145542240Y-56794400D01*
X145288240Y-56794400D01*
X145268240Y-56794400D01*
X145268240Y-56540400D01*
X145288240Y-56540400D01*
X145288240Y-54686200D01*
X145542240Y-54686200D01*
X145542240Y-56540400D01*
X146378990Y-56540400D01*
X146537740Y-56381650D01*
X146540812Y-55967400D01*
X146528552Y-55842918D01*
X146492242Y-55723220D01*
X146433488Y-55613300D01*
X146492242Y-55503380D01*
X146528552Y-55383682D01*
X146540812Y-55259200D01*
X146537740Y-54844950D01*
X146378990Y-54686200D01*
X145542240Y-54686200D01*
X145288240Y-54686200D01*
X145268240Y-54686200D01*
X145268240Y-54432200D01*
X145288240Y-54432200D01*
X145288240Y-52578000D01*
X145542240Y-52578000D01*
X145542240Y-54432200D01*
X146378990Y-54432200D01*
X146537740Y-54273450D01*
X146540812Y-53859200D01*
X146528552Y-53734718D01*
X146492242Y-53615020D01*
X146433488Y-53505100D01*
X146492242Y-53395180D01*
X146528552Y-53275482D01*
X146540812Y-53151000D01*
X146537740Y-52736750D01*
X146378990Y-52578000D01*
X145542240Y-52578000D01*
X145288240Y-52578000D01*
X145268240Y-52578000D01*
X145268240Y-52324000D01*
X145288240Y-52324000D01*
X145288240Y-50469800D01*
X145542240Y-50469800D01*
X145542240Y-52324000D01*
X146378990Y-52324000D01*
X146537740Y-52165250D01*
X146540812Y-51751000D01*
X146528552Y-51626518D01*
X146492242Y-51506820D01*
X146433488Y-51396900D01*
X146492242Y-51286980D01*
X146528552Y-51167282D01*
X146540812Y-51042800D01*
X146537740Y-50628550D01*
X146378990Y-50469800D01*
X145542240Y-50469800D01*
X145288240Y-50469800D01*
X145268240Y-50469800D01*
X145268240Y-50215800D01*
X145288240Y-50215800D01*
X145288240Y-50195800D01*
X145542240Y-50195800D01*
X145542240Y-50215800D01*
X146378990Y-50215800D01*
X146537740Y-50057050D01*
X146540812Y-49642800D01*
X146528552Y-49518318D01*
X146492242Y-49398620D01*
X146433277Y-49288306D01*
X146353925Y-49191615D01*
X146257234Y-49112263D01*
X146146920Y-49053298D01*
X146027222Y-49016988D01*
X145902740Y-49004728D01*
X145700990Y-49007800D01*
X145542242Y-49166548D01*
X145542242Y-49048047D01*
X145605034Y-49028999D01*
X145863014Y-48891106D01*
X146089134Y-48705534D01*
X146274706Y-48479414D01*
X146412599Y-48221434D01*
X146497513Y-47941511D01*
X146526185Y-47650400D01*
X146497513Y-47359289D01*
X146412599Y-47079366D01*
X146398560Y-47053100D01*
X148571899Y-47053100D01*
X148296706Y-47107839D01*
X148296706Y-47107839D01*
G37*
X148296706Y-47107839D02*
X147953658Y-47249934D01*
X147644922Y-47456225D01*
X147382365Y-47718782D01*
X147176074Y-48027518D01*
X147033979Y-48370566D01*
X146961540Y-48734744D01*
X146961540Y-49106056D01*
X147033979Y-49470234D01*
X147176074Y-49813282D01*
X147382365Y-50122018D01*
X147644922Y-50384575D01*
X147953658Y-50590866D01*
X148296706Y-50732961D01*
X148660884Y-50805400D01*
X149032196Y-50805400D01*
X149396374Y-50732961D01*
X149739422Y-50590866D01*
X150048158Y-50384575D01*
X150310715Y-50122018D01*
X150517006Y-49813282D01*
X150659101Y-49470234D01*
X150731540Y-49106056D01*
X150731540Y-48780616D01*
X150749401Y-48950552D01*
X150749400Y-66680821D01*
X150731540Y-66862971D01*
X150731540Y-66514744D01*
X150659101Y-66150566D01*
X150517006Y-65807518D01*
X150310715Y-65498782D01*
X150048158Y-65236225D01*
X149739422Y-65029934D01*
X149396374Y-64887839D01*
X149032196Y-64815400D01*
X148660884Y-64815400D01*
X148296706Y-64887839D01*
X147953658Y-65029934D01*
X147644922Y-65236225D01*
X147382365Y-65498782D01*
X147176074Y-65807518D01*
X147033979Y-66150566D01*
X146961540Y-66514744D01*
X146961540Y-66886056D01*
X147033979Y-67250234D01*
X147176074Y-67593282D01*
X147382365Y-67902018D01*
X147644922Y-68164575D01*
X147953658Y-68370866D01*
X148296706Y-68512961D01*
X148660884Y-68585400D01*
X148925218Y-68585400D01*
X148851957Y-68593100D01*
X146381191Y-68593100D01*
X146475481Y-68327291D01*
X146354814Y-68097400D01*
X145161000Y-68097400D01*
X145161000Y-68117400D01*
X144907000Y-68117400D01*
X144907000Y-68097400D01*
X144887000Y-68097400D01*
X144887000Y-67843400D01*
X144907000Y-67843400D01*
X144907000Y-66650245D01*
X145161000Y-66650245D01*
X145161000Y-67843400D01*
X146354814Y-67843400D01*
X146475481Y-67613509D01*
X146378157Y-67339148D01*
X146229178Y-67089045D01*
X146034269Y-66872812D01*
X145800920Y-66698759D01*
X145538099Y-66573575D01*
X145390890Y-66528924D01*
X145161000Y-66650245D01*
X144907000Y-66650245D01*
X144677110Y-66528924D01*
X144529901Y-66573575D01*
X144488059Y-66593505D01*
X144689930Y-66391634D01*
X144803258Y-66426012D01*
X144927740Y-66438272D01*
X145129490Y-66435200D01*
X145288240Y-66276450D01*
X145288240Y-65227200D01*
X145542240Y-65227200D01*
X145542240Y-66276450D01*
X145700990Y-66435200D01*
X145902740Y-66438272D01*
X146027222Y-66426012D01*
X146146920Y-66389702D01*
X146257234Y-66330737D01*
X146353925Y-66251385D01*
X146433277Y-66154694D01*
X146492242Y-66044380D01*
X146528552Y-65924682D01*
X146540812Y-65800200D01*
X146537740Y-65385950D01*
X146378990Y-65227200D01*
X145542240Y-65227200D01*
X145288240Y-65227200D01*
X145268240Y-65227200D01*
X145268240Y-64973200D01*
X145288240Y-64973200D01*
X145288240Y-63119000D01*
X145542240Y-63119000D01*
X145542240Y-64973200D01*
X146378990Y-64973200D01*
X146537740Y-64814450D01*
X146540812Y-64400200D01*
X146528552Y-64275718D01*
X146492242Y-64156020D01*
X146433488Y-64046100D01*
X146492242Y-63936180D01*
X146528552Y-63816482D01*
X146540812Y-63692000D01*
X146537740Y-63277750D01*
X146378990Y-63119000D01*
X145542240Y-63119000D01*
X145288240Y-63119000D01*
X145268240Y-63119000D01*
X145268240Y-62865000D01*
X145288240Y-62865000D01*
X145288240Y-61010800D01*
X145542240Y-61010800D01*
X145542240Y-62865000D01*
X146378990Y-62865000D01*
X146537740Y-62706250D01*
X146540812Y-62292000D01*
X146528552Y-62167518D01*
X146492242Y-62047820D01*
X146433488Y-61937900D01*
X146492242Y-61827980D01*
X146528552Y-61708282D01*
X146540812Y-61583800D01*
X146537740Y-61169550D01*
X146378990Y-61010800D01*
X145542240Y-61010800D01*
X145288240Y-61010800D01*
X145268240Y-61010800D01*
X145268240Y-60756800D01*
X145288240Y-60756800D01*
X145288240Y-58902600D01*
X145542240Y-58902600D01*
X145542240Y-60756800D01*
X146378990Y-60756800D01*
X146537740Y-60598050D01*
X146540812Y-60183800D01*
X146528552Y-60059318D01*
X146492242Y-59939620D01*
X146433488Y-59829700D01*
X146492242Y-59719780D01*
X146528552Y-59600082D01*
X146540812Y-59475600D01*
X146537740Y-59061350D01*
X146378990Y-58902600D01*
X145542240Y-58902600D01*
X145288240Y-58902600D01*
X145268240Y-58902600D01*
X145268240Y-58648600D01*
X145288240Y-58648600D01*
X145288240Y-56794400D01*
X145542240Y-56794400D01*
X145542240Y-58648600D01*
X146378990Y-58648600D01*
X146537740Y-58489850D01*
X146540812Y-58075600D01*
X146528552Y-57951118D01*
X146492242Y-57831420D01*
X146433488Y-57721500D01*
X146492242Y-57611580D01*
X146528552Y-57491882D01*
X146540812Y-57367400D01*
X146537740Y-56953150D01*
X146378990Y-56794400D01*
X145542240Y-56794400D01*
X145288240Y-56794400D01*
X145268240Y-56794400D01*
X145268240Y-56540400D01*
X145288240Y-56540400D01*
X145288240Y-54686200D01*
X145542240Y-54686200D01*
X145542240Y-56540400D01*
X146378990Y-56540400D01*
X146537740Y-56381650D01*
X146540812Y-55967400D01*
X146528552Y-55842918D01*
X146492242Y-55723220D01*
X146433488Y-55613300D01*
X146492242Y-55503380D01*
X146528552Y-55383682D01*
X146540812Y-55259200D01*
X146537740Y-54844950D01*
X146378990Y-54686200D01*
X145542240Y-54686200D01*
X145288240Y-54686200D01*
X145268240Y-54686200D01*
X145268240Y-54432200D01*
X145288240Y-54432200D01*
X145288240Y-52578000D01*
X145542240Y-52578000D01*
X145542240Y-54432200D01*
X146378990Y-54432200D01*
X146537740Y-54273450D01*
X146540812Y-53859200D01*
X146528552Y-53734718D01*
X146492242Y-53615020D01*
X146433488Y-53505100D01*
X146492242Y-53395180D01*
X146528552Y-53275482D01*
X146540812Y-53151000D01*
X146537740Y-52736750D01*
X146378990Y-52578000D01*
X145542240Y-52578000D01*
X145288240Y-52578000D01*
X145268240Y-52578000D01*
X145268240Y-52324000D01*
X145288240Y-52324000D01*
X145288240Y-50469800D01*
X145542240Y-50469800D01*
X145542240Y-52324000D01*
X146378990Y-52324000D01*
X146537740Y-52165250D01*
X146540812Y-51751000D01*
X146528552Y-51626518D01*
X146492242Y-51506820D01*
X146433488Y-51396900D01*
X146492242Y-51286980D01*
X146528552Y-51167282D01*
X146540812Y-51042800D01*
X146537740Y-50628550D01*
X146378990Y-50469800D01*
X145542240Y-50469800D01*
X145288240Y-50469800D01*
X145268240Y-50469800D01*
X145268240Y-50215800D01*
X145288240Y-50215800D01*
X145288240Y-50195800D01*
X145542240Y-50195800D01*
X145542240Y-50215800D01*
X146378990Y-50215800D01*
X146537740Y-50057050D01*
X146540812Y-49642800D01*
X146528552Y-49518318D01*
X146492242Y-49398620D01*
X146433277Y-49288306D01*
X146353925Y-49191615D01*
X146257234Y-49112263D01*
X146146920Y-49053298D01*
X146027222Y-49016988D01*
X145902740Y-49004728D01*
X145700990Y-49007800D01*
X145542242Y-49166548D01*
X145542242Y-49048047D01*
X145605034Y-49028999D01*
X145863014Y-48891106D01*
X146089134Y-48705534D01*
X146274706Y-48479414D01*
X146412599Y-48221434D01*
X146497513Y-47941511D01*
X146526185Y-47650400D01*
X146497513Y-47359289D01*
X146412599Y-47079366D01*
X146398560Y-47053100D01*
X148571899Y-47053100D01*
X148296706Y-47107839D01*
G36*
X114681000Y-67843400D02*
G01*
X114701000Y-67843400D01*
X114701000Y-68097400D01*
X114681000Y-68097400D01*
X114681000Y-68117400D01*
X114427000Y-68117400D01*
X114427000Y-68097400D01*
X114407000Y-68097400D01*
X114407000Y-67843400D01*
X114427000Y-67843400D01*
X114427000Y-67823400D01*
X114681000Y-67823400D01*
X114681000Y-67843400D01*
X114681000Y-67843400D01*
G37*
X114681000Y-67843400D02*
X114701000Y-67843400D01*
X114701000Y-68097400D01*
X114681000Y-68097400D01*
X114681000Y-68117400D01*
X114427000Y-68117400D01*
X114427000Y-68097400D01*
X114407000Y-68097400D01*
X114407000Y-67843400D01*
X114427000Y-67843400D01*
X114427000Y-67823400D01*
X114681000Y-67823400D01*
X114681000Y-67843400D01*
G36*
X113194680Y-64942121D02*
G01*
X113089051Y-65100206D01*
X113016292Y-65275862D01*
X112979200Y-65462336D01*
X112979200Y-65652464D01*
X113016292Y-65838938D01*
X113089051Y-66014594D01*
X113194680Y-66172679D01*
X113329121Y-66307120D01*
X113487206Y-66412749D01*
X113662862Y-66485508D01*
X113849336Y-66522600D01*
X113903812Y-66522600D01*
X113985474Y-66604262D01*
X113787080Y-66698759D01*
X113553731Y-66872812D01*
X113358822Y-67089045D01*
X113289201Y-67205923D01*
X113254706Y-67141386D01*
X113069134Y-66915266D01*
X112843014Y-66729694D01*
X112585034Y-66591801D01*
X112305111Y-66506887D01*
X112086950Y-66485400D01*
X111941050Y-66485400D01*
X111722889Y-66506887D01*
X111442966Y-66591801D01*
X111212999Y-66714721D01*
X111212999Y-64847101D01*
X113289700Y-64847101D01*
X113194680Y-64942121D01*
X113194680Y-64942121D01*
G37*
X113194680Y-64942121D02*
X113089051Y-65100206D01*
X113016292Y-65275862D01*
X112979200Y-65462336D01*
X112979200Y-65652464D01*
X113016292Y-65838938D01*
X113089051Y-66014594D01*
X113194680Y-66172679D01*
X113329121Y-66307120D01*
X113487206Y-66412749D01*
X113662862Y-66485508D01*
X113849336Y-66522600D01*
X113903812Y-66522600D01*
X113985474Y-66604262D01*
X113787080Y-66698759D01*
X113553731Y-66872812D01*
X113358822Y-67089045D01*
X113289201Y-67205923D01*
X113254706Y-67141386D01*
X113069134Y-66915266D01*
X112843014Y-66729694D01*
X112585034Y-66591801D01*
X112305111Y-66506887D01*
X112086950Y-66485400D01*
X111941050Y-66485400D01*
X111722889Y-66506887D01*
X111442966Y-66591801D01*
X111212999Y-66714721D01*
X111212999Y-64847101D01*
X113289700Y-64847101D01*
X113194680Y-64942121D01*
G36*
X105560228Y-49923120D02*
G01*
X105572488Y-50047602D01*
X105608798Y-50167300D01*
X105667763Y-50277614D01*
X105747115Y-50374305D01*
X105843806Y-50453657D01*
X105954120Y-50512622D01*
X106022987Y-50533513D01*
X105993166Y-50557986D01*
X105807594Y-50784106D01*
X105669701Y-51042086D01*
X105584787Y-51322009D01*
X105556115Y-51613120D01*
X105584787Y-51904231D01*
X105669701Y-52184154D01*
X105807594Y-52442134D01*
X105993166Y-52668254D01*
X106219286Y-52853826D01*
X106274091Y-52883120D01*
X106219286Y-52912414D01*
X105993166Y-53097986D01*
X105807594Y-53324106D01*
X105669701Y-53582086D01*
X105584787Y-53862009D01*
X105556115Y-54153120D01*
X105584787Y-54444231D01*
X105669701Y-54724154D01*
X105807594Y-54982134D01*
X105993166Y-55208254D01*
X106219286Y-55393826D01*
X106274091Y-55423120D01*
X106219286Y-55452414D01*
X105993166Y-55637986D01*
X105807594Y-55864106D01*
X105669701Y-56122086D01*
X105584787Y-56402009D01*
X105556115Y-56693120D01*
X105584787Y-56984231D01*
X105669701Y-57264154D01*
X105807594Y-57522134D01*
X105993166Y-57748254D01*
X106219286Y-57933826D01*
X106274091Y-57963120D01*
X106219286Y-57992414D01*
X105993166Y-58177986D01*
X105807594Y-58404106D01*
X105669701Y-58662086D01*
X105584787Y-58942009D01*
X105556115Y-59233120D01*
X105584787Y-59524231D01*
X105669701Y-59804154D01*
X105807594Y-60062134D01*
X105993166Y-60288254D01*
X106219286Y-60473826D01*
X106274091Y-60503120D01*
X106219286Y-60532414D01*
X105993166Y-60717986D01*
X105807594Y-60944106D01*
X105669701Y-61202086D01*
X105584787Y-61482009D01*
X105556115Y-61773120D01*
X105584787Y-62064231D01*
X105669701Y-62344154D01*
X105807594Y-62602134D01*
X105993166Y-62828254D01*
X106219286Y-63013826D01*
X106274091Y-63043120D01*
X106219286Y-63072414D01*
X105993166Y-63257986D01*
X105807594Y-63484106D01*
X105669701Y-63742086D01*
X105584787Y-64022009D01*
X105556115Y-64313120D01*
X105584787Y-64604231D01*
X105669701Y-64884154D01*
X105807594Y-65142134D01*
X105993166Y-65368254D01*
X106219286Y-65553826D01*
X106477266Y-65691719D01*
X106757189Y-65776633D01*
X106975350Y-65798120D01*
X107121250Y-65798120D01*
X107339411Y-65776633D01*
X107619334Y-65691719D01*
X107877314Y-65553826D01*
X108103434Y-65368254D01*
X108289006Y-65142134D01*
X108426899Y-64884154D01*
X108511813Y-64604231D01*
X108540485Y-64313120D01*
X108511813Y-64022009D01*
X108473034Y-63894173D01*
X109434999Y-62932209D01*
X109434999Y-63914433D01*
X109430698Y-63958101D01*
X109435000Y-64001778D01*
X109434999Y-65754367D01*
X109435000Y-65754377D01*
X109434999Y-66485400D01*
X109401050Y-66485400D01*
X109182889Y-66506887D01*
X108902966Y-66591801D01*
X108644986Y-66729694D01*
X108418866Y-66915266D01*
X108394393Y-66945087D01*
X108373502Y-66876220D01*
X108314537Y-66765906D01*
X108235185Y-66669215D01*
X108138494Y-66589863D01*
X108028180Y-66530898D01*
X107908482Y-66494588D01*
X107784000Y-66482328D01*
X106084000Y-66482328D01*
X105959518Y-66494588D01*
X105839820Y-66530898D01*
X105729506Y-66589863D01*
X105661540Y-66645641D01*
X105661540Y-66450724D01*
X105564122Y-65960968D01*
X105373028Y-65499627D01*
X105095603Y-65084432D01*
X104742508Y-64731337D01*
X104327313Y-64453912D01*
X103865972Y-64262818D01*
X103376216Y-64165400D01*
X102876864Y-64165400D01*
X102387108Y-64262818D01*
X101925767Y-64453912D01*
X101510572Y-64731337D01*
X101269400Y-64972509D01*
X101269400Y-50648291D01*
X101510572Y-50889463D01*
X101925767Y-51166888D01*
X102387108Y-51357982D01*
X102876864Y-51455400D01*
X103376216Y-51455400D01*
X103865972Y-51357982D01*
X104327313Y-51166888D01*
X104742508Y-50889463D01*
X105095603Y-50536368D01*
X105373028Y-50121173D01*
X105560228Y-49669233D01*
X105560228Y-49923120D01*
X105560228Y-49923120D01*
G37*
X105560228Y-49923120D02*
X105572488Y-50047602D01*
X105608798Y-50167300D01*
X105667763Y-50277614D01*
X105747115Y-50374305D01*
X105843806Y-50453657D01*
X105954120Y-50512622D01*
X106022987Y-50533513D01*
X105993166Y-50557986D01*
X105807594Y-50784106D01*
X105669701Y-51042086D01*
X105584787Y-51322009D01*
X105556115Y-51613120D01*
X105584787Y-51904231D01*
X105669701Y-52184154D01*
X105807594Y-52442134D01*
X105993166Y-52668254D01*
X106219286Y-52853826D01*
X106274091Y-52883120D01*
X106219286Y-52912414D01*
X105993166Y-53097986D01*
X105807594Y-53324106D01*
X105669701Y-53582086D01*
X105584787Y-53862009D01*
X105556115Y-54153120D01*
X105584787Y-54444231D01*
X105669701Y-54724154D01*
X105807594Y-54982134D01*
X105993166Y-55208254D01*
X106219286Y-55393826D01*
X106274091Y-55423120D01*
X106219286Y-55452414D01*
X105993166Y-55637986D01*
X105807594Y-55864106D01*
X105669701Y-56122086D01*
X105584787Y-56402009D01*
X105556115Y-56693120D01*
X105584787Y-56984231D01*
X105669701Y-57264154D01*
X105807594Y-57522134D01*
X105993166Y-57748254D01*
X106219286Y-57933826D01*
X106274091Y-57963120D01*
X106219286Y-57992414D01*
X105993166Y-58177986D01*
X105807594Y-58404106D01*
X105669701Y-58662086D01*
X105584787Y-58942009D01*
X105556115Y-59233120D01*
X105584787Y-59524231D01*
X105669701Y-59804154D01*
X105807594Y-60062134D01*
X105993166Y-60288254D01*
X106219286Y-60473826D01*
X106274091Y-60503120D01*
X106219286Y-60532414D01*
X105993166Y-60717986D01*
X105807594Y-60944106D01*
X105669701Y-61202086D01*
X105584787Y-61482009D01*
X105556115Y-61773120D01*
X105584787Y-62064231D01*
X105669701Y-62344154D01*
X105807594Y-62602134D01*
X105993166Y-62828254D01*
X106219286Y-63013826D01*
X106274091Y-63043120D01*
X106219286Y-63072414D01*
X105993166Y-63257986D01*
X105807594Y-63484106D01*
X105669701Y-63742086D01*
X105584787Y-64022009D01*
X105556115Y-64313120D01*
X105584787Y-64604231D01*
X105669701Y-64884154D01*
X105807594Y-65142134D01*
X105993166Y-65368254D01*
X106219286Y-65553826D01*
X106477266Y-65691719D01*
X106757189Y-65776633D01*
X106975350Y-65798120D01*
X107121250Y-65798120D01*
X107339411Y-65776633D01*
X107619334Y-65691719D01*
X107877314Y-65553826D01*
X108103434Y-65368254D01*
X108289006Y-65142134D01*
X108426899Y-64884154D01*
X108511813Y-64604231D01*
X108540485Y-64313120D01*
X108511813Y-64022009D01*
X108473034Y-63894173D01*
X109434999Y-62932209D01*
X109434999Y-63914433D01*
X109430698Y-63958101D01*
X109435000Y-64001778D01*
X109434999Y-65754367D01*
X109435000Y-65754377D01*
X109434999Y-66485400D01*
X109401050Y-66485400D01*
X109182889Y-66506887D01*
X108902966Y-66591801D01*
X108644986Y-66729694D01*
X108418866Y-66915266D01*
X108394393Y-66945087D01*
X108373502Y-66876220D01*
X108314537Y-66765906D01*
X108235185Y-66669215D01*
X108138494Y-66589863D01*
X108028180Y-66530898D01*
X107908482Y-66494588D01*
X107784000Y-66482328D01*
X106084000Y-66482328D01*
X105959518Y-66494588D01*
X105839820Y-66530898D01*
X105729506Y-66589863D01*
X105661540Y-66645641D01*
X105661540Y-66450724D01*
X105564122Y-65960968D01*
X105373028Y-65499627D01*
X105095603Y-65084432D01*
X104742508Y-64731337D01*
X104327313Y-64453912D01*
X103865972Y-64262818D01*
X103376216Y-64165400D01*
X102876864Y-64165400D01*
X102387108Y-64262818D01*
X101925767Y-64453912D01*
X101510572Y-64731337D01*
X101269400Y-64972509D01*
X101269400Y-50648291D01*
X101510572Y-50889463D01*
X101925767Y-51166888D01*
X102387108Y-51357982D01*
X102876864Y-51455400D01*
X103376216Y-51455400D01*
X103865972Y-51357982D01*
X104327313Y-51166888D01*
X104742508Y-50889463D01*
X105095603Y-50536368D01*
X105373028Y-50121173D01*
X105560228Y-49669233D01*
X105560228Y-49923120D01*
G36*
X134315200Y-60579000D02*
G01*
X134335200Y-60579000D01*
X134335200Y-60833000D01*
X134315200Y-60833000D01*
X134315200Y-61849000D01*
X134335200Y-61849000D01*
X134335200Y-62103000D01*
X134315200Y-62103000D01*
X134315200Y-62731650D01*
X134473950Y-62890400D01*
X135177251Y-62893470D01*
X135301762Y-62881512D01*
X135421548Y-62845493D01*
X135451812Y-62829411D01*
X135451812Y-64728753D01*
X135448371Y-64763689D01*
X135462103Y-64903108D01*
X135502770Y-65037170D01*
X135568621Y-65160368D01*
X135568810Y-65160722D01*
X135657685Y-65269016D01*
X135684821Y-65291286D01*
X135758745Y-65365210D01*
X115982480Y-65365210D01*
X115964708Y-65275862D01*
X115891949Y-65100206D01*
X115786320Y-64942121D01*
X115691300Y-64847101D01*
X125153841Y-64847101D01*
X125197501Y-64851401D01*
X125241161Y-64847101D01*
X125241168Y-64847101D01*
X125371775Y-64834237D01*
X125539352Y-64783404D01*
X125693792Y-64700854D01*
X125829160Y-64589760D01*
X125845928Y-64569329D01*
X125866359Y-64552561D01*
X125977453Y-64417193D01*
X126060003Y-64262753D01*
X126110836Y-64095176D01*
X126123700Y-63964569D01*
X126123700Y-63964563D01*
X126128000Y-63920903D01*
X126123700Y-63877243D01*
X126123700Y-62563293D01*
X126175518Y-62579012D01*
X126300000Y-62591272D01*
X126714250Y-62588200D01*
X126873000Y-62429450D01*
X126873000Y-61592700D01*
X126853000Y-61592700D01*
X126853000Y-61338700D01*
X126873000Y-61338700D01*
X126873000Y-61318700D01*
X127127000Y-61318700D01*
X127127000Y-61338700D01*
X127147000Y-61338700D01*
X127147000Y-61592700D01*
X127127000Y-61592700D01*
X127127000Y-62429450D01*
X127285750Y-62588200D01*
X127700000Y-62591272D01*
X127728132Y-62588501D01*
X127740325Y-62611180D01*
X127819911Y-62707679D01*
X127916795Y-62786796D01*
X128027252Y-62845493D01*
X128147038Y-62881512D01*
X128271549Y-62893470D01*
X128974850Y-62890400D01*
X129133600Y-62731650D01*
X129133600Y-62103000D01*
X129387600Y-62103000D01*
X129387600Y-62731650D01*
X129546350Y-62890400D01*
X130249651Y-62893470D01*
X130374162Y-62881512D01*
X130493948Y-62845493D01*
X130604405Y-62786796D01*
X130701289Y-62707679D01*
X130780875Y-62611180D01*
X130840107Y-62501010D01*
X130876708Y-62381400D01*
X130886200Y-62261750D01*
X132562600Y-62261750D01*
X132572092Y-62381400D01*
X132608693Y-62501010D01*
X132667925Y-62611180D01*
X132747511Y-62707679D01*
X132844395Y-62786796D01*
X132954852Y-62845493D01*
X133074638Y-62881512D01*
X133199149Y-62893470D01*
X133902450Y-62890400D01*
X134061200Y-62731650D01*
X134061200Y-62103000D01*
X132721350Y-62103000D01*
X132562600Y-62261750D01*
X130886200Y-62261750D01*
X130727450Y-62103000D01*
X129387600Y-62103000D01*
X129133600Y-62103000D01*
X129113600Y-62103000D01*
X129113600Y-61972801D01*
X131074599Y-61972801D01*
X131109525Y-61976241D01*
X131144451Y-61972801D01*
X131144461Y-61972801D01*
X131248945Y-61962510D01*
X131383006Y-61921843D01*
X131506558Y-61855803D01*
X131614852Y-61766928D01*
X131637127Y-61739786D01*
X132562600Y-60814314D01*
X132562600Y-60833002D01*
X132721348Y-60833002D01*
X132562600Y-60991750D01*
X132572092Y-61111400D01*
X132608693Y-61231010D01*
X132667828Y-61341000D01*
X132608693Y-61450990D01*
X132572092Y-61570600D01*
X132562600Y-61690250D01*
X132721350Y-61849000D01*
X134061200Y-61849000D01*
X134061200Y-60833000D01*
X134041200Y-60833000D01*
X134041200Y-60579000D01*
X134061200Y-60579000D01*
X134061200Y-60559000D01*
X134315200Y-60559000D01*
X134315200Y-60579000D01*
X134315200Y-60579000D01*
G37*
X134315200Y-60579000D02*
X134335200Y-60579000D01*
X134335200Y-60833000D01*
X134315200Y-60833000D01*
X134315200Y-61849000D01*
X134335200Y-61849000D01*
X134335200Y-62103000D01*
X134315200Y-62103000D01*
X134315200Y-62731650D01*
X134473950Y-62890400D01*
X135177251Y-62893470D01*
X135301762Y-62881512D01*
X135421548Y-62845493D01*
X135451812Y-62829411D01*
X135451812Y-64728753D01*
X135448371Y-64763689D01*
X135462103Y-64903108D01*
X135502770Y-65037170D01*
X135568621Y-65160368D01*
X135568810Y-65160722D01*
X135657685Y-65269016D01*
X135684821Y-65291286D01*
X135758745Y-65365210D01*
X115982480Y-65365210D01*
X115964708Y-65275862D01*
X115891949Y-65100206D01*
X115786320Y-64942121D01*
X115691300Y-64847101D01*
X125153841Y-64847101D01*
X125197501Y-64851401D01*
X125241161Y-64847101D01*
X125241168Y-64847101D01*
X125371775Y-64834237D01*
X125539352Y-64783404D01*
X125693792Y-64700854D01*
X125829160Y-64589760D01*
X125845928Y-64569329D01*
X125866359Y-64552561D01*
X125977453Y-64417193D01*
X126060003Y-64262753D01*
X126110836Y-64095176D01*
X126123700Y-63964569D01*
X126123700Y-63964563D01*
X126128000Y-63920903D01*
X126123700Y-63877243D01*
X126123700Y-62563293D01*
X126175518Y-62579012D01*
X126300000Y-62591272D01*
X126714250Y-62588200D01*
X126873000Y-62429450D01*
X126873000Y-61592700D01*
X126853000Y-61592700D01*
X126853000Y-61338700D01*
X126873000Y-61338700D01*
X126873000Y-61318700D01*
X127127000Y-61318700D01*
X127127000Y-61338700D01*
X127147000Y-61338700D01*
X127147000Y-61592700D01*
X127127000Y-61592700D01*
X127127000Y-62429450D01*
X127285750Y-62588200D01*
X127700000Y-62591272D01*
X127728132Y-62588501D01*
X127740325Y-62611180D01*
X127819911Y-62707679D01*
X127916795Y-62786796D01*
X128027252Y-62845493D01*
X128147038Y-62881512D01*
X128271549Y-62893470D01*
X128974850Y-62890400D01*
X129133600Y-62731650D01*
X129133600Y-62103000D01*
X129387600Y-62103000D01*
X129387600Y-62731650D01*
X129546350Y-62890400D01*
X130249651Y-62893470D01*
X130374162Y-62881512D01*
X130493948Y-62845493D01*
X130604405Y-62786796D01*
X130701289Y-62707679D01*
X130780875Y-62611180D01*
X130840107Y-62501010D01*
X130876708Y-62381400D01*
X130886200Y-62261750D01*
X132562600Y-62261750D01*
X132572092Y-62381400D01*
X132608693Y-62501010D01*
X132667925Y-62611180D01*
X132747511Y-62707679D01*
X132844395Y-62786796D01*
X132954852Y-62845493D01*
X133074638Y-62881512D01*
X133199149Y-62893470D01*
X133902450Y-62890400D01*
X134061200Y-62731650D01*
X134061200Y-62103000D01*
X132721350Y-62103000D01*
X132562600Y-62261750D01*
X130886200Y-62261750D01*
X130727450Y-62103000D01*
X129387600Y-62103000D01*
X129133600Y-62103000D01*
X129113600Y-62103000D01*
X129113600Y-61972801D01*
X131074599Y-61972801D01*
X131109525Y-61976241D01*
X131144451Y-61972801D01*
X131144461Y-61972801D01*
X131248945Y-61962510D01*
X131383006Y-61921843D01*
X131506558Y-61855803D01*
X131614852Y-61766928D01*
X131637127Y-61739786D01*
X132562600Y-60814314D01*
X132562600Y-60833002D01*
X132721348Y-60833002D01*
X132562600Y-60991750D01*
X132572092Y-61111400D01*
X132608693Y-61231010D01*
X132667828Y-61341000D01*
X132608693Y-61450990D01*
X132572092Y-61570600D01*
X132562600Y-61690250D01*
X132721350Y-61849000D01*
X134061200Y-61849000D01*
X134061200Y-60833000D01*
X134041200Y-60833000D01*
X134041200Y-60579000D01*
X134061200Y-60579000D01*
X134061200Y-60559000D01*
X134315200Y-60559000D01*
X134315200Y-60579000D01*
G36*
X111377966Y-62309774D02*
G01*
X111604086Y-62495346D01*
X111862066Y-62633239D01*
X112141989Y-62718153D01*
X112360150Y-62739640D01*
X112506050Y-62739640D01*
X112724211Y-62718153D01*
X113004134Y-62633239D01*
X113063974Y-62601254D01*
X113089051Y-62661794D01*
X113194680Y-62819879D01*
X113329121Y-62954320D01*
X113487206Y-63059949D01*
X113509301Y-63069101D01*
X111212999Y-63069101D01*
X111212999Y-62108761D01*
X111377966Y-62309774D01*
X111377966Y-62309774D01*
G37*
X111377966Y-62309774D02*
X111604086Y-62495346D01*
X111862066Y-62633239D01*
X112141989Y-62718153D01*
X112360150Y-62739640D01*
X112506050Y-62739640D01*
X112724211Y-62718153D01*
X113004134Y-62633239D01*
X113063974Y-62601254D01*
X113089051Y-62661794D01*
X113194680Y-62819879D01*
X113329121Y-62954320D01*
X113487206Y-63059949D01*
X113509301Y-63069101D01*
X111212999Y-63069101D01*
X111212999Y-62108761D01*
X111377966Y-62309774D01*
G36*
X119770987Y-60045758D02*
G01*
X119865436Y-60096242D01*
X119999497Y-60136909D01*
X120103981Y-60147200D01*
X120103998Y-60147200D01*
X120138916Y-60150639D01*
X120173834Y-60147200D01*
X121590560Y-60147200D01*
X121572393Y-60180990D01*
X121535792Y-60300600D01*
X121526300Y-60420250D01*
X121685050Y-60579000D01*
X123024900Y-60579000D01*
X123024900Y-60559000D01*
X123278900Y-60559000D01*
X123278900Y-60579000D01*
X123298900Y-60579000D01*
X123298900Y-60833000D01*
X123278900Y-60833000D01*
X123278900Y-61849000D01*
X123298900Y-61849000D01*
X123298900Y-62103000D01*
X123278900Y-62103000D01*
X123278900Y-62731650D01*
X123437650Y-62890400D01*
X124140951Y-62893470D01*
X124265462Y-62881512D01*
X124345701Y-62857385D01*
X124345701Y-63069101D01*
X115441039Y-63069101D01*
X115493794Y-63047249D01*
X115651879Y-62941620D01*
X115786320Y-62807179D01*
X115891949Y-62649094D01*
X115964708Y-62473438D01*
X116001800Y-62286964D01*
X116001800Y-62261750D01*
X116598700Y-62261750D01*
X116608192Y-62381400D01*
X116644793Y-62501010D01*
X116704025Y-62611180D01*
X116783611Y-62707679D01*
X116880495Y-62786796D01*
X116990952Y-62845493D01*
X117110738Y-62881512D01*
X117235249Y-62893470D01*
X117938550Y-62890400D01*
X118097300Y-62731650D01*
X118097300Y-62103000D01*
X118351300Y-62103000D01*
X118351300Y-62731650D01*
X118510050Y-62890400D01*
X119213351Y-62893470D01*
X119337862Y-62881512D01*
X119457648Y-62845493D01*
X119568105Y-62786796D01*
X119664989Y-62707679D01*
X119744575Y-62611180D01*
X119803807Y-62501010D01*
X119840408Y-62381400D01*
X119849900Y-62261750D01*
X121526300Y-62261750D01*
X121535792Y-62381400D01*
X121572393Y-62501010D01*
X121631625Y-62611180D01*
X121711211Y-62707679D01*
X121808095Y-62786796D01*
X121918552Y-62845493D01*
X122038338Y-62881512D01*
X122162849Y-62893470D01*
X122866150Y-62890400D01*
X123024900Y-62731650D01*
X123024900Y-62103000D01*
X121685050Y-62103000D01*
X121526300Y-62261750D01*
X119849900Y-62261750D01*
X119691150Y-62103000D01*
X118351300Y-62103000D01*
X118097300Y-62103000D01*
X116757450Y-62103000D01*
X116598700Y-62261750D01*
X116001800Y-62261750D01*
X116001800Y-62232487D01*
X116603410Y-61630878D01*
X116598700Y-61690250D01*
X116757450Y-61849000D01*
X118097300Y-61849000D01*
X118097300Y-61829000D01*
X118351300Y-61829000D01*
X118351300Y-61849000D01*
X119691150Y-61849000D01*
X119849900Y-61690250D01*
X119840408Y-61570600D01*
X119803807Y-61450990D01*
X119744615Y-61340895D01*
X119745437Y-61339894D01*
X119804402Y-61229580D01*
X119840712Y-61109882D01*
X119852346Y-60991750D01*
X121526300Y-60991750D01*
X121535792Y-61111400D01*
X121572393Y-61231010D01*
X121631528Y-61341000D01*
X121572393Y-61450990D01*
X121535792Y-61570600D01*
X121526300Y-61690250D01*
X121685050Y-61849000D01*
X123024900Y-61849000D01*
X123024900Y-60833000D01*
X121685050Y-60833000D01*
X121526300Y-60991750D01*
X119852346Y-60991750D01*
X119852972Y-60985400D01*
X119852972Y-60426600D01*
X119840712Y-60302118D01*
X119804402Y-60182420D01*
X119745437Y-60072106D01*
X119744529Y-60071000D01*
X119745437Y-60069894D01*
X119761149Y-60040500D01*
X119770987Y-60045758D01*
X119770987Y-60045758D01*
G37*
X119770987Y-60045758D02*
X119865436Y-60096242D01*
X119999497Y-60136909D01*
X120103981Y-60147200D01*
X120103998Y-60147200D01*
X120138916Y-60150639D01*
X120173834Y-60147200D01*
X121590560Y-60147200D01*
X121572393Y-60180990D01*
X121535792Y-60300600D01*
X121526300Y-60420250D01*
X121685050Y-60579000D01*
X123024900Y-60579000D01*
X123024900Y-60559000D01*
X123278900Y-60559000D01*
X123278900Y-60579000D01*
X123298900Y-60579000D01*
X123298900Y-60833000D01*
X123278900Y-60833000D01*
X123278900Y-61849000D01*
X123298900Y-61849000D01*
X123298900Y-62103000D01*
X123278900Y-62103000D01*
X123278900Y-62731650D01*
X123437650Y-62890400D01*
X124140951Y-62893470D01*
X124265462Y-62881512D01*
X124345701Y-62857385D01*
X124345701Y-63069101D01*
X115441039Y-63069101D01*
X115493794Y-63047249D01*
X115651879Y-62941620D01*
X115786320Y-62807179D01*
X115891949Y-62649094D01*
X115964708Y-62473438D01*
X116001800Y-62286964D01*
X116001800Y-62261750D01*
X116598700Y-62261750D01*
X116608192Y-62381400D01*
X116644793Y-62501010D01*
X116704025Y-62611180D01*
X116783611Y-62707679D01*
X116880495Y-62786796D01*
X116990952Y-62845493D01*
X117110738Y-62881512D01*
X117235249Y-62893470D01*
X117938550Y-62890400D01*
X118097300Y-62731650D01*
X118097300Y-62103000D01*
X118351300Y-62103000D01*
X118351300Y-62731650D01*
X118510050Y-62890400D01*
X119213351Y-62893470D01*
X119337862Y-62881512D01*
X119457648Y-62845493D01*
X119568105Y-62786796D01*
X119664989Y-62707679D01*
X119744575Y-62611180D01*
X119803807Y-62501010D01*
X119840408Y-62381400D01*
X119849900Y-62261750D01*
X121526300Y-62261750D01*
X121535792Y-62381400D01*
X121572393Y-62501010D01*
X121631625Y-62611180D01*
X121711211Y-62707679D01*
X121808095Y-62786796D01*
X121918552Y-62845493D01*
X122038338Y-62881512D01*
X122162849Y-62893470D01*
X122866150Y-62890400D01*
X123024900Y-62731650D01*
X123024900Y-62103000D01*
X121685050Y-62103000D01*
X121526300Y-62261750D01*
X119849900Y-62261750D01*
X119691150Y-62103000D01*
X118351300Y-62103000D01*
X118097300Y-62103000D01*
X116757450Y-62103000D01*
X116598700Y-62261750D01*
X116001800Y-62261750D01*
X116001800Y-62232487D01*
X116603410Y-61630878D01*
X116598700Y-61690250D01*
X116757450Y-61849000D01*
X118097300Y-61849000D01*
X118097300Y-61829000D01*
X118351300Y-61829000D01*
X118351300Y-61849000D01*
X119691150Y-61849000D01*
X119849900Y-61690250D01*
X119840408Y-61570600D01*
X119803807Y-61450990D01*
X119744615Y-61340895D01*
X119745437Y-61339894D01*
X119804402Y-61229580D01*
X119840712Y-61109882D01*
X119852346Y-60991750D01*
X121526300Y-60991750D01*
X121535792Y-61111400D01*
X121572393Y-61231010D01*
X121631528Y-61341000D01*
X121572393Y-61450990D01*
X121535792Y-61570600D01*
X121526300Y-61690250D01*
X121685050Y-61849000D01*
X123024900Y-61849000D01*
X123024900Y-60833000D01*
X121685050Y-60833000D01*
X121526300Y-60991750D01*
X119852346Y-60991750D01*
X119852972Y-60985400D01*
X119852972Y-60426600D01*
X119840712Y-60302118D01*
X119804402Y-60182420D01*
X119745437Y-60072106D01*
X119744529Y-60071000D01*
X119745437Y-60069894D01*
X119761149Y-60040500D01*
X119770987Y-60045758D01*
G36*
X127574173Y-53266473D02*
G01*
X127551903Y-53293609D01*
X126619712Y-54225801D01*
X126556911Y-54225801D01*
X126576129Y-54202384D01*
X127536915Y-53241599D01*
X127604482Y-53241599D01*
X127574173Y-53266473D01*
X127574173Y-53266473D01*
G37*
X127574173Y-53266473D02*
X127551903Y-53293609D01*
X126619712Y-54225801D01*
X126556911Y-54225801D01*
X126576129Y-54202384D01*
X127536915Y-53241599D01*
X127604482Y-53241599D01*
X127574173Y-53266473D01*
G36*
X121535488Y-52682118D02*
G01*
X121523228Y-52806600D01*
X121523228Y-53012999D01*
X119849900Y-53012999D01*
X119849900Y-52958998D01*
X119691152Y-52958998D01*
X119849900Y-52800250D01*
X119840408Y-52680600D01*
X119817822Y-52606790D01*
X121558339Y-52606790D01*
X121535488Y-52682118D01*
X121535488Y-52682118D01*
G37*
X121535488Y-52682118D02*
X121523228Y-52806600D01*
X121523228Y-53012999D01*
X119849900Y-53012999D01*
X119849900Y-52958998D01*
X119691152Y-52958998D01*
X119849900Y-52800250D01*
X119840408Y-52680600D01*
X119817822Y-52606790D01*
X121558339Y-52606790D01*
X121535488Y-52682118D01*
G36*
X118351300Y-52959000D02*
G01*
X118371300Y-52959000D01*
X118371300Y-53012999D01*
X118077300Y-53012999D01*
X118077300Y-52959000D01*
X118097300Y-52959000D01*
X118097300Y-52939000D01*
X118351300Y-52939000D01*
X118351300Y-52959000D01*
X118351300Y-52959000D01*
G37*
X118351300Y-52959000D02*
X118371300Y-52959000D01*
X118371300Y-53012999D01*
X118077300Y-53012999D01*
X118077300Y-52959000D01*
X118097300Y-52959000D01*
X118097300Y-52939000D01*
X118351300Y-52939000D01*
X118351300Y-52959000D01*
G36*
X115605928Y-48361920D02*
G01*
X108536372Y-48361920D01*
X108536372Y-48223120D01*
X108524112Y-48098638D01*
X108487802Y-47978940D01*
X108428837Y-47868626D01*
X108349485Y-47771935D01*
X108252794Y-47692583D01*
X108142480Y-47633618D01*
X108022782Y-47597308D01*
X107898300Y-47585048D01*
X106198300Y-47585048D01*
X106073818Y-47597308D01*
X105954120Y-47633618D01*
X105843806Y-47692583D01*
X105747115Y-47771935D01*
X105667763Y-47868626D01*
X105608798Y-47978940D01*
X105572488Y-48098638D01*
X105564294Y-48181834D01*
X105564122Y-48180968D01*
X105373028Y-47719627D01*
X105095603Y-47304432D01*
X104844271Y-47053100D01*
X115605928Y-47053100D01*
X115605928Y-48361920D01*
X115605928Y-48361920D01*
G37*
X115605928Y-48361920D02*
X108536372Y-48361920D01*
X108536372Y-48223120D01*
X108524112Y-48098638D01*
X108487802Y-47978940D01*
X108428837Y-47868626D01*
X108349485Y-47771935D01*
X108252794Y-47692583D01*
X108142480Y-47633618D01*
X108022782Y-47597308D01*
X107898300Y-47585048D01*
X106198300Y-47585048D01*
X106073818Y-47597308D01*
X105954120Y-47633618D01*
X105843806Y-47692583D01*
X105747115Y-47771935D01*
X105667763Y-47868626D01*
X105608798Y-47978940D01*
X105572488Y-48098638D01*
X105564294Y-48181834D01*
X105564122Y-48180968D01*
X105373028Y-47719627D01*
X105095603Y-47304432D01*
X104844271Y-47053100D01*
X115605928Y-47053100D01*
X115605928Y-48361920D01*
M02*
